<?xml version="1.0" encoding="UTF-8"?>
<!DOCTYPE svg PUBLIC "-//W3C//DTD SVG 1.1//EN" "http://www.w3.org/Graphics/SVG/1.1/DTD/svg11.dtd">
<!-- Creator: CorelDRAW 2018 (64-Bit) -->
<svg xmlns="http://www.w3.org/2000/svg" xml:space="preserve" width="170px" height="159px" version="1.1" style="shape-rendering:geometricPrecision; text-rendering:geometricPrecision; image-rendering:optimizeQuality; fill-rule:evenodd; clip-rule:evenodd"
viewBox="0 0 17000 15899.9"
 xmlns:xlink="http://www.w3.org/1999/xlink">
 <defs>
  <style type="text/css">
   <![CDATA[
    .fil1 {fill:#666666}
    .fil0 {fill:#666666;fill-rule:nonzero}
   ]]>
  </style>
 </defs>
 <g id="Layer_x0020_1">
  <metadata id="CorelCorpID_0Corel-Layer"/>
  <g id="_2394824170544">
   <g>
    <path class="fil0" d="M8395.3 8238l-121.3 -91.4 136.5 40.8 4.4 67.9 4.4 67.9 4.4 67.9 4.4 67.9 4.4 68 4.4 67.9 4.5 67.9 4.4 67.9 4.4 68 4.4 67.9 4.4 67.9 4.4 67.9 4.5 68 4.4 67.9 4.4 67.9 4.4 67.9 4.4 67.9 4.4 67.9 4.4 68 4.5 67.9 4.4 67.9 4.4 68 4.4 67.9 4.4 67.9 4.4 67.9 4.4 68 4.4 67.9 4.4 67.9 4.5 67.9 4.4 67.9 4.4 67.9 4.4 68 -151.6 9.8 -4.4 -67.9 -4.4 -67.9 -4.4 -67.9 -4.5 -67.9 -4.4 -68 -4.4 -67.9 -4.4 -67.9 -4.4 -67.9 -4.4 -68 -4.4 -67.9 -4.4 -67.9 -4.4 -67.9 -4.5 -68 -4.4 -67.9 -4.4 -67.9 -4.4 -67.9 -4.4 -67.9 -4.4 -68 -4.4 -67.9 -4.5 -67.9 -4.4 -67.9 -4.4 -68 -4.4 -67.9 -4.4 -67.9 -4.4 -67.9 -4.5 -68 -4.4 -67.9 -4.4 -67.9 -4.4 -67.9 -4.4 -67.9 -4.4 -68 -4.4 -67.9 136.4 40.8zm-121.3 -91.4l123.2 -163.7 13.3 204.5 -136.5 -40.8zm-240.2 319.3l240.2 -319.3 121.3 91.4 -240.1 319.2 -135.3 -59.8 13.9 -31.5zm-13.9 31.5l3.3 -17.4 10.6 -14.1 -13.9 31.5zm-386.6 2042.6l386.6 -2042.6 149.2 28.3 -386.6 2042.6 -103 56.3 -46.2 -84.6zm46.2 84.6l-57.8 -23.2 11.6 -61.4 46.2 84.6zm302.8 121.8l-302.8 -121.8 56.7 -140.9 302.7 121.7 0 0 -56.6 141zm417.8 -375.7l151.6 -9.8 0 0 1.3 30.4 0.2 29.7 -1.2 29 -2.4 28.1 -3.7 27.4 -5.1 26.6 -6.4 25.7 -7.9 24.8 -9.3 24 -10.8 23 -12.3 21.9 -13.8 20.8 -15.4 19.5 -16.9 18.1 -18.4 16.7 -19.6 14.9 -20.9 13.4 -22.2 11.6 -23.1 9.7 -24 7.9 -24.8 6.1 -25.6 4.2 -26.1 2.6 -26.8 0.8 -27.3 -0.9 -27.9 -2.4 -28.5 -4.1 -28.9 -5.7 -29.6 -7.3 -30.1 -8.8 -30.7 -10.3 -31.2 -11.9 56.6 -141 26 10 25 8.4 23.9 7 22.8 5.6 21.7 4.2 20.6 3 19.5 1.7 18.2 0.6 17.1 -0.5 15.9 -1.5 14.8 -2.5 13.6 -3.4 12.7 -4.1 11.6 -4.9 10.8 -5.6 10 -6.4 9.4 -7.2 8.8 -8 8.2 -8.8 7.7 -9.8 7.4 -11 6.7 -12.1 6.3 -13.2 5.6 -14.6 5 -15.8 4.3 -17.1 3.5 -18.4 2.7 -19.5 1.7 -20.9 0.9 -22.1 -0.1 -23.3 -1.1 -24.5 0 0z"/>
   </g>
   <path class="fil0" d="M2580.3 11876.1c-878.5,-575.7 -1358.8,-1533.7 -1337.1,-2801.7 55.6,-3244.1 3297.6,-6352.1 5798.5,-7332.7 -2551.6,1161.9 -5553.9,4137.2 -5580.4,7437.8 -18.9,1102 465.7,1877.2 1266.2,2348 -56.9,119.5 -105.5,235.5 -147.2,348.6zm3544.7 171c3417.9,-375.6 6992.3,-2914.4 9250.5,-6261 -2275.2,3868.8 -6207.3,6301.4 -9471.1,6668.5 88.7,-141 160.6,-276.4 220.6,-407.5z"/>
   <path class="fil0" d="M16142.2 705.6c2161.2,1885.5 -268.1,5978.2 -1734.4,7743.3 -2631.2,3167.5 -6416.6,5661.3 -10186,5437.4 293.5,-135.2 579,-289.1 850.6,-499.1 4282.7,-134.7 8363.4,-3512.1 10375.4,-6730.3 1186,-1897.1 1862.4,-4364.6 354.9,-5560.7 -1690.6,-1341.5 -4002,1037.4 -4029.6,1002.1 -151.5,-193.5 2496.3,-3026.8 4369.1,-1392.7zm-13838.5 12778c-1495.4,-618.8 -2334.4,-1925.2 -2302.8,-3769.1 67.7,-3955.2 4020.5,-7744.5 7069.6,-8940.1 -3111,1416.6 -6771.4,5044.2 -6803.8,9068.2 -26.9,1572.7 786.9,2599.3 2075.1,3124.1 -17.2,176.3 -27.3,347.7 -38.1,516.9z"/>
   <g>
    <path class="fil0" d="M3206.9 10860.3l-124.7 -86.8 0 0 40 -56 40.9 -54.4 41.7 -52.6 42.4 -51.1 43.3 -49.7 44 -48.3 44.8 -47.1 45.6 -46.1 46.4 -45 47.1 -44.1 47.9 -43.5 48.6 -42.8 49.4 -42.3 50.2 -41.9 50.9 -41.6 51.7 -41.4 52.5 -41.5 53.2 -41.5 54.1 -41.7 54.8 -42.1 55.6 -42.5 56.5 -43.1 57.2 -43.8 58.1 -44.6 58.9 -45.6 59.7 -46.6 60.6 -47.7 61.5 -49.1 62.4 -50.5 63.2 -52 64.2 -53.7 65 -55.5 99.1 115.1 -66.1 56.4 -65.2 54.6 -64.2 52.8 -63.2 51.2 -62.3 49.6 -61.2 48.4 -60.4 47 -59.3 45.9 -58.4 44.8 -57.4 44 -56.5 43.1 -55.4 42.4 -54.6 41.8 -53.5 41.4 -52.6 41 -51.7 40.8 -50.7 40.7 -49.8 40.7 -48.8 40.7 -47.9 41 -47 41.4 -46.1 41.8 -45.2 42.4 -44.4 43.1 -43.5 43.9 -42.6 44.8 -41.8 45.8 -41 47.1 -40.1 48.3 -39.4 49.8 -38.6 51.4 -37.9 53 0 0zm-1440.2 4369.9l109.4 105.4 -119.3 -92.7 78.5 -133.9 68.4 -131.4 59.4 -129.4 51 -127.6 43.3 -126.2 36.6 -125.1 30.4 -124.2 25.1 -123.8 20.4 -123.5 16.5 -123.6 13.5 -123.9 10.9 -124.5 9.2 -125.3 8.3 -126.5 8 -127.7 8.7 -129.3 9.8 -131.1 12 -133 14.8 -135.2 18.5 -137.6 22.8 -140.2 28 -142.9 34 -146 40.6 -149 48.2 -152.4 56.3 -155.9 65.3 -159.6 75.1 -163.6 85.4 -167.5 96.7 -171.9 108.5 -176.4 121.2 -181.2 124.7 86.8 -118.1 176.5 -105.5 171.4 -93.6 166.6 -82.7 162 -72.4 157.8 -62.9 153.7 -54.2 150 -46.3 146.6 -39.1 143.4 -32.7 140.5 -27 138 -22.1 135.6 -17.9 133.7 -14.4 131.9 -11.8 130.5 -9.8 129.3 -8.5 128.3 -8 127.7 -8.3 127.2 -9.4 127.1 -11.2 127 -13.7 127.4 -17.2 127.8 -21.3 128.6 -26.2 129.3 -32 130.5 -38.4 131.7 -45.8 133.1 -53.7 134.6 -62.5 136.3 -72 138.2 -82.3 140.3 -119.2 -92.7zm109.4 105.4l-494.4 512.8 375.1 -605.5 119.3 92.7zm3695.7 -2546.4l118.5 95.1 0 0 -105.2 125.3 -107.4 116.4 -109.3 108.1 -111.2 100.4 -112.9 93.1 -114.4 86.4 -116 80.4 -117.1 74.9 -118.4 69.9 -119.3 65.5 -120.2 61.9 -121.1 58.7 -121.6 56.1 -122.2 54.1 -122.8 52.8 -123 51.9 -123.3 51.8 -123.5 52.1 -123.6 53.1 -123.6 54.6 -123.5 56.7 -123.4 59.4 -123.1 62.7 -122.9 66.4 -122.5 70.9 -122.1 75.7 -121.6 81.4 -121.1 87.5 -120.5 94.2 -119.9 101.5 -119.1 109.4 -118.4 118 -109.4 -105.4 122.7 -122.3 123.7 -113.6 124.5 -105.4 125.1 -97.8 125.6 -90.8 126.1 -84.3 126.3 -78.4 126.4 -73.2 126.5 -68.4 126.3 -64.2 126.1 -60.7 125.8 -57.8 125.3 -55.3 124.8 -53.6 124.1 -52.4 123.3 -51.7 122.4 -51.8 121.5 -52.2 120.4 -53.3 119.3 -55.1 118.1 -57.2 116.8 -60 115.4 -63.5 114 -67.4 112.6 -71.8 110.9 -77 109.4 -82.6 107.8 -88.9 106.2 -95.8 104.3 -103.2 102.6 -111.2 100.8 -120.1 0 0zm873.5 -1874.9l117.6 -96.2 13.9 70 -16.7 56.5 -16.3 56.6 -15.9 56.6 -15.6 56.7 -15.4 56.9 -15.5 57.1 -15.5 57.3 -15.8 57.6 -16.1 57.9 -16.6 58.2 -17.1 58.6 -17.9 58.9 -18.6 59.5 -19.7 59.9 -20.7 60.3 -21.9 60.9 -23.2 61.4 -24.7 62 -26.2 62.6 -27.9 63.2 -29.7 63.9 -31.7 64.5 -33.6 65.3 -35.9 66 -38.1 66.7 -40.5 67.5 -43 68.4 -45.6 69.2 -48.4 70.1 -51.2 71 -54.2 71.9 -57.3 73 -118.5 -95.1 55.5 -70.5 52.3 -69.5 49.3 -68.4 46.6 -67.5 43.9 -66.5 41.2 -65.6 38.8 -64.7 36.5 -64 34.3 -63.1 32.2 -62.4 30.3 -61.8 28.5 -61.1 26.7 -60.5 25.1 -60 23.7 -59.6 22.3 -59 21.1 -58.6 20 -58.4 19.1 -58 18.1 -57.8 17.4 -57.5 16.8 -57.3 16.3 -57.3 15.9 -57.1 15.6 -57.1 15.5 -57.2 15.5 -57.1 15.5 -57.1 15.8 -57.4 16.1 -57.4 16.5 -57.6 17.2 -57.9 13.9 70.1zm117.6 -96.2l25.6 31.3 -11.7 38.7 -13.9 -70zm-211.4 -258.2l211.4 258.2 -117.6 96.2 -211.3 -258.2 104.4 -108.8 13.1 12.6zm-13.1 -12.6l7.3 5.4 5.8 7.2 -13.1 -12.6zm-1258.4 -946.8l1258.4 946.8 -91.3 121.3 -1258.5 -946.7 -15.9 -16.3 107.3 -105.1zm-91.4 121.4l-9.2 -6.9 -6.7 -9.4 15.9 16.3zm-122.8 -424.6l230.1 319.5 -123.2 88.8 -230.2 -319.5 12.1 -102 111.2 13.2zm-111.2 -13.2l62.8 -54 48.4 67.2 -111.2 -13.2z"/>
   </g>
   <g>
    <path class="fil0" d="M4407.2 10630.8l-123.9 -87.8 0 0 22.2 -30.8 22.5 -30.1 22.6 -29.4 22.9 -28.7 23.1 -28.2 23.4 -27.5 23.6 -27.1 23.8 -26.5 24 -26.2 24.4 -25.7 24.5 -25.4 24.9 -25 25.1 -24.8 25.3 -24.6 25.6 -24.3 25.9 -24.3 26.1 -24.1 26.5 -24.1 26.7 -24 27.1 -24.1 27.3 -24.2 27.7 -24.2 28 -24.5 28.2 -24.6 28.7 -25 28.9 -25.2 29.4 -25.6 29.7 -25.9 30.1 -26.4 30.4 -26.8 30.9 -27.4 31.2 -27.9 101.5 113 -31.7 28.3 -31.3 27.7 -30.7 27.2 -30.4 26.6 -29.9 26.1 -29.4 25.7 -29.1 25.2 -28.5 24.9 -28.2 24.5 -27.8 24.3 -27.3 24 -26.9 23.8 -26.5 23.6 -26.2 23.6 -25.7 23.4 -25.4 23.4 -25.1 23.4 -24.6 23.5 -24.3 23.5 -24 23.7 -23.7 23.9 -23.3 24.1 -23 24.3 -22.7 24.7 -22.5 25 -22.2 25.5 -21.9 25.8 -21.6 26.4 -21.4 26.9 -21.3 27.5 -20.9 28.1 -20.8 28.8 0 0zm-1167.8 2618.7l112.3 102.2 -119.8 -92.5 52.3 -83.8 46.7 -81.7 41.5 -79.7 36.9 -78 32.7 -76.6 28.9 -75.3 25.5 -74.5 22.6 -73.7 20.1 -73.3 18.1 -73.2 16.4 -73.1 15.1 -73.4 14.2 -73.9 13.9 -74.5 13.8 -75.5 14.3 -76.4 15.2 -77.8 16.4 -79.1 18.2 -80.6 20.3 -82.5 22.9 -84.3 26 -86.3 29.4 -88.5 33.4 -90.8 37.6 -93.3 42.4 -96 47.5 -98.7 53 -101.7 59.1 -104.8 65.4 -108.2 72.2 -111.7 79.4 -115.3 123.9 87.8 -77 111.9 -69.8 107.9 -63 104.1 -56.7 100.8 -50.8 97.3 -45.3 94.3 -40.4 91.4 -35.8 88.8 -31.7 86.4 -28 84.2 -24.8 82.3 -21.9 80.6 -19.5 79.1 -17.6 78 -16 76.9 -14.8 76.2 -14.1 75.7 -13.9 75.4 -14 75.2 -14.5 75.3 -15.6 75.6 -17 76 -18.9 76.6 -21.2 77.5 -24.1 78.3 -27.2 79.3 -30.9 80.6 -34.9 81.8 -39.4 83.4 -44.3 85 -49.6 86.6 -55.3 88.7 -119.8 -92.5zm112.3 102.2l-630.9 694 511.1 -786.5 119.8 92.5zm2133.8 -1813.5l119.2 94.1 0 0 -66.7 81.5 -67.2 76.5 -67.7 71.8 -68.1 67.3 -68.5 63.3 -69 59.4 -69.2 56 -69.5 52.8 -69.9 50 -70 47.5 -70.2 45.4 -70.3 43.5 -70.5 42 -70.5 40.9 -70.7 40.1 -70.7 39.6 -70.8 39.5 -70.9 39.7 -70.9 40.2 -70.9 41 -71 42.2 -71.1 43.8 -71.2 45.6 -71.3 47.8 -71.4 50.4 -71.5 53.1 -71.7 56.4 -71.9 60 -72.1 63.8 -72.3 68 -72.5 72.7 -72.8 77.6 -112.3 -102.2 75.9 -81 75.9 -76 75.7 -71.2 75.5 -66.9 75.2 -62.8 75.1 -59 74.7 -55.6 74.5 -52.4 74 -49.7 73.7 -47.2 73.2 -45.1 72.8 -43.3 72.4 -41.9 71.8 -40.7 71.3 -39.9 70.8 -39.5 70.2 -39.3 69.7 -39.5 69.1 -40.1 68.6 -40.9 68.1 -42.1 67.5 -43.6 67 -45.5 66.5 -47.6 66 -50.2 65.6 -53 65.1 -56.2 64.8 -59.7 64.4 -63.6 64 -67.9 63.6 -72.5 63.4 -77.4 0 0zm591.1 -997.8l91.3 -121.4 25.6 87 -11.4 30.9 -11.3 30.9 -11.3 31.1 -11.4 31.1 -11.5 31.3 -11.6 31.6 -11.9 31.6 -12.1 32 -12.5 32.1 -12.8 32.4 -13.2 32.7 -13.6 33 -14.2 33.2 -14.8 33.6 -15.3 33.9 -16 34.3 -16.7 34.7 -17.4 35 -18.2 35.4 -19.1 35.9 -20 36.3 -20.9 36.7 -22 37.3 -22.9 37.7 -24.1 38.2 -25.1 38.8 -26.4 39.2 -27.5 39.9 -28.9 40.5 -30.2 41.1 -31.5 41.6 -33 42.3 -119.2 -94.1 31.7 -40.7 30.3 -40 28.9 -39.3 27.6 -38.7 26.3 -38.1 25.1 -37.4 24 -36.9 22.8 -36.3 21.9 -35.8 20.7 -35.4 19.9 -34.8 18.9 -34.4 18.1 -34 17.3 -33.6 16.5 -33.3 15.9 -32.9 15.2 -32.6 14.6 -32.3 14.1 -32 13.5 -31.9 13.2 -31.6 12.7 -31.5 12.4 -31.4 12.1 -31.2 11.8 -31.1 11.6 -31.1 11.5 -31.1 11.4 -31 11.3 -31 11.4 -31.1 11.4 -31.1 11.4 -31.2 25.6 87zm91.3 -121.4l45.2 34 -19.6 53 -25.6 -87zm-947.5 -712.8l947.5 712.8 -91.3 121.4 -947.5 -712.8 -5.1 -117.2 96.4 -4.2zm-96.4 4.2l46.5 -41.8 49.9 37.6 -96.4 4.2z"/>
   </g>
   <path class="fil1" d="M9091 2846.3c14.9,391.1 167.1,572.8 390.9,645.4l-4542.4 6037.9 -428.7 -595.1c1526.8,-2029.4 3053.5,-4058.8 4580.2,-6088.2zm620 855.9c192.7,475.9 548.2,751.4 1078.8,809.5l-4553.9 6053.4 -1201.6 -903.9 123.9 92.9 4552.8 -6051.9zm1347 968.2c141.7,205.6 363,324.6 725,201.2l-4008 5327.5 294.6 -1556.3 2988.4 -3972.4z"/>
   <path class="fil1" d="M10352.2 2461.8l1277.4 -389.5c108.2,-33 195.2,37.2 193.4,156l-20 1324.9c-597.2,-154.7 -1115.5,-541.1 -1450.8,-1091.4z"/>
   <g>
    <path class="fil0" d="M6452.1 6480.4l-121.4 -91.3 81 118.9 -96.3 26.6 -96.3 26.6 -96.3 26.6 -96.2 26.6 -96.3 26.7 -96.3 26.6 -96.2 26.6 -96.3 26.7 -96.3 26.6 -96.3 26.6 -96.3 26.7 -96.2 26.6 -96.3 26.6 -96.3 26.6 -96.3 26.7 -96.2 26.6 -96.3 26.6 -96.3 26.6 -96.2 26.7 -96.3 26.6 -96.3 26.6 -96.3 26.7 -96.2 26.6 -96.3 26.6 -96.3 26.6 -96.2 26.7 -96.3 26.6 -96.3 26.6 -96.3 26.7 -96.2 26.6 -96.3 26.6 -96.3 26.7 -40.4 -146.4 96.2 -26.7 96.3 -26.6 96.3 -26.6 96.2 -26.6 96.3 -26.7 96.3 -26.6 96.2 -26.6 96.3 -26.7 96.3 -26.6 96.3 -26.6 96.2 -26.7 96.3 -26.6 96.3 -26.6 96.2 -26.6 96.3 -26.7 96.3 -26.6 96.3 -26.6 96.2 -26.6 96.3 -26.7 96.3 -26.6 96.3 -26.6 96.2 -26.7 96.3 -26.6 96.3 -26.6 96.3 -26.7 96.2 -26.6 96.3 -26.6 96.3 -26.6 96.3 -26.6 96.2 -26.7 96.3 -26.6 96.3 -26.6 80.9 118.8zm-80.9 -118.8l215.1 -59.5 -134.2 178.3 -80.9 -118.8zm-1921 2527.2l1880.5 -2499.7 121.4 91.3 -1880.6 2499.7 -106.3 15.1 -15 -106.4zm121.3 91.3l-45.6 60.7 -60.7 -45.6 106.3 -15.1zm-1460.8 -1003.9l91.4 -121.4 0 0 42.3 31.9 42.3 31.8 42.3 31.9 42.4 31.8 42.3 31.9 42.3 31.8 42.4 31.8 42.2 31.9 42.4 31.8 42.3 31.9 42.4 31.8 42.3 31.8 42.3 31.9 42.3 31.8 42.4 31.9 42.3 31.8 42.3 31.8 42.3 31.9 42.4 31.8 42.3 31.9 42.3 31.8 42.3 31.9 42.3 31.8 42.4 31.9 42.3 31.8 42.3 31.8 42.4 31.9 42.3 31.8 42.3 31.8 42.4 31.9 42.3 31.8 42.3 31.9 -91.3 121.4 -42.3 -31.9 -42.4 -31.8 -42.2 -31.9 -42.4 -31.8 -42.3 -31.9 -42.3 -31.8 -42.4 -31.8 -42.3 -31.9 -42.3 -31.8 -42.3 -31.9 -42.4 -31.8 -42.3 -31.9 -42.3 -31.8 -42.4 -31.8 -42.3 -31.9 -42.3 -31.8 -42.4 -31.8 -42.2 -31.9 -42.4 -31.8 -42.3 -31.9 -42.4 -31.8 -42.3 -31.9 -42.3 -31.8 -42.3 -31.8 -42.4 -31.9 -42.3 -31.8 -42.3 -31.9 -42.3 -31.8 -42.4 -31.9 -42.3 -31.8 -42.3 -31.9 -42.4 -31.8 0 0zm179.8 -762.5l40.4 146.4 0 0 -36.2 10.6 -34.2 11.3 -32 11.8 -29.8 12.3 -27.5 12.7 -25.2 13.2 -23 13.5 -20.6 13.6 -18.3 13.8 -16 13.7 -13.7 13.7 -11.6 13.6 -9.5 13.2 -7.5 13 -5.8 12.7 -4.2 12.6 -2.7 12.5 -1.3 12.9 0 13.3 1.6 14.2 3.2 15 5.1 15.9 7.1 17 9.3 18 11.6 19 14 19.8 16.5 20.5 19.1 21.2 21.8 21.8 24.3 22.4 27 22.8 29.7 23.1 -91.4 121.4 -34 -26.5 -31.6 -26.8 -29.2 -26.8 -26.8 -26.9 -24.5 -27.2 -22 -27.4 -19.6 -27.7 -17.2 -28.1 -14.6 -28.3 -12 -28.9 -9.3 -29.2 -6.4 -29.5 -3.3 -29.7 -0.2 -29.8 3.1 -29.3 6.2 -28.9 9.3 -28 12.2 -26.9 15 -25.7 17.4 -24.4 19.8 -23.1 21.9 -21.9 24 -20.7 26 -19.6 27.9 -18.4 29.8 -17.5 31.7 -16.5 33.5 -15.5 35.4 -14.6 37.2 -13.8 39.1 -12.9 41 -12 0 0z"/>
   </g>
   <g>
    <path class="fil0" d="M7714.3 10153.5l4008 -5327.6 121.4 91.4 -4008 5327.5 -135.3 -59.8 13.9 -31.5zm121.4 91.3l-195.9 260.4 60.6 -320.2 135.3 59.8zm410.2 -2124.9l-396.3 2093.4 -149.2 -28.3 396.3 -2093.4 13.9 -31.5 135.3 59.8zm-135.3 -59.8l195.9 -260.4 -60.6 320.2 -135.3 -59.8zm-1880.6 2499.7l1880.6 -2499.7 121.4 91.3 -1880.6 2499.7 -119.5 2.5 -1.9 -93.8zm1.9 93.8l-37.7 -46.2 35.8 -47.6 1.9 93.8zm2.1 2.5l-2.1 -2.5 117.6 -96.2 2.1 2.5 -104.5 108.7 -13.1 -12.5zm117.6 -96.2l398.7 487.3 -503.2 -378.6 104.5 -108.7zm-1271.6 -959.4l1258.4 946.8 -91.3 121.3 -1258.5 -946.7 -15.9 -16.3 107.3 -105.1zm-91.4 121.4l-9.2 -6.9 -6.7 -9.4 15.9 16.3zm-416.1 -831.8l523.4 726.7 -123.2 88.8 -523.5 -726.7 0.9 -90.1 122.4 1.3zm-123.3 88.8l-32.7 -45.4 33.6 -44.7 -0.9 90.1zm4619.7 -6205.2l44.2 145.3 38.6 -27 -143.1 190.3 -143.2 190.2 -143.1 190.2 -143.1 190.3 -143.1 190.3 -143.2 190.2 -143.1 190.3 -143.1 190.2 -143.2 190.3 -143.1 190.2 -143.1 190.3 -143.2 190.2 -143.1 190.3 -143.1 190.2 -143.1 190.3 -143.2 190.3 -143.1 190.2 -143.1 190.3 -143.2 190.2 -143.1 190.3 -143.1 190.2 -143.2 190.3 -143.1 190.2 -143.1 190.3 -143.1 190.2 -143.2 190.3 -143.1 190.3 -143.1 190.2 -143.2 190.3 -143.1 190.2 -143.2 190.3 -143.1 190.2 -121.4 -91.3 143.2 -190.3 143.1 -190.2 143.1 -190.3 143.2 -190.2 143.1 -190.3 143.2 -190.2 143.1 -190.3 143.1 -190.2 143.1 -190.3 143.2 -190.3 143.1 -190.2 143.1 -190.3 143.2 -190.2 143.1 -190.3 143.1 -190.2 143.2 -190.3 143.1 -190.2 143.1 -190.3 143.1 -190.3 143.2 -190.2 143.1 -190.2 143.1 -190.3 143.2 -190.2 143.1 -190.3 143.1 -190.3 143.1 -190.2 143.2 -190.3 143.1 -190.2 143.1 -190.3 143.2 -190.2 143.1 -190.3 143.1 -190.2 38.6 -27zm-38.6 27l14.9 -19.8 23.7 -7.2 -38.6 27zm2621.4 -655.8l-2538.6 774.1 -44.2 -145.3 2538.5 -774.1 0 0 44.3 145.3zm247.2 84.6l-151.8 -2.3 0 0 -0.1 -7.5 -0.4 -7 -0.7 -6.7 -0.9 -6.2 -1.3 -5.8 -1.5 -5.6 -1.6 -5 -1.8 -4.7 -2 -4.4 -2.1 -4 -2.3 -3.7 -2.4 -3.4 -2.4 -3.1 -2.4 -2.7 -2.6 -2.6 -2.7 -2.3 -2.8 -2.1 -3 -1.9 -3 -1.7 -3 -1.5 -3.4 -1.3 -3.6 -1.3 -3.6 -0.9 -4 -0.8 -4.2 -0.5 -4.5 -0.3 -4.7 -0.1 -5.2 0.3 -5.3 0.6 -5.6 0.9 -6 1.3 -6.3 1.7 -44.3 -145.3 13.9 -3.8 13.8 -3 14.1 -2.4 13.8 -1.4 13.8 -0.8 13.9 0.2 13.6 0.9 13.5 1.8 13.4 2.6 13.2 3.5 12.7 4.2 12.4 5 12.2 5.9 11.7 6.6 11.1 7.3 10.7 8.1 10.1 8.7 9.5 9.3 9.1 10.1 8.3 10.5 7.6 11 7 11.5 6.3 12 5.6 12.2 5 12.8 4.2 13.1 3.6 13.3 2.8 13.7 2.2 13.9 1.5 14.1 0.8 14.4 0.1 14.6 0 0zm-191.8 2640.9l40 -2643.2 151.8 2.3 -39.9 2643.3 -15.3 44.5 -136.6 -46.9zm151.9 2.4l-0.4 24.7 -14.9 19.8 15.3 -44.5z"/>
   </g>
   <g>
    <path class="fil0" d="M8110.5 8060.3l135.3 59.8 -18.6 98.6 -18.7 98.6 -18.6 98.6 -18.7 98.6 -18.7 98.6 -18.6 98.6 -18.7 98.6 -18.7 98.6 -18.6 98.6 -18.7 98.6 -18.6 98.6 -18.7 98.6 -18.7 98.6 -18.6 98.6 -18.7 98.6 -18.7 98.6 -18.6 98.6 -18.7 98.6 -18.6 98.6 -18.7 98.6 -18.7 98.6 -18.7 98.6 -18.6 98.6 -18.7 98.6 -18.6 98.6 -18.7 98.5 -18.7 98.7 -18.6 98.5 -18.7 98.6 -18.7 98.7 -18.6 98.5 -18.7 98.6 -149.1 -28.7 18.7 -98.5 18.6 -98.6 18.7 -98.6 18.6 -98.6 18.7 -98.6 18.7 -98.6 18.7 -98.6 18.6 -98.6 18.7 -98.6 18.6 -98.6 18.7 -98.6 18.7 -98.6 18.7 -98.6 18.6 -98.6 18.7 -98.6 18.6 -98.6 18.7 -98.6 18.7 -98.6 18.6 -98.6 18.7 -98.6 18.7 -98.6 18.6 -98.6 18.7 -98.6 18.6 -98.6 18.7 -98.6 18.7 -98.6 18.6 -98.6 18.7 -98.6 18.7 -98.6 18.6 -98.6 18.7 -98.6 18.6 -98.6 135.4 59.8 -121.6 -90.9zm0 0l196 -260.5 -60.7 320.3 -135.3 -59.8zm-1759 2590.6l-119.5 2.1 -2.1 -93 1880.6 -2499.7 121.6 90.9 -1880.6 2499.7zm-119.5 2.1l-37.5 -45.9 35.4 -47.1 2.1 93zm804.7 983.2l0 0 -25.2 -30.7 -25.1 -30.7 -25.2 -30.8 -25.1 -30.7 -25.1 -30.7 -25.2 -30.7 -25.1 -30.8 -25.2 -30.7 -25.1 -30.7 -25.2 -30.8 -25.1 -30.7 -25.2 -30.7 -25.1 -30.7 -25.2 -30.8 -25.1 -30.7 -25.2 -30.7 -25.1 -30.7 -25.2 -30.7 -25.1 -30.8 -25.2 -30.7 -25.1 -30.7 -25.1 -30.8 -25.2 -30.7 -25.1 -30.7 -25.1 -30.7 -25.2 -30.8 -25.2 -30.7 -25.1 -30.7 -25.2 -30.7 -25.1 -30.8 -25.2 -30.7 -25.1 -30.7 117.5 -95 25.1 30.7 25.2 30.7 25.1 30.7 25.1 30.8 25.2 30.7 25.1 30.7 25.2 30.7 25.1 30.8 25.2 30.7 25.1 30.7 25.2 30.8 25.1 30.7 25.2 30.7 25.1 30.7 25.1 30.8 25.2 30.7 25.1 30.7 25.2 30.7 25.1 30.7 25.2 30.8 25.1 30.7 25.2 30.7 25.1 30.8 25.2 30.7 25.1 30.7 25.1 30.7 25.2 30.8 25.2 30.7 25.1 30.7 25.2 30.8 25.1 30.7 25.1 30.7 0 0 -117.4 95zm611.9 -361l0 0 -8.3 41.4 -9 39.9 -9.7 38.2 -10.3 36.7 -10.9 35.1 -11.7 33.5 -12.3 31.9 -13.1 30.3 -13.7 28.6 -14.5 27 -15.4 25.5 -16.3 23.7 -17.3 22.1 -18.3 20.3 -19.5 18.6 -20.9 16.5 -22.2 14.4 -23.5 11.9 -24.8 9.2 -25.9 6.2 -26.5 3 -26.8 -0.4 -26.6 -3.5 -26.2 -6.7 -25.6 -9.5 -24.9 -12.1 -24.2 -14.5 -23.6 -16.9 -23.1 -19.1 -22.6 -21.2 -22.2 -23.5 -22 -25.6 117.4 -95 17.3 20.1 16.6 17.6 16.1 15 15.1 12.6 14.3 10.2 13.2 8 12.1 5.8 10.9 4.1 9.8 2.5 8.7 1.2 8.1 0.1 7.7 -0.9 7.8 -1.9 8.2 -3 8.7 -4.5 9.4 -6 9.9 -8 10.5 -9.9 10.9 -12.1 11.1 -14.3 11.2 -16.4 11.3 -18.5 11.1 -20.8 11 -22.8 10.7 -24.8 10.4 -26.9 10 -28.8 9.6 -30.7 9.2 -32.7 8.7 -34.5 8.1 -36.3 7.7 -38.1 0 0 149.1 28.7z"/>
   </g>
  </g>
 </g>
</svg>
