<?xml version="1.0" encoding="UTF-8"?>
<!DOCTYPE svg PUBLIC "-//W3C//DTD SVG 1.1//EN" "http://www.w3.org/Graphics/SVG/1.1/DTD/svg11.dtd">
<!-- Creator: CorelDRAW 2018 (64-Bit) -->
<svg xmlns="http://www.w3.org/2000/svg" xml:space="preserve" width="260px" height="180px" version="1.1" style="shape-rendering:geometricPrecision; text-rendering:geometricPrecision; image-rendering:optimizeQuality; fill-rule:evenodd; clip-rule:evenodd"
viewBox="0 0 26000 18000"
 xmlns:xlink="http://www.w3.org/1999/xlink">
 <defs>
  <style type="text/css">
   <![CDATA[
    .fil1 {fill:#666666}
    .fil0 {fill:#666666;fill-rule:nonzero}
   ]]>
  </style>
 </defs>
 <g id="Layer_x0020_1">
  <metadata id="CorelCorpID_0Corel-Layer"/>
  <g id="_2864795467232">
   <g id="_2394824170544">
    <g>
     <path class="fil0" d="M13055.2 9511.7l-126.4 -95.2 142.2 42.5 4.6 70.8 4.6 70.7 4.5 70.7 4.6 70.8 4.6 70.8 4.5 70.8 4.7 70.7 4.6 70.8 4.5 70.8 4.6 70.7 4.6 70.8 4.5 70.7 4.7 70.9 4.6 70.7 4.6 70.8 4.5 70.7 4.6 70.8 4.6 70.7 4.5 70.8 4.7 70.8 4.6 70.7 4.6 70.9 4.5 70.7 4.6 70.8 4.6 70.7 4.5 70.8 4.6 70.8 4.6 70.7 4.6 70.8 4.6 70.7 4.6 70.8 4.5 70.8 -157.9 10.2 -4.5 -70.8 -4.6 -70.7 -4.6 -70.7 -4.7 -70.8 -4.5 -70.8 -4.6 -70.8 -4.6 -70.7 -4.5 -70.8 -4.6 -70.8 -4.6 -70.7 -4.5 -70.8 -4.6 -70.7 -4.7 -70.9 -4.5 -70.7 -4.6 -70.8 -4.6 -70.7 -4.5 -70.8 -4.6 -70.8 -4.6 -70.7 -4.7 -70.8 -4.5 -70.7 -4.6 -70.9 -4.6 -70.7 -4.5 -70.8 -4.6 -70.7 -4.7 -70.8 -4.6 -70.8 -4.5 -70.7 -4.6 -70.8 -4.6 -70.7 -4.5 -70.8 -4.6 -70.8 142.1 42.5 0 0zm-126.4 -95.2l128.3 -170.5 13.9 213 -142.2 -42.5zm-250.2 332.6l250.2 -332.6 126.3 95.2 -250.1 332.5 -140.9 -62.3 14.4 -32.8 0.1 0zm-14.5 32.8l3.4 -18.1 11 -14.7 -14.4 32.8 0 0zm-402.6 2127.7l402.6 -2127.7 155.5 29.5 -402.8 2127.7 -107.2 58.7 -48.1 -88.2 0 0zm48.1 88.2l-60.2 -24.2 12.1 -64 48.1 88.1 0 0.1zm315.4 126.8l-315.4 -126.9 59 -146.8 315.3 126.8 0 0 -59 146.9 0.1 0zm435.2 -391.3l157.9 -10.2 0 0 1.3 31.6 0.2 31 -1.3 30.2 -2.5 29.2 -3.8 28.6 -5.3 27.7 -6.7 26.7 -8.2 25.9 -9.7 25 -11.3 23.9 -12.8 22.8 -14.3 21.7 -16.1 20.3 -17.6 18.9 -19.1 17.4 -20.5 15.5 -21.7 14 -23.1 12 -24.1 10.2 -25 8.2 -25.8 6.3 -26.7 4.4 -27.2 2.7 -27.9 0.8 -28.4 -0.9 -29.1 -2.5 -29.7 -4.3 -30.1 -5.9 -30.8 -7.6 -31.4 -9.2 -31.9 -10.7 -32.5 -12.4 58.9 -146.9 27.1 10.4 26 8.7 24.9 7.3 23.8 5.9 22.6 4.3 21.4 3.1 20.3 1.8 19 0.6 17.8 -0.5 16.6 -1.5 15.4 -2.6 14.2 -3.6 13.2 -4.2 12.1 -5.2 11.3 -5.8 10.4 -6.6 9.8 -7.6 9.2 -8.3 8.5 -9.2 8.1 -10.2 7.7 -11.4 6.9 -12.6 6.6 -13.8 5.8 -15.2 5.2 -16.4 4.5 -17.8 3.7 -19.2 2.8 -20.3 1.8 -21.8 0.9 -23 -0.1 -24.3 -1.2 -25.5 0 0 0 0.1z"/>
    </g>
    <path class="fil0" d="M6997.9 13301.4c-915.1,-599.7 -1415.4,-1597.6 -1392.8,-2918.5 57.9,-3379.2 3435,-6616.7 6040.1,-7638.2 -2657.9,1210.4 -5785.3,4309.6 -5812.9,7747.7 -19.7,1148 485.1,1955.5 1319,2445.9 -59.3,124.5 -109.9,245.3 -153.4,363.1l0 0zm3692.4 178.1c3560.3,-391.2 7283.6,-3035.8 9635.9,-6521.8 -2370,4029.9 -6466,6563.9 -9865.7,6946.3 92.4,-146.9 167.2,-287.9 229.8,-424.5l0 0z"/>
    <path class="fil0" d="M21124.9 1665.5c2251.2,1964 -279.3,6227.3 -1806.7,8065.9 -2740.8,3299.5 -6684,5897.2 -10610.4,5664 305.7,-140.8 603.1,-301.1 886,-519.9 4461.1,-140.3 8711.9,-3658.4 10807.7,-7010.7 1235.5,-1976.2 1940,-4546.5 369.7,-5792.4 -1761,-1397.4 -4168.7,1080.6 -4197.5,1043.8 -157.8,-201.5 2600.3,-3152.9 4551.1,-1450.7l0.1 0zm-14415.2 13310.4c-1557.7,-644.6 -2431.6,-2005.5 -2398.7,-3926.2 70.5,-4120 4188,-8067.2 7364.2,-9312.6 -3240.6,1475.7 -7053.6,5254.4 -7087.3,9446 -28,1638.3 819.7,2707.7 2161.6,3254.3 -17.9,183.7 -28.5,362.2 -39.7,538.4l-0.1 0.1z"/>
    <g>
     <path class="fil0" d="M7650.6 12243.3l-129.9 -90.5 0 0 41.6 -58.3 42.6 -56.7 43.5 -54.8 44.1 -53.2 45.2 -51.8 45.8 -50.3 46.6 -49 47.6 -48.1 48.3 -46.9 49.1 -45.9 49.8 -45.3 50.7 -44.6 51.4 -44 52.3 -43.7 53 -43.4 53.9 -43.1 54.7 -43.2 55.4 -43.2 56.4 -43.4 57.1 -43.9 57.9 -44.3 58.8 -44.8 59.6 -45.7 60.5 -46.4 61.3 -47.5 62.2 -48.6 63.2 -49.7 64 -51.1 65 -52.6 65.8 -54.2 66.9 -55.9 67.7 -57.8 103.3 119.9 -68.9 58.7 -67.9 56.9 -66.9 55 -65.8 53.3 -64.9 51.7 -63.7 50.4 -63 49 -61.7 47.8 -60.9 46.6 -59.8 45.9 -58.8 44.9 -57.7 44.1 -56.9 43.6 -55.8 43.1 -54.8 42.7 -53.8 42.5 -52.8 42.4 -51.9 42.4 -50.8 42.4 -49.9 42.7 -49 43.1 -48 43.6 -47.1 44.2 -46.3 44.8 -45.3 45.8 -44.4 46.6 -43.5 47.8 -42.7 49 -41.8 50.3 -41 51.9 -40.2 53.6 -39.5 55.2 0 0 0.1 0zm-1500.2 4551.9l113.9 109.9 -124.2 -96.6 81.8 -139.5 71.2 -136.9 61.9 -134.8 53.1 -132.9 45.1 -131.5 38.2 -130.3 31.6 -129.4 26.2 -128.9 21.2 -128.7 17.2 -128.7 14.1 -129.1 11.3 -129.7 9.6 -130.5 8.6 -131.8 8.4 -133 9 -134.7 10.2 -136.6 12.6 -138.5 15.4 -140.8 19.2 -143.4 23.8 -146 29.2 -148.9 35.4 -152 42.3 -155.2 50.2 -158.8 58.6 -162.4 68.1 -166.2 78.2 -170.5 89 -174.5 100.7 -179 113 -183.8 126.3 -188.7 129.9 90.4 -123 183.9 -109.9 178.5 -97.5 173.6 -86.2 168.7 -75.4 164.4 -65.5 160.1 -56.5 156.3 -48.2 152.7 -40.8 149.4 -34 146.3 -28.1 143.7 -23.1 141.3 -18.6 139.2 -15 137.4 -12.3 136 -10.2 134.7 -8.9 133.6 -8.3 133.1 -8.7 132.5 -9.8 132.4 -11.6 132.3 -14.3 132.7 -17.9 133.1 -22.2 134 -27.3 134.7 -33.3 135.9 -40 137.2 -47.7 138.7 -56 140.2 -65.1 141.9 -75 144 -85.8 146.2 -124.1 -96.6 0 -0.1zm113.9 109.9l-515 534.1 390.8 -630.7 124.2 96.6zm3849.7 -2652.6l123.5 99.1 0 0 -109.6 130.5 -111.9 121.3 -113.8 112.6 -115.9 104.5 -117.6 97 -119.1 90 -120.9 83.7 -121.9 78.1 -123.4 72.8 -124.2 68.2 -125.2 64.5 -126.2 61.1 -126.6 58.4 -127.3 56.4 -127.9 55 -128.1 54 -128.5 54 -128.6 54.3 -128.8 55.3 -128.7 56.9 -128.7 59 -128.5 61.9 -128.2 65.3 -128.1 69.2 -127.6 73.9 -127.2 78.8 -126.6 84.8 -126.2 91.2 -125.5 98.1 -124.9 105.7 -124 114 -123.4 122.9 -113.9 -109.8 127.7 -127.4 128.9 -118.3 129.7 -109.8 130.3 -101.9 130.8 -94.6 131.4 -87.8 131.5 -81.7 131.7 -76.2 131.8 -71.3 131.5 -66.9 131.4 -63.2 131 -60.2 130.5 -57.6 130 -55.8 129.3 -54.6 128.4 -53.8 127.5 -54 126.6 -54.4 125.4 -55.5 124.3 -57.4 123 -59.6 121.7 -62.5 120.2 -66.1 118.7 -70.2 117.3 -74.8 115.5 -80.2 114 -86 112.3 -92.6 110.6 -99.9 108.7 -107.5 106.8 -115.8 105 -125.1 0 0 0 0zm909.9 -1953l122.6 -100.2 14.4 72.9 -17.4 58.9 -16.9 59 -16.6 59 -16.3 59 -16 59.3 -16.1 59.4 -16.2 59.7 -16.4 60 -16.8 60.3 -17.3 60.7 -17.8 61 -18.6 61.3 -19.4 62 -20.5 62.4 -21.6 62.8 -22.8 63.4 -24.2 64 -25.7 64.6 -27.3 65.2 -29.1 65.8 -30.9 66.6 -33 67.2 -35 68 -37.4 68.8 -39.7 69.4 -42.2 70.4 -44.8 71.2 -47.5 72.1 -50.5 73 -53.3 74 -56.5 74.9 -59.7 76 -123.4 -99 57.8 -73.5 54.5 -72.4 51.3 -71.2 48.6 -70.3 45.7 -69.3 42.9 -68.3 40.5 -67.4 38 -66.7 35.7 -65.7 33.6 -65 31.6 -64.4 29.7 -63.7 27.7 -63 26.2 -62.5 24.7 -62.1 23.2 -61.5 22 -61 20.8 -60.8 19.9 -60.5 18.8 -60.2 18.1 -59.8 17.6 -59.7 16.9 -59.7 16.6 -59.5 16.3 -59.5 16.1 -59.5 16.2 -59.5 16.1 -59.5 16.5 -59.8 16.7 -59.8 17.2 -60 17.9 -60.3 14.5 73 0 0zm122.6 -100.2l26.6 32.6 -12.2 40.3 -14.5 -72.9 0.1 0zm-220.3 -268.9l220.2 268.9 -122.5 100.2 -220.1 -269 108.7 -113.3 13.7 13.1 0 0.1zm-13.6 -13.2l7.6 5.7 6 7.5 -13.6 -13.1 0 -0.1zm-1310.9 -986.2l1310.9 986.2 -95.2 126.4 -1310.9 -986.2 -16.6 -16.9 111.8 -109.5 0 0zm-95.2 126.4l-9.5 -7.2 -7 -9.8 16.6 17 -0.1 0zm-127.9 -442.2l239.7 332.7 -128.4 92.6 -239.8 -332.8 12.6 -106.3 115.9 13.8 0 0zm-115.8 -13.8l65.4 -56.3 50.5 70 -115.9 -13.7 0 0z"/>
    </g>
    <g>
     <path class="fil0" d="M8900.9 12004.2l-129.1 -91.4 0 0 23.1 -32.1 23.5 -31.4 23.5 -30.6 23.9 -29.9 24 -29.4 24.4 -28.6 24.6 -28.2 24.8 -27.6 25 -27.3 25.4 -26.8 25.5 -26.5 26 -26 26.1 -25.8 26.3 -25.6 26.7 -25.4 27 -25.3 27.2 -25.1 27.6 -25.1 27.8 -25 28.2 -25.1 28.4 -25.2 28.9 -25.2 29.1 -25.5 29.4 -25.7 29.9 -26 30.1 -26.2 30.6 -26.7 31 -27 31.3 -27.5 31.7 -27.9 32.2 -28.5 32.5 -29.1 105.8 117.7 -33.1 29.5 -32.6 28.9 -31.9 28.3 -31.7 27.7 -31.1 27.2 -30.7 26.8 -30.3 26.3 -29.7 25.9 -29.3 25.5 -29 25.3 -28.4 25 -28.1 24.8 -27.6 24.6 -27.3 24.6 -26.7 24.3 -26.5 24.4 -26.1 24.4 -25.7 24.5 -25.3 24.5 -25 24.7 -24.7 24.8 -24.2 25.2 -24 25.3 -23.6 25.7 -23.5 26 -23.1 26.6 -22.8 26.9 -22.5 27.5 -22.3 28.1 -22.2 28.6 -21.8 29.3 -21.6 30 0 0 0 -0.2zm-1216.5 2727.8l117 106.5 -124.8 -96.4 54.5 -87.3 48.6 -85.1 43.3 -83 38.4 -81.3 34.1 -79.8 30.1 -78.4 26.6 -77.6 23.5 -76.8 20.9 -76.3 18.9 -76.3 17.1 -76.1 15.7 -76.5 14.8 -76.9 14.5 -77.6 14.4 -78.7 14.9 -79.6 15.8 -81 17.1 -82.4 19 -84 21.1 -85.9 23.9 -87.8 27.1 -89.9 30.6 -92.2 34.8 -94.6 39.2 -97.2 44.1 -100 49.5 -102.8 55.2 -105.9 61.6 -109.2 68.1 -112.7 75.2 -116.3 82.7 -120.1 129.1 91.4 -80.2 116.6 -72.7 112.4 -65.7 108.4 -59 105 -52.9 101.4 -47.2 98.2 -42.1 95.2 -37.3 92.5 -33 90 -29.2 87.7 -25.8 85.8 -22.8 83.9 -20.4 82.4 -18.3 81.3 -16.7 80.1 -15.4 79.4 -14.7 78.8 -14.5 78.6 -14.5 78.3 -15.1 78.5 -16.3 78.7 -17.7 79.2 -19.7 79.8 -22.1 80.7 -25.1 81.6 -28.4 82.6 -32.2 84 -36.3 85.2 -41 86.9 -46.2 88.5 -51.6 90.2 -57.6 92.4 -124.8 -96.3 -0.1 -0.2zm117 106.5l-657.2 722.9 532.4 -819.3 124.8 96.4zm2222.7 -1889.1l124.2 98 0 0 -69.5 84.9 -70 79.7 -70.5 74.8 -70.9 70.1 -71.4 66 -71.9 61.9 -72.1 58.3 -72.4 55 -72.8 52.1 -72.9 49.5 -73.1 47.3 -73.2 45.3 -73.4 43.7 -73.5 42.6 -73.6 41.8 -73.7 41.3 -73.7 41.1 -73.9 41.3 -73.8 41.9 -73.9 42.7 -74 44 -74 45.7 -74.2 47.5 -74.3 49.8 -74.3 52.5 -74.5 55.3 -74.7 58.7 -74.9 62.6 -75.1 66.4 -75.3 70.9 -75.5 75.7 -75.9 80.8 -116.9 -106.4 79 -84.4 79.1 -79.2 78.8 -74.1 78.7 -69.7 78.3 -65.5 78.3 -61.4 77.8 -57.9 77.6 -54.6 77.1 -51.8 76.7 -49.1 76.3 -47 75.8 -45.1 75.5 -43.7 74.8 -42.4 74.2 -41.6 73.7 -41.1 73.2 -41 72.6 -41.1 71.9 -41.8 71.5 -42.6 70.9 -43.8 70.3 -45.5 69.8 -47.4 69.3 -49.5 68.7 -52.3 68.4 -55.2 67.8 -58.6 67.5 -62.2 67.1 -66.2 66.6 -70.8 66.3 -75.5 66 -80.6 0 0 0 -0.1zm615.8 -1039.4l95.1 -126.4 26.6 90.6 -11.8 32.2 -11.8 32.2 -11.8 32.4 -11.9 32.4 -11.9 32.6 -12.1 32.9 -12.4 32.9 -12.6 33.4 -13.1 33.4 -13.3 33.8 -13.7 34 -14.2 34.4 -14.8 34.6 -15.5 35 -15.9 35.3 -16.7 35.7 -17.4 36.2 -18.1 36.4 -18.9 36.9 -19.9 37.4 -20.9 37.8 -21.7 38.2 -22.9 38.9 -23.9 39.2 -25.1 39.8 -26.2 40.5 -27.5 40.8 -28.6 41.6 -30.2 42.2 -31.4 42.8 -32.8 43.3 -34.4 44.1 -124.2 -98.1 33.1 -42.4 31.6 -41.6 30.1 -41 28.7 -40.3 27.4 -39.7 26.2 -38.9 25 -38.5 23.7 -37.7 22.8 -37.3 21.6 -36.9 20.7 -36.3 19.7 -35.8 18.9 -35.4 18 -35 17.2 -34.7 16.6 -34.3 15.8 -34 15.2 -33.6 14.7 -33.4 14 -33.2 13.8 -32.9 13.2 -32.8 12.9 -32.7 12.6 -32.5 12.3 -32.4 12.1 -32.4 12 -32.4 11.8 -32.3 11.8 -32.3 11.9 -32.4 11.9 -32.4 11.9 -32.5 26.6 90.6 0.1 0zm95.1 -126.4l47.1 35.4 -20.5 55.2 -26.6 -90.6zm-987 -742.5l987 742.5 -95.2 126.4 -986.9 -742.5 -5.4 -122.1 100.5 -4.3zm-100.4 4.4l48.4 -43.6 52 39.2 -100.5 4.4 0.1 0z"/>
    </g>
    <path class="fil1" d="M13779.8 3895.4c15.6,407.4 174.1,596.6 407.3,672.3l-4731.7 6289.4 -446.6 -619.9c1590.5,-2113.9 3180.8,-4227.9 4771,-6341.8zm645.9 891.5c200.7,495.8 571,782.8 1123.7,843.3l-4743.6 6305.6 -1251.7 -941.6 129.1 96.8 4742.5 -6304.1zm1403.1 1008.6c147.6,214.2 378.1,338.1 755.2,209.6l-4175 5549.4 306.9 -1621.1 3112.9 -4137.9z"/>
    <path class="fil1" d="M15093.6 3494.9l1330.6 -405.8c112.7,-34.4 203.4,38.7 201.5,162.5l-20.8 1380.1c-622.1,-161.1 -1162,-563.6 -1511.3,-1136.8z"/>
    <g>
     <path class="fil0" d="M11031 7680.9l-126.4 -95.1 84.3 123.8 -100.3 27.7 -100.3 27.8 -100.3 27.7 -100.2 27.7 -100.3 27.8 -100.3 27.7 -100.2 27.7 -100.4 27.8 -100.3 27.7 -100.3 27.8 -100.3 27.7 -100.2 27.8 -100.3 27.7 -100.3 27.7 -100.3 27.8 -100.2 27.7 -100.4 27.7 -100.3 27.7 -100.2 27.8 -100.3 27.8 -100.3 27.7 -100.3 27.8 -100.2 27.7 -100.3 27.7 -100.3 27.7 -100.2 27.8 -100.4 27.7 -100.3 27.7 -100.3 27.8 -100.2 27.8 -100.3 27.7 -100.3 27.8 -42.1 -152.6 100.2 -27.7 100.3 -27.8 100.3 -27.7 100.2 -27.7 100.3 -27.8 100.4 -27.7 100.2 -27.7 100.3 -27.8 100.3 -27.7 100.3 -27.8 100.2 -27.7 100.3 -27.8 100.3 -27.7 100.2 -27.7 100.3 -27.8 100.4 -27.7 100.3 -27.7 100.2 -27.7 100.3 -27.8 100.3 -27.8 100.3 -27.7 100.2 -27.8 100.3 -27.7 100.3 -27.7 100.4 -27.8 100.2 -27.7 100.3 -27.7 100.3 -27.7 100.3 -27.8 100.2 -27.8 100.3 -27.7 100.3 -27.7 84.3 123.8 0 0zm-84.2 -123.8l224 -61.9 -139.8 185.7 -84.2 -123.7 0 -0.1zm-2001.1 2632.5l1958.9 -2603.8 126.4 95.1 -1959 2603.8 -110.7 15.8 -15.6 -110.9 0 0zm126.3 95.1l-47.5 63.2 -63.2 -47.5 110.7 -15.7 0 0zm-1521.6 -1045.7l95.2 -126.4 0 0 44 33.2 44.1 33.1 44 33.2 44.2 33.1 44.1 33.3 44 33.1 44.2 33.1 44 33.2 44.1 33.1 44.1 33.2 44.2 33.2 44 33.1 44.1 33.2 44 33.1 44.2 33.2 44.1 33.1 44 33.1 44.1 33.3 44.2 33.1 44 33.2 44.1 33.1 44 33.3 44.1 33.1 44.1 33.2 44.1 33.1 44.1 33.1 44.1 33.2 44.1 33.2 44 33.1 44.2 33.2 44.1 33.1 44 33.2 -95.1 126.5 -44 -33.2 -44.2 -33.2 -44 -33.2 -44.2 -33.1 -44 -33.2 -44.1 -33.1 -44.2 -33.1 -44 -33.3 -44.1 -33.1 -44 -33.2 -44.2 -33.1 -44 -33.2 -44.1 -33.2 -44.2 -33.1 -44 -33.2 -44.1 -33.1 -44.2 -33.1 -43.9 -33.2 -44.2 -33.2 -44.1 -33.2 -44.1 -33.1 -44.1 -33.2 -44 -33.1 -44.1 -33.1 -44.2 -33.3 -44 -33.1 -44.1 -33.2 -44 -33.1 -44.2 -33.2 -44.1 -33.2 -44 -33.2 -44.2 -33.1 0 0 0.1 0zm187.3 -794.3l42 152.6 0 0 -37.7 11 -35.6 11.8 -33.3 12.2 -31.1 12.8 -28.6 13.3 -26.3 13.7 -24 14.1 -21.4 14.1 -19.1 14.4 -16.6 14.3 -14.3 14.2 -12.1 14.2 -9.9 13.7 -7.7 13.6 -6.1 13.2 -4.3 13.1 -2.8 13 -1.4 13.5 0 13.8 1.7 14.8 3.3 15.7 5.3 16.5 7.4 17.8 9.7 18.7 12.1 19.8 14.6 20.6 17.2 21.4 19.9 22 22.7 22.8 25.3 23.3 28.1 23.8 31 24 -95.2 126.4 -35.5 -27.6 -32.9 -27.8 -30.4 -28 -27.9 -28 -25.5 -28.3 -23 -28.6 -20.4 -28.8 -17.9 -29.3 -15.2 -29.5 -12.5 -30.1 -9.7 -30.4 -6.7 -30.8 -3.4 -30.9 -0.2 -31 3.2 -30.6 6.5 -30.1 9.7 -29.2 12.7 -28 15.6 -26.8 18.1 -25.4 20.7 -24 22.8 -22.8 25 -21.6 27.1 -20.4 29 -19.2 31 -18.2 33.1 -17.3 34.8 -16.1 36.9 -15.2 38.8 -14.4 40.7 -13.4 42.7 -12.5 0 0 0 0.1z"/>
    </g>
    <g>
     <path class="fil0" d="M12345.8 11507l4175 -5549.5 126.5 95.2 -4175.1 5549.4 -140.9 -62.3 14.5 -32.8 0 0zm126.4 95.1l-204 271.3 63.1 -333.6 140.9 62.3zm427.3 -2213.4l-412.8 2180.6 -155.4 -29.5 412.8 -2180.6 14.5 -32.8 140.9 62.3zm-140.9 -62.3l204 -271.3 -63.1 333.6 -140.9 -62.3zm-1958.9 2603.8l1958.9 -2603.8 126.5 95.1 -1959 2603.9 -124.5 2.5 -1.9 -97.7zm1.9 97.7l-39.2 -48.1 37.3 -49.5 1.9 97.7 0 -0.1zm2.2 2.6l-2.2 -2.6 122.5 -100.1 2.2 2.6 -108.8 113.2 -13.7 -13.1zm122.5 -100.1l415.3 507.6 -524.1 -394.4 108.8 -113.2zm-1324.6 -999.4l1310.9 986.2 -95.2 126.4 -1310.9 -986.2 -16.6 -16.9 111.8 -109.5 0 0zm-95.2 126.4l-9.5 -7.2 -7 -9.8 16.6 17 -0.1 0zm-433.4 -866.4l545.2 756.9 -128.4 92.6 -545.3 -757 1 -93.9 127.5 1.4zm-128.4 92.5l-34.1 -47.3 35 -46.6 -0.9 93.9zm4812.1 -6463.8l46 151.4 40.2 -28.1 -149 198.2 -149.2 198.1 -149.1 198.1 -149 198.2 -149.1 198.3 -149.1 198.1 -149.1 198.2 -149 198.1 -149.2 198.3 -149 198.1 -149.1 198.2 -149.2 198.1 -149 198.2 -149.1 198.1 -149 198.3 -149.2 198.2 -149.1 198.1 -149 198.2 -149.2 198.2 -149 198.2 -149.1 198.1 -149.2 198.2 -149 198.1 -149.1 198.3 -149 198.1 -149.2 198.2 -149.1 198.2 -149 198.1 -149.2 198.2 -149.1 198.1 -149.1 198.3 -149.1 198.1 -126.4 -95.1 149.1 -198.3 149.1 -198.1 149 -198.2 149.2 -198.1 149.1 -198.2 149.1 -198.1 149.1 -198.2 149.1 -198.2 149 -198.2 149.2 -198.2 149 -198.1 149.1 -198.3 149.2 -198.1 149 -198.2 149.1 -198.1 149.2 -198.2 149 -198.1 149.1 -198.3 149 -198.2 149.2 -198.1 149.1 -198.1 149 -198.3 149.1 -198.1 149.1 -198.2 149.1 -198.2 149 -198.1 149.2 -198.3 149 -198.1 149.1 -198.2 149.2 -198.1 149 -198.2 149.1 -198.2 40.2 -28.1 0 0zm-40.2 28.1l15.5 -20.6 24.7 -7.5 -40.2 28.1 0 0zm2730.7 -683.1l-2644.4 806.4 -46 -151.4 2644.2 -806.3 0 0 46.2 151.3zm257.4 88.1l-158.1 -2.4 0 0 -0.1 -7.8 -0.4 -7.2 -0.8 -7 -0.9 -6.5 -1.4 -6 -1.5 -5.8 -1.7 -5.2 -1.9 -4.9 -2.1 -4.6 -2.2 -4.1 -2.4 -3.9 -2.5 -3.5 -2.5 -3.3 -2.5 -2.8 -2.7 -2.7 -2.8 -2.4 -3 -2.2 -3.1 -1.9 -3.1 -1.8 -3.1 -1.6 -3.5 -1.3 -3.8 -1.4 -3.7 -0.9 -4.2 -0.8 -4.4 -0.6 -4.6 -0.3 -4.9 -0.1 -5.5 0.3 -5.5 0.7 -5.8 0.9 -6.2 1.3 -6.6 1.8 -46.2 -151.3 14.5 -4 14.4 -3.1 14.7 -2.5 14.3 -1.5 14.4 -0.8 14.5 0.2 14.2 0.9 14 1.9 14 2.7 13.8 3.7 13.2 4.4 12.9 5.2 12.7 6.1 12.2 6.9 11.6 7.6 11.1 8.4 10.5 9.1 9.9 9.7 9.5 10.5 8.7 10.9 7.9 11.5 7.3 11.9 6.5 12.6 5.9 12.7 5.2 13.3 4.3 13.7 3.8 13.8 2.9 14.3 2.3 14.5 1.6 14.7 0.8 15 0.1 15.2 0 0 0 -0.2zm-199.7 2751l41.6 -2753.4 158.1 2.4 -41.5 2753.5 -16 46.3 -142.3 -48.8 0.1 0zm158.2 2.5l-0.4 25.8 -15.5 20.6 15.9 -46.3 0 -0.1z"/>
    </g>
    <g>
     <path class="fil0" d="M12758.5 9326.6l140.9 62.3 -19.4 102.7 -19.4 102.7 -19.4 102.7 -19.5 102.8 -19.5 102.7 -19.4 102.7 -19.5 102.7 -19.4 102.7 -19.4 102.7 -19.5 102.8 -19.4 102.7 -19.5 102.7 -19.4 102.7 -19.4 102.7 -19.5 102.7 -19.5 102.8 -19.4 102.7 -19.5 102.7 -19.3 102.7 -19.5 102.7 -19.5 102.7 -19.5 102.8 -19.4 102.7 -19.4 102.7 -19.4 102.7 -19.5 102.6 -19.5 102.8 -19.3 102.6 -19.5 102.7 -19.5 102.8 -19.4 102.6 -19.5 102.7 -155.3 -29.9 19.5 -102.6 19.4 -102.7 19.5 -102.7 19.3 -102.7 19.5 -102.7 19.5 -102.7 19.5 -102.8 19.4 -102.7 19.5 -102.7 19.3 -102.7 19.5 -102.7 19.5 -102.7 19.5 -102.8 19.3 -102.7 19.5 -102.7 19.4 -102.7 19.5 -102.7 19.5 -102.7 19.3 -102.8 19.5 -102.7 19.5 -102.7 19.4 -102.7 19.5 -102.7 19.3 -102.7 19.5 -102.8 19.5 -102.7 19.4 -102.7 19.5 -102.7 19.5 -102.7 19.3 -102.7 19.5 -102.8 19.4 -102.7 141 62.3 -126.6 -94.7 0 0.1zm0 0l204.1 -271.3 -63.2 333.6 -140.9 -62.3 0 0zm-1832.3 2698.6l-124.5 2.2 -2.2 -96.9 1959 -2603.9 126.6 94.7 -1958.9 2603.9 0 0zm-124.5 2.1l-39 -47.8 36.9 -49 2.2 96.9 -0.1 -0.1zm838.3 1024.2l0 0 -26.3 -32 -26.1 -31.9 -26.3 -32.1 -26.1 -32 -26.1 -32 -26.3 -31.9 -26.2 -32.1 -26.2 -32 -26.2 -32 -26.2 -32 -26.2 -32 -26.2 -32 -26.2 -31.9 -26.2 -32.1 -26.2 -32 -26.2 -32 -26.2 -31.9 -26.2 -32 -26.2 -32.1 -26.2 -32 -26.2 -31.9 -26.1 -32.1 -26.3 -32 -26.1 -32 -26.1 -31.9 -26.3 -32.1 -26.3 -32 -26.1 -32 -26.3 -31.9 -26.1 -32.1 -26.3 -32 -26.1 -31.9 122.4 -99 26.1 31.9 26.3 32 26.1 32 26.2 32.1 26.2 31.9 26.2 32 26.2 32 26.2 32.1 26.2 31.9 26.2 32 26.2 32.1 26.2 32 26.2 31.9 26.2 32 26.1 32.1 26.3 31.9 26.1 32 26.3 32 26.1 32 26.3 32 26.1 32 26.3 32 26.1 32.1 26.3 31.9 26.1 32 26.2 32 26.2 32.1 26.3 31.9 26.1 32 26.3 32.1 26.1 32 26.2 31.9 0 0 -122.3 99zm637.4 -376l0 0 -8.7 43.1 -9.4 41.6 -10.1 39.8 -10.7 38.2 -11.4 36.6 -12.2 34.8 -12.8 33.3 -13.6 31.5 -14.3 29.9 -15.1 28.1 -16 26.5 -17 24.7 -18 23.1 -19.1 21.1 -20.3 19.4 -21.8 17.2 -23.1 15 -24.5 12.4 -25.8 9.5 -27 6.5 -27.6 3.1 -27.9 -0.4 -27.7 -3.7 -27.3 -7 -26.6 -9.8 -26 -12.6 -25.2 -15.2 -24.5 -17.6 -24.1 -19.8 -23.5 -22.1 -23.2 -24.5 -22.9 -26.7 122.3 -98.9 18.1 20.9 17.2 18.4 16.8 15.6 15.8 13.1 14.8 10.6 13.8 8.4 12.6 6 11.3 4.2 10.2 2.6 9.1 1.3 8.4 0.1 8 -0.9 8.1 -2 8.6 -3.1 9 -4.7 9.8 -6.2 10.3 -8.4 11 -10.3 11.3 -12.6 11.6 -14.9 11.7 -17.1 11.7 -19.2 11.6 -21.7 11.5 -23.7 11.1 -25.9 10.8 -28 10.5 -30 10 -32 9.5 -34 9.1 -36 8.4 -37.7 8 -39.7 0 0 155.4 29.9 0 -0.1z"/>
    </g>
   </g>
  </g>
 </g>
</svg>
