<?xml version="1.0" encoding="UTF-8"?>
<!DOCTYPE svg PUBLIC "-//W3C//DTD SVG 1.1//EN" "http://www.w3.org/Graphics/SVG/1.1/DTD/svg11.dtd">
<!-- Creator: CorelDRAW 2018 (64-Bit) -->
<svg xmlns="http://www.w3.org/2000/svg" xml:space="preserve" width="216px" height="159px" version="1.1" style="shape-rendering:geometricPrecision; text-rendering:geometricPrecision; image-rendering:optimizeQuality; fill-rule:evenodd; clip-rule:evenodd"
viewBox="0 0 21600 15900"
 xmlns:xlink="http://www.w3.org/1999/xlink">
 <defs>
  <style type="text/css">
   <![CDATA[
    .str1 {stroke:#666666;stroke-width:200;stroke-miterlimit:22.9256}
    .str10 {stroke:#666666;stroke-width:200;stroke-miterlimit:22.9256}
    .str2 {stroke:#666666;stroke-width:200;stroke-miterlimit:22.9256}
    .str8 {stroke:#666666;stroke-width:200;stroke-miterlimit:22.9256}
    .str7 {stroke:#666666;stroke-width:200;stroke-miterlimit:22.9256}
    .str11 {stroke:#666666;stroke-width:200;stroke-miterlimit:22.9256}
    .str5 {stroke:#666666;stroke-width:200;stroke-miterlimit:22.9256}
    .str4 {stroke:#666666;stroke-width:200;stroke-miterlimit:22.9256}
    .str6 {stroke:#666666;stroke-width:200;stroke-miterlimit:22.9256}
    .str0 {stroke:#666666;stroke-width:200;stroke-miterlimit:22.9256}
    .str9 {stroke:#666666;stroke-width:200;stroke-miterlimit:22.9256}
    .str3 {stroke:#666666;stroke-width:200;stroke-miterlimit:22.9256}
    .fil0 {fill:none}
    .fil2 {fill:#666666}
    .fil1 {fill:#666666;fill-rule:nonzero}
   ]]>
  </style>
 </defs>
 <g id="Layer_x0020_1">
  <metadata id="CorelCorpID_0Corel-Layer"/>
  <g id="_2394784441184">
   <g>
    <path class="fil0 str0" d="M10804.1 13737.6l-2833.3 -141.9m-1159.2 -58l-2833.2 -141.9m-1159.2 -58.1l-2833.3 -141.9"/>
    <path class="fil0 str1" d="M10804.1 13737.6l-2724 -792.1m-1114.5 -324l-2724 -792.1m-1114.4 -324.1l-2724 -792.1"/>
    <path class="fil0 str2" d="M10804.1 13737.6l-2467.6 -1399.5m-1009.6 -572.5l-2467.5 -1399.6m-1009.6 -572.5l-2467.6 -1399.5"/>
    <path class="fil0 str3" d="M10804.1 13737.6l-2077.9 -1931.3m-850.1 -790.1l-2077.9 -1931.4m-850.1 -790.1l-2077.9 -1931.3"/>
    <path class="fil0 str4" d="M10804.1 13737.6l-1576 -2358.8m-644.7 -965l-1576 -2358.8m-644.7 -965.1l-1576 -2358.8"/>
    <line class="fil0 str5" x1="8017.2" y1="6244.2" x2="7028.3" y2= "3585.3" />
    <line class="fil0 str6" x1="13491" y1="6207.8" x2="14444.4" y2= "3536" />
    <path class="fil0 str7" d="M10804.1 13737.6l1544.4 -2379.5m631.8 -973.6l1544.5 -2379.6m631.8 -973.5l1544.4 -2379.6"/>
    <path class="fil0 str8" d="M10804.1 13737.6l2052 -1958.8m839.5 -801.4l2052 -1958.8m839.5 -801.4l2052 -1958.7"/>
    <path class="fil0 str9" d="M10804.1 13737.6l2448.7 -1432.2m1001.8 -586l2448.8 -1432.2m1001.8 -585.9l2448.8 -1432.2"/>
    <path class="fil0 str10" d="M10804.1 13737.6l2713.2 -828.2m1110 -338.9l2713.2 -828.3m1110.1 -338.8l2713.2 -828.3"/>
    <path class="fil0 str11" d="M10804.1 13737.6l2831.1 -179.6m1158.3 -73.4l2831.1 -179.6m1158.3 -73.5l2831.2 -179.6"/>
   </g>
   <g>
    <polygon class="fil1" points="10729.1,13737.6 10729.1,11028.1 10879.1,11028.1 10879.1,13737.6 "/>
   </g>
   <g>
    <path class="fil1" d="M12368 1749.9l-3127.8 0 0 -149.4 3127.8 0 75 74.7 -75 74.7zm0 -149.4l75 0 0 74.7 -75 -74.7zm-75 4689.5l0 -4614.8 150 0 0 4614.8 -75 74.6 -75 -74.6zm150 0l0 74.6 -75 0 75 -74.6zm-3202.8 -74.7l3127.8 0 0 149.3 -3127.8 0 -75 -74.6 75 -74.7zm0 149.3l-75 0 0 -74.6 75 74.6zm75 -4689.4l0 4614.8 -150 0 0 -4614.8 75 -74.7 75 74.7zm-150 0l0 -74.7 75 0 -75 74.7z"/>
   </g>
   <rect class="fil2" x="9698.9" y="6289.9" width="2210.3" height="1076.8"/>
   <g>
    <path class="fil1" d="M12368 7441.7l-3127.8 0 0 -150 3127.8 0 75.2 75 -75.2 75zm0 -150l75.2 0 0 75 -75.2 -75zm-75.3 1869.6l0 -1794.6 150.5 0 0 1794.6 -75.2 75 -75.3 -75zm150.5 0l0 75 -75.2 0 75.2 -75zm-3203 -74.9l3127.8 0 0 149.9 -3127.8 0 -75.3 -75 75.3 -74.9zm0 149.9l-75.3 0 0 -75 75.3 75zm75.3 -1869.6l0 1794.6 -150.6 0 0 -1794.6 75.3 -75 75.3 75zm-150.6 0l0 -75 75.3 0 -75.3 75z"/>
   </g>
   <rect class="fil2" x="10047.7" y="9161.3" width="1512.6" height="461.5"/>
   <polygon class="fil2" points="10047.7,9810.3 11560.4,9810.3 10983.5,11028.1 10624.6,11028.1 "/>
   <circle class="fil2" cx="10804.1" cy="13737.6" r="487.1"/>
  </g>
 </g>
</svg>
