<?xml version="1.0" encoding="UTF-8"?>
<!DOCTYPE svg PUBLIC "-//W3C//DTD SVG 1.1//EN" "http://www.w3.org/Graphics/SVG/1.1/DTD/svg11.dtd">
<!-- Creator: CorelDRAW 2018 (64-Bit) -->
<svg xmlns="http://www.w3.org/2000/svg" xml:space="preserve" width="247px" height="159px" version="1.1" style="shape-rendering:geometricPrecision; text-rendering:geometricPrecision; image-rendering:optimizeQuality; fill-rule:evenodd; clip-rule:evenodd"
viewBox="0 0 24700 15899.9"
 xmlns:xlink="http://www.w3.org/1999/xlink">
 <defs>
  <style type="text/css">
   <![CDATA[
    .str1 {stroke:#666666;stroke-width:150;stroke-miterlimit:22.9256}
    .str0 {stroke:#666666;stroke-width:150;stroke-miterlimit:22.9256}
    .str2 {stroke:#666666;stroke-width:500;stroke-miterlimit:22.9256}
    .str3 {stroke:#666666;stroke-width:500;stroke-miterlimit:22.9256}
    .fil0 {fill:none}
    .fil1 {fill:#666666}
   ]]>
  </style>
 </defs>
 <g id="Layer_x0020_1">
  <metadata id="CorelCorpID_0Corel-Layer"/>
  <g id="_2394952775152">
   <path class="fil0 str0" d="M5140.1 6497.6c792.3,-594.1 2484.9,-1753.5 2876.3,-2002.3 509.6,-323.9 995,-732 1732.7,-732 737.7,0 1235.3,0 1526.9,0 291.6,0 360.2,73.2 360.2,384.3 0,311.1 0,2159.4 0,2415.5 0,256.2 -120,494.1 -463.2,494.1 -343.1,0 -5648.4,0 -5905.7,0 -675.1,0 -517.5,-266.9 -127.2,-559.6z"/>
   <path class="fil0 str1" d="M219.3 11569c-137.3,-223 -85.8,-154.3 -85.8,-995 0,-840.6 0,-703.4 188.7,-892.1 188.7,-188.7 120.1,-1029.3 1149.4,-1749.8 1029.4,-720.6 5421.1,-3534 6227.4,-3962.9 806.4,-428.9 1286.7,-634.8 2333.2,-634.8 1046.5,0 12656.7,0 13291.5,0 634.7,0 909.2,188.7 909.2,754.9 0,566.1 0,5729.9 0,5729.9l343.1 0 0 1355.2 -411.7 0 0 531.9 -2959.4 0c0,-1269.7 -1029.2,-2298.9 -2298.8,-2298.9 -1269.6,0 -2298.8,1029.2 -2298.8,2298.9l-9500.1 0c0,-1269.7 -1029.2,-2298.9 -2298.8,-2298.9 -1269.7,0 -2298.9,1029.2 -2298.9,2298.9l-2024.3 0 -265.9 -137.3z"/>
   <path class="fil1" d="M10632.7 7578.5l617.6 0c270.6,0 270.6,411.8 0,411.8l-617.6 0c-270.5,0 -270.5,-411.8 0,-411.8z"/>
   <path class="fil1" d="M20894.4 3802c1468.7,1112.1 1882.3,1585.6 2318,2156.8 117.5,-24 235,-48 352.5,-72.1 -788.4,-816.4 -1663.2,-1535.4 -2670.6,-2123.4l-8139.9 0c-213.9,0 -389,175.1 -389,389.1l0 6411.7c24.5,-79.8 98.2,-207.7 152.3,-298.7 441,-743.8 916.4,-1465.3 1333.4,-2222.9 275.1,-500.7 421.2,-916.9 539.8,-1435.7 45.1,-198.5 -78,-175.3 -198.1,-134.7 -187.9,65.5 -355.2,176.8 -537.9,251.3 -97.1,39.5 -141.4,66.8 -206.4,-37.9 -149,-240.3 -239.1,-987.9 -210.1,-1228.4 7.3,-61.7 25.1,-117.4 98,-33.1 112.2,129.7 220,523 365.8,720 724.9,-301.8 705.9,-454.1 1407.2,-493.3 -532.3,-368.2 -128.6,-1300.5 609.9,-1098.8 766.3,209 616.4,1237.1 -53.4,1284 375.5,418.6 1549,203.7 2078.7,223.1l516.5 -614.8 -387.6 -325.6c-87.4,-73.4 -98.8,-205 -25.4,-292.4l145 -172.6c73.5,-87.4 205,-98.9 292.4,-25.4l873.2 733.5c87.4,73.5 98.8,205 25.4,292.4l-145 172.7c-73.4,87.4 -205,98.8 -292.3,25.4l-387.7 -325.6 -461.4 549.3c29.4,6.7 53.7,15.5 71.9,26.9 128.8,81.2 -347.4,270.8 -1100.5,416 -205.5,39.6 -903.8,144.9 -1098.6,392.2 -218.1,276.9 -347.6,1021.1 -372.6,1380.4 -72.9,1046.2 -25.4,2327.5 -97.6,2774 -9.2,56.9 -36.4,231.2 -121.7,130.5 -203.8,-241.2 -433,-1376 -438.8,-1405.6 -85.4,-432 -157.6,-896.4 -158.6,-1338.2 -296.4,470.4 -768,954.3 -1166.8,1334.8 -229.8,219.7 -711.1,662.1 -948.1,796.4 -19.1,10.9 -81.4,46.2 -100.9,32.5l0 123.6c0,213.9 175.1,389 389,389l178.2 0 -125.2 2388.4c-3.3,64.1 46.4,119.3 110.5,122.7l195.2 10.2c64.1,3.4 119.3,-46.3 122.7,-110.4l33.7 -643.9 2104.4 0 33.8 643.9c3.3,64.1 58.5,113.8 122.6,110.4l195.3 -10.2c64,-3.3 113.7,-58.6 110.4,-122.7l-125.2 -2388.4 -305.4 0 -0.8 -0.6c33.4,-98.3 53.1,-230.8 64.3,-373.8 40.1,-513.4 23.6,-1482.3 101,-2315l140.9 2689.4 621.7 0c264.2,-1177.6 1316.3,-2059.4 2573.6,-2059.4 1258.6,0 2310.8,879.9 2573.6,2059.4 121.4,0 1462.4,0 1798,0 213.9,0 388.7,-175.2 389.1,-389l7.9 -4737.8 -1815.2 397.7c-208.8,45.8 -417.8,-87.6 -463.3,-296.6l-501.8 -2300.7zm-6679.4 1973.9l-572.4 0 14.6 -278.3c3.3,-64.1 -46.3,-119.3 -110.4,-122.7l-202.2 -10.3c128.6,130.2 246.9,479.2 371.6,667.7 174.4,-105.2 329.3,-189.4 498.8,-256.4zm-1027.5 488.5l-156.4 2984.4c163.2,-254.7 336.8,-523.2 501.8,-796.7l-30.6 0 47.7 -909.2 471.7 0c63.1,-139.9 120.9,-283 168.5,-428.9l-617.7 0 6 -116c-332.9,35.6 -360.6,-507.7 -391,-733.6zm1555.9 3954.8c-32.9,-143.4 -62.6,-289.1 -88.5,-428.9l-944.8 0c-243,211.6 -503.9,422.4 -738.2,588.7l-39.3 749.4 428.7 0 48.4 -909.2 1333.7 0zm608.1 2247.3l-47.7 -909.2 -1964.2 0 -47.6 909.2 2059.5 0z"/>
   <circle class="fil0 str2" cx="4808.4" cy="11706.2" r="1654"/>
   <circle class="fil0 str3" cx="18906.1" cy="11706.2" r="1654"/>
  </g>
 </g>
</svg>
