<?xml version="1.0" encoding="UTF-8"?>
<!DOCTYPE svg PUBLIC "-//W3C//DTD SVG 1.1//EN" "http://www.w3.org/Graphics/SVG/1.1/DTD/svg11.dtd">
<!-- Creator: CorelDRAW 2018 (64-Bit) -->
<svg xmlns="http://www.w3.org/2000/svg" xml:space="preserve" width="260px" height="180px" version="1.1" style="shape-rendering:geometricPrecision; text-rendering:geometricPrecision; image-rendering:optimizeQuality; fill-rule:evenodd; clip-rule:evenodd"
viewBox="0 0 26000 18000"
 xmlns:xlink="http://www.w3.org/1999/xlink">
 <defs>
  <style type="text/css">
   <![CDATA[
    .str0 {stroke:#666666;stroke-width:156.3;stroke-miterlimit:22.9256}
    .str1 {stroke:#666666;stroke-width:520.8;stroke-miterlimit:22.9256}
    .fil0 {fill:none}
    .fil1 {fill:#666666}
   ]]>
  </style>
 </defs>
 <g id="Layer_x0020_1">
  <metadata id="CorelCorpID_0Corel-Layer"/>
  <g id="_2864948673856">
   <g id="_2394952775152">
    <path class="fil0 str0" d="M5488.7 8972c825.3,-618.8 2588.4,-1826.5 2996.1,-2085.7 530.8,-337.4 1036.4,-762.5 1804.9,-762.5 768.4,0 1286.8,0 1590.5,0 303.7,0 375.2,76.2 375.2,400.3 0,324 0,2249.4 0,2516.1 0,266.9 -125,514.7 -482.5,514.7 -357.4,0 -5883.8,0 -6151.8,0 -703.2,0 -539,-278 -132.5,-582.9l0.1 0z"/>
    <path class="fil0 str0" d="M362.8 14254.7c-143,-232.3 -89.3,-160.7 -89.3,-1036.4 0,-875.7 0,-732.8 196.5,-929.3 196.6,-196.6 125.2,-1072.2 1197.3,-1822.7 1072.3,-750.6 5647,-3681.2 6486.9,-4128 840,-446.8 1340.3,-661.3 2430.4,-661.3 1090.2,0 13184.1,0 13845.4,0 661.1,0 947,196.6 947,786.4 0,589.7 0,5968.6 0,5968.6l357.4 0 0 1411.7 -428.8 0 0 554 -3082.7 0c0,-1322.6 -1072.1,-2394.7 -2394.6,-2394.7 -1322.5,0 -2394.6,1072.1 -2394.6,2394.7l-9895.9 0c0,-1322.6 -1072.1,-2394.7 -2394.6,-2394.7 -1322.6,0 -2394.6,1072.1 -2394.6,2394.7l-2108.7 0 -277 -143 -0.1 0z"/>
    <path class="fil1" d="M11210.1 10098l643.4 0c281.9,0 281.9,429 0,429l-643.4 0c-281.8,0 -281.8,-429 0,-429z"/>
    <path class="fil1" d="M21899.4 6164.1c1529.9,1158.4 1960.8,1651.7 2414.6,2246.7 122.4,-25 244.8,-50 367.2,-75.1 -821.3,-850.5 -1732.5,-1599.4 -2781.9,-2211.9l-8479.1 0c-222.8,0 -405.2,182.4 -405.2,405.3l0 6678.8c25.6,-83.1 102.3,-216.3 158.7,-311.1 459.4,-774.8 954.6,-1526.4 1389,-2315.5 286.6,-521.6 438.7,-955.1 562.3,-1495.5 46.9,-206.8 -81.3,-182.6 -206.4,-140.3 -195.7,68.2 -370,184.1 -560.3,261.7 -101.1,41.2 -147.3,69.6 -215,-39.5 -155.2,-250.3 -249,-1029 -218.8,-1279.5 7.6,-64.3 26.1,-122.3 102,-34.5 116.9,135.1 229.2,544.8 381.1,750 755.1,-314.4 735.3,-473 1465.8,-513.9 -554.5,-383.5 -134,-1354.7 635.3,-1144.5 798.2,217.7 642.1,1288.6 -55.6,1337.5 391.1,436 1613.5,212.2 2165.3,232.4l538 -640.5 -403.7 -339.1c-91.1,-76.5 -103,-213.6 -26.5,-304.6l151 -179.8c76.6,-91 213.6,-103 304.6,-26.5l909.6 764.1c91,76.6 102.9,213.5 26.4,304.6l-151 179.9c-76.5,91 -213.6,102.9 -304.5,26.4l-403.9 -339.2 -480.6 572.2c30.6,7 56,16.2 74.9,28.1 134.2,84.5 -361.9,282.1 -1146.3,433.3 -214.1,41.3 -941.5,151 -1144.4,408.6 -227.2,288.4 -362.1,1063.6 -388.1,1437.9 -75.9,1089.8 -26.4,2424.4 -101.6,2889.5 -9.6,59.3 -38,240.8 -126.8,136 -212.3,-251.3 -451,-1433.4 -457.1,-1464.2 -89,-450 -164.2,-933.8 -165.2,-1394 -308.7,490 -800,994.1 -1215.4,1390.4 -239.4,228.9 -740.8,689.7 -987.6,829.6 -19.9,11.4 -84.8,48.1 -105.2,33.9l0 128.7c0,222.8 182.4,405.2 405.2,405.2l185.7 0 -130.5 2487.9c-3.4,66.8 48.4,124.3 115.2,127.8l203.3 10.7c66.8,3.5 124.3,-48.3 127.8,-115l35.1 -670.8 2192.1 0 35.2 670.8c3.4,66.7 60.9,118.5 127.7,115l203.4 -10.7c66.7,-3.4 118.4,-61 115,-127.8l-130.4 -2487.9 -318.1 0 -0.8 -0.6c34.8,-102.4 55.3,-240.5 66.9,-389.4 41.8,-534.8 24.6,-1544 105.2,-2411.4l146.8 2801.4 647.6 0c275.2,-1226.6 1371.1,-2145.2 2680.8,-2145.2 1311,0 2407.1,916.6 2680.8,2145.2 126.5,0 1523.4,0 1873,0 222.8,0 404.8,-182.5 405.3,-405.2l8.2 -4935.2 -1890.8 414.3c-217.5,47.7 -435.2,-91.3 -482.6,-309l-522.7 -2396.6 0 0.1zm-6957.7 2056.2l-596.3 0 15.2 -289.9c3.5,-66.8 -48.2,-124.3 -115,-127.8l-210.6 -10.8c134,135.7 257.2,499.2 387.1,695.5 181.6,-109.5 343,-197.2 519.6,-267l0 0zm-1070.3 508.8l-162.9 3108.7c170,-265.3 350.8,-545 522.7,-829.8l-31.9 0 49.7 -947.1 491.3 0c65.8,-145.8 126,-294.8 175.5,-446.8l-643.4 0 6.3 -120.8c-346.8,37.1 -375.7,-528.9 -407.3,-764.2zm1620.7 4119.6c-34.3,-149.4 -65.2,-301.1 -92.2,-446.8l-984.2 0c-253.1,220.5 -524.9,440 -769,613.3l-40.9 780.6 446.6 0 50.4 -947.1 1389.3 0 0 0zm633.5 2340.9l-49.7 -947.1 -2046.1 0 -49.5 947.1 2145.3 0 0 0z"/>
    <circle class="fil0 str1" cx="5143.1" cy="14397.6" r="1722.9"/>
    <circle class="fil0 str1" cx="19828.2" cy="14397.6" r="1722.9"/>
   </g>
  </g>
 </g>
</svg>
