<?xml version="1.0" encoding="UTF-8"?>
<!DOCTYPE svg PUBLIC "-//W3C//DTD SVG 1.1//EN" "http://www.w3.org/Graphics/SVG/1.1/DTD/svg11.dtd">
<!-- Creator: CorelDRAW 2018 (64-Bit) -->
<svg xmlns="http://www.w3.org/2000/svg" xml:space="preserve" width="22.0132mm" height="16.9332mm" version="1.1" style="shape-rendering:geometricPrecision; text-rendering:geometricPrecision; image-rendering:optimizeQuality; fill-rule:evenodd; clip-rule:evenodd"
viewBox="0 0 2201.32 1693.32"
 xmlns:xlink="http://www.w3.org/1999/xlink">
 <defs>
  <style type="text/css">
   <![CDATA[
    .str0 {stroke:#666666;stroke-width:16.93;stroke-miterlimit:22.9256}
    .str1 {stroke:#666666;stroke-width:16.93;stroke-miterlimit:22.9256;stroke-dasharray:169.300000 84.650000}
    .fil0 {fill:none}
    .fil1 {fill:#666666}
   ]]>
  </style>
 </defs>
 <g id="Layer_x0020_1">
  <metadata id="CorelCorpID_0Corel-Layer"/>
  <g id="_2259619650512">
   <path class="fil0 str0" d="M42.33 1633.45l0 -1254.08 1817.95 0 0 369.76 -811.67 0c42.2,3.55 111.92,18.35 170.88,48.06 168.69,85.04 424.52,218.94 627.44,309.72 14.19,6.35 12.07,76.15 13.35,133.5l0 393.04 -1817.95 0z"/>
   <path class="fil1" d="M2070.78 982.72c-67.42,30.94 -162.99,27.64 -218.48,12.24 -63.27,-17.57 -128.58,-41.91 -168.13,-97.39 -43.01,-60.34 -33.96,-123.01 -93.6,-131.61l-1013.33 -146.11c50.6,-51.68 202.15,-102.38 273.62,-90.65 278.29,45.68 556.23,92.49 834.1,140.74 89.47,15.54 328.65,39.85 393.52,62.17 121.92,41.96 93.95,203.96 -7.7,250.61zm-615.3 -200.46c-23.01,33.21 -45.97,66.53 -68.92,99.88 -34.88,-17.75 -68.45,-34.89 -100.07,-50.98l51.85 -66.06 117.14 17.16zm351.68 -701.3c70.03,51.62 83.47,131.37 43.71,204.48 -28.43,52.29 -96.25,121.72 -137.05,169.31l-140.07 159.03 -104.26 -17.43 104.79 -131.87c44.14,-55.55 -18.05,-114.38 -26.97,-190.08 -7.03,-59.65 32.81,-134.54 78.81,-170.89 49.05,-38.79 125.53,-63.47 181.04,-22.55zm-90.3 48.7c58.64,-14.22 106.1,36.11 87.4,92.55 -14.11,42.59 -90.19,135.13 -135.48,126.86 -42.27,-7.72 -62.1,-80.58 -37.07,-140.51 21.5,-36.33 39.76,-67.88 85.15,-78.9zm59.74 624.18c64.9,6.73 233.29,19.07 278.59,41.66 51.6,25.74 49.21,93.44 -17.01,121.08 -89.79,37.49 -252,10.12 -309.11,-74.68 -31.87,-47.31 15.06,-91.43 47.53,-88.06z"/>
   <line class="fil0 str1" x1="358.06" y1="749.13" x2="1234.66" y2= "749.13" />
   <path class="fil0 str0" d="M223.22 749.13c0,-63.41 51.4,-114.81 114.81,-114.81 63.41,0 114.81,51.4 114.81,114.81 0,63.41 -51.4,114.82 -114.81,114.82 -63.41,0 -114.81,-51.41 -114.81,-114.82z"/>
   <path class="fil0 str0" d="M171.16 749.13l333.75 0m-166.88 166.88l0 -333.75"/>
   <path class="fil0 str0" d="M1831.42 1106.09c-43.39,10.8 -98.56,73.5 -150.03,119.9 -147.57,-179.95 -270.46,-314.51 -371.8,-383.07 155.14,79.04 351.34,179.69 516.63,254.66 14.92,6.76 19.92,4.86 5.2,8.51z"/>
   <line class="fil0 str1" x1="338.03" y1="1633.46" x2="338.03" y2= "749.14" />
   <g>
    <line class="fil0 str0" x1="463.35" y1="937.78" x2="463.35" y2= "1633.46" />
    <line class="fil0 str0" x1="610.59" y1="937.78" x2="610.59" y2= "1633.46" />
    <line class="fil0 str0" x1="757.83" y1="937.78" x2="757.83" y2= "1633.46" />
    <line class="fil0 str0" x1="1423.52" y1="937.77" x2="463.35" y2= "937.77" />
    <line class="fil0 str0" x1="905.07" y1="937.78" x2="905.07" y2= "1633.46" />
    <line class="fil0 str0" x1="1562.34" y1="1085.01" x2="463.35" y2= "1085.01" />
    <line class="fil0 str0" x1="1052.31" y1="937.78" x2="1052.31" y2= "1633.46" />
    <line class="fil0 str0" x1="1860.12" y1="1232.25" x2="463.35" y2= "1232.25" />
    <line class="fil0 str0" x1="1199.55" y1="937.78" x2="1199.55" y2= "1633.46" />
    <line class="fil0 str0" x1="1860.28" y1="1379.49" x2="463.35" y2= "1379.49" />
    <line class="fil0 str0" x1="1346.8" y1="937.78" x2="1346.8" y2= "1633.46" />
    <line class="fil0 str0" x1="1860.28" y1="1526.73" x2="463.35" y2= "1526.73" />
    <line class="fil0 str0" x1="1494.04" y1="1009.47" x2="1494.04" y2= "1633.46" />
    <line class="fil0 str0" x1="1641.28" y1="1177.48" x2="1641.28" y2= "1633.46" />
    <line class="fil0 str0" x1="1788.52" y1="1128.78" x2="1788.52" y2= "1633.46" />
   </g>
  </g>
 </g>
</svg>
