<?xml version="1.0" encoding="UTF-8"?>
<!DOCTYPE svg PUBLIC "-//W3C//DTD SVG 1.1//EN" "http://www.w3.org/Graphics/SVG/1.1/DTD/svg11.dtd">
<!-- Creator: CorelDRAW 2018 (64-Bit) -->
<svg xmlns="http://www.w3.org/2000/svg" xml:space="preserve" width="260px" height="180px" version="1.1" style="shape-rendering:geometricPrecision; text-rendering:geometricPrecision; image-rendering:optimizeQuality; fill-rule:evenodd; clip-rule:evenodd"
viewBox="0 0 26000 18000"
 xmlns:xlink="http://www.w3.org/1999/xlink">
 <defs>
  <style type="text/css">
   <![CDATA[
    .str0 {stroke:#666666;stroke-width:133.3;stroke-miterlimit:22.9256}
    .str1 {stroke:#666666;stroke-width:133.3;stroke-miterlimit:22.9256;stroke-dasharray:1333.100000 666.500000}
    .fil0 {fill:none}
    .fil1 {fill:#666666}
   ]]>
  </style>
 </defs>
 <g id="Layer_x0020_1">
  <metadata id="CorelCorpID_0Corel-Layer"/>
  <g id="_2864948629344">
   <path class="fil0 str0" d="M4788.2 16008.1l0 -11356.5 16462.7 0 0 3348.4 -7350.2 0c382.1,32.1 1013.4,166.1 1547.3,435.2 1527.6,770.1 3844.4,1982.6 5681.9,2804.7 128.6,57.5 109.4,689.5 121,1208.9l0 3559.3 -16462.7 0z"/>
   <path class="fil1" d="M23157.1 10115.2c-610.6,280.2 -1476,250.3 -1978.5,110.9 -572.9,-159.1 -1164.4,-379.5 -1522.5,-881.9 -389.5,-546.4 -307.5,-1113.9 -847.7,-1191.8l-9176.3 -1323.1c458.2,-468.1 1830.6,-927.2 2477.8,-820.9 2520.1,413.7 5037.1,837.5 7553.3,1274.5 810.2,140.7 2976.1,360.9 3563.6,563 1104,379.9 850.7,1846.9 -69.7,2269.3zm-5572 -1815.2c-208.4,300.7 -416.3,602.5 -624.1,904.5 -315.8,-160.8 -619.8,-316 -906.1,-461.7l469.4 -598.2 1060.8 155.4zm3184.7 -6350.7c634.2,467.4 755.9,1189.6 395.8,1851.7 -257.4,473.5 -871.6,1102.2 -1241,1533.2l-1268.4 1440.1 -944.2 -157.8 948.9 -1194.2c399.7,-503.1 -163.4,-1035.8 -244.2,-1721.3 -63.7,-540.2 297.2,-1218.3 713.6,-1547.5 444.2,-351.3 1136.8,-574.7 1639.5,-204.2zm-817.7 441c531,-128.8 960.8,327 791.5,838.1 -127.8,385.7 -816.8,1223.7 -1226.9,1148.8 -382.8,-69.9 -562.4,-729.7 -335.7,-1272.4 194.7,-329 360,-614.7 771.1,-714.5zm540.9 5652.3c587.8,60.9 2112.7,172.7 2522.8,377.3 467.4,233.1 445.6,846.1 -154,1096.4 -813.1,339.5 -2282,91.6 -2799.2,-676.2 -288.5,-428.4 136.4,-827.9 430.4,-797.5z"/>
   <line class="fil0 str1" x1="7647.3" y1="8000" x2="15585.5" y2= "8000" />
   <path class="fil0 str0" d="M6426.3 8000c0,-574.2 465.5,-1039.7 1039.6,-1039.7 574.2,0 1039.7,465.5 1039.7,1039.7 0,574.2 -465.5,1039.7 -1039.7,1039.7 -574.1,0 -1039.6,-465.5 -1039.6,-1039.7z"/>
   <path class="fil0 str0" d="M5954.8 8000l3022.3 0m-1511.2 1511.2l0 -3022.3"/>
   <path class="fil0 str0" d="M20989.5 11232.5c-393,97.7 -892.5,665.5 -1358.6,1085.8 -1336.4,-1629.6 -2449.2,-2848.2 -3366.9,-3468.9 1404.9,715.7 3181.6,1627.1 4678.3,2306 135.2,61.2 180.4,44 47.2,77.1z"/>
   <line class="fil0 str1" x1="7465.9" y1="16008.1" x2="7465.9" y2= "8000" />
   <g>
    <line class="fil0 str0" x1="8600.8" y1="9708.3" x2="8600.8" y2= "16008.1" />
    <line class="fil0 str0" x1="9934.2" y1="9708.3" x2="9934.2" y2= "16008.1" />
    <line class="fil0 str0" x1="11267.5" y1="9708.3" x2="11267.5" y2= "16008.1" />
    <line class="fil0 str0" x1="17295.7" y1="9708.3" x2="8600.8" y2= "9708.3" />
    <line class="fil0 str0" x1="12600.9" y1="9708.3" x2="12600.9" y2= "16008.1" />
    <line class="fil0 str0" x1="18552.8" y1="11041.6" x2="8600.8" y2= "11041.6" />
    <line class="fil0 str0" x1="13934.2" y1="9708.3" x2="13934.2" y2= "16008.1" />
    <line class="fil0 str0" x1="21249.4" y1="12375" x2="8600.8" y2= "12375" />
    <line class="fil0 str0" x1="15267.6" y1="9708.3" x2="15267.6" y2= "16008.1" />
    <line class="fil0 str0" x1="21250.9" y1="13708.3" x2="8600.8" y2= "13708.3" />
    <line class="fil0 str0" x1="16600.9" y1="9708.3" x2="16600.9" y2= "16008.1" />
    <line class="fil0 str0" x1="21250.9" y1="15041.7" x2="8600.8" y2= "15041.7" />
    <line class="fil0 str0" x1="17934.3" y1="10357.6" x2="17934.3" y2= "16008.1" />
    <line class="fil0 str0" x1="19267.6" y1="11879" x2="19267.6" y2= "16008.1" />
    <line class="fil0 str0" x1="20601" y1="11437.9" x2="20601" y2= "16008.1" />
   </g>
  </g>
 </g>
</svg>
