<?xml version="1.0" encoding="UTF-8"?>
<!DOCTYPE svg PUBLIC "-//W3C//DTD SVG 1.1//EN" "http://www.w3.org/Graphics/SVG/1.1/DTD/svg11.dtd">
<!-- Creator: CorelDRAW 2018 (64-Bit) -->
<svg xmlns="http://www.w3.org/2000/svg" xml:space="preserve" width="260px" height="180px" version="1.1" style="shape-rendering:geometricPrecision; text-rendering:geometricPrecision; image-rendering:optimizeQuality; fill-rule:evenodd; clip-rule:evenodd"
viewBox="0 0 26000 18000"
 xmlns:xlink="http://www.w3.org/1999/xlink">
 <defs>
  <style type="text/css">
   <![CDATA[
    .fil0 {fill:#666666}
    .fil1 {fill:#666666;fill-rule:nonzero}
   ]]>
  </style>
 </defs>
 <g id="Layer_x0020_1">
  <metadata id="CorelCorpID_0Corel-Layer"/>
  <g id="_2864798458416">
   <g id="_2394651478384">
    <g>
     <path class="fil0" d="M9411 5301.9l0.2 0.1c-1102.2,273.9 -1485.9,1372.8 -1243.9,2187.1 278.8,938.1 1275.3,1456.3 2197.8,1163.8 589.5,-186.9 1226.5,-386.8 1885.3,-592l11.1 10.7 -919.1 286.8c611.4,0 1038.5,283 1411.7,729.3l-0.1 0c-243.2,-290.6 -509.3,-511.9 -834.3,-630.8l-2570.9 802.1c-680.9,198.6 -1189.2,801.6 -1247.8,1531.5 -760.3,278.8 -1379.2,505.4 -1653.1,604.1l-0.4 0.2c1042.9,-375.8 1769.8,-1393.5 1724.4,-2560.2 -56.2,-1442 -1270.7,-2565.4 -2712.6,-2509.3 -180.2,7 -355.3,32 -523.9,73.5l0.9 -0.2c879.4,-218.8 3144.2,-769.9 4474.7,-1096.7l0 0zm-3184.2 6161.4c-253,66.8 -509.3,93.9 -761.1,84.2 65.1,2.3 130.8,2.3 197,-0.3 194.6,-7.5 383.3,-36.3 564.1,-83.9zm-786.4 83.2c-10.9,-0.7 -21.8,-1 -32.7,-1.7l32.7 1.7zm-1424 -502.8c-12.3,-8.9 -24.4,-18 -36.5,-27.1 12.1,9.3 24.2,18.2 36.5,27.1zm-39.1 -29.1c-357.8,-271.3 -649.3,-637.6 -831.4,-1079.3 178.1,430.6 467.7,801.9 831.4,1079.3zm-835.5 -1089.2c-5.5,-13.6 -11,-27.3 -16.3,-41 5.3,13.7 10.8,27.4 16.3,41zm-26.5 -67.6c-3.8,-10.2 -7.5,-20.5 -11.3,-30.8 3.8,10.3 7.5,20.6 11.3,30.8zm-23.2 -64.4l-5.2 -14.4 -4.4 -13.8 9.6 28.2zm-14.5 -1671.6c232.6,-742.8 793.4,-1407.2 1720.6,-1685.2 -816,248.4 -1457.6,883.7 -1720.6,1685.2z"/>
     <path id="_1" class="fil1" d="M9361 5352.3l-0.1 -0.2 100.3 -100.4 0.1 0.1 -33 119.1 -67.3 -18.6 0 0zm100.3 -100.6l88.9 88.9 -121.9 30.3 33 -119.1 0 -0.1zm-1226 2217.2l-136 40.4 0 0 -21.8 -80.4 -17.8 -82.1 -14.1 -83.2 -10.2 -84.1 -6.2 -85.1 -2.4 -85.7 1.5 -86 5.6 -86.5 9.4 -86.3 13.5 -86.1 17.3 -85.8 21.4 -85.3 25.4 -84.6 29.5 -83.4 33.6 -82.4 37.6 -80.9 41.7 -79.3 45.9 -77.5 50.2 -75.5 54.1 -73.2 58.5 -70.6 62.6 -68.1 66.9 -65.1 71.2 -62 75.3 -58.7 79.6 -55 83.8 -51.3 88.1 -47.4 92.4 -43 96.5 -38.5 100.7 -34 104.9 -29 34.2 137.7 -97.6 27.1 -93.3 31.4 -89.2 35.7 -85.1 39.7 -81 43.4 -77 47.2 -73 50.5 -69.1 53.7 -65.2 56.9 -61.3 59.7 -57.5 62.3 -53.6 64.9 -49.8 67.3 -46 69.4 -42.3 71.3 -38.5 73 -34.7 74.8 -31 75.9 -27.3 77.1 -23.5 78.2 -19.8 78.9 -16 79.4 -12.5 79.9 -8.7 80 -5.1 79.8 -1.5 79.7 2.2 79.2 5.7 78.5 9.4 77.6 12.9 76.5 16.5 75.4 19.9 73.7 0 0 0.1 -0.1zm2108.3 1116.4l42.9 135.3 0 0 -90.2 26.1 -90.4 21.2 -90.7 16.4 -90.7 11.6 -90.5 7.2 -90.2 2.4 -89.9 -2 -89.1 -6.5 -88.4 -10.8 -87.4 -15 -86.4 -19.2 -85.2 -23.4 -83.8 -27.4 -82.4 -31.5 -80.7 -35.3 -78.8 -39.1 -76.8 -42.9 -74.8 -46.6 -72.6 -50.1 -70.1 -53.7 -67.5 -57.2 -64.8 -60.6 -62 -63.9 -59 -67 -55.8 -70.4 -52.5 -73.3 -48.9 -76.3 -45.4 -79.3 -41.6 -82.1 -37.6 -84.9 -33.7 -87.6 -29.2 -90.2 136 -40.4 27 83.3 31.1 80.7 34.6 78.2 38.4 75.7 41.8 73 45.1 70.4 48.3 67.4 51.4 64.8 54.3 61.8 57.2 58.8 59.7 55.8 62.2 52.6 64.6 49.6 67 46.3 68.9 42.9 70.9 39.5 72.8 36.1 74.4 32.6 75.9 29 77.3 25.3 78.5 21.6 79.7 17.8 80.7 13.8 81.4 9.9 82.1 6 82.8 1.8 83.1 -2.3 83.3 -6.4 83.6 -10.8 83.6 -15.1 83.3 -19.5 83.3 -24.1 0 0 -0.1 0zm1956.2 -575.4l-98.8 102 70.6 16.7 -61.8 19.3 -61.5 19.2 -61.4 19.1 -61.2 19.1 -61.1 19.2 -61.1 19 -60.7 19 -60.8 19.1 -60.4 18.8 -60.3 18.9 -60.2 18.8 -60 18.9 -59.8 18.7 -59.5 18.6 -59.5 18.6 -59.1 18.7 -59.1 18.5 -58.8 18.4 -58.6 18.5 -58.4 18.4 -58 18.2 -57.9 18.2 -57.7 18.3 -57.5 18.1 -57.3 18 -57 18 -56.6 17.9 -56.5 17.8 -56.1 17.9 -56 17.7 -55.7 17.7 -55.4 17.5 -42.9 -135.4 55.5 -17.5 55.7 -17.6 56 -17.8 56.1 -17.7 56.5 -17.9 56.8 -17.9 56.9 -18 57.3 -18.1 57.5 -18.1 57.8 -18.3 57.8 -18.2 58.2 -18.3 58.4 -18.3 58.6 -18.4 58.9 -18.6 58.9 -18.5 59.4 -18.6 59.3 -18.6 59.7 -18.6 59.7 -18.8 60.1 -18.8 60.1 -18.9 60.3 -18.9 60.6 -18.9 60.6 -18.9 60.9 -19 61 -19 61.1 -19.2 61.4 -19.1 61.4 -19.1 61.5 -19.2 61.7 -19.2 70.5 16.7 -0.1 -0.1zm-70.5 -16.8l40.3 -12.6 30.2 29.4 -70.5 -16.8zm-17.2 129.4l-11 -10.7 98.7 -101.9 11.1 10.8 -28.2 118.7 -70.6 -16.9 0 0zm98.8 -101.8l85.8 83.1 -114 35.6 28.2 -118.7zm-989.5 269.9l919 -286.8 42.3 135.6 -919.1 286.8 -21.2 3.2 -21.1 -138.8 0.1 0zm21 138.7l-465.8 0 444.8 -138.7 21.1 138.7 -0.1 0zm1438.1 724.3l-52.7 -131.8 -28.1 111.4 -34.5 -40.5 -34.7 -39.5 -35 -38.4 -35.2 -37.4 -35.7 -36.2 -36.1 -35.2 -36.3 -34.2 -36.9 -32.9 -37.3 -31.9 -37.6 -30.6 -38.2 -29.4 -38.7 -28.4 -39.3 -27 -39.7 -25.9 -40.3 -24.6 -40.8 -23.3 -41.6 -22.1 -42.2 -20.8 -42.9 -19.4 -43.6 -18.2 -44.3 -16.8 -45.1 -15.5 -46 -14.1 -46.8 -12.6 -47.7 -11.3 -48.5 -10 -49.5 -8.4 -50.5 -6.9 -51.5 -5.4 -52.5 -4 -53.6 -2.4 -54.7 -0.7 0 -142 58.9 0.9 57.8 2.6 56.8 4.2 55.9 5.9 55 7.6 53.9 9.1 53.1 10.8 52.1 12.3 51.2 14 50.3 15.4 49.5 17 48.6 18.4 47.8 19.8 46.9 21.4 46.1 22.7 45.4 24.1 44.6 25.3 43.9 26.8 43.1 28 42.4 29.4 41.7 30.4 41 31.7 40.5 32.9 39.8 33.9 39.2 35.2 38.8 36.2 38.1 37.3 37.7 38.3 37.1 39.3 36.7 40.4 36.2 41.3 35.9 42.2 -28 111.5 0.1 0.1zm28 -111.4l62.8 75.1 -90.8 36.3 28 -111.4zm-80.8 -20.4l0.1 0 52.7 131.8 -0.2 0 -80.7 -20.3 28.1 -111.5 0 0zm52.6 131.8l-47.8 19.1 -33 -39.4 80.8 20.3zm-839.4 -629l-42.3 -135.5 45.5 1.1 31.7 12 31.3 12.5 31 13.3 30.6 13.8 30.3 14.4 30 15 29.6 15.6 29.3 16.2 28.9 16.6 28.7 17.4 28.4 17.8 27.9 18.3 27.8 18.9 27.4 19.4 27.2 20 26.8 20.4 26.7 21 26.2 21.4 26.1 21.9 25.9 22.5 25.6 22.9 25.2 23.3 25.2 23.8 24.8 24.3 24.7 24.6 24.4 25.2 24.3 25.6 23.9 25.9 23.9 26.5 23.7 26.7 23.5 27.3 23.3 27.6 -108.9 91.1 -22.4 -26.6 -22.5 -25.9 -22.6 -25.7 -22.7 -25.1 -22.9 -24.8 -23 -24.2 -23.2 -23.8 -23.3 -23.4 -23.5 -22.9 -23.6 -22.5 -23.9 -21.9 -24 -21.5 -24.1 -21 -24.4 -20.5 -24.5 -20 -24.8 -19.5 -25 -19 -25.1 -18.5 -25.4 -18 -25.6 -17.4 -25.9 -16.9 -26.1 -16.5 -26.2 -15.8 -26.7 -15.3 -26.8 -14.8 -27.1 -14.3 -27.4 -13.7 -27.7 -13.2 -28 -12.6 -28.3 -12 -28.5 -11.5 -28.9 -10.9 45.5 1.1 0 -0.2zm-42.3 -135.5l22.9 -7.2 22.6 8.3 -45.5 -1.1zm-2571.1 802.1l2571.1 -802.1 42.3 135.5 -2571 802.1 -1.3 0.5 -41 -136 -0.1 0zm42.4 135.5l-1.3 0.5 0.1 0 1.2 -0.5 0 0zm-1244.5 1530.5l-48.9 -133.3 -46.3 60.9 7.1 -70.7 9.9 -70.1 12.3 -69.2 15 -68.1 17.5 -67.2 20 -66.2 22.4 -65 24.9 -64 27.1 -62.7 29.4 -61.5 31.6 -60.2 33.8 -58.8 35.8 -57.4 38 -56 39.9 -54.4 41.8 -52.8 43.8 -51.4 45.6 -49.5 47.4 -47.9 49.1 -46 50.8 -44.2 52.5 -42.3 54 -40.5 55.6 -38.4 57 -36.4 58.5 -34.4 59.9 -32.1 61.1 -29.9 62.5 -27.7 63.6 -25.4 64.8 -23 65.9 -20.7 39.7 136.3 -60.6 18.9 -59.7 21.3 -58.7 23.4 -57.5 25.5 -56.3 27.6 -55.2 29.6 -53.8 31.5 -52.7 33.7 -51.2 35.3 -49.8 37.4 -48.4 39 -46.8 40.7 -45.4 42.5 -43.7 44.1 -42 45.7 -40.5 47.2 -38.5 48.8 -36.8 50.2 -35 51.5 -33 53.1 -31.2 54.1 -29 55.4 -27.2 56.7 -25 57.8 -22.9 58.9 -20.6 60 -18.4 60.9 -16.1 62 -13.8 62.8 -11.5 63.7 -9 64.4 -6.5 65.4 -46.3 60.9 0 0.2zm46.4 -60.9l-3.7 45.2 -42.7 15.7 46.4 -60.9zm-1700 665.2l-47.7 -133.7 -0.2 0 26.7 -9.5 28.6 -10.4 30.5 -11.1 32.5 -11.8 34.4 -12.4 36.2 -13.2 38 -13.8 39.9 -14.5 41.4 -15.1 43.2 -15.7 44.9 -16.4 46.5 -16.9 48 -17.5 49.5 -18.1 51.1 -18.6 52.5 -19.2 54 -19.8 55.3 -20.3 56.7 -20.7 58 -21.2 59.2 -21.6 60.6 -22.3 61.7 -22.5 62.8 -23.1 64 -23.4 65.1 -23.9 66.2 -24.3 67.1 -24.5 68.1 -25 69.2 -25.3 70 -25.7 70.8 -26 48.9 133.3 -70.9 26 -70 25.6 -69 25.4 -68.2 25 -67.2 24.6 -66.1 24.2 -65.2 23.9 -64 23.5 -62.9 23 -61.6 22.6 -60.6 22.2 -59.3 21.7 -58 21.1 -56.7 20.9 -55.3 20.2 -53.9 19.7 -52.6 19.2 -51.1 18.7 -49.7 18.1 -48 17.5 -46.4 16.9 -44.9 16.5 -43.2 15.6 -41.6 15.2 -39.7 14.5 -38.1 13.8 -36.2 13.2 -34.4 12.4 -32.6 11.8 -30.6 11.1 -28.7 10.4 -26.8 9.7 -0.2 0.1 0 -0.1zm0.1 -0.1l-0.1 0.1 4.6 -1.7 -4.5 1.6zm-48.2 -133.5l0.4 -0.1 47.7 133.7 -0.4 0.1 -47.9 -133.6 0.2 -0.1 0 0zm1677.3 -2490.6l141.9 -5.5 0 0 2.1 111.9 -2.6 110.9 -6.9 109.8 -11.4 108.6 -15.6 107.3 -20 106.1 -23.9 104.6 -28.2 103 -32 101.4 -35.8 99.7 -39.8 97.8 -43.4 95.9 -47.1 93.9 -50.5 91.8 -54 89.6 -57.4 87.3 -60.6 84.9 -63.8 82.4 -66.9 79.9 -69.9 77.2 -72.9 74.5 -75.8 71.7 -78.4 68.7 -81.1 65.6 -83.8 62.6 -86.2 59.3 -88.7 56 -91 52.8 -93.3 49 -95.4 45.6 -97.5 41.9 -99.5 38 -48 -133.4 94.1 -36.1 92.4 -39.6 90.3 -43.2 88.3 -46.5 86.2 -49.9 83.9 -53.1 81.8 -56.2 79.3 -59.2 76.9 -62.3 74.2 -65 71.8 -67.9 69 -70.6 66.3 -73.1 63.4 -75.7 60.5 -78.1 57.5 -80.4 54.3 -82.7 51.1 -84.8 47.8 -86.9 44.6 -89 41 -90.8 37.7 -92.6 34 -94.4 30.3 -96 26.6 -97.6 22.8 -98.9 18.8 -100.4 14.9 -101.7 10.7 -102.8 6.6 -104.1 2.4 -105.1 -2 -106 0 0 -0.1 -0.1zm-2638.9 -2441.1l-5.5 -141.8 0 0 138.1 -1.8 136.5 5 134.8 11.8 133 18.5 131 24.8 128.8 31.2 126.2 37.3 123.8 43.3 120.8 49.1 118 54.8 114.8 60.1 111.6 65.6 108 70.6 104.4 75.7 100.6 80.5 96.6 85.1 92.4 89.7 88.1 94 83.6 98.2 78.7 102.3 74.1 106.1 68.9 109.8 63.7 113.4 58.4 116.7 52.8 119.9 46.9 123.1 41.2 125.8 34.9 128.6 28.8 131.2 22.3 133.6 15.6 135.7 8.9 137.7 -141.9 5.6 -8.4 -130.6 -14.7 -128.7 -21.2 -126.4 -27.2 -124.3 -33.1 -121.8 -39 -119.1 -44.5 -116.5 -50 -113.4 -55.2 -110.6 -60.4 -107.3 -65.3 -104 -70.1 -100.5 -74.6 -96.9 -79.2 -93 -83.4 -89 -87.6 -85 -91.4 -80.7 -95.4 -76.2 -98.9 -71.8 -102.3 -66.9 -105.6 -62.1 -108.8 -56.9 -111.7 -51.9 -114.6 -46.4 -117 -41 -119.6 -35.3 -121.9 -29.5 -123.8 -23.6 -126 -17.5 -127.8 -11.2 -129.3 -4.8 -130.9 1.7 0 0 0 0zm-543.9 -66.3l34.5 137.7 -34.2 -137.8 16.3 -3.8 16.2 -3.9 16.5 -3.8 16.3 -3.5 16.4 -3.6 16.4 -3.5 16.4 -3.4 16.6 -3.2 16.6 -3.1 16.5 -3.1 16.8 -2.9 16.6 -2.8 16.8 -2.8 16.7 -2.6 16.8 -2.5 16.7 -2.4 16.8 -2.4 17 -2.2 16.9 -2 16.9 -2.1 17 -1.9 17 -1.8 17 -1.7 17.1 -1.6 17.1 -1.4 17.2 -1.5 17.1 -1.1 17.2 -1.2 17.3 -1.1 17.2 -0.9 17.3 -0.9 17.3 -0.8 5.6 141.9 -16.5 0.7 -16.4 0.8 -16.4 0.8 -16.2 1 -16.3 1.1 -16.5 1.2 -16.1 1.4 -16.1 1.4 -16.4 1.5 -16.1 1.6 -16.1 1.6 -16.1 1.8 -16 2 -16 2 -16 2.1 -16 2.2 -16 2.4 -15.9 2.4 -15.7 2.4 -15.9 2.6 -15.8 2.7 -15.7 2.7 -15.8 2.9 -15.7 3 -15.6 3.1 -15.6 3.2 -15.5 3.2 -15.6 3.4 -15.5 3.4 -15.4 3.5 -15.4 3.7 -15.4 3.8 -34.2 -137.8 0 -0.1zm35.4 137.6l-0.9 0.1 -34.5 -137.7 0.9 -0.2 0.1 0 34.4 137.8zm4507.6 -1215.8l-100.3 100.3 67.1 18.7 -127.5 31.4 -132.4 32.4 -137.1 33.7 -141.3 34.5 -145.1 35.6 -148.4 36.2 -151.3 37.1 -153.9 37.7 -155.8 38.1 -157.7 38.5 -158.7 38.8 -159.6 39 -160 39.1 -159.8 39.1 -159.5 38.9 -158.5 38.9 -157.2 38.4 -155.5 38 -153.3 37.5 -150.7 36.9 -147.7 36.2 -144.2 35.3 -140.4 34.4 -136 33.4 -131.3 32.2 -126.3 31.1 -120.7 29.6 -114.6 28.2 -108.2 26.7 -101.4 25 -94 23.3 -86.4 21.5 -34.3 -137.7 86.5 -21.5 94.2 -23.3 101.4 -25.1 108.3 -26.7 114.7 -28.1 120.7 -29.8 126.2 -31 131.3 -32.3 136.1 -33.4 140.4 -34.4 144.3 -35.3 147.6 -36.1 150.7 -36.9 153.4 -37.6 155.5 -38 157.2 -38.5 158.5 -38.7 159.5 -39 159.8 -39.1 160 -39 159.6 -39 158.7 -38.9 157.6 -38.5 155.9 -38.2 153.8 -37.5 151.3 -37.1 148.4 -36.3 145.1 -35.5 141.3 -34.6 137 -33.6 132.5 -32.5 127.4 -31.3 67.1 18.7 0 0.1zm-67 -18.8l38.8 -9.5 28.2 28.3 -67 -18.8zm-3926.1 6243.7l-4.9 141.9 5.1 -141.9 23 0.8 23 0.5 23.1 0.3 23 0.2 23 -0.1 23.1 -0.3 23.1 -0.5 23.2 -0.7 23 -0.9 23.1 -1.2 23.2 -1.2 23.2 -1.6 23.1 -1.8 23.2 -2 23.1 -2.2 23.3 -2.4 23.2 -2.7 23.1 -2.9 23.2 -2.9 23.2 -3.4 23.2 -3.5 23.2 -3.8 23.2 -4 23.1 -4.1 23.2 -4.5 23.2 -4.5 23.1 -5 23.1 -5 23.1 -5.3 23.2 -5.5 23.1 -5.7 23 -6 36.3 137.2 -24.5 6.3 -24.4 6 -24.4 5.9 -24.3 5.6 -24.6 5.3 -24.4 5.2 -24.5 4.9 -24.4 4.6 -24.5 4.5 -24.6 4.1 -24.5 4 -24.4 3.6 -24.6 3.6 -24.5 3.2 -24.5 3.1 -24.6 2.7 -24.4 2.6 -24.5 2.3 -24.5 2.2 -24.6 1.8 -24.4 1.6 -24.4 1.5 -24.6 1.2 -24.5 0.9 -24.3 0.8 -24.4 0.5 -24.4 0.4 -24.4 0 -24.3 -0.1 -24.3 -0.4 -24.3 -0.6 -24.2 -0.8 5.1 -141.9 0.5 0.1zm191.8 -0.3l5.5 141.8 0 0 -6.4 0.2 -6.4 0.2 -6.3 0.2 -6.3 0.3 -6.4 0.1 -6.3 0.2 -6.3 0.1 -6.3 0.2 -6.4 0.1 -6.3 0.1 -6.4 0.2 -6.3 0.1 -6.5 0.1 -6.3 0 -6.2 0 -6.3 0 -6.5 0 -6.3 0 -6.2 0 -6.2 0 -6.6 -0.1 -6.2 -0.1 -6.2 -0.2 -6.3 -0.1 -6.4 -0.1 -6.3 -0.1 -6.1 -0.2 -6.4 -0.1 -6.4 -0.2 -6.3 -0.2 -6.1 -0.2 -6.3 -0.1 5 -141.9 5.8 0.1 6.2 0.2 5.9 0.2 5.9 0.2 5.9 0.1 6.1 0.2 6 0.1 5.7 0.1 6 0.1 6.1 0.2 6 0 5.7 0.1 6.1 0 6.1 0.1 6 0 5.8 0 6 0 6.2 -0.1 6 0 5.7 -0.1 6 0 6.1 -0.2 6 -0.1 6 -0.1 6 -0.2 6 -0.1 6 -0.2 6.1 -0.1 6 -0.2 6 -0.2 6.1 -0.1 6 -0.3 0 0 0.2 0zm585.1 55.6l-36.3 -137.2 36.2 137.2 -17.5 4.6 -17.5 4.4 -17.5 4.2 -17.5 4.3 -17.7 4 -17.6 4 -17.8 3.8 -17.8 3.8 -17.8 3.5 -17.8 3.5 -17.9 3.4 -18 3.3 -17.9 3.1 -18 3 -18.1 2.9 -18.1 2.7 -18.3 2.7 -18.1 2.5 -18.2 2.4 -18.3 2.3 -18.3 2.2 -18.3 2 -18.4 2 -18.4 1.8 -18.5 1.7 -18.5 1.5 -18.4 1.4 -18.6 1.3 -18.6 1.2 -18.6 1.1 -18.7 0.9 -18.7 0.7 -5.5 -141.8 17.7 -0.8 17.8 -0.9 17.6 -0.9 17.6 -1.1 17.6 -1.3 17.6 -1.3 17.5 -1.5 17.5 -1.5 17.4 -1.7 17.5 -1.9 17.4 -1.9 17.4 -2.1 17.2 -2.1 17.3 -2.3 17.3 -2.4 17.1 -2.5 17.2 -2.6 17 -2.8 17.2 -2.9 16.9 -2.9 17 -3 17 -3.2 16.9 -3.4 16.8 -3.3 16.9 -3.6 16.8 -3.7 16.7 -3.6 16.6 -3.9 16.7 -4 16.7 -4 16.5 -4.1 16.6 -4.3 36.1 137.2 -0.1 -0.1zm-833.7 -58l-7.2 141.8 8 -141.8 0.4 0 2.1 0.2 1.1 0 -0.1 0 1.1 0.1 1 0.1 0.9 0 1.1 0.1 0 0 1.1 0 2 0.1 1 0.1 0.9 0 1.1 0.2 0 0 1 0 2 0.1 0.1 0.1 1 0 2 0.1 0.1 0 0.9 0 2 0.1 0.2 0 0.9 0 2 0.2 0.1 0 1 0 2.1 0.1 0 0 0.9 0 1.5 0.1 -6.6 141.8 -0.7 0 -1 -0.1 -2.1 -0.1 0 0 -1 0 -1.9 -0.1 -0.2 0 -1 -0.1 -1.9 -0.2 -0.1 0 -1 0 -2 -0.1 -0.1 0 -1 -0.1 -2 0 -0.1 0 -1 -0.1 -1.9 -0.1 -1 0 -1 -0.1 -1.1 0 0 0 -1.1 -0.1 -1.9 -0.1 -1 0 -1 -0.2 -0.9 -0.1 -1.1 0 -2.1 -0.1 -0.9 -0.1 -0.2 0 -1.5 -0.1 8 -141.7 0.1 0.1zm25.5 143.3l-32.7 -1.5 7.2 -141.8 32.5 1.6 -6.7 141.7 -0.3 0zm-1413.8 -657l-86.1 112.8 85.9 -112.9 1 0.7 1.1 0.8 1.5 1.1 0.3 0.3 1.5 1.2 1.5 1.1 0.8 0.6 1.2 0.9 0.7 0.5 1.1 0.9 1.9 1.4 0.8 0.6 0.7 0.5 1.1 0.9 1.1 0.8 1.2 0.8 1.6 1.2 1.1 0.9 0.7 0.5 1.2 0.8 1.1 0.9 1.2 0.8 0.7 0.5 1.1 0.9 1.2 0.9 1.5 1 1.1 0.8 0.8 0.7 1.5 1 0.7 0.6 0.9 0.5 1.5 1.1 -83.6 114.8 -0.8 -0.6 -1.5 -1.1 -1.6 -1.2 -0.7 -0.6 -1.6 -1.1 -1.1 -0.8 -0.8 -0.6 -1 -0.8 -1.2 -0.8 -1.6 -1.2 -1.1 -0.8 -1.2 -0.9 -1.1 -0.8 -1.5 -1.1 -1.2 -0.9 -0.7 -0.5 -1.1 -0.9 -1.2 -0.8 -1.1 -0.9 -1.6 -1.2 -1.5 -1.1 -0.3 -0.3 -1.2 -0.8 -1.5 -1.2 -1.2 -0.9 -1.4 -1.1 -0.8 -0.6 -0.7 -0.5 -2 -1.5 -0.8 -0.5 -1.1 -0.8 -1.3 -1.1 85.9 -112.9 0 0zm-48.5 140.9l83.7 -114.8 -83.9 114.6 -1.1 -0.7 -1.5 -1.2 -1 -0.8 -0.5 -0.3 -1.4 -1 -1.6 -1.2 -0.8 -0.6 -1.5 -1.1 -1.1 -0.9 -0.9 -0.6 -1.5 -1.1 -1.1 -0.8 -0.8 -0.6 -1.5 -1 -1.1 -0.9 -1.1 -0.8 -1.1 -0.9 -1.2 -0.8 -1.1 -0.9 -1.7 -1.2 -1.4 -1.1 -0.4 -0.3 -1.1 -0.8 -2 -1.5 -0.7 -0.6 -0.8 -0.5 -1.8 -1.3 -1.1 -0.9 -0.8 -0.6 -1.2 -0.9 -1.5 -1.1 -1.1 -1 86.1 -112.7 1.1 0.8 0.8 0.6 1.2 0.9 1.4 1.1 1.2 0.9 0.3 0.2 1.5 1.2 1.5 1.1 0.3 0.2 1.2 0.9 1.9 1.4 0.8 0.6 0.7 0.5 1.2 0.9 1.1 0.8 1.2 0.9 1.1 0.8 1.1 0.9 0.9 0.6 1.5 1.1 1.1 0.8 0.7 0.5 1.5 1.1 1.2 1 0.8 0.5 1.5 1.1 0.7 0.5 0.8 0.6 1.9 1.4 1.2 0.9 0.8 0.6 1.1 0.8 -83.7 114.6 0 0.1zm-763 -1193l-131.2 54.3 131.2 -54.1 16.9 40.1 17.6 39.6 18.1 39.2 18.8 38.8 19.2 38.2 20 37.9 20.5 37.4 21.1 37 21.6 36.5 22.2 36 22.7 35.6 23.3 35.1 23.8 34.7 24.4 34.1 24.8 33.7 25.3 33.1 25.9 32.7 26.3 32.2 26.9 31.8 27.3 31.3 27.7 30.7 28.2 30.2 28.7 29.7 29.2 29.3 29.6 28.6 29.9 28.3 30.4 27.6 31 27.2 31.2 26.6 31.6 26.1 32.1 25.6 32.5 24.9 -85.8 113.2 -34.3 -26.4 -33.8 -27 -33.4 -27.6 -33 -28.1 -32.5 -28.6 -32.3 -29.3 -31.6 -29.8 -31.3 -30.2 -30.8 -30.9 -30.3 -31.4 -29.8 -32 -29.3 -32.5 -28.9 -33 -28.3 -33.4 -27.8 -34.1 -27.3 -34.5 -26.8 -35.1 -26.2 -35.6 -25.8 -36.1 -25 -36.6 -24.6 -37.1 -23.9 -37.6 -23.6 -38 -22.8 -38.5 -22.2 -39.2 -21.7 -39.4 -21 -40 -20.4 -40.5 -19.8 -40.9 -19.2 -41.3 -18.5 -41.9 -17.9 -42.3 131.2 -54.2 -0.1 -0.1zm722.9 1163.1l85.8 -113.2 -86 113 -34.8 -27 -34.3 -27.5 -33.9 -28.1 -33.4 -28.7 -32.9 -29.2 -32.5 -29.8 -31.9 -30.2 -31.5 -30.7 -31 -31.3 -30.4 -31.8 -30 -32.2 -29.4 -32.8 -28.8 -33.3 -28.4 -33.7 -27.8 -34.3 -27.3 -34.7 -26.7 -35 -26.2 -35.7 -25.5 -36.1 -25 -36.5 -24.4 -36.9 -23.9 -37.4 -23.2 -37.7 -22.6 -38.2 -22 -38.6 -21.3 -39 -20.8 -39.5 -20.1 -39.8 -19.4 -40.2 -18.9 -40.5 -18.1 -40.9 -17.5 -41.3 131.2 -54.3 16.5 39.1 17.2 38.8 17.8 38.4 18.4 38.1 19.2 37.6 19.6 37.3 20.2 37 20.8 36.5 21.4 36.2 22 35.8 22.5 35.4 23.1 35 23.7 34.5 24.2 34.2 24.8 33.7 25.3 33.3 25.8 32.8 26.4 32.4 26.9 32.1 27.3 31.4 27.8 31.1 28.4 30.6 28.9 30.1 29.3 29.6 29.8 29.2 30.3 28.6 30.8 28.1 31.1 27.7 31.7 27.1 32.1 26.7 32.5 26.1 33 25.6 -85.9 113 0 0zm-742.7 -1212.6l-132.3 51.5 132.3 -51.4 0.4 1.1 0.7 1.7 0.4 1.3 0.4 0.9 0.5 1.3 0.6 1.3 0.3 1 0.5 1.2 0.7 1.6 0.4 1.3 0.4 1 0.5 1.3 0.6 1.5 0.5 1 0.5 1.3 0.6 1.5 0.4 1.1 0.5 1.2 0.3 0.7 0.5 1.2 0.8 2 0.4 1.3 0.2 0.6 0.6 1.3 0.7 1.8 0.4 0.7 0.4 1.3 0.8 1.9 0.2 0.7 0.6 1.2 0.5 1.3 0.5 1.2 -131.4 53.7 -0.6 -1.4 -0.5 -1.3 -0.6 -1.2 -0.7 -1.9 -0.3 -0.7 -0.5 -1.3 -0.8 -1.9 -0.2 -0.6 -0.6 -1.2 -0.7 -2 -0.5 -1.2 -0.2 -0.7 -0.6 -1.3 -0.7 -1.9 -0.5 -1.3 -0.6 -1.5 -0.5 -1 -0.5 -1.3 -0.6 -1.5 -0.4 -1.1 -0.5 -1.3 -0.6 -1.5 -0.5 -1.3 -0.4 -1 -0.5 -1.3 -0.5 -1.5 -0.6 -1.3 -0.6 -1.3 -0.5 -1.6 -0.5 -1.3 -0.4 -0.9 -0.5 -1.5 132.3 -51.4 0 -0.1zm-115.6 93.7l131.4 -53.8 -131.4 53.8 -0.6 -1.4 -0.5 -1.3 -0.6 -1.3 -0.7 -1.9 -0.3 -0.7 -0.5 -1.2 -0.8 -1.9 -0.2 -0.6 -0.6 -1.3 -0.7 -2 -0.5 -1.2 -0.3 -0.9 -0.5 -1 -0.7 -1.9 -0.6 -1.5 -0.4 -1 -0.6 -1.3 -0.5 -1.5 -0.5 -1.1 -0.5 -1.2 -0.6 -1.5 -0.4 -1.1 -0.5 -1.3 -0.6 -1.5 -0.5 -1.3 -0.4 -1.1 -0.6 -1.3 -0.6 -1.5 -0.7 -1.9 -0.4 -1 -0.3 -0.7 -0.6 -1.6 132.3 -51.5 0.4 1 0.7 1.8 0.6 1.5 0.2 0.7 0.4 1.1 0.6 1.2 0.5 1.6 0.5 1.3 0.5 1.1 0.4 1.2 0.6 1.5 0.5 1 0.5 1.3 0.6 1.5 0.4 1.1 0.5 1.2 0.6 1.5 0.4 1.1 0.3 0.6 0.6 1.6 0.7 1.7 0.5 1.2 0.2 0.6 0.6 1.3 0.7 1.9 0.3 0.7 0.5 1.3 0.8 1.8 0.2 0.8 0.6 1.2 0.5 1.2 0.5 1.2 -131.4 53.7 0 0zm94.6 -149.7l-133.4 48.8 133.4 -48.8 0.4 1.2 0.4 1 0.3 0.9 0.4 1 0.2 0.7 0.5 1.2 0.3 1 0.4 0.9 0.3 1 0.2 0.6 0.2 0.5 0.7 1.8 0.2 0.6 0.4 1.3 0.5 0.9 0.2 0.7 0.4 1.3 0 0.2 0.6 1.5 0.5 1.2 0 0.1 0.6 1.5 0.3 1 0.2 0.4 0.7 1.8 0.2 0.7 0 0.1 0.5 1.3 0.7 1.8 0.2 0.7 0.1 0.1 0.5 1.3 -132.9 50 -0.2 -0.6 -0.7 -1.8 -0.5 -1.3 0 -0.1 -0.2 -0.7 -0.7 -1.8 -0.4 -1.3 -0.2 -0.1 -0.4 -1.5 -0.5 -1 -0.1 -0.4 -0.7 -1.8 -0.2 -0.7 -0.2 -0.4 -0.7 -1.8 -0.2 -0.7 -0.4 -1.3 -0.5 -1 -0.1 -0.6 -0.5 -1.3 0 -0.1 -0.6 -1.5 -0.5 -1.2 -0.3 -1 -0.4 -1 -0.3 -0.9 -0.2 -0.7 -0.5 -1.2 -0.4 -1 -0.3 -0.9 -0.4 -1 -0.3 -0.8 133.3 -48.7 0.1 -0.1zm-121.8 80.2l132.8 -50 -132.8 50 -0.2 -0.6 -0.8 -2.1 -0.4 -1 0.1 0.2 -0.4 -1 -0.8 -2 -0.3 -1 0.1 0.2 -0.7 -1.8 -0.5 -1.3 0 -0.1 -0.6 -1.5 -0.5 -1.3 0 -0.1 -0.5 -1.5 -0.6 -1.3 -0.2 -1 -0.2 -0.7 -0.5 -1.2 -0.4 -1 0.1 0.2 -0.8 -2 -0.4 -1 -0.2 -0.7 -0.5 -1.3 -0.3 -1 -0.2 -0.6 -0.5 -1.3 -0.4 -1 -0.3 -0.8 -0.4 -1 -0.3 -0.8 133.4 -48.8 0.4 1.2 0.4 1 0.3 0.9 0.4 1 0.2 0.7 0.5 1.2 0.3 1 0.2 0.7 0.5 1.2 0.4 1 -0.2 -0.2 0.8 2.1 0.5 1 0.1 0.6 0.5 1.3 0.3 1 0.2 0.5 0.2 0.6 0.7 1.7 0.2 0.7 0.2 0.4 0.7 1.8 0.2 0.8 0.1 0.1 0.8 2.1 0.3 0.9 -0.1 -0.2 0.4 1 0.8 2.1 0.4 1 -0.1 -0.2 0.4 1.3 -132.8 49.9 0 0zm105 -127.4l5 14.4 -133.8 47.2 -5.1 -14.4 -0.5 -1.5 134.4 -45.8 0 0.1zm-133.9 47.2l0 0 -0.4 -1.5 0.4 1.5zm129.9 -59.5l4.5 13.8 -134.8 44.1 -4.6 -13.8 134.7 -45 0.2 0.8 0 0.1zm-125 73.2l-9.7 -28.2 134.4 -45.8 9.7 28.2 -134.2 46.5 -0.2 -0.7 0 0zm1793.9 -3311.8l-41.3 -135.8 41 135.8 -83.7 26.6 -81.7 28.6 -79.4 30.8 -77.4 32.8 -75.3 34.6 -73.2 36.7 -71.2 38.5 -69 40.3 -67 42 -64.9 43.8 -62.9 45.3 -61 47 -58.8 48.6 -56.9 50 -54.9 51.4 -53 52.7 -50.9 54.1 -48.9 55.5 -47.1 56.6 -45 57.8 -43.2 58.9 -41.1 60 -39.3 61 -37.3 61.9 -35.4 62.7 -33.5 63.7 -31.6 64.4 -29.7 65.2 -27.8 65.9 -26 66.5 -23.9 67 -22.3 67.5 -135.3 -42.4 23.3 -71.2 25.4 -70.7 27.3 -70.2 29.3 -69.4 31.4 -68.8 33.3 -68.1 35.5 -67.3 37.4 -66.4 39.5 -65.5 41.5 -64.5 43.6 -63.4 45.7 -62.3 47.7 -61.2 49.8 -60 51.9 -58.6 53.8 -57.5 56.2 -56 58.1 -54.4 60.3 -53 62.4 -51.4 64.4 -49.8 66.8 -48 68.7 -46.3 70.9 -44.5 73 -42.6 75.1 -40.6 77.2 -38.8 79.4 -36.6 81.5 -34.5 83.7 -32.3 85.8 -30.2 88 -27.8 41 135.8 0 0.1zm-1808.9 1596l135.4 42.4 -135.2 -43.3 26.5 -76.7 28.7 -75.6 30.9 -74.6 33.1 -73.4 35.2 -72.2 37.2 -71.2 39.4 -69.8 41.3 -68.4 43.3 -67.2 45.3 -65.8 47 -64.4 49.1 -62.9 50.7 -61.4 52.6 -59.9 54.3 -58.3 56 -56.6 57.7 -55.1 59.4 -53.3 60.9 -51.5 62.4 -49.8 64 -47.9 65.4 -46.1 66.9 -44.2 68.2 -42.2 69.6 -40.2 70.9 -38.2 72.3 -36.1 73.5 -34 74.7 -31.8 75.8 -29.6 77 -27.4 78.1 -25 41.3 135.7 -73.9 23.7 -72.9 26 -71.8 28 -70.7 30.1 -69.6 32.2 -68.4 34.2 -67.2 36.2 -65.8 38.2 -64.7 39.9 -63.4 41.8 -62 43.6 -60.6 45.4 -59.1 47.1 -57.7 49 -56.1 50.4 -54.8 52.1 -53 53.7 -51.5 55.3 -49.8 56.7 -48.1 58.1 -46.5 59.7 -44.6 61 -42.9 62.3 -41 63.7 -39.1 64.9 -37.3 66.1 -35.2 67.3 -33.5 68.4 -31.3 69.5 -29.2 70.6 -27.2 71.5 -25 72.7 -135.2 -43.3 0.2 -0.1z"/>
    </g>
    <g>
     <path class="fil1" d="M8242.9 8831.8l-141.9 5.5 0 0 -8.5 -130.5 -14.7 -128.7 -21.1 -126.5 -27.3 -124.3 -33.1 -121.7 -38.9 -119.1 -44.5 -116.6 -50 -113.4 -55.2 -110.6 -60.4 -107.3 -65.3 -103.9 -70.1 -100.6 -74.6 -96.8 -79.2 -93 -83.4 -89.1 -87.6 -84.9 -91.5 -80.8 -95.3 -76.1 -98.9 -71.8 -102.4 -66.9 -105.6 -62.1 -108.7 -57 -111.7 -51.8 -114.6 -46.5 -117 -41 -119.6 -35.3 -121.9 -29.5 -123.8 -23.6 -126.1 -17.4 -127.7 -11.2 -129.4 -4.9 -130.8 1.8 -5.6 -141.8 138.1 -1.8 136.6 5 134.8 11.8 133 18.5 131 24.8 128.7 31.2 126.2 37.3 123.8 43.3 120.9 49.1 117.9 54.8 114.9 60.1 111.6 65.6 108 70.6 104.4 75.7 100.6 80.5 96.6 85.1 92.4 89.7 88 94 83.7 98.2 78.7 102.3 74 106.1 69 109.8 63.7 113.4 58.3 116.7 52.8 119.9 47 123.1 41.1 125.8 35 128.6 28.7 131.2 22.3 133.6 15.7 135.7 8.9 137.7 0 0 0 0zm-2577.5 2786.3l-5.5 -141.8 0 0 130.7 -8.4 128.6 -14.8 126.5 -21.1 124.1 -27.3 121.8 -33.1 119.2 -39 116.5 -44.5 113.5 -49.9 110.5 -55.3 107.4 -60.3 103.9 -65.3 100.5 -70.1 96.8 -74.7 93 -79.2 89.1 -83.4 85 -87.6 80.7 -91.4 76.3 -95.4 71.6 -98.9 67 -102.3 62 -105.6 57 -108.7 51.8 -111.8 46.5 -114.4 41 -117.2 35.4 -119.6 29.5 -121.7 23.6 -124 17.4 -126 11.2 -127.8 4.8 -129.3 -1.8 -130.9 141.9 -5.6 1.8 138.1 -5 136.6 -11.9 134.8 -18.4 133.1 -24.9 130.9 -31.2 128.7 -37.3 126.2 -43.3 123.8 -49.1 120.9 -54.7 117.9 -60.3 114.9 -65.5 111.5 -70.6 108.1 -75.7 104.4 -80.5 100.6 -85.1 96.6 -89.7 92.5 -94 88 -98.2 83.6 -102.3 78.7 -106 74.1 -109.9 68.9 -113.2 63.7 -116.8 58.4 -119.9 52.8 -123 47 -125.9 41.1 -128.7 35 -131 28.8 -133.6 22.2 -135.8 15.8 -137.7 8.7 0 0 -0.1 0zm-2786.3 -2577.4l141.8 -5.6 0 0 8.4 130.7 14.8 128.6 21.1 126.6 27.3 124.1 33.1 121.8 38.9 119.2 44.5 116.4 50.1 113.6 55.2 110.5 60.3 107.4 65.3 103.9 70.2 100.4 74.6 97 79.2 92.9 83.4 89.2 87.6 84.9 91.5 80.6 95.2 76.3 98.9 71.7 102.4 67 105.6 62 108.8 57.1 111.7 51.7 114.5 46.6 117 40.9 119.7 35.4 121.8 29.5 124 23.6 125.9 17.4 127.7 11.2 129.4 4.8 130.9 -1.8 5.6 141.9 -138.1 1.9 -136.7 -5.1 -134.8 -11.9 -133 -18.4 -131 -24.9 -128.7 -31.2 -126.3 -37.3 -123.6 -43.2 -121 -49.2 -117.9 -54.7 -114.9 -60.2 -111.5 -65.5 -108.1 -70.7 -104.4 -75.7 -100.6 -80.4 -96.6 -85.2 -92.3 -89.6 -88.2 -94.1 -83.5 -98.1 -78.8 -102.3 -74 -106.1 -69 -109.8 -63.7 -113.4 -58.4 -116.7 -52.8 -120 -46.9 -122.9 -41.1 -125.9 -35 -128.6 -28.7 -131.1 -22.3 -133.6 -15.7 -135.8 -8.8 -137.8 0 0 0 0zm2577.5 -2786.3l5.5 141.8 0 0 -130.7 8.4 -128.6 14.9 -126.6 21.1 -124.1 27.1 -121.8 33.2 -119.2 39 -116.4 44.5 -113.5 49.9 -110.6 55.2 -107.2 60.5 -104.1 65.3 -100.4 70 -96.8 74.8 -93.1 79.1 -89.1 83.5 -84.8 87.4 -80.8 91.6 -76.2 95.3 -71.8 98.9 -67 102.4 -62 105.6 -56.9 108.6 -51.9 111.7 -46.4 114.6 -41.1 117 -35.2 119.6 -29.5 121.9 -23.7 123.9 -17.5 126 -11.2 127.7 -4.7 129.4 1.8 130.8 -141.8 5.6 -1.9 -138 5.1 -136.7 11.8 -134.8 18.4 -133 24.9 -131 31.2 -128.7 37.3 -126.3 43.2 -123.6 49.2 -121 54.7 -118 60.2 -114.8 65.5 -111.6 70.7 -108 75.6 -104.3 80.6 -100.7 85.1 -96.5 89.7 -92.5 94 -88 98.2 -83.5 102.3 -78.9 106 -74 109.9 -69 113.2 -63.7 116.7 -58.3 120 -52.8 123 -47 125.9 -41.2 128.6 -34.9 131.1 -28.8 133.6 -22.3 135.7 -15.6 137.9 -8.8 0 0z"/>
    </g>
    <path class="fil0" d="M5489 7086c1021.8,-39.8 1882.4,756.3 1922.2,1778.2 39.8,1021.9 -756.3,1882.5 -1778.2,1922.4 -1021.8,39.7 -1882.5,-756.4 -1922.2,-1778.3 -39.9,-1021.9 756.3,-1882.5 1778.2,-1922.3z"/>
    <g>
     <path class="fil1" d="M17976.5 6373.6l-41.4 -135.7 0 0 67 -22.1 65.6 -24.5 63.9 -27 62.1 -29.4 60.3 -31.7 58.4 -34.1 56.4 -36.2 54.4 -38.3 52.2 -40.4 50.1 -42.3 47.7 -44.2 45.4 -46 42.8 -47.9 40.3 -49.5 37.7 -51.1 35 -52.6 32.2 -54.2 29.5 -55.5 26.5 -56.9 23.6 -58.1 20.4 -59.4 17.3 -60.5 14.2 -61.7 10.9 -62.7 7.4 -63.7 4 -64.6 0.5 -65.6 -3 -66.4 -6.9 -67.2 -10.5 -68 -14.6 -68.7 -18.4 -69.4 136.1 -40 20.4 76.5 16.1 76 11.7 75.5 7.6 74.9 3.4 74 -0.5 73.3 -4.6 72.3 -8.4 71.4 -12.2 70.3 -15.7 69.1 -19.6 67.9 -22.8 66.3 -26.3 65 -29.6 63.6 -32.8 61.9 -35.9 60.2 -38.8 58.4 -41.9 56.7 -44.5 54.7 -47.5 52.7 -49.9 50.7 -52.4 48.7 -54.8 46.5 -57.3 44.2 -59.4 41.8 -61.6 39.6 -63.7 37 -65.7 34.6 -67.5 32 -69.4 29.3 -71 26.6 -72.6 23.8 0 0 0.1 0.1zm-7590 2346.9l-42.9 -135.2 0 0 219.1 -69.4 223.3 -70.4 226.8 -71.6 230.4 -72.4 233.4 -73.2 236.3 -73.9 238.8 -74.8 241.2 -75.2 243.2 -75.6 244.9 -76.3 246.4 -76.5 247.5 -76.6 248.4 -77.1 249 -77 249.4 -77 249.3 -76.9 249.2 -76.8 248.5 -76.6 247.8 -76.2 246.7 -75.8 245.3 -75.3 243.6 -74.9 241.7 -74 239.5 -73.4 237 -72.6 234.1 -71.6 231.1 -70.7 227.8 -69.5 224.1 -68.6 220.2 -67.2 215.9 -65.8 211.5 -64.5 41.4 135.7 -211.5 64.5 -215.9 65.9 -220.2 67.2 -224.1 68.4 -227.7 69.7 -231 70.6 -234.2 71.7 -237 72.5 -239.4 73.4 -241.7 74.1 -243.6 74.8 -245.2 75.3 -246.6 75.8 -247.8 76.2 -248.5 76.6 -249 76.8 -249.5 76.9 -249.2 77 -248.9 76.9 -248.4 77 -247.4 76.7 -246.4 76.5 -244.9 76.1 -243.1 75.7 -241.2 75.4 -238.7 74.5 -236.3 74 -233.3 73.2 -230.2 72.3 -226.8 71.4 -223.1 70.6 -219.1 69.2 0 0 0 0zm-2287.1 -1211.2l136 -40.4 0 0 27 83.2 31.1 80.8 34.6 78.2 38.4 75.7 41.7 73 45.2 70.3 48.2 67.5 51.5 64.7 54.3 61.9 57 58.9 59.9 55.7 62.2 52.6 64.6 49.6 66.9 46.3 69 42.9 70.9 39.6 72.8 36 74.4 32.6 75.9 29 77.3 25.3 78.5 21.6 79.7 17.8 80.7 13.8 81.4 10 82.1 5.9 82.8 1.8 83.1 -2.2 83.3 -6.5 83.6 -10.7 83.6 -15.2 83.3 -19.5 83.3 -24.1 42.9 135.3 -90.2 26 -90.5 21.3 -90.7 16.4 -90.6 11.7 -90.6 7 -90.2 2.6 -89.8 -2.1 -89.1 -6.4 -88.4 -10.8 -87.5 -15.1 -86.4 -19.2 -85.2 -23.3 -83.8 -27.5 -82.4 -31.4 -80.6 -35.3 -78.8 -39.1 -76.9 -43 -74.8 -46.5 -72.5 -50.2 -70.2 -53.7 -67.5 -57.2 -64.7 -60.5 -62.1 -63.9 -58.9 -67.1 -55.8 -70.3 -52.5 -73.4 -48.9 -76.2 -45.4 -79.4 -41.7 -82 -37.6 -84.9 -33.6 -87.6 -29.3 -90.2 0 0 0 -0.1zm1373.6 -2294.4l28.8 139 0 0 -102.8 24.3 -98.5 29 -94 33.6 -89.8 38 -85.4 42 -81.3 45.9 -77 49.8 -72.9 53.1 -68.9 56.5 -64.6 59.6 -60.8 62.5 -56.6 65.2 -52.7 67.7 -48.6 70.2 -44.8 72.1 -40.8 74.1 -36.9 75.8 -32.9 77.3 -29 78.6 -25 79.6 -21.3 80.6 -17.4 81.1 -13.6 81.6 -9.6 81.7 -5.8 81.8 -2 81.6 1.8 81 5.6 80.4 9.2 79.5 13 78.3 16.6 77 20.4 75.4 -136 40.5 -22.2 -82.3 -18.3 -84 -14 -85.1 -10.2 -86.2 -5.9 -87.1 -2 -87.7 2.2 -88.1 6.3 -88.4 10.5 -88.3 14.5 -88 18.8 -87.7 23 -87 27.1 -86.2 31.5 -85.1 35.6 -83.7 40.1 -82.3 44.3 -80.4 48.5 -78.5 53 -76.2 57.4 -73.8 61.8 -71.1 66.2 -68.1 70.6 -65.1 75.1 -61.6 79.4 -58 84.1 -54.1 88.3 -49.9 92.8 -45.8 97.2 -40.9 101.6 -36.4 106 -31.3 110.4 -26.1 0 0 -0.1 0.1zm7795.4 -1603.6l29.2 138.9 0 0 -180.1 37.8 -192.2 40.1 -203.7 42.4 -214.3 44.5 -224.1 46.5 -233.1 48.2 -241.2 49.7 -248.6 51.2 -255 52.4 -260.9 53.6 -265.7 54.6 -269.8 55.4 -273.2 56 -275.7 56.4 -277.2 56.8 -278.2 56.9 -278.1 57 -277.4 56.8 -275.9 56.3 -273.4 56 -270.2 55.3 -266.1 54.5 -261.4 53.6 -255.7 52.4 -249.2 51 -242 49.8 -233.8 48 -225 46.3 -215.2 44.3 -204.8 42.3 -193.3 39.9 -181.2 37.7 -28.8 -139 181.2 -37.6 193.5 -40 204.7 -42.3 215.3 -44.4 225 -46.3 233.9 -48 241.9 -49.7 249.3 -51 255.7 -52.5 261.4 -53.6 266.2 -54.4 270.1 -55.3 273.5 -56 275.8 -56.4 277.4 -56.8 278.1 -56.9 278.1 -56.9 277.4 -56.9 275.5 -56.3 273.2 -56 269.9 -55.4 265.7 -54.6 260.8 -53.6 255 -52.5 248.6 -51.2 241.2 -49.7 232.9 -48.1 224 -46.4 214.2 -44.5 203.7 -42.4 192.1 -40.1 180 -37.8 0 0 0 0zm1775.3 966.8l-136.1 40 0 0 -21.9 -68.4 -24.5 -65.5 -27 -62.7 -29.4 -59.8 -31.8 -57.2 -34 -54.4 -36.2 -51.6 -38.2 -49 -40.4 -46.3 -42.2 -43.6 -44.1 -41.2 -46 -38.3 -47.7 -35.9 -49.5 -33.3 -51 -30.7 -52.6 -28.1 -54.1 -25.6 -55.5 -23 -56.9 -20.5 -58.2 -17.8 -59.3 -15.4 -60.5 -12.7 -61.5 -10.4 -62.5 -7.6 -63.4 -5.2 -64.2 -2.4 -64.9 0 -65.6 2.6 -66.2 5.1 -66.6 7.9 -67 10.3 -67.3 12.8 -29.2 -138.9 72.4 -13.8 72.1 -11.1 71.8 -8.3 71.5 -5.7 71.2 -2.7 70.5 0 70 2.6 69.2 5.5 68.4 8.5 67.6 11.3 66.6 14.1 65.5 16.9 64.5 19.9 63.1 22.7 61.8 25.7 60.3 28.5 58.9 31.5 57.2 34.4 55.5 37.3 53.6 40.2 51.7 43.3 49.6 46.1 47.5 49.1 45.2 51.9 42.9 54.9 40.5 57.8 37.8 60.6 35.3 63.4 32.6 66.3 29.7 69.2 27 71.9 23.9 74.8 0 0 0.1 0z"/>
    </g>
    <g>
     <path class="fil1" d="M11651.3 6991.7l-142 0 0 0 -2.1 -86.1 -6.5 -84.9 -10.6 -83.6 -14.7 -82.4 -18.7 -80.8 -22.5 -79.3 -26.3 -77.7 -29.9 -75.8 -33.4 -74 -36.9 -72.1 -40.3 -69.9 -43.4 -67.9 -46.7 -65.5 -49.7 -63.1 -52.4 -60.7 -55.3 -58.1 -58.2 -55.3 -60.6 -52.6 -63.1 -49.6 -65.6 -46.7 -67.8 -43.5 -70.1 -40.2 -72 -36.9 -74 -33.4 -75.9 -30 -77.6 -26.2 -79.4 -22.6 -80.8 -18.6 -82.3 -14.7 -83.7 -10.7 -84.9 -6.4 -86.2 -2.2 0 -141.9 93.4 2.4 92 6.9 90.8 11.6 89.3 15.9 87.7 20.3 86.1 24.5 84.3 28.5 82.4 32.4 80.3 36.3 78.2 40.1 76 43.7 73.6 47.1 71.1 50.6 68.5 53.8 65.8 57 62.9 60 60.1 63 56.9 65.8 53.8 68.5 50.7 71.2 47.1 73.5 43.6 75.9 40.1 78.2 36.3 80.4 32.5 82.3 28.5 84.4 24.5 86.1 20.2 87.7 16 89.4 11.6 90.8 6.9 92 2.4 93.2 0 0 0 -0.1zm-1813.5 1813.4l0 -141.8 0 0 86.2 -2.2 84.8 -6.5 83.8 -10.7 82.2 -14.7 80.8 -18.6 79.4 -22.5 77.6 -26.3 75.9 -29.8 74 -33.5 72.1 -37 70 -40.2 67.8 -43.5 65.6 -46.6 63.1 -49.7 60.6 -52.6 58.1 -55.3 55.4 -58 52.5 -60.7 49.6 -63.1 46.7 -65.6 43.4 -67.8 40.4 -70 36.8 -72.1 33.5 -74 29.9 -75.8 26.2 -77.7 22.5 -79.3 18.8 -80.8 14.7 -82.3 10.5 -83.7 6.5 -84.9 2.2 -86 141.9 0 -2.4 93.2 -6.9 92 -11.6 90.8 -16 89.4 -20.2 87.7 -24.5 86.1 -28.5 84.3 -32.5 82.4 -36.3 80.4 -40.1 78.1 -43.6 76 -47.1 73.5 -50.7 71.2 -53.8 68.5 -56.9 65.8 -60.1 63 -62.9 60 -65.8 57 -68.5 53.8 -71.1 50.5 -73.6 47.2 -76 43.7 -78.2 40 -80.3 36.4 -82.4 32.5 -84.3 28.5 -86.1 24.4 -87.7 20.3 -89.3 15.9 -90.8 11.5 -92 7.1 -93.4 2.3 0 0 0.1 -0.2zm-1813.5 -1813.4l142 0 0 0 2.2 86.1 6.4 84.9 10.6 83.6 14.7 82.4 18.7 80.8 22.5 79.3 26.3 77.7 29.9 75.8 33.5 74.1 36.8 72 40.2 70 43.6 67.8 46.6 65.6 49.7 63.1 52.5 60.7 55.4 58 58 55.3 60.7 52.6 63.1 49.7 65.6 46.6 67.8 43.5 70 40.2 72.1 37 74 33.5 75.9 29.8 77.6 26.3 79.3 22.5 80.9 18.6 82.2 14.7 83.7 10.7 84.9 6.5 86.1 2.2 0 141.8 -93.3 -2.2 -92 -7.1 -90.8 -11.5 -89.3 -15.9 -87.8 -20.3 -86.1 -24.4 -84.2 -28.6 -82.4 -32.4 -80.4 -36.4 -78.2 -40.1 -76 -43.7 -73.5 -47.1 -71 -50.5 -68.6 -53.9 -65.8 -56.9 -62.9 -60 -60 -63.1 -57 -65.7 -53.9 -68.5 -50.5 -71.1 -47.1 -73.6 -43.6 -76 -40.2 -78.2 -36.2 -80.3 -32.5 -82.4 -28.6 -84.3 -24.5 -86.1 -20.2 -87.7 -15.9 -89.4 -11.7 -90.8 -6.9 -92 -2.4 -93.3 0 0 0 0.1zm1813.5 -1813.5l0 141.9 0 0 -86.1 2.2 -84.9 6.5 -83.7 10.7 -82.2 14.7 -80.9 18.6 -79.3 22.5 -77.6 26.3 -75.9 29.9 -74 33.4 -72.1 37 -70 40.2 -67.8 43.5 -65.6 46.6 -63.1 49.7 -60.7 52.6 -58.1 55.3 -55.3 58 -52.5 60.8 -49.7 63.1 -46.6 65.4 -43.4 67.9 -40.4 70 -36.8 72.1 -33.5 74 -29.9 75.9 -26.3 77.6 -22.5 79.3 -18.7 80.8 -14.7 82.4 -10.6 83.6 -6.4 84.9 -2.2 86.1 -142 0 2.4 -93.3 6.9 -92 11.7 -90.8 15.9 -89.4 20.2 -87.7 24.5 -86.1 28.6 -84.3 32.5 -82.4 36.2 -80.3 40.2 -78.2 43.6 -76 47.1 -73.5 50.5 -71.2 53.9 -68.4 57 -65.8 60 -63.1 62.9 -59.9 65.8 -57.1 68.6 -53.8 71 -50.5 73.5 -47.2 76 -43.7 78.2 -40 80.4 -36.4 82.4 -32.4 84.2 -28.5 86.1 -24.5 87.8 -20.3 89.3 -15.8 90.8 -11.6 92 -7 93.3 -2.4 0 0 0 0.1z"/>
    </g>
    <circle class="fil0" cx="9837.8" cy="6991.7" r="1097.6"/>
    <g>
     <path class="fil1" d="M8024.3 10931.8l142 0 0 0 1.2 65.2 3.7 64.6 6.1 63.8 8.6 63.1 10.9 62.5 13 61.5 15.3 60.6 17.6 59.8 19.6 58.8 21.8 57.8 23.8 56.8 25.9 55.8 27.8 54.5 29.6 53.5 31.6 52.1 33.5 50.9 35.2 49.7 37 48.3 38.6 46.8 40.2 45.4 41.9 43.9 43.5 42.3 44.9 40.9 46.5 39.1 47.7 37.4 49.3 35.8 50.5 34 51.9 32.2 53 30.4 54.2 28.3 55.4 26.4 56.3 24.5 -53.9 131.3 -61.3 -26.5 -60 -28.8 -58.9 -30.8 -57.6 -32.9 -56.1 -34.8 -54.8 -36.9 -53.4 -38.7 -51.8 -40.7 -50.4 -42.5 -48.7 -44.2 -47.1 -46 -45.5 -47.5 -43.7 -49.3 -41.9 -50.8 -40 -52.3 -38.3 -53.8 -36.1 -55.3 -34.3 -56.6 -32.3 -57.9 -30.1 -59.3 -28.1 -60.4 -25.8 -61.7 -23.7 -62.8 -21.3 -63.8 -19 -64.9 -16.8 -65.9 -14.2 -66.8 -11.6 -67.6 -9.3 -68.5 -6.7 -69.2 -4 -70 -1.3 -70.6 0 0 -0.1 -0.2zm1303.2 -1740.6l42.4 135.5 -1.3 0.5 -64.5 20.2 -63.4 22.8 -62.2 25.3 -60.9 27.6 -59.6 30 -58.2 32.2 -56.8 34.5 -55.3 36.7 -53.7 38.8 -52.1 40.8 -50.3 42.8 -48.7 44.6 -46.8 46.6 -45 48.5 -43.1 50.1 -41.1 51.9 -39 53.4 -37 55 -34.8 56.5 -32.6 58.1 -30.3 59.3 -28.1 60.8 -25.5 62 -23.1 63.2 -20.7 64.4 -18.1 65.5 -15.5 66.6 -12.8 67.5 -10 68.5 -7.2 69.3 -4.3 70.3 -1.5 70.9 -142 0 1.6 -76.9 4.7 -76.1 8 -75.2 10.9 -74.3 13.8 -73.3 16.8 -72.2 19.6 -71.2 22.5 -69.8 25 -68.7 27.9 -67.3 30.3 -65.9 32.9 -64.5 35.4 -62.9 37.7 -61.3 40.2 -59.8 42.4 -57.9 44.5 -56.2 46.7 -54.4 48.8 -52.5 50.8 -50.5 52.7 -48.5 54.7 -46.4 56.5 -44.2 58.3 -42.1 59.9 -39.7 61.6 -37.3 63.2 -35.1 64.7 -32.5 66.1 -30.1 67.5 -27.4 68.9 -24.7 70 -22 -1.3 0.3 -0.2 -0.1zm42.4 135.5l0.2 -0.1 -1.5 0.5 1.2 -0.4 0.1 0zm2571 -802.1l-2571 802.1 -42.4 -135.5 2571.1 -802.1 45.5 1.1 -3.2 134.4 0 0zm-42.3 -135.5l22.9 -7.2 22.6 8.3 -45.5 -1.1zm2139.9 2750.9l-54.7 -131 -32.7 103.2 -69.6 -111.8 -68.1 -111 -66.5 -110.4 -65 -109.1 -63.9 -108.2 -62.7 -106.9 -61.7 -105.6 -60.9 -104.1 -60.1 -102.4 -59.6 -100.6 -59 -99 -58.7 -96.7 -58.5 -94.6 -58.6 -92.4 -58.5 -90 -58.7 -87.4 -59.1 -84.8 -59.5 -82.1 -60 -79 -60.7 -76.2 -61.5 -72.9 -62.5 -69.6 -63.4 -66.3 -64.6 -62.8 -65.8 -59.2 -67.4 -55.5 -68.9 -51.7 -70.4 -47.7 -72.4 -43.9 -74.3 -39.8 -76.4 -35.7 -78.7 -31.3 48.7 -133.3 86.4 34.5 83.6 38.9 81 43.4 78.7 47.7 76.4 51.7 74.1 55.7 72.2 59.5 70.2 63 68.5 66.6 66.8 69.7 65.4 73.1 64.1 76.1 63.1 78.8 62 81.8 61.1 84.4 60.6 86.9 59.9 89.2 59.6 91.6 59.3 93.9 59.3 95.7 59.3 97.7 59.5 99.6 59.8 101.1 60.3 102.7 60.9 104.2 61.7 105.4 62.6 106.7 63.5 107.8 64.7 108.6 66.1 109.5 67.5 110.2 69 110.8 -32.6 103.3 -0.2 0zm32.8 -103.4l44.6 71.1 -77.3 32.3 32.7 -103.4zm-2618.3 1028.6l2530.9 -1056.2 54.7 131 -2531 1056.3 -54.6 -131.1 0 0zm-2304.5 544.5l53.9 -131.3 0 0 71.3 27.3 70.7 23.2 70.4 19.2 70 15.7 69.8 12.1 69.5 8.5 69.5 5.4 69.2 2.2 69.2 -0.8 69.2 -3.7 69 -6.4 69.2 -9.1 69.3 -11.3 69.2 -13.8 69.3 -16 69.5 -18 69.6 -19.9 69.6 -21.7 69.8 -23.3 70 -24.8 70.2 -26.2 70.3 -27.2 70.6 -28.3 70.7 -29.3 71 -29.9 71.2 -30.5 71.4 -31 71.8 -31.2 72 -31.3 72.3 -31.3 72.8 -31.1 73 -30.8 54.6 131 -72.1 30.4 -72.1 30.9 -71.9 31.1 -72 31.3 -71.8 31.2 -71.8 31.1 -71.9 30.9 -71.8 30.1 -71.9 29.8 -72 28.8 -72 28.1 -72.1 26.8 -72.3 25.5 -72.4 24.3 -72.6 22.5 -72.9 20.9 -73.1 18.9 -73.3 16.9 -73.6 14.6 -73.9 12.3 -74.2 9.6 -74.5 7 -74.8 3.9 -75.3 0.9 -75.5 -2.4 -75.8 -5.8 -76.2 -9.5 -76.6 -13.1 -76.8 -17.1 -77 -21.2 -77.4 -25.4 -77.6 -29.7 0 0 0.1 0zm8528.7 -5956.1l0 142 0 0 -19.2 0.1 -18.8 0.4 -18.3 0.6 -18.1 0.9 -17.6 1.1 -17.2 1.2 -17 1.6 -16.7 1.7 -16.3 2 -16.1 2.2 -16 2.4 -15.8 2.4 -15.6 2.8 -15.4 2.9 -15.3 3.2 -15.2 3.3 -15.3 3.4 -15 3.6 -15.2 3.8 -15.2 3.9 -15.2 4.1 -15.2 4.3 -15.3 4.3 -15.5 4.6 -15.5 4.6 -15.8 4.8 -15.9 4.9 -16.1 5.1 -16.2 5 -16.6 5.4 -16.8 5.3 -17.1 5.5 -43.2 -135.3 17 -5.5 17 -5.3 16.6 -5.4 16.8 -5.2 16.4 -5.2 16.4 -5 16.4 -5 16.3 -4.8 16.3 -4.9 16.3 -4.6 16.4 -4.6 16.3 -4.4 16.4 -4.2 16.7 -4.2 16.7 -4 16.6 -3.7 16.9 -3.6 17.1 -3.5 17.2 -3.2 17.5 -3.1 17.6 -2.9 17.9 -2.6 18.1 -2.4 18.3 -2.2 18.7 -2 19 -1.8 19.2 -1.4 19.6 -1.2 20 -0.9 20.4 -0.8 20.7 -0.4 21.1 -0.2 0 0 -0.2 0.1zm1424.4 1424.3l-142 0 0 0 -1.6 -66 -5 -65.1 -8.1 -64.3 -11.4 -63.1 -14.2 -62 -17.3 -60.8 -20.2 -59.6 -22.8 -58.1 -25.7 -56.9 -28.4 -55.3 -30.9 -53.6 -33.4 -52.1 -35.7 -50.2 -38.2 -48.5 -40.3 -46.6 -42.4 -44.5 -44.6 -42.5 -46.5 -40.3 -48.5 -38.1 -50.2 -35.7 -52.1 -33.4 -53.7 -30.9 -55.2 -28.3 -56.8 -25.6 -58.3 -23 -59.5 -20.3 -60.9 -17.2 -62 -14.3 -63.1 -11.3 -64.2 -8.1 -65.1 -4.9 -66.1 -1.7 0 -142 73.2 1.9 72.3 5.5 71.3 9.1 70.1 12.4 69 16 67.5 19.1 66.3 22.5 64.7 25.5 63.1 28.5 61.5 31.5 59.5 34.3 57.8 37.1 55.8 39.6 53.9 42.3 51.6 44.8 49.5 47.1 47.1 49.5 44.8 51.6 42.3 53.8 39.6 55.9 37.1 57.8 34.3 59.6 31.5 61.4 28.5 63.2 25.4 64.7 22.6 66.2 19.1 67.5 15.9 69 12.5 70.2 9.1 71.2 5.5 72.3 1.9 73.2 0 0 0.1 0zm-210 522.3l116.2 -81.6 -124.7 16.2 4.6 -12.5 4.4 -12.7 4.3 -12.9 4.2 -12.9 4 -13 4 -13.2 3.7 -13 3.6 -13.4 3.5 -13.5 3.4 -13.5 3.2 -13.7 3.2 -13.7 2.8 -13.9 2.8 -13.9 2.7 -14 2.4 -14.3 2.4 -14.3 2.2 -14.4 2.1 -14.6 1.9 -14.5 1.8 -14.7 1.6 -15 1.5 -15.1 1.3 -15 1.1 -15.2 1.1 -15.5 0.9 -15.4 0.6 -15.5 0.6 -15.8 0.4 -15.8 0.2 -15.9 0.1 -16.1 142 0 -0.1 17.4 -0.3 17.5 -0.5 17.2 -0.5 17 -0.8 17.2 -1 17 -1.1 16.7 -1.2 16.7 -1.5 16.7 -1.6 16.4 -1.7 16.4 -2 16.4 -2.2 16.2 -2.3 16.1 -2.4 16 -2.6 15.8 -2.8 15.7 -2.9 15.7 -3.2 15.6 -3.2 15.3 -3.4 15.5 -3.6 15.1 -3.7 15.2 -4 15 -3.9 14.8 -4.3 14.9 -4.4 14.7 -4.5 14.7 -4.7 14.4 -4.9 14.3 -4.9 14.3 -5.1 14.2 -124.7 16.3 -0.1 -0.1zm124.7 -16.2l-46.9 126.9 -77.8 -110.6 124.7 -16.3zm-1902.8 -1822.3l43.2 135.3 -2.1 -135.8 78.8 24.2 76.7 27.1 74.6 29.9 72.5 32.5 70.5 35.1 68.7 37.4 66.7 39.9 65 42.4 63.3 44.3 61.9 46.7 60.2 48.5 59 50.5 57.6 52.4 56.4 54.2 55.3 55.8 54.3 57.6 53.4 59 52.6 60.5 51.9 61.9 51.3 63.1 50.7 64.5 50.4 65.6 50 66.7 49.8 67.7 49.6 68.6 49.7 69.6 49.7 70.4 49.7 71 50.2 71.8 50.4 72.3 51 72.9 51.3 73.3 -116.1 81.7 -51.6 -73.7 -51 -73 -50.5 -72.3 -49.9 -71.6 -49.7 -70.8 -49.3 -69.8 -49.2 -68.9 -49 -67.9 -49.2 -66.6 -49.1 -65.6 -49.2 -64.2 -49.7 -63 -49.8 -61.5 -50.4 -60 -50.8 -58.5 -51.4 -56.9 -52.1 -55.1 -52.9 -53.5 -53.9 -51.5 -54.6 -49.7 -55.6 -47.8 -56.9 -45.7 -58 -43.7 -59.3 -41.7 -60.7 -39.4 -62.2 -37.1 -63.8 -35 -65.4 -32.5 -67.3 -30.1 -69.2 -27.8 -71.2 -25.1 -73.4 -22.6 -2 -135.9 0.1 -0.1zm2 135.8l-225.4 -64.4 223.4 -71.4 2.1 135.8 -0.1 0z"/>
    </g>
    <g>
     <path class="fil1" d="M11651.3 10931.8l-142 0 0 0 -2.1 -86.1 -6.5 -84.9 -10.6 -83.6 -14.7 -82.4 -18.7 -80.8 -22.5 -79.3 -26.3 -77.7 -29.9 -75.7 -33.4 -74.1 -36.9 -72.1 -40.3 -70 -43.4 -67.8 -46.7 -65.5 -49.7 -63.2 -52.4 -60.6 -55.4 -58.1 -58.1 -55.3 -60.6 -52.6 -63.1 -49.6 -65.6 -46.6 -67.8 -43.5 -70.1 -40.3 -72 -36.9 -74 -33.5 -75.9 -29.8 -77.6 -26.4 -79.4 -22.5 -80.8 -18.6 -82.3 -14.7 -83.7 -10.7 -84.9 -6.4 -86.2 -2.2 0 -141.9 93.4 2.3 92 7 90.8 11.5 89.3 16 87.7 20.3 86.1 24.4 84.3 28.5 82.4 32.5 80.3 36.4 78.2 40 76 43.7 73.6 47.1 71.1 50.6 68.5 53.8 65.8 56.9 62.9 60.1 60.1 63 56.9 65.8 53.8 68.5 50.7 71.1 47.1 73.5 43.6 76 40.1 78.2 36.3 80.4 32.5 82.3 28.5 84.4 24.5 86.1 20.2 87.6 16 89.5 11.6 90.7 6.9 92.1 2.4 93.2 0 0 0 -0.1zm-1813.5 1813.6l0 -142 0 0 86.2 -2.2 84.8 -6.4 83.8 -10.7 82.2 -14.7 80.8 -18.7 79.4 -22.5 77.6 -26.3 75.9 -29.9 74 -33.5 72.1 -36.9 70 -40.2 67.8 -43.5 65.6 -46.6 63.1 -49.7 60.6 -52.5 58.1 -55.4 55.4 -58 52.5 -60.7 49.6 -63.2 46.7 -65.5 43.4 -67.8 40.4 -70 36.8 -72.1 33.5 -74 29.9 -75.9 26.2 -77.6 22.5 -79.3 18.8 -80.9 14.7 -82.3 10.5 -83.6 6.5 -84.9 2.2 -86.1 141.9 0 -2.4 93.2 -6.9 92.1 -11.6 90.8 -16 89.3 -20.2 87.8 -24.5 86.1 -28.5 84.3 -32.5 82.4 -36.3 80.3 -40.1 78.3 -43.6 75.9 -47.1 73.5 -50.7 71.2 -53.8 68.4 -56.9 65.8 -60.1 63 -62.9 60 -65.8 57 -68.5 53.8 -71.1 50.5 -73.6 47.2 -76 43.7 -78.2 40.1 -80.3 36.3 -82.4 32.5 -84.3 28.6 -86.1 24.3 -87.8 20.3 -89.3 16 -90.7 11.5 -92.1 7 -93.3 2.4 0 0 0.1 0zm-1813.5 -1813.6l142 0 0 0 2.2 86.1 6.4 84.9 10.6 83.7 14.7 82.3 18.7 80.8 22.5 79.3 26.3 77.6 29.9 75.9 33.5 74.1 36.8 72.1 40.2 69.9 43.6 67.9 46.6 65.5 49.7 63.2 52.5 60.6 55.4 58.1 58 55.4 60.7 52.5 63.1 49.6 65.6 46.6 67.8 43.6 70 40.2 72.1 36.9 74 33.4 75.9 30 77.6 26.3 79.3 22.5 80.9 18.6 82.2 14.7 83.7 10.7 84.9 6.5 86.1 2.1 0 142 -93.3 -2.4 -92 -7 -90.8 -11.5 -89.3 -16 -87.8 -20.3 -86.1 -24.3 -84.2 -28.6 -82.4 -32.5 -80.4 -36.3 -78.2 -40.1 -76 -43.7 -73.5 -47.2 -71 -50.5 -68.6 -53.8 -65.8 -57 -62.9 -60 -60 -63 -57 -65.8 -53.9 -68.4 -50.5 -71.2 -47.1 -73.5 -43.6 -75.9 -40.2 -78.3 -36.2 -80.3 -32.5 -82.4 -28.6 -84.3 -24.5 -86.1 -20.2 -87.8 -15.9 -89.3 -11.7 -90.8 -6.9 -92.1 -2.4 -93.2 0 0 0 0zm1813.5 -1813.5l0 141.9 0 0 -86.1 2.2 -84.9 6.4 -83.7 10.8 -82.2 14.6 -80.9 18.7 -79.3 22.4 -77.6 26.4 -75.9 29.8 -74 33.5 -72.1 37 -70 40.2 -67.8 43.5 -65.6 46.6 -63.1 49.7 -60.7 52.6 -58 55.2 -55.4 58.1 -52.5 60.6 -49.7 63.2 -46.6 65.5 -43.6 67.9 -40.2 69.9 -36.8 72.1 -33.5 74.1 -29.9 75.8 -26.3 77.7 -22.5 79.3 -18.7 80.8 -14.7 82.4 -10.6 83.6 -6.4 84.9 -2.2 86.1 -142 0 2.4 -93.3 6.9 -92 11.7 -90.8 15.9 -89.4 20.2 -87.7 24.5 -86.1 28.6 -84.3 32.5 -82.4 36.2 -80.3 40.2 -78.2 43.6 -76 47.1 -73.6 50.5 -71.1 53.9 -68.5 57 -65.7 60 -63.1 62.9 -60 65.8 -56.9 68.6 -53.9 71 -50.5 73.5 -47.1 76 -43.7 78.2 -40.1 80.4 -36.4 82.4 -32.4 84.2 -28.6 86.1 -24.4 87.8 -20.3 89.3 -15.9 90.8 -11.5 92 -7.1 93.3 -2.2 0 0 0 0z"/>
    </g>
    <circle class="fil0" cx="9837.8" cy="10931.8" r="1097.6"/>
    <g>
     <path class="fil1" d="M17792.5 14266.2l45.7 -134.4 -58.4 5.8 145.7 -83.5 149.8 -84.7 153.5 -85.9 156.6 -87.1 159.6 -88.6 161.8 -90 163.7 -91.7 165 -93.3 165.9 -95.2 166.5 -97 166.3 -99.1 166.1 -101.1 165 -103.2 163.6 -105.6 161.8 -107.8 159.6 -110.3 156.7 -112.9 153.3 -115.3 149.8 -118.1 145.6 -120.9 140.9 -123.7 135.7 -126.6 130.4 -129.6 124.2 -132.7 117.8 -135.8 110.9 -139.1 103.6 -142.4 95.7 -145.9 87.5 -149.2 78.8 -152.8 69.8 -156.5 60.3 -160.4 134.4 46 -63.4 168.4 -73.1 164 -82.5 159.8 -91.3 155.7 -99.5 151.7 -107.4 147.6 -114.6 143.9 -121.5 140.1 -127.8 136.4 -133.7 133.1 -139 129.7 -144 126.2 -148.4 123.2 -152.4 120.3 -155.9 117.2 -159.1 114.5 -161.6 111.8 -163.7 109.1 -165.4 106.6 -166.5 104.2 -167.4 102 -167.5 99.7 -167.5 97.6 -166.7 95.5 -165.7 93.8 -164.1 91.9 -162 90.2 -159.5 88.5 -156.5 87.1 -153.1 85.6 -149.3 84.4 -144.7 83 -58.4 5.7 0 0.1zm58.3 -5.7l-27.8 16.1 -30.5 -10.4 58.3 -5.7zm-6529.5 -5969.9l42.3 135.4 -21.2 -138.7 224.1 13 209.4 38 195.8 61.6 182.8 84 171.1 104.7 160.5 123.4 151.5 140.9 143.7 156.6 137.8 170.8 133.4 183.8 130.6 195.6 129.3 205.9 129.4 215 131 223 134.3 229.6 138.7 235 144.8 239.1 152.1 241.8 160.9 243.6 171.1 243.7 182.7 243 195.6 240.7 210.2 237.2 225.8 232.5 243.2 226.7 261.9 219.4 281.8 211 303.4 201.3 326.5 190.5 351 178.2 376.9 164.8 404.4 150.1 -45.7 134.3 -411.7 -152.8 -384.3 -168 -358.4 -182 -333.5 -194.6 -310.2 -205.7 -288.3 -215.8 -267.7 -224.3 -248.4 -231.6 -230.7 -237.4 -214.2 -241.9 -199.4 -245 -185.6 -247 -173.7 -247.4 -162.9 -246.5 -153.5 -244.3 -145.8 -240.7 -139.3 -236 -134.4 -229.7 -130.6 -222.2 -128.4 -213.3 -127.5 -203.1 -127.9 -191.5 -129.6 -178.8 -132.8 -164.6 -136.8 -149.1 -142.5 -132.5 -149.1 -114.9 -157.5 -96.2 -167 -76.8 -178.7 -56.4 -192 -34.8 -207.6 -11.8 -21.2 -138.8 0.1 0zm21.1 138.7l-465.8 0 444.7 -138.7 21.1 138.7zm5186.9 -1614.9l-5165.8 1611.6 -42.3 -135.4 5165.8 -1611.7 21.2 -3.3 21.1 138.8zm-42.2 -135.5l10.4 -3.3 10.7 0 -21.1 3.3zm4317.1 3663.7l-74.5 120.7 0 0 -198.8 -129.5 -186.8 -134.7 -175.8 -139.5 -165.4 -143.5 -155.7 -146.7 -146.7 -149.5 -138.6 -151.5 -131.4 -153.1 -124.7 -153.7 -118.9 -153.9 -113.9 -153.4 -109.6 -152.3 -106.1 -150.5 -103.4 -148.2 -101.4 -145.1 -100.1 -141.5 -99.7 -137.2 -100 -132.4 -101 -126.9 -102.6 -120.9 -105.1 -114.1 -108.2 -106.9 -112 -99.2 -116.6 -91 -122.1 -82.1 -128.1 -73 -135.2 -63.3 -143.1 -53.1 -152 -42.2 -161.8 -31.1 -172.6 -19.1 -184.2 -6.6 0 -141.9 194.3 6.9 183.5 20.3 173 33.2 163.4 45.4 154.2 57.2 145.6 68.2 137.9 78.4 130.5 87.9 124 96.7 118.3 104.7 113.4 112.1 109.2 118.7 106 124.7 103.5 130.1 101.8 134.8 101 139.1 100.9 142.5 101.7 145.6 103.1 147.8 105.6 149.8 108.6 150.7 112.5 151.5 117 151.5 122.4 150.9 128.6 149.8 135.4 148.1 143 145.8 151.6 142.8 160.7 139.5 170.8 135.5 181.5 131 193.1 125.8 0 0 0 -0.1zm1541.4 155.1l-134.4 -46 105.9 82.5 -49.2 30.7 -49.1 28.3 -49.1 26 -49.2 23.8 -49.2 21.4 -49.3 19.1 -49.4 16.9 -49.5 14.6 -49.4 12.4 -49.5 10.2 -49.6 8 -49.6 5.8 -49.6 3.7 -49.6 1.6 -49.6 -0.5 -49.7 -2.6 -49.5 -4.6 -49.7 -6.6 -49.7 -8.5 -49.5 -10.4 -49.7 -12.3 -49.5 -14.1 -49.7 -16 -49.6 -17.5 -49.8 -19.4 -49.7 -21.1 -49.8 -22.8 -49.9 -24.2 -50 -25.9 -50.2 -27.5 -50.2 -28.9 -50.3 -30.5 74.5 -120.7 48 28.9 47.7 27.5 47.3 26 47 24.3 46.7 22.7 46.4 21.1 46 19.5 45.9 17.9 45.5 16.2 45.2 14.5 45 12.8 44.8 11 44.6 9.4 44.3 7.6 44.2 5.8 44 4.1 43.8 2.3 43.7 0.5 43.6 -1.4 43.6 -3.3 43.5 -5 43.5 -7.2 43.6 -8.9 43.6 -10.9 43.7 -13 43.9 -15 44 -17 44.1 -19.2 44.3 -21.3 44.5 -23.6 44.7 -25.8 45 -28 105.8 82.5 -0.1 0.1zm-105.7 -82.6l172 -111.5 -66.3 194.1 -105.7 -82.6z"/>
    </g>
    <path class="fil1" d="M20406.4 11043.5l-3191.8 1856.2 -151.2 -142.9 3191.8 -1856.2 151.2 142.9zm-4759.4 -3238.2c308,292.9 847.5,906.2 1007.4,1146.5 453.8,-198.5 1052.3,-450.8 1276.7,-544.5 -325.7,-498.7 -811.1,-939.6 -1091.1,-1037.7 -390.2,139.5 -846.2,309.3 -1193,435.7zm-144.5 244.6l-1766.6 665.6 -134.7 -150.6 1766.8 -665.5 134.5 150.5zm545.2 821.7l-1688.1 683.7 -115 -155 1688 -683.8 115.1 155.1zm2280.9 64.1l-3343.4 1543.1 -99 -169.4 3343.4 -1543.2 99 169.5zm582.8 755.6l-3327.3 1615.2 -108.2 -167.8 3327.3 -1615.3 108.2 167.9zm652.6 716.8l-3241.7 1659.3 -129.9 -147.4 3241.6 -1659.4 130 147.5z"/>
    <g>
     <path class="fil1" d="M11408.7 13549.3l3079.5 -1267.8 54.1 131.1 -3079.5 1268 -38.6 4.4 -15.5 -135.7zm15.5 135.7l-246.2 -40.5 230.7 -95.2 15.5 135.7zm8809.4 1452.1l-8809.4 -1452.1 23.1 -140 8809.4 1452.1 24.6 131 -47.7 9 0 0zm47.7 -9l-22.2 13.2 -25.5 -4.2 47.7 -9zm4501.5 -2662.2l-4501.5 2662.2 -72.3 -122.1 4501.5 -2662.2 41.3 -9.7 31 131.8zm-30.9 -131.8l225.5 16.8 -194.6 115 -30.9 -131.8zm-3233.2 -240.4l3233.2 240.4 -10.5 141.5 -3233.1 -240.2 10.4 -141.7z"/>
    </g>
    <g>
     <path class="fil1" d="M20233.6 15673.2l-8809.4 -1452.1 23.1 -140 8809.4 1452.1 24.6 131.1 -47.7 8.9 0 0zm47.7 -8.9l-22.2 13.2 -25.5 -4.3 47.7 -8.9zm4501.5 -2662.1l-4501.5 2662.1 -72.3 -122.2 4501.5 -2662.2 72.3 122.3 0 0z"/>
    </g>
    <g>
     <path class="fil1" d="M20233.6 16126.7l-8809.4 -1452.1 23.1 -140.1 8809.4 1452.2 24.6 131.1 -47.7 8.9 0 0zm47.7 -8.9l-22.2 13.1 -25.5 -4.2 47.7 -8.9zm4501.5 -2662.2l-4501.5 2662.2 -72.3 -122.2 4501.5 -2662.2 72.3 122.2z"/>
    </g>
   </g>
  </g>
 </g>
</svg>
