<?xml version="1.0" encoding="UTF-8"?>
<!DOCTYPE svg PUBLIC "-//W3C//DTD SVG 1.1//EN" "http://www.w3.org/Graphics/SVG/1.1/DTD/svg11.dtd">
<!-- Creator: CorelDRAW 2018 (64-Bit) -->
<svg xmlns="http://www.w3.org/2000/svg" xml:space="preserve" width="224px" height="159px" version="1.1" style="shape-rendering:geometricPrecision; text-rendering:geometricPrecision; image-rendering:optimizeQuality; fill-rule:evenodd; clip-rule:evenodd"
viewBox="0 0 22400 15900"
 xmlns:xlink="http://www.w3.org/1999/xlink">
 <defs>
  <style type="text/css">
   <![CDATA[
    .fil0 {fill:#666666}
    .fil1 {fill:#666666;fill-rule:nonzero}
   ]]>
  </style>
 </defs>
 <g id="Layer_x0020_1">
  <metadata id="CorelCorpID_0Corel-Layer"/>
  <g id="_2394651478384">
   <g>
    <path class="fil0" d="M6722.7 3227.1l0.2 0.1c-1112.3,276.4 -1499.6,1385.5 -1255.4,2207.3 281.4,946.7 1287.1,1469.8 2218.1,1174.6 595,-188.7 1237.9,-390.4 1902.8,-597.5l11.1 10.8 -927.5 289.4c617,0 1048.1,285.7 1424.7,736.1l-0.1 0c-245.4,-293.3 -514,-516.7 -842,-636.7l-2594.7 809.5c-687.1,200.5 -1200.2,809.1 -1259.3,1545.7 -767.3,281.4 -1391.9,510.1 -1668.4,609.7l-0.4 0.2c1052.6,-379.3 1786.2,-1406.4 1740.4,-2583.9 -56.7,-1455.3 -1282.4,-2589.1 -2737.7,-2532.5 -181.8,7.1 -358.6,32.4 -528.7,74.2l0.9 -0.2c887.5,-220.8 3173.2,-777 4516,-1106.8zm-3213.6 6218.3c-255.4,67.4 -514,94.7 -768.2,85 65.7,2.3 132,2.3 198.8,-0.3 196.4,-7.6 386.9,-36.7 569.4,-84.7zm-793.7 83.9c-11,-0.6 -22,-1 -33,-1.7l33 1.7zm-1437.2 -507.4c-12.4,-9 -24.6,-18.1 -36.8,-27.3 12.2,9.3 24.4,18.3 36.8,27.3zm-39.4 -29.3c-361.1,-273.8 -655.3,-643.5 -839.1,-1089.3 179.8,434.6 472,809.3 839.1,1089.3zm-843.2 -1099.3c-5.6,-13.7 -11.1,-27.5 -16.5,-41.4 5.4,13.8 10.9,27.7 16.5,41.4zm-26.8 -68.2c-3.8,-10.3 -7.6,-20.7 -11.4,-31.1 3.8,10.4 7.6,20.8 11.4,31.1zm-23.4 -65l-5.2 -14.6 -4.5 -13.9 9.7 28.5zm-14.6 -1687.1c234.7,-749.6 800.7,-1420.2 1736.5,-1700.7 -823.6,250.7 -1471.1,891.8 -1736.5,1700.7z"/>
    <path id="1" class="fil1" d="M6672.2 3277.9l-0.1 -0.2 101.3 -101.3 0.1 0.1 -33.3 120.2 -68 -18.8zm101.3 -101.4l89.7 89.6 -123 30.6 33.3 -120.2zm-1237.3 2237.6l-137.3 40.8 0 0 -22 -81.2 -18 -82.8 -14.2 -84 -10.3 -84.9 -6.2 -85.9 -2.5 -86.4 1.6 -86.9 5.6 -87.2 9.5 -87.2 13.6 -86.9 17.5 -86.6 21.6 -86.1 25.6 -85.3 29.8 -84.2 33.9 -83.1 38 -81.7 42.1 -80 46.3 -78.2 50.6 -76.2 54.7 -73.9 59 -71.3 63.2 -68.7 67.5 -65.7 71.8 -62.6 76.1 -59.2 80.3 -55.6 84.6 -51.7 88.9 -47.8 93.2 -43.4 97.4 -38.9 101.7 -34.3 105.8 -29.3 34.6 139 -98.5 27.3 -94.2 31.7 -90 36 -85.9 40.1 -81.8 43.8 -77.7 47.6 -73.7 51 -69.7 54.2 -65.8 57.4 -61.9 60.3 -58 62.9 -54.1 65.5 -50.3 67.9 -46.4 70 -42.7 72 -38.8 73.7 -35 75.4 -31.3 76.7 -27.5 77.8 -23.7 78.9 -20 79.6 -16.2 80.2 -12.6 80.6 -8.8 80.7 -5.1 80.6 -1.5 80.4 2.2 79.9 5.8 79.2 9.5 78.4 13 77.2 16.6 76 20.1 74.4 0 0zm2127.7 1126.7l43.3 136.6 0 0 -91 26.3 -91.3 21.4 -91.5 16.6 -91.5 11.7 -91.4 7.2 -91 2.5 -90.7 -2.1 -89.9 -6.5 -89.2 -10.9 -88.3 -15.2 -87.2 -19.4 -86 -23.6 -84.6 -27.7 -83.1 -31.7 -81.4 -35.6 -79.6 -39.5 -77.5 -43.3 -75.5 -47 -73.2 -50.6 -70.7 -54.2 -68.2 -57.7 -65.4 -61.1 -62.6 -64.5 -59.5 -67.6 -56.3 -71 -53 -74 -49.4 -77 -45.8 -80.1 -42 -82.8 -38 -85.7 -33.9 -88.4 -29.6 -91 137.3 -40.8 27.3 84 31.3 81.5 35 79 38.7 76.3 42.2 73.7 45.5 71 48.8 68.1 51.8 65.3 54.8 62.4 57.7 59.3 60.3 56.4 62.8 53.1 65.2 50 67.6 46.7 69.5 43.3 71.6 39.9 73.4 36.4 75.1 32.9 76.6 29.3 78.1 25.5 79.2 21.8 80.4 17.9 81.4 14 82.2 10 82.9 6 83.5 1.9 83.9 -2.3 84.1 -6.5 84.4 -10.9 84.3 -15.3 84.1 -19.7 84 -24.3 0 0zm1974.3 -580.7l-99.7 102.9 71.2 16.9 -62.3 19.5 -62.1 19.3 -62 19.3 -61.8 19.3 -61.7 19.3 -61.6 19.2 -61.3 19.2 -61.3 19.2 -61 19 -60.9 19.1 -60.7 19 -60.6 19 -60.3 18.9 -60.1 18.8 -60 18.8 -59.7 18.8 -59.6 18.7 -59.3 18.6 -59.2 18.6 -58.9 18.6 -58.6 18.4 -58.5 18.4 -58.2 18.4 -58 18.3 -57.8 18.2 -57.5 18.1 -57.2 18.1 -57 18 -56.7 18 -56.5 17.9 -56.2 17.8 -55.9 17.7 -43.3 -136.6 56 -17.7 56.2 -17.8 56.5 -17.9 56.7 -17.9 57 -18.1 57.3 -18 57.5 -18.2 57.8 -18.2 58 -18.3 58.3 -18.4 58.4 -18.4 58.7 -18.5 59 -18.5 59.1 -18.6 59.4 -18.7 59.5 -18.7 59.9 -18.8 59.9 -18.8 60.2 -18.8 60.3 -18.9 60.6 -19 60.7 -19 60.9 -19.1 61.1 -19.1 61.2 -19.1 61.4 -19.2 61.6 -19.2 61.7 -19.3 61.9 -19.3 62 -19.3 62.1 -19.4 62.2 -19.4 71.2 16.9zm-71.2 -16.9l40.7 -12.7 30.5 29.6 -71.2 -16.9zm-17.3 130.6l-11.2 -10.8 99.7 -102.9 11.2 10.9 -28.5 119.8 -71.2 -17zm99.7 -102.8l86.5 83.9 -115 35.9 28.5 -119.8zm-998.7 272.4l927.5 -289.4 42.7 136.8 -927.6 289.4 -21.3 3.2 -21.3 -140zm21.3 140l-470.1 0 448.8 -140 21.3 140zm1451.3 731l-53.2 -133 -28.3 112.4 -34.8 -40.8 -35 -39.9 -35.3 -38.8 -35.6 -37.7 -36 -36.6 -36.4 -35.5 -36.7 -34.5 -37.2 -33.2 -37.6 -32.2 -38 -30.9 -38.6 -29.7 -39 -28.6 -39.6 -27.3 -40.1 -26.1 -40.7 -24.8 -41.2 -23.5 -42 -22.3 -42.6 -21 -43.3 -19.6 -44 -18.3 -44.7 -17 -45.5 -15.6 -46.4 -14.2 -47.2 -12.8 -48.1 -11.4 -49 -10 -50 -8.5 -50.9 -7 -52 -5.4 -53 -4 -54.1 -2.4 -55.2 -0.8 0 -143.3 59.4 0.9 58.4 2.6 57.3 4.3 56.5 5.9 55.4 7.7 54.4 9.2 53.6 10.9 52.6 12.4 51.7 14.1 50.8 15.6 49.9 17.1 49.1 18.6 48.2 20 47.4 21.6 46.5 22.9 45.8 24.3 45 25.6 44.3 27 43.5 28.3 42.8 29.6 42.1 30.7 41.4 32 40.9 33.2 40.1 34.3 39.6 35.5 39.1 36.5 38.5 37.6 38 38.7 37.5 39.7 37 40.7 36.6 41.7 36.2 42.6 -28.3 112.5zm28.3 -112.5l63.4 75.8 -91.7 36.7 28.3 -112.5zm-81.6 -20.5l0.1 0 53.2 133 -0.2 0 -81.5 -20.5 28.4 -112.5zm53.1 133l-48.2 19.3 -33.3 -39.8 81.5 20.5zm-847.1 -634.8l-42.7 -136.8 45.9 1.1 32 12.1 31.6 12.7 31.3 13.4 30.9 13.9 30.5 14.5 30.3 15.1 29.9 15.8 29.5 16.3 29.2 16.8 29 17.5 28.6 18 28.2 18.5 28 19.1 27.7 19.6 27.4 20.1 27.1 20.6 26.9 21.2 26.5 21.6 26.3 22.1 26.1 22.7 25.8 23.1 25.5 23.5 25.4 24 25 24.5 25 24.9 24.6 25.4 24.5 25.8 24.2 26.2 24.1 26.7 23.9 27 23.7 27.5 23.6 27.9 -109.9 91.9 -22.6 -26.8 -22.7 -26.2 -22.8 -25.9 -23 -25.4 -23.1 -25 -23.2 -24.5 -23.4 -24 -23.5 -23.6 -23.7 -23.1 -23.9 -22.7 -24.1 -22.1 -24.2 -21.7 -24.3 -21.2 -24.6 -20.7 -24.8 -20.1 -25 -19.7 -25.2 -19.2 -25.4 -18.7 -25.6 -18.1 -25.8 -17.6 -26.2 -17.1 -26.3 -16.6 -26.5 -16 -26.9 -15.4 -27.1 -15 -27.3 -14.4 -27.7 -13.8 -27.9 -13.3 -28.3 -12.8 -28.5 -12.1 -28.8 -11.6 -29.2 -11 46 1.1zm-42.7 -136.8l23.1 -7.2 22.8 8.3 -45.9 -1.1zm-2594.8 809.5l2594.8 -809.5 42.7 136.8 -2594.8 809.5 -1.3 0.4 -41.4 -137.2zm42.7 136.8l-1.3 0.4 0.1 0 1.2 -0.4zm-1256 1544.6l-49.3 -134.5 -46.8 61.5 7.2 -71.4 9.9 -70.7 12.5 -69.8 15.1 -68.8 17.7 -67.8 20.2 -66.8 22.6 -65.7 25.1 -64.5 27.4 -63.3 29.6 -62.1 31.9 -60.7 34.1 -59.4 36.2 -57.9 38.3 -56.5 40.3 -54.9 42.2 -53.3 44.2 -51.8 46 -50 47.9 -48.3 49.5 -46.5 51.3 -44.6 53 -42.7 54.5 -40.8 56.1 -38.8 57.6 -36.7 59 -34.7 60.4 -32.4 61.7 -30.2 63.1 -28 64.2 -25.6 65.4 -23.2 66.5 -20.9 40.1 137.6 -61.2 19.1 -60.3 21.4 -59.2 23.7 -58 25.7 -56.9 27.9 -55.7 29.8 -54.3 31.9 -53.1 33.9 -51.7 35.7 -50.3 37.7 -48.8 39.4 -47.3 41.1 -45.8 42.9 -44.1 44.5 -42.4 46.1 -40.8 47.7 -38.9 49.2 -37.2 50.7 -35.3 52 -33.3 53.5 -31.5 54.7 -29.3 55.9 -27.4 57.2 -25.2 58.3 -23.1 59.5 -20.8 60.5 -18.6 61.5 -16.3 62.5 -13.9 63.4 -11.6 64.3 -9.1 65.1 -6.5 65.9 -46.8 61.5zm46.8 -61.5l-3.7 45.7 -43.1 15.8 46.8 -61.5zm-1715.7 671.4l-48.1 -134.9 -0.2 0 26.9 -9.6 28.9 -10.5 30.8 -11.2 32.8 -11.9 34.7 -12.5 36.5 -13.3 38.4 -14 40.2 -14.6 41.8 -15.3 43.6 -15.8 45.3 -16.6 46.9 -17 48.4 -17.7 50 -18.3 51.6 -18.8 52.9 -19.4 54.5 -19.9 55.9 -20.5 57.2 -20.9 58.5 -21.4 59.8 -21.9 61.1 -22.4 62.3 -22.8 63.4 -23.3 64.6 -23.6 65.7 -24.1 66.8 -24.5 67.8 -24.8 68.7 -25.2 69.8 -25.6 70.6 -25.9 71.5 -26.2 49.3 134.5 -71.5 26.2 -70.6 25.9 -69.7 25.6 -68.8 25.2 -67.8 24.8 -66.7 24.5 -65.8 24.1 -64.6 23.7 -63.5 23.2 -62.2 22.8 -61.1 22.4 -59.9 21.9 -58.5 21.4 -57.2 21 -55.9 20.4 -54.4 19.9 -53.1 19.4 -51.5 18.8 -50.1 18.3 -48.5 17.7 -46.8 17.1 -45.3 16.6 -43.6 15.8 -42 15.3 -40.1 14.6 -38.4 14 -36.6 13.3 -34.7 12.6 -32.9 11.9 -30.9 11.2 -29 10.5 -27 9.7 -0.2 0.1zm0.2 -0.1l-0.2 0.1 4.7 -1.7 -4.5 1.6zm-48.7 -134.7l0.4 -0.1 48.1 134.9 -0.4 0.1 -48.3 -134.8 0.2 -0.1zm1692.8 -2513.6l143.2 -5.6 0 0 2.1 112.9 -2.6 111.9 -7 110.8 -11.5 109.7 -15.8 108.3 -20.1 107.1 -24.2 105.5 -28.4 104 -32.3 102.3 -36.2 100.6 -40.1 98.7 -43.8 96.8 -47.5 94.8 -51 92.6 -54.5 90.5 -57.9 88.1 -61.2 85.7 -64.4 83.2 -67.5 80.6 -70.6 77.9 -73.5 75.2 -76.5 72.3 -79.2 69.3 -81.8 66.3 -84.6 63.1 -87 59.9 -89.5 56.5 -91.8 53.2 -94.2 49.5 -96.3 46 -98.4 42.3 -100.4 38.4 -48.5 -134.7 95 -36.4 93.2 -40 91.2 -43.6 89.1 -46.9 87 -50.4 84.7 -53.5 82.5 -56.7 80 -59.8 77.6 -62.8 75 -65.7 72.4 -68.5 69.7 -71.2 66.9 -73.8 64 -76.4 61 -78.8 58 -81.2 54.8 -83.4 51.6 -85.7 48.3 -87.7 45 -89.8 41.4 -91.6 38 -93.5 34.3 -95.3 30.6 -96.8 26.8 -98.5 23 -99.9 19 -101.3 15 -102.6 10.8 -103.8 6.7 -105.1 2.4 -106 -2 -107 0 0zm-2663.3 -2463.7l-5.6 -143.1 0 0 139.4 -1.9 137.8 5.1 136.1 11.9 134.2 18.6 132.2 25.1 129.9 31.5 127.4 37.7 124.9 43.7 122 49.5 119 55.3 115.9 60.7 112.6 66.2 109 71.3 105.4 76.3 101.5 81.3 97.5 85.9 93.2 90.5 88.9 94.9 84.4 99.1 79.5 103.2 74.7 107.1 69.6 110.8 64.3 114.4 58.9 117.8 53.3 121 47.4 124.2 41.5 127 35.3 129.8 29 132.4 22.5 134.8 15.8 137 9 139 -143.2 5.6 -8.5 -131.8 -14.9 -129.9 -21.3 -127.6 -27.5 -125.4 -33.4 -122.9 -39.3 -120.2 -44.9 -117.6 -50.5 -114.5 -55.7 -111.6 -60.9 -108.3 -65.9 -104.9 -70.8 -101.5 -75.3 -97.7 -79.9 -93.9 -84.2 -89.9 -88.4 -85.7 -92.3 -81.5 -96.2 -76.9 -99.8 -72.4 -103.3 -67.5 -106.6 -62.7 -109.8 -57.5 -112.7 -52.3 -115.6 -46.9 -118.1 -41.4 -120.7 -35.6 -123 -29.8 -125 -23.8 -127.2 -17.6 -128.9 -11.3 -130.6 -4.9 -132.1 1.8 0 0zm-548.9 -66.9l34.8 139 -34.5 -139.1 16.4 -3.9 16.4 -3.9 16.6 -3.8 16.5 -3.6 16.5 -3.6 16.6 -3.5 16.6 -3.4 16.7 -3.3 16.7 -3.1 16.7 -3.1 16.9 -3 16.8 -2.8 16.9 -2.8 16.9 -2.7 16.9 -2.5 16.9 -2.4 17 -2.4 17.1 -2.2 17.1 -2.1 17.1 -2.1 17.1 -1.9 17.2 -1.8 17.2 -1.7 17.2 -1.6 17.3 -1.5 17.3 -1.4 17.3 -1.2 17.3 -1.2 17.5 -1.1 17.4 -0.9 17.4 -0.9 17.5 -0.7 5.6 143.1 -16.6 0.7 -16.5 0.8 -16.6 0.9 -16.4 1 -16.4 1.1 -16.6 1.2 -16.3 1.4 -16.3 1.4 -16.5 1.5 -16.2 1.6 -16.3 1.7 -16.3 1.8 -16.1 2 -16.2 2 -16.1 2.1 -16.1 2.2 -16.2 2.4 -16 2.4 -15.9 2.5 -16 2.6 -16 2.7 -15.8 2.8 -15.9 2.9 -15.9 3 -15.7 3.1 -15.8 3.2 -15.7 3.3 -15.7 3.4 -15.7 3.5 -15.5 3.5 -15.6 3.7 -15.5 3.8 -34.5 -139.1zm35.7 138.8l-0.9 0.2 -34.8 -139 0.9 -0.2 0.1 0 34.7 139zm4549.3 -1227l-101.3 101.3 67.7 18.9 -128.6 31.6 -133.6 32.8 -138.4 33.9 -142.6 34.9 -146.4 35.9 -149.8 36.6 -152.7 37.4 -155.3 38 -157.3 38.5 -159.1 38.8 -160.2 39.2 -161.1 39.4 -161.4 39.4 -161.4 39.5 -160.9 39.3 -160 39.2 -158.7 38.8 -156.9 38.3 -154.7 37.9 -152.1 37.2 -149.1 36.5 -145.5 35.7 -141.7 34.7 -137.3 33.7 -132.5 32.5 -127.4 31.3 -121.8 29.9 -115.7 28.5 -109.2 26.9 -102.3 25.3 -94.9 23.5 -87.2 21.7 -34.6 -139 87.3 -21.7 95 -23.5 102.4 -25.3 109.3 -27 115.7 -28.4 121.8 -30 127.4 -31.3 132.5 -32.6 137.4 -33.7 141.7 -34.7 145.6 -35.6 149 -36.5 152.1 -37.2 154.8 -37.9 156.9 -38.4 158.7 -38.8 160 -39.1 160.9 -39.3 161.4 -39.5 161.4 -39.4 161.1 -39.4 160.2 -39.2 159 -38.9 157.4 -38.5 155.2 -37.9 152.7 -37.4 149.8 -36.6 146.4 -35.9 142.6 -34.9 138.3 -33.9 133.7 -32.8 128.6 -31.6 67.7 18.9zm-67.7 -18.9l39.2 -9.6 28.5 28.5 -67.7 -18.9zm-3962.3 6301.3l-5 143.2 5.2 -143.2 23.2 0.8 23.2 0.6 23.3 0.3 23.2 0.2 23.3 -0.1 23.3 -0.3 23.3 -0.5 23.4 -0.7 23.3 -0.9 23.3 -1.2 23.4 -1.3 23.4 -1.6 23.4 -1.8 23.4 -2 23.3 -2.2 23.5 -2.5 23.4 -2.7 23.4 -2.9 23.4 -3 23.4 -3.4 23.4 -3.5 23.4 -3.8 23.4 -4 23.4 -4.2 23.4 -4.5 23.4 -4.6 23.3 -5 23.4 -5.1 23.3 -5.3 23.4 -5.6 23.3 -5.8 23.3 -6 36.6 138.5 -24.7 6.4 -24.6 6.1 -24.6 5.9 -24.6 5.6 -24.8 5.4 -24.6 5.2 -24.7 4.9 -24.7 4.7 -24.7 4.5 -24.7 4.2 -24.7 4 -24.7 3.7 -24.8 3.6 -24.7 3.2 -24.7 3.1 -24.8 2.8 -24.7 2.6 -24.7 2.3 -24.7 2.2 -24.8 1.9 -24.6 1.6 -24.7 1.5 -24.7 1.2 -24.7 0.9 -24.6 0.8 -24.6 0.5 -24.6 0.4 -24.6 0 -24.6 -0.1 -24.5 -0.4 -24.5 -0.6 -24.5 -0.8 5.2 -143.2zm193.5 -0.3l5.6 143.2 0 0 -6.5 0.2 -6.4 0.2 -6.4 0.2 -6.4 0.3 -6.4 0.1 -6.4 0.2 -6.4 0.1 -6.4 0.2 -6.4 0.1 -6.4 0.1 -6.4 0.1 -6.4 0.1 -6.6 0.1 -6.3 0 -6.3 0 -6.4 0 -6.5 0 -6.4 0 -6.2 0 -6.3 0 -6.6 -0.1 -6.3 -0.1 -6.2 -0.1 -6.4 -0.1 -6.5 -0.1 -6.3 -0.1 -6.2 -0.2 -6.4 -0.1 -6.5 -0.2 -6.3 -0.2 -6.2 -0.2 -6.3 -0.2 5 -143.2 5.9 0.2 6.2 0.2 6 0.2 5.9 0.2 6 0.1 6.1 0.2 6.1 0.1 5.8 0.1 6.1 0.1 6.1 0.1 6.1 0 5.8 0.1 6.1 0 6.2 0.1 6 0 5.9 0 6.1 0 6.2 -0.1 6.1 0 5.8 -0.1 6.1 0 6.1 -0.1 6.1 -0.1 6 -0.1 6.1 -0.2 6.1 -0.1 6.1 -0.2 6.1 -0.1 6.1 -0.2 6 -0.2 6.2 -0.2 6 -0.3 0 0zm590.5 56.2l-36.6 -138.5 36.5 138.5 -17.6 4.6 -17.7 4.4 -17.7 4.3 -17.7 4.3 -17.8 4.1 -17.8 4 -17.9 3.8 -18 3.8 -18 3.6 -17.9 3.5 -18.1 3.4 -18.1 3.3 -18.1 3.2 -18.2 3 -18.2 2.9 -18.3 2.8 -18.4 2.7 -18.3 2.5 -18.4 2.5 -18.4 2.3 -18.5 2.2 -18.5 2 -18.6 2 -18.6 1.8 -18.6 1.7 -18.7 1.6 -18.6 1.4 -18.8 1.3 -18.8 1.2 -18.8 1.1 -18.8 0.9 -18.9 0.8 -5.6 -143.2 17.9 -0.7 17.9 -0.9 17.8 -1 17.8 -1.1 17.7 -1.3 17.8 -1.3 17.7 -1.5 17.6 -1.6 17.6 -1.7 17.6 -1.9 17.6 -1.9 17.5 -2.1 17.4 -2.2 17.5 -2.3 17.4 -2.4 17.3 -2.5 17.3 -2.7 17.2 -2.8 17.3 -2.9 17.1 -3 17.2 -3 17.1 -3.2 17.1 -3.4 17 -3.4 17 -3.6 16.9 -3.7 16.9 -3.7 16.8 -3.9 16.8 -4 16.8 -4.1 16.7 -4.2 16.7 -4.3 36.5 138.5zm-841.4 -58.6l-7.2 143.1 8 -143.1 0.5 0 2.1 0.2 1.1 0 -0.1 0 1.1 0.1 1 0.1 1 0 1.1 0.1 0 0 1.1 0 2 0.1 1 0.1 1 0 1.1 0.1 0 0 1 0 2 0.1 0.1 0.1 1 0 2 0.1 0.1 0 1 0 2 0.1 0.1 0 1 0 2 0.2 0.1 0 1 0 2.1 0.1 0 0 1 0 1.4 0.1 -6.6 143.1 -0.7 0 -1 -0.1 -2.1 -0.1 0 0 -1 0 -2 -0.1 -0.1 0 -1.1 -0.1 -1.9 -0.1 -0.1 0 -1 0 -2 -0.1 -0.1 0 -1 -0.1 -2 0 -0.1 0 -1 -0.1 -2 -0.1 -1 0 -1 -0.1 -1.1 0 0 0 -1.1 -0.1 -2 -0.1 -1 0 -1 -0.1 -1 -0.1 -1.1 0 -2.1 -0.1 -0.9 -0.1 -0.1 0 -1.5 -0.1 8 -143zm25.8 144.7l-33 -1.6 7.2 -143.1 32.9 1.6 -6.8 143.1 -0.3 0zm-1426.9 -663.1l-86.9 113.8 86.7 -114 1 0.8 1.1 0.8 1.5 1.1 0.3 0.3 1.6 1.2 1.5 1.1 0.8 0.6 1.2 0.9 0.7 0.5 1.1 0.9 1.9 1.4 0.8 0.6 0.8 0.5 1.1 0.9 1.1 0.8 1.2 0.9 1.6 1.2 1.1 0.9 0.7 0.5 1.2 0.8 1.1 0.9 1.2 0.8 0.7 0.5 1.1 0.9 1.3 0.9 1.5 1.1 1.1 0.8 0.8 0.6 1.5 1.1 0.7 0.6 0.9 0.5 1.5 1.1 -84.4 115.8 -0.8 -0.6 -1.5 -1.1 -1.6 -1.2 -0.8 -0.6 -1.5 -1.1 -1.2 -0.8 -0.8 -0.6 -1 -0.8 -1.2 -0.8 -1.6 -1.2 -1.1 -0.8 -1.2 -0.9 -1.1 -0.8 -1.6 -1.2 -1.2 -0.9 -0.7 -0.5 -1.1 -0.9 -1.2 -0.8 -1.1 -0.9 -1.6 -1.2 -1.5 -1.1 -0.3 -0.3 -1.2 -0.8 -1.6 -1.2 -1.2 -0.9 -1.4 -1.1 -0.8 -0.6 -0.7 -0.5 -2 -1.5 -0.8 -0.6 -1.1 -0.8 -1.3 -1.1 86.7 -113.9zm-48.9 142.1l84.4 -115.8 -84.6 115.7 -1.1 -0.8 -1.5 -1.1 -1.1 -0.9 -0.4 -0.3 -1.5 -1 -1.6 -1.2 -0.8 -0.6 -1.5 -1.1 -1.1 -0.9 -0.9 -0.6 -1.5 -1.1 -1.1 -0.8 -0.8 -0.6 -1.5 -1.1 -1.2 -0.9 -1.1 -0.8 -1.1 -0.9 -1.2 -0.8 -1.1 -0.9 -1.7 -1.2 -1.4 -1.1 -0.4 -0.3 -1.1 -0.8 -2 -1.5 -0.8 -0.6 -0.7 -0.5 -1.9 -1.4 -1.1 -0.9 -0.8 -0.6 -1.2 -0.9 -1.5 -1.1 -1.1 -0.9 86.9 -113.8 1.1 0.8 0.8 0.6 1.2 0.9 1.4 1.1 1.2 0.9 0.3 0.2 1.6 1.2 1.5 1.2 0.3 0.2 1.2 0.9 1.9 1.4 0.8 0.6 0.7 0.5 1.2 0.9 1.1 0.8 1.2 0.9 1.1 0.8 1.1 0.9 0.9 0.6 1.5 1.1 1.1 0.8 0.8 0.6 1.5 1.1 1.2 0.9 0.8 0.6 1.5 1.1 0.7 0.5 0.8 0.6 1.9 1.4 1.2 0.9 0.8 0.6 1.2 0.8 -84.5 115.7zm-770.1 -1203.9l-132.4 54.8 132.4 -54.7 17.1 40.5 17.7 40 18.3 39.5 19 39.2 19.4 38.6 20.1 38.2 20.7 37.8 21.3 37.3 21.8 36.8 22.4 36.4 22.9 35.9 23.5 35.4 24 35 24.6 34.4 25.1 34 25.5 33.5 26.1 33 26.6 32.5 27.1 32 27.5 31.6 28 31 28.5 30.5 29 30 29.4 29.5 29.9 28.9 30.2 28.5 30.7 27.9 31.2 27.4 31.5 26.9 31.9 26.3 32.4 25.8 32.8 25.2 -86.6 114.2 -34.6 -26.7 -34.1 -27.2 -33.8 -27.8 -33.3 -28.4 -32.8 -28.9 -32.5 -29.5 -32 -30.1 -31.5 -30.5 -31.1 -31.2 -30.6 -31.7 -30.1 -32.2 -29.6 -32.8 -29.1 -33.3 -28.6 -33.8 -28 -34.4 -27.6 -34.8 -27 -35.4 -26.5 -35.9 -26 -36.4 -25.3 -37 -24.8 -37.4 -24.2 -37.9 -23.7 -38.4 -23.1 -38.9 -22.4 -39.5 -21.9 -39.8 -21.2 -40.4 -20.6 -40.8 -20 -41.3 -19.3 -41.7 -18.7 -42.3 -18 -42.7 132.4 -54.7zm729.6 1173.8l86.6 -114.2 -86.8 114 -35.1 -27.2 -34.6 -27.8 -34.2 -28.3 -33.8 -29 -33.2 -29.4 -32.8 -30.1 -32.2 -30.5 -31.8 -31 -31.3 -31.6 -30.7 -32.1 -30.2 -32.5 -29.7 -33.1 -29.1 -33.6 -28.7 -34 -28 -34.6 -27.5 -35 -27 -35.4 -26.4 -36 -25.8 -36.4 -25.2 -36.8 -24.6 -37.3 -24.1 -37.7 -23.4 -38.1 -22.8 -38.6 -22.2 -38.9 -21.5 -39.4 -21 -39.8 -20.3 -40.2 -19.6 -40.5 -19 -40.9 -18.3 -41.3 -17.7 -41.7 132.4 -54.8 16.7 39.5 17.4 39.1 17.9 38.8 18.6 38.4 19.3 38 19.8 37.6 20.4 37.3 21 36.9 21.6 36.5 22.2 36.1 22.7 35.8 23.3 35.3 23.9 34.8 24.5 34.5 25 34 25.5 33.6 26.1 33.2 26.6 32.7 27.1 32.3 27.6 31.8 28.1 31.3 28.6 30.9 29.2 30.4 29.6 29.9 30.1 29.4 30.5 28.9 31.1 28.4 31.4 27.9 32 27.4 32.4 26.9 32.8 26.3 33.3 25.9 -86.7 114zm-749.6 -1223.8l-133.5 52 133.5 -51.9 0.4 1.1 0.7 1.7 0.5 1.3 0.3 0.9 0.6 1.3 0.5 1.3 0.4 1.1 0.5 1.2 0.6 1.6 0.5 1.3 0.4 1.1 0.5 1.2 0.6 1.6 0.5 1 0.5 1.3 0.6 1.5 0.4 1.1 0.5 1.3 0.3 0.7 0.5 1.2 0.8 2 0.5 1.3 0.2 0.6 0.6 1.3 0.7 1.9 0.3 0.7 0.5 1.3 0.8 1.9 0.2 0.7 0.6 1.2 0.5 1.3 0.5 1.2 -132.6 54.2 -0.6 -1.4 -0.5 -1.3 -0.6 -1.3 -0.7 -1.9 -0.3 -0.7 -0.5 -1.3 -0.8 -1.9 -0.3 -0.6 -0.5 -1.3 -0.8 -2 -0.5 -1.2 -0.2 -0.7 -0.6 -1.3 -0.7 -1.9 -0.5 -1.3 -0.6 -1.5 -0.5 -1.1 -0.5 -1.3 -0.6 -1.5 -0.4 -1.1 -0.5 -1.3 -0.6 -1.5 -0.5 -1.3 -0.4 -1.1 -0.5 -1.3 -0.6 -1.5 -0.5 -1.3 -0.6 -1.3 -0.6 -1.7 -0.5 -1.3 -0.4 -0.9 -0.5 -1.5 133.5 -51.9zm-116.6 94.5l132.6 -54.2 -132.6 54.2 -0.6 -1.4 -0.5 -1.3 -0.6 -1.3 -0.7 -1.9 -0.3 -0.7 -0.5 -1.3 -0.8 -1.9 -0.3 -0.6 -0.5 -1.3 -0.8 -2 -0.5 -1.2 -0.3 -1 -0.5 -1 -0.7 -1.9 -0.6 -1.6 -0.4 -1 -0.6 -1.3 -0.5 -1.5 -0.5 -1.1 -0.5 -1.3 -0.6 -1.5 -0.4 -1.1 -0.5 -1.3 -0.6 -1.5 -0.5 -1.3 -0.4 -1.1 -0.6 -1.3 -0.6 -1.5 -0.7 -2 -0.4 -1 -0.3 -0.7 -0.6 -1.6 133.5 -52 0.4 1 0.7 1.9 0.6 1.5 0.2 0.7 0.5 1.1 0.5 1.2 0.6 1.6 0.5 1.3 0.4 1.1 0.5 1.2 0.6 1.6 0.4 1 0.6 1.3 0.5 1.5 0.5 1.1 0.5 1.3 0.6 1.5 0.4 1.1 0.3 0.6 0.6 1.6 0.7 1.7 0.5 1.3 0.2 0.6 0.6 1.3 0.7 1.9 0.3 0.7 0.5 1.3 0.8 1.9 0.2 0.7 0.6 1.2 0.5 1.3 0.5 1.2 -132.6 54.2zm95.4 -151l-134.6 49.2 134.6 -49.2 0.4 1.2 0.4 0.9 0.3 1 0.4 1 0.2 0.7 0.5 1.2 0.3 1 0.4 1 0.3 1 0.2 0.6 0.2 0.5 0.7 1.8 0.2 0.6 0.5 1.3 0.4 1 0.2 0.7 0.5 1.2 0 0.2 0.6 1.5 0.5 1.3 0 0.1 0.6 1.5 0.3 1 0.2 0.4 0.7 1.8 0.2 0.7 0 0.1 0.5 1.3 0.7 1.8 0.2 0.7 0.1 0.1 0.5 1.3 -134.1 50.4 -0.2 -0.6 -0.7 -1.8 -0.5 -1.3 0 -0.1 -0.3 -0.7 -0.6 -1.8 -0.5 -1.3 -0.1 -0.1 -0.5 -1.5 -0.4 -1 -0.1 -0.4 -0.7 -1.8 -0.2 -0.7 -0.2 -0.4 -0.7 -1.8 -0.2 -0.7 -0.5 -1.3 -0.4 -1 -0.2 -0.6 -0.5 -1.3 0 -0.1 -0.6 -1.5 -0.5 -1.3 -0.3 -1 -0.4 -1 -0.3 -1 -0.2 -0.6 -0.5 -1.3 -0.4 -1 -0.3 -0.9 -0.4 -1 -0.3 -0.8 134.6 -49.2zm-122.9 80.9l134.1 -50.4 -134.1 50.4 -0.2 -0.6 -0.8 -2.1 -0.4 -1 0.1 0.2 -0.4 -1 -0.8 -2.1 -0.3 -1 0.1 0.2 -0.7 -1.8 -0.5 -1.3 0 -0.1 -0.6 -1.5 -0.5 -1.3 0 -0.1 -0.6 -1.5 -0.5 -1.3 -0.3 -1 -0.2 -0.7 -0.5 -1.2 -0.4 -1 0.1 0.2 -0.8 -2.1 -0.4 -1 -0.2 -0.7 -0.5 -1.3 -0.3 -1 -0.2 -0.6 -0.5 -1.3 -0.4 -1 -0.3 -0.9 -0.4 -1 -0.3 -0.8 134.6 -49.2 0.4 1.2 0.4 0.9 0.3 1 0.4 1 0.2 0.7 0.5 1.2 0.3 1 0.2 0.7 0.5 1.2 0.4 1 -0.1 -0.2 0.8 2.2 0.4 1 0.2 0.6 0.5 1.3 0.3 1 0.2 0.6 0.2 0.5 0.7 1.8 0.2 0.6 0.2 0.5 0.7 1.8 0.2 0.7 0.1 0.1 0.8 2.1 0.3 1 -0.1 -0.2 0.4 1 0.8 2.1 0.4 1 -0.1 -0.2 0.5 1.3 -134.1 50.4zm106 -128.6l5.1 14.6 -135.1 47.6 -5.1 -14.5 -0.5 -1.6 135.6 -46.1zm-135.1 47.7l0 0 -0.5 -1.6 0.5 1.6zm131 -60.1l4.6 14 -136.1 44.5 -4.6 -13.9 135.9 -45.4 0.2 0.8zm-126.1 73.9l-9.7 -28.5 135.6 -46.2 9.7 28.5 -135.4 46.9 -0.2 -0.7zm1810.5 -3342.4l-41.7 -137 41.4 137.1 -84.5 26.8 -82.4 28.9 -80.2 31 -78.1 33.1 -76 35 -73.9 37 -71.8 38.9 -69.7 40.6 -67.6 42.4 -65.5 44.2 -63.5 45.8 -61.5 47.4 -59.4 49 -57.4 50.5 -55.4 51.9 -53.4 53.2 -51.4 54.6 -49.4 56 -47.5 57.1 -45.4 58.3 -43.6 59.5 -41.5 60.5 -39.6 61.5 -37.7 62.5 -35.7 63.3 -33.8 64.3 -31.9 65 -30 65.8 -28.1 66.5 -26.2 67.1 -24.2 67.6 -22.4 68.2 -136.6 -42.8 23.5 -71.9 25.6 -71.4 27.6 -70.8 29.6 -70.1 31.7 -69.4 33.6 -68.7 35.8 -67.9 37.8 -67 39.8 -66.1 41.9 -65.1 44 -64 46.1 -62.9 48.2 -61.8 50.2 -60.5 52.4 -59.2 54.4 -58 56.7 -56.5 58.6 -54.9 60.9 -53.5 63 -51.9 65 -50.2 67.3 -48.5 69.4 -46.7 71.5 -44.9 73.7 -43 75.8 -41 77.9 -39.1 80.1 -36.9 82.3 -34.9 84.5 -32.6 86.5 -30.4 88.8 -28.1 41.4 137.1zm-1825.6 1610.8l136.6 42.8 -136.4 -43.7 26.7 -77.4 29 -76.4 31.2 -75.2 33.4 -74.1 35.5 -72.9 37.6 -71.8 39.7 -70.4 41.7 -69.1 43.7 -67.8 45.7 -66.4 47.5 -65 49.5 -63.5 51.2 -62 53.1 -60.4 54.8 -58.8 56.5 -57.2 58.2 -55.6 59.9 -53.8 61.5 -52 63 -50.2 64.6 -48.4 66 -46.5 67.5 -44.6 68.9 -42.6 70.2 -40.6 71.6 -38.6 73 -36.4 74.1 -34.3 75.4 -32.1 76.5 -29.9 77.7 -27.6 78.8 -25.3 41.7 137 -74.6 23.9 -73.5 26.2 -72.5 28.3 -71.4 30.4 -70.2 32.5 -69 34.5 -67.8 36.5 -66.5 38.5 -65.3 40.3 -63.9 42.2 -62.6 44 -61.1 45.9 -59.7 47.5 -58.2 49.4 -56.7 50.9 -55.2 52.6 -53.5 54.2 -52 55.8 -50.2 57.2 -48.6 58.7 -46.9 60.2 -45 61.6 -43.3 62.9 -41.3 64.2 -39.5 65.5 -37.6 66.7 -35.6 67.9 -33.7 69 -31.6 70.2 -29.5 71.3 -27.5 72.2 -25.2 73.3 -136.4 -43.7z"/>
   </g>
   <g>
    <path class="fil1" d="M5543.8 6789.6l-143.2 5.6 0 0 -8.5 -131.8 -14.9 -129.9 -21.3 -127.6 -27.5 -125.4 -33.4 -122.9 -39.3 -120.2 -44.9 -117.6 -50.5 -114.5 -55.7 -111.6 -60.9 -108.3 -65.9 -104.9 -70.8 -101.5 -75.3 -97.7 -79.9 -93.9 -84.2 -89.9 -88.4 -85.7 -92.3 -81.5 -96.2 -76.9 -99.8 -72.4 -103.3 -67.5 -106.6 -62.7 -109.8 -57.5 -112.7 -52.3 -115.6 -46.9 -118.1 -41.4 -120.7 -35.6 -123 -29.8 -125 -23.8 -127.2 -17.6 -128.9 -11.3 -130.6 -4.9 -132.1 1.8 -5.6 -143.1 139.4 -1.9 137.8 5.1 136.1 11.9 134.2 18.6 132.2 25.1 129.9 31.5 127.4 37.7 124.9 43.7 122 49.5 119 55.3 115.9 60.7 112.6 66.2 109 71.3 105.4 76.3 101.5 81.3 97.5 85.9 93.2 90.5 88.9 94.9 84.4 99.1 79.5 103.2 74.7 107.1 69.6 110.8 64.3 114.4 58.9 117.8 53.3 121 47.4 124.2 41.5 127 35.3 129.8 29 132.4 22.5 134.8 15.8 137 9 139 0 0zm-2601.3 2812.1l-5.6 -143.2 0 0 131.9 -8.4 129.8 -15 127.7 -21.3 125.3 -27.5 122.9 -33.4 120.3 -39.3 117.5 -44.9 114.6 -50.4 111.5 -55.8 108.4 -60.9 104.9 -65.9 101.4 -70.7 97.7 -75.4 93.9 -79.9 89.9 -84.2 85.8 -88.4 81.4 -92.3 77 -96.2 72.3 -99.8 67.6 -103.3 62.6 -106.6 57.5 -109.7 52.3 -112.8 46.9 -115.5 41.4 -118.2 35.7 -120.7 29.8 -122.9 23.8 -125.1 17.6 -127.2 11.3 -128.9 4.8 -130.6 -1.8 -132.1 143.2 -5.6 1.9 139.4 -5.1 137.8 -12 136.1 -18.6 134.3 -25.1 132.1 -31.5 129.9 -37.7 127.4 -43.6 124.9 -49.6 122 -55.2 119 -60.8 115.9 -66.1 112.6 -71.3 109 -76.4 105.4 -81.3 101.5 -85.9 97.5 -90.5 93.3 -94.9 88.8 -99.1 84.4 -103.2 79.5 -107 74.7 -110.9 69.6 -114.3 64.3 -117.8 58.9 -121.1 53.3 -124.1 47.4 -127.1 41.5 -129.8 35.4 -132.3 29 -134.8 22.4 -137 15.9 -139.1 8.9 0 0zm-2812 -2601.3l143.1 -5.6 0 0 8.5 131.9 14.9 129.8 21.3 127.7 27.5 125.3 33.4 122.9 39.3 120.3 44.9 117.5 50.5 114.6 55.7 111.6 60.9 108.3 65.9 104.9 70.8 101.4 75.3 97.8 80 93.8 84.1 90 88.4 85.7 92.4 81.4 96.1 77 99.8 72.3 103.3 67.6 106.6 62.6 109.8 57.6 112.7 52.2 115.6 47 118.1 41.3 120.7 35.7 123 29.8 125.1 23.8 127.1 17.6 128.9 11.3 130.6 4.8 132.1 -1.8 5.6 143.2 -139.3 1.9 -137.9 -5.1 -136.1 -12 -134.2 -18.6 -132.2 -25.1 -129.9 -31.5 -127.4 -37.6 -124.8 -43.7 -122.1 -49.6 -119 -55.2 -115.9 -60.8 -112.6 -66.1 -109 -71.3 -105.4 -76.4 -101.5 -81.2 -97.5 -86 -93.2 -90.4 -88.9 -95 -84.3 -99 -79.6 -103.2 -74.7 -107.1 -69.6 -110.8 -64.3 -114.4 -58.9 -117.8 -53.3 -121.1 -47.4 -124.1 -41.5 -127 -35.3 -129.8 -29 -132.4 -22.5 -134.8 -15.8 -137 -8.9 -139.1 0 0zm2601.2 -2812l5.6 143.1 0 0 -131.9 8.5 -129.8 15 -127.7 21.3 -125.3 27.4 -122.9 33.5 -120.3 39.3 -117.5 44.9 -114.6 50.4 -111.5 55.7 -108.3 61 -105 65.9 -101.4 70.7 -97.7 75.4 -93.9 79.9 -89.9 84.2 -85.7 88.3 -81.5 92.4 -76.9 96.2 -72.4 99.8 -67.6 103.3 -62.6 106.6 -57.5 109.7 -52.3 112.7 -46.9 115.6 -41.4 118.1 -35.6 120.7 -29.8 123 -23.9 125.1 -17.6 127.1 -11.3 128.9 -4.8 130.6 1.8 132.1 -143.1 5.6 -1.9 -139.3 5.1 -137.9 11.9 -136.1 18.6 -134.2 25.1 -132.2 31.5 -129.9 37.7 -127.4 43.6 -124.8 49.6 -122.1 55.2 -119 60.8 -115.9 66.1 -112.6 71.3 -109 76.4 -105.3 81.3 -101.6 85.9 -97.4 90.5 -93.3 94.9 -88.9 99.1 -84.3 103.2 -79.6 107 -74.7 110.9 -69.6 114.3 -64.3 117.8 -58.9 121.1 -53.2 124.1 -47.5 127.1 -41.5 129.8 -35.3 132.3 -29 134.8 -22.5 137 -15.8 139.1 -8.9 0 0z"/>
   </g>
   <path class="fil0" d="M2764.4 5027.7c1031.3,-40.2 1899.9,763.3 1940,1794.6 40.2,1031.3 -763.3,1899.9 -1794.6,1940.1 -1031.3,40.1 -1899.9,-763.3 -1940,-1794.7 -40.2,-1031.3 763.3,-1899.9 1794.6,-1940z"/>
   <g>
    <path class="fil1" d="M15367.3 4308.7l-41.8 -137 0 0 67.7 -22.2 66.1 -24.8 64.5 -27.2 62.7 -29.7 60.9 -32 58.9 -34.4 57 -36.5 54.9 -38.7 52.7 -40.7 50.5 -42.7 48.1 -44.6 45.8 -46.5 43.2 -48.3 40.7 -50 38.1 -51.5 35.3 -53.1 32.5 -54.7 29.8 -56 26.7 -57.4 23.8 -58.7 20.6 -59.9 17.5 -61.1 14.3 -62.2 11 -63.3 7.5 -64.3 4.1 -65.2 0.5 -66.2 -3.1 -67 -6.9 -67.8 -10.6 -68.6 -14.7 -69.4 -18.6 -70 137.4 -40.4 20.5 77.2 16.3 76.7 11.8 76.2 7.7 75.6 3.4 74.7 -0.5 74 -4.6 73 -8.5 72.1 -12.3 70.9 -15.9 69.7 -19.7 68.5 -23.1 67 -26.5 65.6 -29.9 64.1 -33.1 62.5 -36.2 60.7 -39.2 59 -42.2 57.2 -45 55.2 -47.8 53.2 -50.4 51.2 -52.9 49.1 -55.3 46.9 -57.8 44.6 -60 42.2 -62.1 40 -64.3 37.3 -66.3 34.9 -68.2 32.3 -70 29.6 -71.7 26.9 -73.3 24 0 0zm-7660.1 2368.6l-43.3 -136.5 0 0 221.2 -70 225.3 -71.1 228.9 -72.2 232.5 -73.1 235.6 -73.9 238.5 -74.6 241 -75.4 243.4 -75.9 245.5 -76.4 247.1 -76.9 248.7 -77.2 249.8 -77.4 250.7 -77.7 251.3 -77.7 251.7 -77.8 251.6 -77.6 251.4 -77.5 250.9 -77.3 250.1 -76.9 248.9 -76.5 247.6 -76 245.9 -75.5 243.9 -74.8 241.7 -74 239.2 -73.3 236.3 -72.3 233.2 -71.3 229.9 -70.2 226.2 -69.2 222.2 -67.8 217.9 -66.5 213.5 -65.1 41.8 137 -213.5 65.1 -217.9 66.5 -222.2 67.8 -226.2 69.1 -229.8 70.3 -233.2 71.3 -236.3 72.3 -239.2 73.2 -241.6 74.1 -243.9 74.7 -245.9 75.5 -247.5 76 -248.9 76.5 -250.1 76.9 -250.8 77.3 -251.3 77.5 -251.7 77.6 -251.6 77.7 -251.2 77.7 -250.7 77.7 -249.7 77.4 -248.6 77.2 -247.1 76.8 -245.4 76.4 -243.4 76 -241 75.3 -238.4 74.6 -235.5 73.9 -232.3 73 -228.9 72.1 -225.2 71.2 -221.1 69.9 0 0zm-2308.3 -1222.4l137.3 -40.8 0 0 27.3 84 31.3 81.5 35 79 38.7 76.3 42.1 73.7 45.6 71 48.7 68.1 51.9 65.3 54.8 62.4 57.6 59.4 60.4 56.3 62.8 53.1 65.2 50 67.5 46.7 69.6 43.3 71.6 39.9 73.4 36.4 75.1 32.9 76.6 29.3 78 25.5 79.3 21.8 80.4 17.9 81.4 14 82.2 10 82.9 6 83.5 1.9 83.9 -2.3 84.1 -6.5 84.4 -10.9 84.3 -15.3 84.1 -19.7 84 -24.3 43.3 136.5 -91 26.3 -91.3 21.5 -91.5 16.5 -91.5 11.8 -91.4 7.1 -91 2.6 -90.7 -2.1 -89.9 -6.5 -89.2 -10.9 -88.3 -15.2 -87.2 -19.4 -86 -23.6 -84.6 -27.7 -83.1 -31.7 -81.4 -35.6 -79.5 -39.5 -77.6 -43.3 -75.5 -47 -73.2 -50.6 -70.8 -54.2 -68.1 -57.7 -65.4 -61.1 -62.6 -64.5 -59.5 -67.6 -56.3 -71 -53 -74 -49.4 -77 -45.8 -80.1 -42 -82.8 -38 -85.7 -33.9 -88.4 -29.6 -91 0 0zm1386.4 -2315.6l29.1 140.3 0 0 -103.8 24.5 -99.4 29.3 -94.9 33.9 -90.6 38.3 -86.2 42.4 -82 46.4 -77.8 50.2 -73.5 53.6 -69.5 57 -65.3 60.2 -61.3 63.1 -57.2 65.8 -53.1 68.3 -49.1 70.8 -45.2 72.8 -41.2 74.8 -37.2 76.5 -33.2 78 -29.3 79.3 -25.3 80.4 -21.5 81.3 -17.5 81.9 -13.7 82.3 -9.7 82.5 -5.9 82.5 -2 82.3 1.8 81.8 5.6 81.2 9.3 80.2 13.1 79 16.8 77.8 20.6 76.1 -137.3 40.8 -22.4 -83.1 -18.4 -84.7 -14.2 -85.9 -10.2 -87 -6 -87.9 -2 -88.5 2.2 -88.9 6.4 -89.2 10.6 -89.1 14.7 -88.9 18.9 -88.5 23.2 -87.8 27.4 -86.9 31.7 -85.9 36 -84.5 40.4 -83 44.7 -81.2 49 -79.2 53.5 -76.9 57.9 -74.5 62.4 -71.8 66.8 -68.7 71.2 -65.7 75.8 -62.1 80.2 -58.6 84.8 -54.6 89.1 -50.4 93.7 -46.1 98.1 -41.4 102.5 -36.7 107 -31.6 111.4 -26.3 0 0zm7867.4 -1618.4l29.4 140.2 0 0 -181.7 38.1 -194 40.5 -205.6 42.8 -216.3 44.9 -226.1 46.9 -235.3 48.6 -243.4 50.2 -250.9 51.7 -257.4 52.9 -263.3 54.1 -268.2 55.1 -272.3 55.9 -275.7 56.5 -278.2 56.9 -279.8 57.4 -280.7 57.4 -280.7 57.5 -280 57.3 -278.4 56.9 -275.9 56.5 -272.7 55.8 -268.6 55 -263.8 54.1 -258.1 52.9 -251.5 51.5 -244.2 50.2 -236 48.5 -227 46.7 -217.3 44.7 -206.6 42.7 -195.1 40.3 -182.9 38 -29.1 -140.3 182.9 -37.9 195.3 -40.4 206.6 -42.7 217.3 -44.7 227.1 -46.8 236 -48.4 244.2 -50.2 251.6 -51.5 258 -52.9 263.8 -54.1 268.7 -55 272.6 -55.8 276 -56.5 278.3 -56.9 280 -57.3 280.7 -57.5 280.7 -57.4 279.9 -57.4 278.1 -56.9 275.7 -56.5 272.3 -55.9 268.2 -55.1 263.2 -54.1 257.4 -52.9 250.9 -51.7 243.4 -50.2 235.1 -48.6 226.1 -46.8 216.2 -44.9 205.5 -42.8 193.9 -40.5 181.7 -38.1 0 0zm1791.7 975.7l-137.4 40.4 0 0 -22.1 -69 -24.7 -66.1 -27.2 -63.3 -29.7 -60.4 -32 -57.7 -34.4 -54.9 -36.5 -52.1 -38.6 -49.4 -40.7 -46.8 -42.6 -44 -44.6 -41.5 -46.4 -38.7 -48.1 -36.2 -49.9 -33.6 -51.5 -31 -53.1 -28.4 -54.6 -25.8 -56 -23.2 -57.4 -20.7 -58.7 -18 -59.9 -15.5 -61 -12.9 -62.1 -10.4 -63.1 -7.7 -63.9 -5.2 -64.8 -2.5 -65.5 0 -66.2 2.6 -66.8 5.2 -67.2 7.9 -67.6 10.4 -68 13 -29.4 -140.2 73 -14 72.8 -11.2 72.5 -8.4 72.2 -5.7 71.8 -2.8 71.2 0 70.6 2.7 69.9 5.6 69 8.5 68.2 11.4 67.2 14.2 66.1 17.1 65.1 20.1 63.7 22.9 62.4 25.9 60.9 28.8 59.4 31.8 57.7 34.7 56 37.7 54.1 40.6 52.2 43.6 50.1 46.6 47.9 49.5 45.6 52.4 43.3 55.4 40.8 58.3 38.2 61.2 35.6 64 32.9 66.9 30 69.8 27.2 72.6 24.1 75.5 0 0z"/>
   </g>
   <g>
    <path class="fil1" d="M8983.7 4932.5l-143.3 0 0 0 -2.2 -86.9 -6.5 -85.7 -10.7 -84.4 -14.8 -83.1 -18.9 -81.6 -22.7 -80 -26.5 -78.4 -30.2 -76.5 -33.8 -74.7 -37.2 -72.8 -40.7 -70.6 -43.8 -68.5 -47.1 -66.1 -50.1 -63.7 -53 -61.3 -55.8 -58.6 -58.7 -55.8 -61.2 -53.1 -63.7 -50.1 -66.2 -47 -68.4 -43.9 -70.7 -40.6 -72.7 -37.3 -74.7 -33.7 -76.6 -30.2 -78.3 -26.5 -80.1 -22.8 -81.6 -18.8 -83 -14.8 -84.5 -10.8 -85.6 -6.5 -87 -2.2 0 -143.2 94.2 2.4 92.9 7 91.6 11.7 90.1 16 88.6 20.5 86.9 24.7 85 28.8 83.2 32.7 81.1 36.7 78.9 40.4 76.6 44.1 74.3 47.6 71.8 51 69.1 54.3 66.4 57.6 63.5 60.5 60.6 63.6 57.5 66.4 54.3 69.1 51.1 71.8 47.6 74.2 44 76.7 40.5 78.9 36.6 81.1 32.8 83.1 28.8 85.1 24.7 86.9 20.4 88.5 16.1 90.2 11.7 91.6 7 92.9 2.4 94.1 0 0zm-1830.3 1830.2l0 -143.2 0 0 87 -2.2 85.6 -6.5 84.5 -10.8 83 -14.8 81.6 -18.8 80.1 -22.7 78.3 -26.6 76.6 -30.1 74.7 -33.8 72.7 -37.3 70.7 -40.6 68.4 -43.9 66.2 -47 63.7 -50.1 61.2 -53.1 58.6 -55.8 55.9 -58.6 53 -61.2 50.1 -63.8 47.1 -66.1 43.8 -68.5 40.7 -70.6 37.2 -72.8 33.8 -74.7 30.2 -76.5 26.5 -78.4 22.7 -80 18.9 -81.6 14.8 -83.1 10.7 -84.4 6.5 -85.7 2.2 -86.9 143.3 0 -2.4 94.1 -7 92.9 -11.7 91.6 -16.1 90.2 -20.4 88.5 -24.7 86.9 -28.8 85.1 -32.8 83.1 -36.6 81.1 -40.5 78.9 -44 76.7 -47.6 74.2 -51.1 71.8 -54.3 69.1 -57.5 66.4 -60.6 63.6 -63.5 60.6 -66.4 57.5 -69.1 54.3 -71.8 51 -74.3 47.6 -76.6 44.1 -78.9 40.4 -81.1 36.7 -83.2 32.8 -85 28.8 -86.9 24.6 -88.6 20.5 -90.1 16.1 -91.6 11.6 -92.9 7.1 -94.2 2.3 0 0zm-1830.2 -1830.2l143.3 0 0 0 2.2 86.9 6.5 85.7 10.7 84.4 14.8 83.1 18.9 81.6 22.7 80 26.5 78.4 30.2 76.5 33.8 74.8 37.2 72.7 40.6 70.6 43.9 68.5 47.1 66.1 50.1 63.8 53 61.2 55.9 58.6 58.6 55.8 61.2 53.1 63.7 50.1 66.2 47 68.4 43.9 70.7 40.6 72.7 37.3 74.7 33.8 76.6 30.1 78.3 26.6 80.1 22.7 81.6 18.8 83 14.8 84.5 10.8 85.6 6.5 86.9 2.2 0 143.2 -94.1 -2.3 -92.9 -7.1 -91.6 -11.6 -90.1 -16.1 -88.6 -20.5 -86.9 -24.6 -85 -28.8 -83.2 -32.8 -81.1 -36.7 -78.9 -40.4 -76.7 -44.1 -74.2 -47.6 -71.7 -51 -69.2 -54.3 -66.4 -57.5 -63.5 -60.6 -60.6 -63.6 -57.5 -66.4 -54.4 -69.1 -51 -71.8 -47.6 -74.2 -44 -76.7 -40.5 -78.9 -36.6 -81.1 -32.8 -83.1 -28.8 -85.1 -24.7 -86.9 -20.4 -88.5 -16.1 -90.2 -11.7 -91.6 -7 -92.9 -2.4 -94.1 0 0zm1830.2 -1830.2l0 143.2 0 0 -86.9 2.2 -85.6 6.5 -84.5 10.8 -83 14.8 -81.6 18.8 -80.1 22.8 -78.3 26.5 -76.6 30.2 -74.7 33.7 -72.7 37.3 -70.7 40.6 -68.4 43.9 -66.2 47 -63.7 50.1 -61.2 53.1 -58.7 55.8 -55.8 58.6 -53 61.3 -50.1 63.7 -47.1 66.1 -43.8 68.5 -40.7 70.6 -37.2 72.8 -33.8 74.7 -30.2 76.6 -26.5 78.3 -22.7 80 -18.9 81.6 -14.8 83.1 -10.7 84.4 -6.5 85.7 -2.2 86.9 -143.3 0 2.4 -94.1 7 -92.9 11.7 -91.6 16.1 -90.2 20.4 -88.5 24.7 -86.9 28.8 -85.1 32.8 -83.1 36.6 -81.1 40.5 -78.9 44 -76.7 47.6 -74.2 51 -71.8 54.4 -69.1 57.5 -66.4 60.6 -63.6 63.5 -60.5 66.4 -57.6 69.2 -54.3 71.7 -51 74.2 -47.6 76.7 -44.1 78.9 -40.4 81.1 -36.7 83.2 -32.7 85 -28.8 86.9 -24.7 88.6 -20.5 90.1 -16 91.6 -11.7 92.9 -7 94.1 -2.4 0 0z"/>
   </g>
   <circle class="fil0" cx="7153.5" cy="4932.5" r="1107.8"/>
   <g>
    <path class="fil1" d="M5323.2 8909l143.3 0 0 0 1.2 65.8 3.7 65.2 6.2 64.4 8.6 63.7 11 63 13.2 62.1 15.4 61.2 17.8 60.3 19.8 59.4 22 58.3 24 57.3 26.1 56.3 28.1 55 29.9 54 31.9 52.6 33.8 51.4 35.5 50.1 37.3 48.7 39 47.3 40.6 45.8 42.3 44.3 43.9 42.7 45.3 41.2 46.9 39.5 48.2 37.8 49.7 36.1 51 34.3 52.3 32.5 53.5 30.6 54.7 28.6 55.9 26.7 56.9 24.7 -54.4 132.5 -61.9 -26.8 -60.6 -29 -59.4 -31.1 -58.1 -33.2 -56.7 -35.2 -55.3 -37.2 -53.8 -39.1 -52.4 -41 -50.8 -42.9 -49.2 -44.6 -47.5 -46.4 -45.9 -48 -44.1 -49.7 -42.3 -51.3 -40.4 -52.8 -38.6 -54.3 -36.5 -55.8 -34.6 -57.1 -32.6 -58.5 -30.4 -59.8 -28.3 -61 -26.1 -62.2 -23.9 -63.4 -21.5 -64.4 -19.2 -65.5 -16.9 -66.5 -14.3 -67.4 -11.8 -68.3 -9.4 -69.1 -6.7 -69.9 -4 -70.6 -1.4 -71.3 0 0zm1315.3 -1756.7l42.7 136.8 -1.3 0.4 -65.1 20.4 -64 23 -62.8 25.5 -61.4 27.9 -60.2 30.3 -58.7 32.5 -57.3 34.8 -55.8 37 -54.2 39.1 -52.6 41.2 -50.8 43.2 -49.1 45.1 -47.3 47 -45.4 48.9 -43.5 50.6 -41.5 52.3 -39.4 53.9 -37.3 55.6 -35.1 57 -32.9 58.6 -30.6 59.9 -28.3 61.3 -25.8 62.6 -23.3 63.8 -20.9 65 -18.2 66.1 -15.7 67.2 -12.9 68.1 -10.1 69.1 -7.3 70 -4.4 70.9 -1.5 71.6 -143.3 0 1.6 -77.6 4.8 -76.8 8 -75.9 11 -75 14 -74 16.9 -72.9 19.8 -71.8 22.7 -70.5 25.3 -69.3 28.1 -67.9 30.6 -66.5 33.2 -65.1 35.7 -63.5 38.1 -61.9 40.5 -60.3 42.8 -58.5 44.9 -56.7 47.2 -54.9 49.2 -52.9 51.3 -51 53.2 -49 55.2 -46.8 57 -44.6 58.8 -42.5 60.5 -40.1 62.1 -37.7 63.8 -35.4 65.3 -32.8 66.7 -30.3 68.1 -27.7 69.5 -24.9 70.7 -22.2 -1.3 0.3zm42.7 136.8l0.2 -0.1 -1.5 0.5 1.3 -0.4zm2594.8 -809.5l-2594.8 809.5 -42.7 -136.8 2594.8 -809.5 45.9 1.1 -3.2 135.7zm-42.7 -136.8l23.1 -7.2 22.8 8.3 -45.9 -1.1zm2159.7 2776.3l-55.2 -132.2 -33 104.2 -70.3 -112.8 -68.7 -112.1 -67.1 -111.3 -65.7 -110.2 -64.4 -109.2 -63.3 -107.9 -62.3 -106.5 -61.4 -105.1 -60.7 -103.3 -60.1 -101.6 -59.6 -99.8 -59.2 -97.6 -59.1 -95.6 -59.1 -93.2 -59 -90.8 -59.3 -88.3 -59.6 -85.6 -60 -82.8 -60.6 -79.8 -61.3 -76.8 -62 -73.6 -63.1 -70.3 -64 -66.9 -65.2 -63.4 -66.5 -59.7 -68 -56 -69.5 -52.2 -71.1 -48.2 -73 -44.3 -75 -40.1 -77.1 -36 -79.5 -31.6 49.2 -134.6 87.1 34.8 84.4 39.3 81.8 43.8 79.4 48.1 77.1 52.2 74.8 56.2 72.8 60 70.9 63.6 69.1 67.2 67.5 70.4 66 73.7 64.7 76.8 63.6 79.6 62.6 82.5 61.7 85.2 61.1 87.7 60.5 90.1 60.1 92.4 59.9 94.7 59.8 96.6 59.9 98.6 60 100.5 60.4 102.1 60.8 103.6 61.5 105.2 62.2 106.4 63.2 107.7 64.1 108.7 65.3 109.7 66.7 110.5 68.1 111.2 69.7 111.8 -33 104.3zm33 -104.3l45.1 71.7 -78.1 32.6 33 -104.3zm-2642.4 1038l2554.2 -1065.9 55.2 132.2 -2554.3 1066 -55.1 -132.3zm-2325.8 549.6l54.4 -132.5 0 0 71.9 27.5 71.4 23.4 71 19.5 70.7 15.8 70.4 12.2 70.2 8.6 70.1 5.4 69.9 2.2 69.8 -0.8 69.8 -3.7 69.7 -6.5 69.8 -9.1 69.9 -11.5 69.9 -13.9 70 -16.1 70.1 -18.2 70.2 -20.1 70.3 -21.9 70.5 -23.5 70.6 -25 70.8 -26.4 71 -27.5 71.2 -28.6 71.4 -29.5 71.6 -30.2 71.9 -30.8 72.1 -31.2 72.4 -31.5 72.7 -31.6 73 -31.6 73.4 -31.4 73.7 -31.1 55.1 132.3 -72.8 30.7 -72.7 31.1 -72.6 31.4 -72.6 31.6 -72.5 31.5 -72.5 31.4 -72.5 31.1 -72.5 30.5 -72.6 30 -72.6 29.1 -72.7 28.3 -72.8 27.1 -72.9 25.7 -73.1 24.5 -73.3 22.8 -73.5 21 -73.8 19.1 -74 17 -74.3 14.8 -74.5 12.4 -74.9 9.7 -75.2 7 -75.5 4 -76 0.9 -76.2 -2.5 -76.5 -5.8 -76.9 -9.6 -77.3 -13.2 -77.5 -17.3 -77.7 -21.4 -78.1 -25.6 -78.3 -30 0 0zm8607.5 -6011.1l0 143.3 0 0 -19.4 0.1 -19 0.4 -18.5 0.6 -18.2 0.9 -17.8 1.1 -17.4 1.3 -17.1 1.6 -16.8 1.7 -16.5 2 -16.3 2.2 -16.1 2.4 -16 2.5 -15.7 2.8 -15.5 2.9 -15.5 3.2 -15.4 3.3 -15.4 3.5 -15.2 3.6 -15.3 3.8 -15.3 4 -15.4 4.1 -15.4 4.3 -15.4 4.4 -15.6 4.6 -15.7 4.7 -15.9 4.8 -16.1 5 -16.2 5.1 -16.4 5.1 -16.7 5.4 -17 5.4 -17.2 5.5 -43.6 -136.5 17.2 -5.5 17.1 -5.4 16.8 -5.4 16.9 -5.3 16.6 -5.2 16.5 -5.1 16.5 -5 16.5 -4.9 16.4 -4.9 16.5 -4.7 16.5 -4.6 16.5 -4.4 16.5 -4.3 16.8 -4.2 16.8 -4 16.8 -3.8 17 -3.6 17.3 -3.5 17.4 -3.3 17.6 -3.1 17.8 -2.9 18 -2.7 18.3 -2.4 18.5 -2.2 18.9 -2 19.1 -1.8 19.5 -1.4 19.7 -1.2 20.2 -1 20.6 -0.7 20.9 -0.4 21.3 -0.2 0 0zm1437.5 1437.5l-143.3 0 0 0 -1.6 -66.7 -5.1 -65.7 -8.2 -64.8 -11.4 -63.7 -14.4 -62.6 -17.4 -61.4 -20.4 -60.1 -23.1 -58.7 -25.9 -57.4 -28.6 -55.8 -31.2 -54.1 -33.7 -52.6 -36 -50.7 -38.5 -48.9 -40.7 -47 -42.8 -44.9 -45 -42.9 -47 -40.7 -48.9 -38.4 -50.7 -36.1 -52.5 -33.7 -54.2 -31.2 -55.8 -28.5 -57.3 -25.9 -58.8 -23.2 -60.1 -20.4 -61.4 -17.4 -62.6 -14.4 -63.7 -11.4 -64.8 -8.2 -65.7 -5 -66.7 -1.7 0 -143.3 73.9 1.9 73 5.5 71.9 9.2 70.8 12.6 69.6 16.1 68.2 19.3 66.9 22.7 65.3 25.7 63.7 28.8 62 31.8 60.1 34.6 58.3 37.4 56.4 40 54.3 42.7 52.1 45.2 50 47.5 47.5 50 45.2 52.1 42.7 54.3 40 56.4 37.4 58.3 34.6 60.2 31.8 61.9 28.8 63.8 25.7 65.3 22.7 66.8 19.3 68.2 16.1 69.6 12.6 70.8 9.2 71.9 5.5 73 1.9 73.9 0 0zm-211.9 527.1l117.2 -82.4 -125.8 16.4 4.6 -12.7 4.5 -12.8 4.3 -13 4.2 -13 4.1 -13.1 4 -13.3 3.7 -13.2 3.7 -13.5 3.5 -13.6 3.4 -13.6 3.2 -13.8 3.2 -13.9 2.9 -14 2.8 -14 2.7 -14.2 2.5 -14.4 2.4 -14.4 2.2 -14.6 2.1 -14.7 1.9 -14.7 1.8 -14.8 1.6 -15.1 1.5 -15.2 1.4 -15.2 1.1 -15.3 1.1 -15.6 0.9 -15.6 0.6 -15.6 0.6 -15.9 0.4 -16 0.2 -16.1 0.1 -16.2 143.3 0 -0.1 17.6 -0.3 17.6 -0.4 17.4 -0.6 17.2 -0.8 17.3 -1 17.2 -1.1 16.8 -1.3 16.9 -1.4 16.8 -1.7 16.6 -1.7 16.5 -2 16.5 -2.2 16.4 -2.3 16.2 -2.5 16.1 -2.6 16 -2.8 15.9 -2.9 15.8 -3.2 15.7 -3.3 15.5 -3.4 15.6 -3.7 15.3 -3.7 15.3 -4 15.1 -4 15 -4.3 15 -4.4 14.8 -4.6 14.8 -4.7 14.6 -4.9 14.4 -5 14.4 -5.2 14.4 -125.8 16.4zm125.8 -16.4l-47.3 128.1 -78.5 -111.7 125.8 -16.4zm-1920.4 -1839.1l43.6 136.5 -2.1 -137.1 79.6 24.5 77.4 27.3 75.2 30.2 73.2 32.8 71.1 35.4 69.3 37.8 67.4 40.3 65.6 42.7 63.9 44.8 62.4 47 60.8 49 59.5 51 58.1 52.9 57 54.7 55.8 56.3 54.8 58.1 53.9 59.6 53.1 61 52.4 62.5 51.7 63.7 51.3 65.1 50.8 66.2 50.5 67.3 50.2 68.3 50.1 69.3 50.1 70.2 50.2 71 50.2 71.7 50.6 72.4 50.9 73 51.4 73.6 51.8 74 -117.2 82.4 -52 -74.3 -51.5 -73.7 -50.9 -73 -50.4 -72.3 -50.1 -71.4 -49.8 -70.5 -49.6 -69.5 -49.5 -68.5 -49.6 -67.3 -49.6 -66.1 -49.7 -64.9 -50.1 -63.5 -50.3 -62.1 -50.8 -60.6 -51.3 -59 -51.9 -57.4 -52.6 -55.6 -53.4 -54 -54.3 -52 -55.1 -50.2 -56.2 -48.2 -57.4 -46.2 -58.5 -44.1 -59.9 -42 -61.2 -39.8 -62.8 -37.5 -64.4 -35.3 -66 -32.8 -67.9 -30.4 -69.8 -28 -71.9 -25.4 -74 -22.8 -2.1 -137.1zm2.1 137.1l-227.5 -65 225.4 -72.1 2.1 137.1z"/>
   </g>
   <g>
    <path class="fil1" d="M8983.7 8909l-143.3 0 0 0 -2.2 -86.9 -6.5 -85.7 -10.7 -84.4 -14.8 -83.1 -18.9 -81.6 -22.7 -80 -26.5 -78.4 -30.2 -76.5 -33.8 -74.7 -37.2 -72.8 -40.7 -70.6 -43.8 -68.5 -47.1 -66.1 -50.1 -63.8 -53 -61.2 -55.9 -58.6 -58.6 -55.8 -61.2 -53.1 -63.7 -50.1 -66.2 -47 -68.4 -43.9 -70.7 -40.6 -72.7 -37.3 -74.7 -33.8 -76.6 -30.1 -78.3 -26.6 -80.1 -22.7 -81.6 -18.8 -83 -14.8 -84.5 -10.8 -85.6 -6.5 -87 -2.2 0 -143.2 94.2 2.3 92.9 7.1 91.6 11.6 90.1 16.1 88.6 20.5 86.9 24.6 85 28.8 83.2 32.8 81.1 36.7 78.9 40.4 76.6 44.1 74.3 47.6 71.8 51 69.1 54.3 66.4 57.5 63.5 60.6 60.6 63.6 57.5 66.4 54.3 69.1 51.1 71.8 47.6 74.2 44 76.7 40.5 78.9 36.6 81.1 32.8 83.1 28.8 85.1 24.7 86.9 20.4 88.5 16.1 90.2 11.7 91.6 7 92.9 2.4 94.1 0 0zm-1830.3 1830.3l0 -143.3 0 0 87 -2.2 85.6 -6.5 84.5 -10.8 83 -14.8 81.6 -18.8 80.1 -22.7 78.3 -26.6 76.6 -30.2 74.7 -33.7 72.7 -37.3 70.7 -40.6 68.4 -43.9 66.2 -47 63.7 -50.1 61.2 -53 58.6 -55.9 55.9 -58.6 53 -61.2 50.1 -63.8 47.1 -66.1 43.8 -68.5 40.7 -70.6 37.2 -72.8 33.8 -74.7 30.2 -76.6 26.5 -78.3 22.7 -80 18.9 -81.6 14.8 -83.1 10.7 -84.4 6.5 -85.7 2.2 -86.9 143.3 0 -2.4 94.1 -7 92.9 -11.7 91.6 -16.1 90.2 -20.4 88.5 -24.7 86.9 -28.8 85.1 -32.8 83.1 -36.6 81.1 -40.5 79 -44 76.6 -47.6 74.2 -51.1 71.8 -54.3 69.1 -57.5 66.4 -60.6 63.6 -63.5 60.6 -66.4 57.5 -69.1 54.3 -71.8 51 -74.3 47.6 -76.6 44.1 -78.9 40.4 -81.1 36.7 -83.1 32.8 -85.1 28.8 -86.9 24.6 -88.6 20.5 -90.1 16.1 -91.6 11.6 -92.9 7.1 -94.2 2.4 0 0zm-1830.2 -1830.3l143.3 0 0 0 2.2 86.9 6.5 85.7 10.7 84.4 14.8 83.1 18.9 81.6 22.7 80 26.5 78.3 30.2 76.6 33.8 74.8 37.2 72.7 40.6 70.6 43.9 68.5 47.1 66.1 50.1 63.8 53 61.2 55.9 58.6 58.6 55.9 61.2 53 63.7 50.1 66.2 47 68.4 43.9 70.7 40.6 72.7 37.3 74.7 33.7 76.6 30.2 78.3 26.6 80.1 22.7 81.6 18.8 83 14.8 84.5 10.8 85.6 6.5 86.9 2.2 0 143.3 -94.1 -2.4 -92.9 -7.1 -91.6 -11.6 -90.1 -16.1 -88.6 -20.5 -86.9 -24.6 -85 -28.8 -83.2 -32.8 -81.1 -36.7 -78.9 -40.4 -76.7 -44.1 -74.2 -47.6 -71.7 -51 -69.2 -54.3 -66.4 -57.5 -63.5 -60.6 -60.6 -63.6 -57.5 -66.4 -54.4 -69.1 -51 -71.8 -47.6 -74.2 -44 -76.6 -40.5 -79 -36.6 -81.1 -32.8 -83.1 -28.8 -85.1 -24.7 -86.9 -20.4 -88.5 -16.1 -90.2 -11.7 -91.6 -7 -92.9 -2.4 -94.1 0 0zm1830.2 -1830.2l0 143.2 0 0 -86.9 2.2 -85.6 6.5 -84.5 10.8 -83 14.8 -81.6 18.8 -80.1 22.7 -78.3 26.6 -76.6 30.1 -74.7 33.8 -72.7 37.3 -70.7 40.6 -68.4 43.9 -66.2 47 -63.7 50.1 -61.2 53.1 -58.6 55.8 -55.9 58.6 -53 61.2 -50.1 63.8 -47.1 66.1 -43.9 68.5 -40.6 70.6 -37.2 72.7 -33.8 74.8 -30.2 76.5 -26.5 78.4 -22.7 80 -18.9 81.6 -14.8 83.1 -10.7 84.4 -6.5 85.7 -2.2 86.9 -143.3 0 2.4 -94.1 7 -92.9 11.7 -91.6 16.1 -90.2 20.4 -88.5 24.7 -86.9 28.8 -85.1 32.8 -83.1 36.6 -81.1 40.5 -78.9 44 -76.7 47.6 -74.2 51 -71.8 54.4 -69.1 57.5 -66.4 60.6 -63.6 63.5 -60.6 66.4 -57.5 69.2 -54.3 71.7 -51 74.2 -47.6 76.7 -44.1 78.9 -40.4 81.1 -36.7 83.2 -32.8 85 -28.8 86.9 -24.6 88.6 -20.5 90.1 -16.1 91.6 -11.6 92.9 -7.1 94.1 -2.3 0 0z"/>
   </g>
   <circle class="fil0" cx="7153.5" cy="8909" r="1107.8"/>
   <g>
    <path class="fil1" d="M15181.6 12274.2l46.1 -135.6 -58.9 5.8 147 -84.3 151.2 -85.4 154.9 -86.7 158.1 -87.9 161 -89.4 163.3 -90.9 165.2 -92.5 166.5 -94.2 167.5 -96.1 168 -97.9 167.9 -100 167.6 -102 166.5 -104.2 165.2 -106.5 163.3 -108.8 161 -111.3 158.1 -113.9 154.8 -116.4 151.2 -119.2 146.9 -122 142.2 -124.8 137 -127.8 131.5 -130.8 125.4 -133.9 118.9 -137.1 111.9 -140.4 104.5 -143.7 96.6 -147.2 88.3 -150.6 79.6 -154.2 70.4 -158 60.9 -161.8 135.6 46.4 -64 169.9 -73.8 165.5 -83.2 161.3 -92.2 157.1 -100.4 153.1 -108.4 149 -115.7 145.2 -122.6 141.4 -129 137.7 -134.9 134.3 -140.3 130.9 -145.4 127.5 -149.7 124.3 -153.8 121.4 -157.4 118.3 -160.5 115.5 -163.1 112.8 -165.2 110.1 -166.9 107.6 -168.1 105.2 -168.9 102.9 -169.1 100.6 -169 98.5 -168.3 96.5 -167.2 94.6 -165.6 92.7 -163.5 91.1 -161 89.3 -157.9 87.9 -154.5 86.4 -150.6 85.1 -146.1 83.8 -58.9 5.8zm58.9 -5.8l-28.1 16.3 -30.8 -10.5 58.9 -5.8zm-6589.9 -6025l42.7 136.7 -21.3 -140 226.1 13.1 211.4 38.3 197.6 62.2 184.5 84.8 172.7 105.6 162 124.6 152.8 142.2 145.1 158 139.1 172.4 134.6 185.5 131.8 197.4 130.5 207.8 130.6 217 132.3 225.1 135.5 231.7 140 237.2 146.1 241.3 153.5 244.1 162.4 245.8 172.7 246 184.4 245.2 197.4 242.9 212.1 239.4 227.9 234.7 245.4 228.7 264.3 221.5 284.5 212.9 306.2 203.2 329.5 192.2 354.2 179.9 380.4 166.3 408.1 151.5 -46.1 135.6 -415.5 -154.2 -387.9 -169.6 -361.7 -183.7 -336.6 -196.4 -313.1 -207.7 -290.9 -217.7 -270.2 -226.4 -250.7 -233.8 -232.8 -239.5 -216.2 -244.2 -201.2 -247.3 -187.4 -249.2 -175.2 -249.7 -164.4 -248.8 -155 -246.5 -147.1 -243 -140.6 -238.1 -135.6 -231.9 -131.8 -224.2 -129.6 -215.3 -128.7 -205 -129.1 -193.3 -130.8 -180.4 -134 -166.1 -138.1 -150.5 -143.8 -133.7 -150.5 -116 -158.9 -97.1 -168.6 -77.5 -180.3 -56.9 -193.8 -35.1 -209.5 -12 -21.4 -140zm21.4 140l-470.1 0 448.7 -140 21.4 140zm5234.8 -1629.9l-5213.5 1626.6 -42.7 -136.7 5213.5 -1626.6 21.4 -3.3 21.3 140zm-42.7 -136.7l10.5 -3.3 10.9 0 -21.4 3.3zm4357.1 3697.6l-75.2 121.8 0 0 -200.6 -130.7 -188.6 -136 -177.4 -140.8 -166.9 -144.8 -157.1 -148.1 -148.1 -150.9 -139.9 -152.9 -132.6 -154.5 -125.8 -155.1 -120 -155.3 -115 -154.8 -110.6 -153.7 -107.1 -151.9 -104.3 -149.5 -102.3 -146.5 -101.1 -142.8 -100.6 -138.5 -100.9 -133.6 -101.9 -128.1 -103.6 -122 -106 -115.2 -109.2 -107.9 -113.1 -100.1 -117.7 -91.8 -123.2 -82.9 -129.3 -73.7 -136.4 -63.8 -144.5 -53.6 -153.4 -42.7 -163.3 -31.3 -174.1 -19.3 -185.9 -6.6 0 -143.3 196.1 7 185.2 20.5 174.6 33.5 164.9 45.9 155.6 57.7 147 68.8 139.1 79.1 131.7 88.8 125.2 97.5 119.4 105.7 114.4 113.1 110.2 119.8 107 125.9 104.4 131.3 102.8 136 101.9 140.4 101.9 143.8 102.6 146.9 104.1 149.2 106.5 151.1 109.6 152.2 113.5 152.9 118.1 152.9 123.5 152.3 129.8 151.1 136.7 149.5 144.3 147.1 153 144.2 162.2 140.8 172.4 136.7 183.1 132.2 194.9 127 0 0zm1555.6 156.5l-135.6 -46.4 106.8 83.3 -49.6 30.9 -49.6 28.6 -49.6 26.2 -49.6 24 -49.7 21.6 -49.8 19.3 -49.8 17 -49.9 14.7 -49.9 12.5 -50 10.3 -50 8.1 -50.1 5.9 -50 3.7 -50.1 1.6 -50 -0.5 -50.2 -2.6 -50 -4.6 -50.1 -6.7 -50.1 -8.6 -50 -10.5 -50.1 -12.4 -50 -14.2 -50.1 -16.1 -50.1 -17.7 -50.2 -19.6 -50.2 -21.2 -50.3 -23 -50.3 -24.5 -50.5 -26.1 -50.6 -27.7 -50.7 -29.2 -50.8 -30.8 75.2 -121.8 48.4 29.2 48.1 27.7 47.8 26.2 47.4 24.6 47.1 22.9 46.9 21.3 46.4 19.7 46.3 18 46 16.4 45.6 14.6 45.4 12.9 45.2 11.2 45 9.4 44.7 7.7 44.6 5.9 44.4 4.1 44.2 2.3 44.1 0.5 44 -1.4 44 -3.3 43.9 -5.1 43.9 -7.2 44 -9 44 -11 44.1 -13.1 44.3 -15.1 44.4 -17.2 44.5 -19.4 44.7 -21.5 44.9 -23.8 45.2 -26 45.4 -28.3 106.7 83.3zm-106.7 -83.3l173.6 -112.6 -66.9 195.9 -106.7 -83.3z"/>
   </g>
   <path class="fil1" d="M17819.7 9021.7l-3221.3 1873.4 -152.6 -144.2 3221.3 -1873.4 152.6 144.2zm-4803.4 -3268.1c310.9,295.6 855.4,914.6 1016.7,1157.1 458,-200.3 1062,-454.9 1288.5,-549.5 -328.7,-503.3 -818.6,-948.3 -1101.2,-1047.3 -393.8,140.8 -854,312.2 -1204,439.7zm-145.8 246.9l-1783 671.7 -135.9 -151.9 1783.1 -671.7 135.8 151.9zm550.2 829.3l-1703.7 690 -116 -156.4 1703.6 -690.1 116.1 156.5zm2302 64.6l-3374.3 1557.4 -99.9 -171 3374.3 -1557.4 99.9 171zm588.2 762.6l-3358.1 1630.2 -109.2 -169.4 3358.1 -1630.2 109.2 169.4zm658.6 723.5l-3271.6 1674.6 -131.2 -148.8 3271.6 -1674.7 131.2 148.9z"/>
   <g>
    <path class="fil1" d="M8738.9 11550.7l3107.9 -1279.6 54.6 132.4 -3107.9 1279.7 -39 4.4 -15.6 -136.9zm15.6 136.9l-248.5 -40.9 232.9 -96 15.6 136.9zm8890.8 1465.6l-8890.8 -1465.6 23.3 -141.3 8890.8 1465.5 24.8 132.3 -48.1 9.1zm48.1 -9.1l-22.4 13.3 -25.7 -4.2 48.1 -9.1zm4543.1 -2686.8l-4543.1 2686.8 -72.9 -123.3 4543.1 -2686.8 41.7 -9.7 31.2 133zm-31.2 -133l227.6 16.9 -196.4 116.1 -31.2 -133zm-3263 -242.6l3263 242.6 -10.6 142.8 -3263 -242.5 10.6 -142.9z"/>
   </g>
   <g>
    <path class="fil1" d="M17645.3 13694.2l-8890.8 -1465.5 23.3 -141.3 8890.8 1465.5 24.8 132.3 -48.1 9zm48.1 -9l-22.4 13.3 -25.7 -4.3 48.1 -9zm4543.1 -2686.7l-4543.1 2686.7 -72.9 -123.3 4543.1 -2686.8 72.9 123.4z"/>
   </g>
   <g>
    <path class="fil1" d="M17645.3 14151.9l-8890.8 -1465.5 23.3 -141.4 8890.8 1465.6 24.8 132.3 -48.1 9zm48.1 -9l-22.4 13.2 -25.7 -4.2 48.1 -9zm4543.1 -2686.8l-4543.1 2686.8 -72.9 -123.3 4543.1 -2686.8 72.9 123.3z"/>
   </g>
  </g>
 </g>
</svg>
