<?xml version="1.0" encoding="UTF-8"?>
<!DOCTYPE svg PUBLIC "-//W3C//DTD SVG 1.1//EN" "http://www.w3.org/Graphics/SVG/1.1/DTD/svg11.dtd">
<!-- Creator: CorelDRAW 2018 (64-Bit) -->
<svg xmlns="http://www.w3.org/2000/svg" xml:space="preserve" width="22.0132mm" height="14.3932mm" version="1.1" style="shape-rendering:geometricPrecision; text-rendering:geometricPrecision; image-rendering:optimizeQuality; fill-rule:evenodd; clip-rule:evenodd"
viewBox="0 0 2201.32 1439.32"
 xmlns:xlink="http://www.w3.org/1999/xlink">
 <defs>
  <style type="text/css">
   <![CDATA[
    .str0 {stroke:#666666;stroke-width:16.93;stroke-miterlimit:22.9256}
    .str1 {stroke:#666666;stroke-width:16.93;stroke-miterlimit:22.9256}
    .fil1 {fill:none}
    .fil0 {fill:#666666}
   ]]>
  </style>
 </defs>
 <g id="Layer_x0020_1">
  <metadata id="CorelCorpID_0Corel-Layer"/>
  <path class="fil0" d="M475.77 373.9l1249.78 0 0 80.14 -110.04 0c-12.17,-17.83 -27.41,-28.26 -46.16,-29.17 -312.46,0 -624.92,0 -937.38,0 -18.75,0.91 -33.99,11.34 -46.16,29.17l-110.04 0 0 -80.14z"/>
  <path class="fil0" d="M297.72 1259.72c25.01,0 45.29,20.28 45.29,45.29 0,25.01 -20.28,45.28 -45.29,45.28 -25.01,0 -45.29,-20.27 -45.29,-45.28 0,-25.01 20.28,-45.29 45.29,-45.29zm32.45 -354.55l215.16 0 0 120.81 -215.16 0 0 213.01 -64.9 0 0 -539.23 64.9 0 0 205.41zm1325.82 0l215.17 0 0 -205.41 64.89 0 0 539.23 -64.89 0 0 -213.01 -215.17 0 0 -120.81zm247.61 354.55c-25,0 -45.28,20.28 -45.28,45.29 0,25.01 20.28,45.28 45.28,45.28 25.01,0 45.29,-20.27 45.29,-45.28 0,-25.01 -20.28,-45.29 -45.29,-45.29z"/>
  <path class="fil1 str0" d="M1655.99 1100.37c-370.22,0 -740.44,0 -1110.66,0l0 -421.38c0,-139.42 23.29,-251.05 86.64,-254.12 312.46,0 624.92,0 937.38,0 63.35,3.07 86.64,114.7 86.64,254.12l0 421.38z"/>
  <g id="_2259620647728">
   <path class="fil1 str0" d="M465.79 454.04l120.02 0c-28.93,42.43 -40.48,126.8 -40.48,224.95l0 19.24 0 1.53 -174.1 0c0,-136.27 23.09,-204.2 94.56,-245.72zm1149.72 0l120.02 0c71.47,41.52 94.56,109.45 94.56,245.72l-174.1 0 0 -1.53 0 -19.24c0,-98.15 -11.54,-182.52 -40.48,-224.95z"/>
   <path class="fil1 str0" d="M427.63 483.37l143.23 0m1059.6 0l143.23 0m-1375.12 41.93l160.06 0m1084.07 0l160.05 0m-1420.94 57.54l167.95 0m1101.8 0l169.53 0m-1445.34 66.56l169.95 0m1109.92 0l173.21 0"/>
  </g>
  <g id="_2259620644912">
   <path class="fil1 str0" d="M2045.37 89.02l-364 0 0 42.61 34.27 0 28.41 119.75 0 122.52 -18.5 0 0 80.14 18.5 5.24c64.79,41.96 86.04,109.78 86.04,240.48l215.28 0 113.63 -118.4c0,-99.48 0,-236.71 0,-336.19l-113.63 -156.15z"/>
   <line class="fil1 str0" x1="2045.37" y1="699.76" x2="2045.37" y2= "483.37" />
   <polygon class="fil0" points="2045.37,354.45 1868.73,354.45 1868.73,245.17 2045.37,245.17 "/>
  </g>
  <g id="_2259620638064">
   <path class="fil1 str0" d="M1359.27 1014.04c-21.56,-44.98 -168.85,-82.89 -206.71,-111.96 -33.26,-25.54 -82.83,-113.95 -120.58,-73.21 -58.08,62.71 -49.5,69.97 -111.87,-2.03 -49.92,-57.63 -53.06,-59.3 -100.53,-10.85 -70.04,71.46 -155.41,160.48 -162.24,198.05l701.93 0z"/>
   <path class="fil1 str0" d="M1634.85 928.8c-169.82,-396.25 -60.38,-105.66 -301.9,0l301.9 0z"/>
   <path class="fil1 str0" d="M773.49 838.43c-143.07,-115.97 -89.74,-143.73 -228.16,-30.51"/>
   <line class="fil1 str0" x1="545.33" y1="947.56" x2="672.33" y2= "947.56" />
   <path class="fil1 str0" d="M1256.26 795.04c33.03,0 62.78,-14 83.65,-36.4l-47.09 0 0 -36.64 70.08 0c4.96,-12.81 7.69,-26.73 7.69,-41.29 0,-63.14 -51.19,-114.32 -114.33,-114.32 -49.78,0 -92.12,31.82 -107.81,76.22l107.44 0 0 36.65 -113.95 0c-0.39,63.85 50.26,115.78 114.32,115.78z"/>
  </g>
  <g id="_2259620632144">
   <path class="fil1 str0" d="M1715.64 131.63c-409.99,0 -819.97,0 -1229.96,0l-28.41 119.75 0 122.52c428.93,0 857.86,0 1286.78,0l0 -122.52 -28.41 -119.75z"/>
   <line class="fil1 str0" x1="1100.66" y1="251.38" x2="457.27" y2= "251.38" />
   <line class="fil1 str0" x1="1744.05" y1="251.38" x2="1569.35" y2= "251.38" />
  </g>
  <g id="_2259620629584">
   <line class="fil1 str0" x1="155.96" y1="699.76" x2="155.96" y2= "282.9" />
   <path class="fil1 str1" d="M457.27 459.28l18.5 -5.24 0 -80.14 -18.5 0 0 -122.52 28.41 -119.75 34.27 0 0 -42.61 -363.99 0 -113.63 156.15c0,99.48 0,236.71 0,336.19l113.63 118.4 215.27 0c0,-130.7 21.25,-198.52 86.04,-240.48z"/>
  </g>
 </g>
</svg>
