<?xml version="1.0" encoding="UTF-8"?>
<!DOCTYPE svg PUBLIC "-//W3C//DTD SVG 1.1//EN" "http://www.w3.org/Graphics/SVG/1.1/DTD/svg11.dtd">
<!-- Creator: CorelDRAW 2018 (64-Bit) -->
<svg xmlns="http://www.w3.org/2000/svg" xml:space="preserve" width="260px" height="180px" version="1.1" style="shape-rendering:geometricPrecision; text-rendering:geometricPrecision; image-rendering:optimizeQuality; fill-rule:evenodd; clip-rule:evenodd"
viewBox="0 0 26000 18000"
 xmlns:xlink="http://www.w3.org/1999/xlink">
 <defs>
  <style type="text/css">
   <![CDATA[
    .str0 {stroke:#666666;stroke-width:133.3;stroke-miterlimit:22.9256}
    .str1 {stroke:#666666;stroke-width:133.3;stroke-miterlimit:22.9256}
    .fil1 {fill:none}
    .fil0 {fill:#666666}
   ]]>
  </style>
 </defs>
 <g id="Layer_x0020_1">
  <metadata id="CorelCorpID_0Corel-Layer"/>
  <g id="_2866834181088">
   <path class="fil0" d="M6537.8 6087.7l12924.3 0 0 828.8 -1137.9 0c-125.8,-184.5 -283.4,-292.3 -477.4,-301.7 -3231.2,0 -6462.4,0 -9693.6,0 -194,9.4 -351.6,117.2 -477.4,301.7l-1138 0 0 -828.8z"/>
   <path class="fil0" d="M4696.5 15248.3c258.7,0 468.4,209.7 468.4,468.3 0,258.6 -209.7,468.3 -468.4,468.3 -258.6,0 -468.3,-209.7 -468.3,-468.3 0,-258.6 209.7,-468.3 468.3,-468.3zm335.6 -3666.6l2225.1 0 0 1249.4 -2225.1 0 0 2202.8 -671.1 0 0 -5576.4 671.1 0 0 2124.2zm13710.7 0l2225.1 0 0 -2124.2 671.1 0 0 5576.4 -671.1 0 0 -2202.8 -2225.1 0 0 -1249.4zm2560.7 3666.6c-258.7,0 -468.4,209.7 -468.4,468.3 0,258.6 209.7,468.3 468.4,468.3 258.6,0 468.3,-209.7 468.3,-468.3 0,-258.6 -209.7,-468.3 -468.3,-468.3z"/>
   <path class="fil1 str0" d="M18742.8 13600.3c-3828.5,0 -7657.1,0 -11485.6,0l0 -4357.6c0,-1441.8 240.8,-2596.1 896,-2627.9 3231.2,0 6462.4,0 9693.6,0 655.2,31.8 896,1186.2 896,2627.9l0 4357.6z"/>
   <g>
    <path class="fil1 str0" d="M6434.6 6916.5l1241.2 0c-299.2,438.7 -418.6,1311.2 -418.6,2326.2l0 198.9 0 15.9 -1800.5 0c0,-1409.2 238.8,-2111.7 977.9,-2541zm11889.6 0l1241.2 0c739.1,429.3 977.9,1131.8 977.9,2541l-1800.5 0 0 -15.9 0 -198.9c0,-1015 -119.4,-1887.5 -418.6,-2326.2z"/>
    <path class="fil1 str0" d="M6040 7219.7l1481.2 0m10957.6 0l1481.2 0m-14220.5 433.6l1655.1 0m11210.8 0l1655.1 0m-14694.4 595.1l1736.9 0m11394 0l1753.1 0m-14946.7 688.3l1757.6 0m11478 0l1791.2 0"/>
   </g>
   <g>
    <path class="fil1 str0" d="M22769.5 3141.7l-3764.2 0 0 440.6 354.4 0 293.8 1238.3 0 1267.1 -191.4 0 0 828.8 191.4 54.2c670,433.8 889.8,1135.2 889.8,2486.8l2226.2 0 1175.1 -1224.4c0,-1028.8 0,-2447.9 0,-3476.7l-1175.1 -1614.7z"/>
    <line class="fil1 str0" x1="22769.5" y1="9457.5" x2="22769.5" y2= "7219.7" />
    <polygon class="fil0" points="22769.5,5886.5 20942.8,5886.5 20942.8,4756.4 22769.5,4756.4 "/>
   </g>
   <g>
    <path class="fil1 str0" d="M15674.3 12707.6c-223,-465.2 -1746,-857.2 -2137.6,-1157.8 -343.9,-264.2 -856.5,-1178.4 -1246.9,-757.1 -600.7,648.4 -512,723.6 -1157,-21 -516.2,-596 -548.7,-613.2 -1039.6,-112.3 -724.2,739.1 -1607.1,1659.7 -1677.8,2048.2l7258.9 0z"/>
    <path class="fil1 str0" d="M18524.2 11826.1c-1756.2,-4097.7 -624.4,-1092.7 -3122,0l3122 0z"/>
    <path class="fil1 str0" d="M9616.6 10891.6c-1479.5,-1199.4 -928,-1486.4 -2359.4,-315.6"/>
    <line class="fil1 str0" x1="7257.2" y1="12020" x2="8570.5" y2= "12020" />
    <path class="fil1 str0" d="M14609.1 10442.8c341.5,0 649.3,-144.8 865,-376.4l-487 0 0 -378.9 724.8 0c51.3,-132.5 79.5,-276.4 79.5,-427 0,-652.9 -529.3,-1182.2 -1182.3,-1182.2 -514.8,0 -952.6,329 -1115,788.2l1111.2 0 0 379 -1178.4 0c-4.1,660.4 519.7,1197.3 1182.2,1197.3z"/>
   </g>
   <g>
    <path class="fil1 str0" d="M19359.7 3582.3c-4239.8,0 -8479.6,0 -12719.4,0l-293.8 1238.3 0 1267.1c4435.7,0 8871.3,0 13307,0l0 -1267.1 -293.8 -1238.3z"/>
    <line class="fil1 str0" x1="13000" y1="4820.6" x2="6346.5" y2= "4820.6" />
    <line class="fil1 str0" x1="19653.5" y1="4820.6" x2="17846.8" y2= "4820.6" />
   </g>
   <g>
    <line class="fil1 str0" x1="3230.5" y1="9457.5" x2="3230.5" y2= "5146.7" />
    <path class="fil1 str1" d="M6346.5 6970.7l191.3 -54.2 0 -828.8 -191.3 0 0 -1267.1 293.8 -1238.3 354.4 0 0 -440.6 -3764.2 0 -1175.1 1614.7c0,1028.8 0,2447.9 0,3476.7l1175.1 1224.4 2226.2 0c0,-1351.6 219.8,-2053 889.8,-2486.8z"/>
   </g>
  </g>
 </g>
</svg>
