<?xml version="1.0" encoding="UTF-8"?>
<!DOCTYPE svg PUBLIC "-//W3C//DTD SVG 1.1//EN" "http://www.w3.org/Graphics/SVG/1.1/DTD/svg11.dtd">
<!-- Creator: CorelDRAW 2018 (64-Bit) -->
<svg xmlns="http://www.w3.org/2000/svg" xml:space="preserve" width="97px" height="96px" version="1.1" style="shape-rendering:geometricPrecision; text-rendering:geometricPrecision; image-rendering:optimizeQuality; fill-rule:evenodd; clip-rule:evenodd"
viewBox="0 0 9700 9640.9"
 xmlns:xlink="http://www.w3.org/1999/xlink">
 <defs>
  <style type="text/css">
   <![CDATA[
    .str0 {stroke:#31C3C5;stroke-width:200.5;stroke-miterlimit:22.9256}
    .fil0 {fill:none}
    .fil1 {fill:#31C3C5}
   ]]>
  </style>
 </defs>
 <g id="Layer_x0020_1">
  <metadata id="CorelCorpID_0Corel-Layer"/>
  <path class="fil0 str0" d="M3272.9 5537.4l1545.3 2270.7 1512.5 -2222.4c556.7,-818 1424.8,-1824.5 1424.8,-2834.7 0,-1463.9 -1315.1,-2650.7 -2937.3,-2650.7 -1622.2,0 -2937.3,1186.8 -2937.3,2650.7 0,1002.4 841,1976.8 1392,2786.4"/>
  <path class="fil0 str0" d="M2865.9 3064c695.6,-558.4 1358.3,-1184.7 1952.3,-1952.2 560.1,739.6 1221.8,1379.8 1952.2,1952.2"/>
  <line class="fil0 str0" x1="3394.3" y1="2629.2" x2="3394.3" y2= "4635.3" />
  <line class="fil0 str0" x1="6242.1" y1="2629.2" x2="6242.1" y2= "4635.3" />
  <path class="fil0 str0" d="M5581.9 3661.6c-97,337.7 -432.5,586.9 -831.4,586.9 -362.1,0 -671.9,-205.2 -798.6,-495.6"/>
  <rect class="fil1" x="4065.9" y="2743.2" width="394.1" height="573.1"/>
  <rect class="fil1" x="5158.5" y="2743.2" width="394.1" height="573.1"/>
  <path class="fil1" d="M5219.5 7872.1c651.1,65.1 1130.1,284.7 1130.1,545.6 0,312.2 -685.6,565.3 -1531.4,565.3 -845.8,0 -1531.4,-253.1 -1531.4,-565.3 0,-260.9 478.9,-480.5 1130,-545.6l401.4 589.8 401.3 -589.8z"/>
  <path class="fil0 str0" d="M5809.9 7472.1c1107.2,149.3 1897.6,541.5 1897.6,1001.9 0,589.1 -1293.6,1066.6 -2889.3,1066.6 -1595.7,0 -2889.3,-477.5 -2889.3,-1066.6 0,-453.7 767.7,-841.3 1849.8,-995.3"/>
  <line class="fil0 str0" x1="6952.7" y1="6170.4" x2="8104.2" y2= "4991.5" />
  <line class="fil0 str0" x1="6874.4" y1="6872" x2="9643.4" y2= "4980.3" />
  <line class="fil0 str0" x1="7455.7" y1="7248.9" x2="9210.3" y2= "6837.7" />
  <line class="fil0 str0" x1="2747.3" y1="6206.5" x2="1595.8" y2= "5027.6" />
  <line class="fil0 str0" x1="2825.6" y1="6908.2" x2="56.6" y2= "5016.5" />
  <line class="fil0 str0" x1="2244.3" y1="7285" x2="489.6" y2= "6873.8" />
 </g>
</svg>
