<?xml version="1.0" encoding="UTF-8"?>
<!DOCTYPE svg PUBLIC "-//W3C//DTD SVG 1.1//EN" "http://www.w3.org/Graphics/SVG/1.1/DTD/svg11.dtd">
<!-- Creator: CorelDRAW 2018 (64-Bit) -->
<svg xmlns="http://www.w3.org/2000/svg" xml:space="preserve" width="110px" height="126px" version="1.1" style="shape-rendering:geometricPrecision; text-rendering:geometricPrecision; image-rendering:optimizeQuality; fill-rule:evenodd; clip-rule:evenodd"
viewBox="0 0 11000 12600"
 xmlns:xlink="http://www.w3.org/1999/xlink">
 <defs>
  <style type="text/css">
   <![CDATA[
    .str0 {stroke:#31C3C5;stroke-width:200;stroke-miterlimit:22.9256}
    .fil0 {fill:none}
    .fil1 {fill:#31C3C5}
    .fil2 {fill:#31C3C5;fill-rule:nonzero}
   ]]>
  </style>
 </defs>
 <g id="Layer_x0020_1">
  <metadata id="CorelCorpID_0Corel-Layer"/>
  <path class="fil0 str0" d="M6018.1 4018.8l682.9 0c307.1,0 558.3,251.3 558.3,558.3l0 7297.1c0,307 -251.2,558.3 -558.3,558.3l-5973.6 0c-307,0 -558.3,-251.3 -558.3,-558.3l0 -7297.1c0,-307.1 251.3,-558.3 558.3,-558.3l2602 0"/>
  <path class="fil1" d="M6011.1 6315.8c148.1,6.3 267.4,129.3 267.4,278.9l0 292.6c0,153.5 -125.7,279.1 -279.2,279.1l-482.8 0 494.6 -850.6zm-4440.4 850.6l-141.6 0c-153.5,0 -279.1,-125.6 -279.1,-279.1l0 -292.6c0,-153.5 125.6,-279.1 279.1,-279.1l636.3 0 -494.7 850.8z"/>
  <path class="fil2" d="M3926.1 9521.9l24.6 -107.6 256.8 0 -147.9 697.9c-9.3,44.2 -13.6,73.1 -13.6,87.4 0,15 3.6,26.6 11,35.2 7.6,8.3 16.6,12.7 26.9,12.7 34.9,0 80.4,-23 135.9,-68.8 55.4,-45.5 103.6,-108 144.8,-186.7 41.2,-78.8 61.8,-165.1 61.8,-258.5 0,-77.7 -14.7,-151.1 -44.2,-219.9 -29.6,-68.7 -72.4,-128.2 -128.2,-179 -55.8,-50.5 -124.6,-90.1 -206.7,-118.6 -82,-28.6 -175,-42.9 -279,-42.9 -105.7,0 -202.7,13.6 -291,41.2 -88.1,27.6 -165.8,67.1 -232.6,118.6 -66.7,51.5 -122.6,115.3 -167.4,191 -39.5,66.1 -69.8,139.5 -90.7,219.9 -20.9,80.4 -31.2,162.5 -31.2,246.2 0,111.6 22.2,213.6 66.8,306 44.5,92.6 108.9,170 193.6,232.5 84.7,62.8 187.1,107.3 307.3,133.5 119.9,26.3 255.8,31.6 407,16 119.9,-14.3 221.9,-41.5 304.9,-81.7 83.4,-40.2 154.2,-96.4 212,-169.1l207.3 0c-33.6,69.4 -77.8,131.5 -131.9,186 -54.2,54.5 -117.6,100.3 -190,137.9 -72.8,37.2 -154.2,65.8 -244.5,85 -90.1,19.6 -188.4,29.3 -295,29.3 -159.5,0 -303.3,-21 -430.9,-62.8 -127.9,-41.9 -235.5,-102.4 -322.9,-181.1 -87,-78.7 -153.1,-172.7 -198,-282.4 -44.9,-109.2 -67.1,-229.9 -67.1,-362.4 0,-138.2 22.9,-267.4 69.1,-387.3 46.2,-120 112.3,-224.3 199,-313 86.7,-88.3 192.3,-157.8 317.3,-207.6 124.8,-50.2 262.7,-75.1 413.2,-75.1 123.2,0 236.2,18 339.2,54.2 102.6,35.8 191,87.7 264.1,155.1 73.4,67.4 129.2,147.5 168.1,239.8 38.5,92.4 57.8,194.4 57.8,306 0,87 -15.6,172.1 -46.8,255.5 -30.9,83.4 -75.8,158.4 -133.9,224.9 -57.9,66.4 -126.3,118.9 -204.7,157.8 -78.7,38.5 -163.4,57.8 -254.1,57.8 -52.5,0 -93.4,-9 -122.6,-26.6 -29.2,-17.9 -48.8,-46.2 -58.5,-85.1 -56.4,55.9 -121.2,90.8 -194.6,105.4 -73.4,14.6 -144.5,7.9 -213.3,-20.3 -68.8,-28.2 -124.2,-75.8 -166.8,-142.5 -42.5,-67.1 -63.7,-149.5 -63.7,-247.5 0,-102 21.9,-202.3 65.7,-301 43.9,-98.6 106,-179.4 186.7,-242.5 80.7,-62.8 172.1,-94.3 274.1,-94.3 116.9,0 202.3,43.8 256.8,131.5zm-532.2 504.6c0,77.8 16.3,137.6 48.5,179.1 32.5,41.5 75.1,62.1 127.6,62.1 61.1,0 114.6,-24.2 161.1,-72.7 46.5,-48.9 81.7,-110.3 105.6,-184.7 23.9,-74.5 35.9,-146.2 35.9,-215.7 0,-34.5 -4,-65.4 -12,-93 -8.3,-27.5 -20.2,-51.8 -36.2,-72.4 -15.9,-20.9 -34.9,-36.5 -57.5,-47.5 -22.2,-10.6 -47.8,-15.9 -76.3,-15.9 -56.9,0 -108.4,22.2 -154.2,66.7 -45.8,44.6 -80.7,102.4 -105.6,173.5 -24.6,71.1 -36.9,144.5 -36.9,220.5z"/>
  <g id="_2545361433296">
   <polyline class="fil0 str0" points="1570.7,7043 4012.3,2844.7 6960.8,4559.4 5479.1,7107.8 "/>
   <path class="fil0 str0" d="M4012.3 2844.7l743.3 2809.7c74.3,280.7 -94.5,571 -375.2,645.2l-2809.7 743.4"/>
   <path class="fil0 str0" d="M6960.8 4559.4l-2324.4 615m-734.1 1251.5l181.3 684.6"/>
  </g>
  <g id="_2545361432208">
   <path class="fil0 str0" d="M5755 2873.5c649.9,297.5 1301.9,599.8 1949.7,920.5 650.5,321.9 1296.8,662.4 1945,1008.4 195.6,-510.3 392.8,-1024.9 588.5,-1545 197.5,-524.8 394.5,-1054.5 592.7,-1589.1 -652.8,-274.7 -1303.6,-544.1 -1958.7,-794.4 -651.8,-249.1 -1307.8,-480.6 -1962.8,-706.4 -193.2,463.7 -385.9,922.2 -579,1375.1 -191.6,449.3 -384.5,892.4 -575.4,1330.9"/>
   <path class="fil0 str0" d="M6909.4 167.5c160.9,377.5 322.4,760.4 480.9,1149.4 160.7,394.3 318.9,795.9 477.2,1203.2 95.7,246.4 365.3,371.4 600.1,269.9 393.4,-170.1 787.3,-347 1179.6,-533 395.4,-187.5 788.8,-386 1183.7,-588.7"/>
   <path class="fil0 str0" d="M5755 2873.5c322.8,-117.1 647.7,-236.6 970.7,-364 324.4,-127.9 649,-263.9 973.6,-402.6m1169.6 507.7c130.2,354.1 261.6,712.7 391,1075.4 130.5,365.9 259.8,737.4 389.8,1112.4"/>
  </g>
  <line class="fil0 str0" x1="1570.7" y1="7110.6" x2="5553.3" y2= "7110.6" />
 </g>
</svg>
