<?xml version="1.0" encoding="UTF-8"?>
<!DOCTYPE svg PUBLIC "-//W3C//DTD SVG 1.1//EN" "http://www.w3.org/Graphics/SVG/1.1/DTD/svg11.dtd">
<!-- Creator: CorelDRAW 2018 (64-Bit) -->
<svg xmlns="http://www.w3.org/2000/svg" xml:space="preserve" width="330px" height="330px" version="1.1" style="shape-rendering:geometricPrecision; text-rendering:geometricPrecision; image-rendering:optimizeQuality; fill-rule:evenodd; clip-rule:evenodd"
viewBox="0 0 33000 33000"
 xmlns:xlink="http://www.w3.org/1999/xlink">
 <defs>
  <style type="text/css">
   <![CDATA[
    .str1 {stroke:#A3C4E0;stroke-width:600;stroke-linecap:round;stroke-miterlimit:22.9256}
    .str0 {stroke:#A3C4E0;stroke-width:500;stroke-linecap:round;stroke-miterlimit:22.9256}
    .fil0 {fill:none}
    .fil1 {fill:#A3C4E0;fill-rule:nonzero}
   ]]>
  </style>
 </defs>
 <g id="Layer_x0020_1">
  <metadata id="CorelCorpID_0Corel-Layer"/>
  <g id="_1460256542432">
   <polygon class="fil0 str0" points="6069.8,9416.4 26930.2,9416.4 26930.2,23583.6 6069.8,23583.6 "/>
   <path class="fil0 str0" d="M26930.2 9468.2l-8372.1 9087.6c-1131.9,1228.3 -2987.2,1225 -4123.3,-7.9l-8365 -9079.7"/>
   <path class="fil0 str0" d="M20120.5 16859.4l6809.7 6659.1m-20860.4 0l6809.7 -6659.1"/>
   <path class="fil1" d="M17229.7 13735.4l-47.1 189.8 -18 0c-142.7,-153.9 -332.5,-237.4 -581.6,-237.4 -735.5,0 -1465.6,783.6 -1465.6,1542.9 0,492.7 243.2,919.9 735.9,919.9 249.1,0 522,-83 878.3,-510.2l23.8 0c5.8,23.8 11.6,53.4 17.5,76.7 89.3,332.5 391.7,510.7 777.2,510.7 813.2,0 1181.2,-866.5 1181.2,-1572.5 0,-1216.5 -931.7,-1952.1 -2118.6,-1952.1 -1412.3,0 -2343.9,1115.2 -2343.9,2373.5 0,1067.7 783.5,2147.8 2219.5,2147.8 343.8,0 747.7,-29.6 1240,-231.5l-77.2 -272.9c-468.5,196.1 -884.1,213.6 -1162.8,213.6 -1068.4,0 -1857.4,-789.3 -1857.4,-1857 0,-1151.5 801.1,-2082.7 1987.6,-2082.7 1003,0 1822,628.7 1822,1661.3 0,902.1 -504.4,1287.5 -830.7,1287.5 -219.9,0 -243.7,-201.9 -243.7,-267 0,-77.1 18,-148.5 41.8,-225.3l492.3 -1715.1 -670.5 0zm-1097.7 1958.4c-154.3,0 -302.4,-130.6 -302.4,-463.1 0,-486.5 421.3,-1299.2 902,-1299.2 243.2,0 278.7,189.8 278.7,420.9 0,718.1 -539.9,1341.4 -878.3,1341.4z"/>
   <path class="fil0 str1" d="M16500 32500c8836.6,0 16000,-7163.4 16000,-16000 0,-8836.6 -7163.4,-16000 -16000,-16000 -8836.6,0 -16000,7163.4 -16000,16000 0,8836.6 7163.4,16000 16000,16000z"/>
  </g>
 </g>
</svg>
