<?xml version="1.0" encoding="UTF-8"?>
<!DOCTYPE svg PUBLIC "-//W3C//DTD SVG 1.1//EN" "http://www.w3.org/Graphics/SVG/1.1/DTD/svg11.dtd">
<!-- Creator: CorelDRAW 2018 (64-Bit) -->
<svg xmlns="http://www.w3.org/2000/svg" xml:space="preserve" width="330px" height="330px" version="1.1" style="shape-rendering:geometricPrecision; text-rendering:geometricPrecision; image-rendering:optimizeQuality; fill-rule:evenodd; clip-rule:evenodd"
viewBox="0 0 33000 33000"
 xmlns:xlink="http://www.w3.org/1999/xlink">
 <defs>
  <style type="text/css">
   <![CDATA[
    .str2 {stroke:#A3C4E0;stroke-width:600;stroke-linecap:round;stroke-miterlimit:22.9256}
    .str0 {stroke:#A3C4E0;stroke-width:500;stroke-linecap:round;stroke-miterlimit:22.9256}
    .str1 {stroke:#A3C4E0;stroke-width:400;stroke-linecap:round;stroke-miterlimit:22.9256}
    .fil0 {fill:none}
    .fil1 {fill:#A3C4E0}
   ]]>
  </style>
 </defs>
 <g id="Layer_x0020_1">
  <metadata id="CorelCorpID_0Corel-Layer"/>
  <g id="_1458289369024">
   <g>
    <g>
     <path class="fil0 str0" d="M15477.9 4921.1l6292.3 1109.5c736.3,129.8 1232.5,838.5 1102.7,1574.8l-3808.4 21598.6c-259.7,1472.7 -1677.1,2465.2 -3149.7,2205.5l-3614.7 -637.4c-1472.7,-259.7 -2465.2,-1677 -2205.5,-3149.7l3808.4 -21598.6c129.9,-736.3 838.6,-1232.6 1574.9,-1102.7l0 0z"/>
     <path class="fil0 str0" d="M15617 7775.5l5046.3 889.8c237.4,41.8 397.3,270.2 355.5,507.1l-1106.9 6277.6c-41.8,237 -270.2,396.8 -507.6,355l-5046.3 -889.8c-237.4,-41.9 -396.8,-270.2 -355.1,-507.1l1106.9 -6277.6c41.9,-236.9 269.8,-396.9 507.2,-355z"/>
     <path class="fil0 str0" d="M15953.5 20621.5c1116.9,196.9 2181.5,-548.5 2378.5,-1665.5 196.9,-1116.5 -548.5,-2181.6 -1665.5,-2378.5 -1116.5,-196.9 -2181.7,548.9 -2378.5,1665.5 -197,1116.9 548.9,2181.6 1665.5,2378.5z"/>
    </g>
    <g>
     <path class="fil1" d="M21602.2 1949.5l0 0c368.2,64.9 616.3,419.2 551.4,787.4l-574.8 3259.9 -1338.8 -236 574.8 -3260c64.9,-368.2 419.2,-616.3 787.4,-551.3z"/>
     <path class="fil1" d="M12658.2 22033l71.2 -403.6c43.5,-246.4 237,-418.4 432.1,-384l859.4 151.5c195.1,34.5 318.1,262.2 274.7,508.6l-71.2 403.7c-43.4,246.4 -236.9,418.3 -432.1,383.9l-859.3 -151.5c-195.2,-34.4 -318.2,-262.2 -274.8,-508.6z"/>
     <path class="fil1" d="M14829.6 22415.9l71.2 -403.7c43.4,-246.4 237,-418.3 432.1,-383.9l859.3 151.5c195.2,34.4 318.2,262.2 274.8,508.6l-71.2 403.7c-43.4,246.4 -236.9,418.3 -432.1,383.9l-859.3 -151.5c-195.2,-34.4 -318.2,-262.2 -274.8,-508.6z"/>
     <path class="fil1" d="M17001.1 22798.8l71.1 -403.7c43.5,-246.4 237,-418.3 432.2,-383.9l859.3 151.5c195.2,34.4 318.2,262.2 274.7,508.6l-71.1 403.7c-43.5,246.4 -237,418.3 -432.2,383.9l-859.3 -151.5c-195.1,-34.5 -318.2,-262.2 -274.7,-508.6z"/>
     <path class="fil1" d="M12283.2 24159.9l71.2 -403.7c43.4,-246.4 237,-418.3 432.1,-383.9l859.3 151.5c195.2,34.4 318.2,262.2 274.8,508.6l-71.2 403.7c-43.4,246.4 -237,418.3 -432.1,383.9l-859.3 -151.5c-195.2,-34.4 -318.2,-262.2 -274.8,-508.6z"/>
     <path class="fil1" d="M14454.6 24542.8l71.1 -403.7c43.5,-246.4 237,-418.3 432.2,-383.9l859.3 151.5c195.2,34.4 318.2,262.2 274.8,508.6l-71.2 403.7c-43.5,246.4 -237,418.3 -432.2,383.9l-859.2 -151.5c-195.2,-34.5 -318.3,-262.2 -274.8,-508.6z"/>
     <path class="fil1" d="M16626.1 24925.7l71.1 -403.7c43.5,-246.4 237,-418.3 432.2,-383.9l859.3 151.5c195.1,34.4 318.2,262.2 274.7,508.6l-71.2 403.7c-43.4,246.3 -236.9,418.3 -432.1,383.9l-859.3 -151.6c-195.2,-34.4 -318.2,-262.1 -274.8,-508.5z"/>
     <path class="fil1" d="M11908.2 26286.8l71.2 -403.7c43.4,-246.4 236.9,-418.3 432.1,-383.9l859.3 151.5c195.2,34.4 318.2,262.2 274.7,508.6l-71.1 403.7c-43.5,246.4 -237,418.3 -432.2,383.9l-859.3 -151.5c-195.1,-34.4 -318.2,-262.2 -274.7,-508.6z"/>
     <path class="fil1" d="M14079.6 26669.7l71.1 -403.7c43.5,-246.4 237,-418.3 432.2,-383.9l859.3 151.5c195.2,34.4 318.2,262.1 274.7,508.5l-71.1 403.8c-43.5,246.4 -237,418.3 -432.2,383.9l-859.3 -151.5c-195.2,-34.5 -318.2,-262.2 -274.7,-508.6z"/>
     <path class="fil1" d="M16251 27052.5l71.2 -403.6c43.4,-246.4 236.9,-418.4 432.1,-384l859.3 151.6c195.2,34.4 318.3,262.1 274.8,508.6l-71.2 403.6c-43.5,246.4 -237,418.3 -432.1,383.9l-859.3 -151.5c-195.2,-34.4 -318.2,-262.1 -274.8,-508.6z"/>
     <path class="fil1" d="M12669 28847l266.8 47.1c12.6,2.2 15.5,45.4 6.5,96.4l-307.7 1745.3c-9.1,51 -26.5,90.6 -39.1,88.4l-266.8 -47.1c-12.6,-2.2 -15.5,-45.4 -6.5,-96.4l307.7 -1745.3c9,-51 26.5,-90.6 39.1,-88.4z"/>
     <path class="fil1" d="M13491.9 28992.2l266.8 47c12.6,2.2 15.5,45.4 6.5,96.4l-307.7 1745.3c-9,51 -26.5,90.6 -39.1,88.4l-266.8 -47.1c-12.6,-2.2 -15.5,-45.4 -6.5,-96.4l307.7 -1745.3c9,-51 26.5,-90.5 39.1,-88.3z"/>
     <path class="fil1" d="M14314.3 29137.2l266.9 47c12.6,2.2 15.4,45.4 6.5,96.4l-307.8 1745.3c-9,51.1 -26.5,90.6 -39,88.4l-266.9 -47.1c-12.5,-2.2 -15.5,-45.3 -6.4,-96.3l307.7 -1745.4c9,-51 26.5,-90.5 39,-88.3z"/>
     <path class="fil1" d="M15137.2 29282.3l266.9 47c12.6,2.2 15.5,45.4 6.5,96.4l-307.8 1745.4c-9,50.9 -26.5,90.5 -39,88.3l-266.9 -47c-12.5,-2.3 -15.4,-45.4 -6.4,-96.5l307.7 -1745.2c9,-51.1 26.5,-90.6 39,-88.4z"/>
     <path class="fil1" d="M15959.7 29427.3l266.9 47.1c12.5,2.2 15.4,45.3 6.4,96.3l-307.7 1745.4c-9,51 -26.5,90.5 -39.1,88.3l-266.8 -47c-12.6,-2.2 -15.5,-45.4 -6.5,-96.4l307.8 -1745.3c8.9,-51.1 26.4,-90.6 39,-88.4z"/>
     <circle class="fil1" transform="matrix(0.428457 0.0755485 -0.0755485 0.428457 16310 18599.5)" r="2328.9"/>
     <path class="fil1" d="M17265.6 6405.9l2317.4 408.7c122.7,21.6 205,139.6 183.3,262.4l-20.7 117.3c-21.6,122.8 -139.3,205.6 -262,183.9l-2317.5 -408.6c-122.7,-21.7 -205.4,-139.8 -183.7,-262.5l20.7 -117.4c21.6,-122.7 139.7,-205.4 262.5,-183.8z"/>
    </g>
    <path class="fil0 str1" d="M10150.7 16644.7c-912.8,-1363.3 -547.5,-3207.5 815.3,-4120.3m-2659.6 5354.9c-1594.6,-2381.2 -956.7,-5604.7 1424.4,-7199.3m-3269.8 8435.2c-2276.7,-3400.6 -1366.2,-8003.4 2034.5,-10280.5"/>
   </g>
   <path class="fil0 str2" d="M16500 32500c8836.6,0 16000,-7163.4 16000,-16000 0,-8836.6 -7163.4,-16000 -16000,-16000 -8836.6,0 -16000,7163.4 -16000,16000 0,8836.6 7163.4,16000 16000,16000z"/>
  </g>
 </g>
</svg>
