<?xml version="1.0" encoding="UTF-8"?>
<!DOCTYPE svg PUBLIC "-//W3C//DTD SVG 1.1//EN" "http://www.w3.org/Graphics/SVG/1.1/DTD/svg11.dtd">
<!-- Creator: CorelDRAW 2018 (64-Bit) -->
<svg xmlns="http://www.w3.org/2000/svg" xml:space="preserve" width="330px" height="330px" version="1.1" style="shape-rendering:geometricPrecision; text-rendering:geometricPrecision; image-rendering:optimizeQuality; fill-rule:evenodd; clip-rule:evenodd"
viewBox="0 0 33000 33000"
 xmlns:xlink="http://www.w3.org/1999/xlink">
 <defs>
  <style type="text/css">
   <![CDATA[
    .str0 {stroke:#A3C4E0;stroke-width:600;stroke-linecap:round;stroke-miterlimit:22.9256}
    .str1 {stroke:#A3C4E0;stroke-width:500;stroke-linecap:round;stroke-miterlimit:22.9256}
    .str2 {stroke:#A3C4E0;stroke-width:400;stroke-linecap:round;stroke-miterlimit:22.9256}
    .fil0 {fill:none}
    .fil3 {fill:none;fill-rule:nonzero}
    .fil1 {fill:#A3C4E0}
    .fil2 {fill:#A3C4E0;fill-rule:nonzero}
   ]]>
  </style>
 </defs>
 <g id="Layer_x0020_1">
  <metadata id="CorelCorpID_0Corel-Layer"/>
  <path class="fil0 str0" d="M16500 32500c8836.6,0 16000,-7163.4 16000,-16000 0,-8836.6 -7163.4,-16000 -16000,-16000 -8836.6,0 -16000,7163.4 -16000,16000 0,8836.6 7163.4,16000 16000,16000z"/>
  <g id="_1458419086576">
   <circle class="fil1" transform="matrix(0.420243 -0.112604 0.112604 0.420243 15786.5 6366.21)" r="1144.6"/>
   <g>
    <path class="fil0 str1" d="M8502.5 7345.5l10233 -2741.9c481,-128.9 980,159.2 1108.9,640.2l5302.7 19789.8c128.8,481 -159.2,980 -640.3,1108.9l-10232.9 2741.9c-481,128.9 -980,-159.2 -1108.9,-640.2l-5302.7 -19789.8c-128.9,-481 159.2,-980 640.2,-1108.9z"/>
    <path class="fil0 str1" d="M9955.1 8901.2l8300.7 -2224.1c390.1,-104.6 794.8,129.1 899.4,519.6l4142.8 15461c104.5,390 -129.2,794.8 -519.2,899.3l-8300.7 2224.2c-390.5,104.6 -795.2,-129.1 -899.8,-519.1l-4142.7 -15461c-104.6,-390.5 129,-795.3 519.5,-899.9z"/>
    <path class="fil0 str1" d="M17542.4 25921.7l2652.9 -710.9c628.6,-168.4 903.6,883.2 281.3,1049.9l-2652.9 710.9c-628.6,168.4 -903.7,-883.2 -281.3,-1049.9z"/>
   </g>
   <path class="fil2" d="M15335.7 21659.7l-207.7 55.7 84.9 317c12.2,45.5 11.1,82.5 -4.2,111.7 -15.3,29.2 -38.9,48.1 -71.3,56.8 -34.2,9.2 -65,4.8 -91.8,-12.6 -27.4,-17.8 -46.9,-49.3 -58.8,-93.8l-231.1 -862.4c-13.3,-49.6 -11.6,-88.3 5.6,-116 17.3,-27.3 50.5,-47.7 100.7,-61.2l290.8 -77.9c86.2,-23.1 154.1,-34.3 204,-33.6 48.9,0.5 94.4,10.9 135.6,31.5 41.2,20.7 76.3,50 104.6,88.1 29.2,37.9 50.6,83.9 64.9,137.4 30.5,113.9 18.5,209.7 -35.6,287.4 -54.6,77.5 -151.3,134.6 -290.6,171.9l0 0zm-192.2 -497.8l-152.9 41 91.8 342.3 152.8 -41c53.5,-14.3 96.5,-31.9 129.6,-52.8 32.6,-20.8 55.4,-46.5 67.4,-76.8 11.9,-30.4 12.3,-66.6 1.2,-107.9 -13.2,-49.2 -38.5,-85.7 -75.9,-108.8 -41.1,-24.2 -112.7,-23.1 -214,4l0 0zm877.4 -290.9l86 320.8 489.6 -131.2 -86 -320.7c-12.2,-45.5 -11.1,-82.5 3.4,-111 14.5,-28.5 38.2,-46.9 72,-56 33.7,-9 64.4,-5.2 91.5,11.7 27.2,16.8 47.3,48.6 59.6,94.6l236.2 881.6c12.4,46.3 10.8,83.5 -4.1,112.1 -15.4,28.8 -40,47.9 -73.3,56.8 -34.2,9.2 -64.5,4.8 -90.8,-12.8 -27,-17.9 -46,-49.5 -58.3,-95.5l-100.8 -376 -489.5 131.1 100.8 376.1c12.4,46.4 10.8,83.6 -4.2,112.2 -15.4,28.7 -39.9,47.9 -73.2,56.8 -34.2,9.2 -64.6,4.7 -90.9,-12.8 -26.9,-18 -45.9,-49.5 -58.2,-95.5l-236.3 -881.6c-12.2,-45.4 -11.4,-82.3 2.5,-110.7 14,-28.4 38.2,-46.9 72.9,-56.2 33.8,-9 64.5,-5.2 91.6,11.7 27.1,16.8 47.2,48.6 59.5,94.6l0 -0.1zm1415.1 -525.9c116.3,-31.1 222.5,-34.5 318,-9.8 95.6,24.7 176.4,74.9 242.8,150.1 65.9,75.3 114.2,171.4 145.6,288.6 23.2,86.3 32.6,168.2 28.1,245.3 -4.5,77.1 -22.9,147.4 -55.8,212 -33.1,64.1 -79.6,119.3 -140.6,165.3 -61.2,45.5 -135.3,80.5 -223.5,104.1 -87.2,23.4 -169.2,30.3 -246.3,20.3 -76.5,-9.7 -144.8,-34.1 -204.9,-72.8 -60.3,-39.1 -111.6,-91.7 -154.8,-157.5 -43.3,-65.8 -76,-141 -98.5,-224.9 -23,-85.9 -31.9,-167.9 -26.3,-246.3 5.7,-78.4 25,-148.9 58.3,-212.1 33.4,-62.7 79.9,-116.4 140.2,-161.2 59.5,-44.6 132.4,-78.2 217.7,-101.1zm476.2 488.6c-21.9,-81.6 -54.1,-149.4 -96.4,-202.3 -42.8,-52.9 -92.9,-87.7 -150.1,-106.1 -56.9,-17.4 -117.8,-17.7 -181.6,-0.6 -45,12.1 -84.5,31.7 -118.3,59.4 -33.9,27.1 -60.5,60.9 -79.1,100.6 -18.8,40.2 -29.7,87.8 -32.5,142.9 -2,54.8 4.8,113.8 21.7,176.6 17.2,64.3 41,119.2 70.2,166.6 30.1,46.8 64.1,83.4 102.8,109.7 38.1,26 78.2,42.4 120.6,48.6 42.5,6.7 86,4.1 131.5,-8.1 58.1,-15.6 107.2,-44.3 148.2,-86.5 41.1,-41.6 67.5,-96.9 80.3,-165.2 12.4,-68.1 6.4,-147 -17.3,-235.6l0 0zm602.2 -631.8l612.2 542.6 -178.4 -665.9c-11.5,-43.1 -10.8,-78 1.7,-104.4 12.9,-26.6 34.9,-44.1 66.3,-52.5 32.4,-8.7 60.9,-5.3 85.6,11.8 24.5,16.5 42.6,46.4 54.2,89.5l235.8 880.1c26.2,98 -1.4,158.2 -82.5,179.9 -20.2,5.4 -39.3,7.1 -57.2,5.8 -18.1,-1.7 -35.6,-7 -52.9,-15.4 -18,-8.8 -35.1,-20.3 -51.9,-34.4 -16.7,-13.6 -33.6,-27.7 -50.6,-42.3l-599.3 -537.4 175.5 655c11.4,42.7 9.8,77.8 -4,105.2 -13.9,26.8 -36.7,45 -67.6,53.2 -31.9,8.6 -60.7,4.2 -85.8,-12.6 -25.7,-16.8 -44.2,-46.5 -55.5,-88.7l-231.1 -862.8c-10,-37.1 -13.4,-66.8 -11,-89.5 3.7,-25.7 14.6,-48.7 33.2,-69.2 18.7,-20.6 41.1,-34.2 66.9,-41.1 20.2,-5.4 38.9,-6.9 54.8,-4.1 16.2,2.7 31.7,8.1 45.6,16.4 13.8,8.4 28.9,19.9 45.4,34.6 16,14.8 33.1,29.8 50.6,46.2l0 0zm1644.4 -378.8l-510.6 136.9 73.7 275.2 470.3 -126c34.7,-9.3 62.5,-8.7 83.6,2.2 20.9,11 34.9,29.4 41.7,54.7 6.8,25.3 3.9,48.2 -8.2,68.6 -12.6,20.4 -36.3,35.3 -71.5,44.7l-470.3 126 85.5 318.9 528 -141.5c35.6,-9.5 64.6,-8.3 87.2,3.3 22.8,11.5 37.6,31.1 44.8,58.3 7.2,26.8 4.1,50.7 -9.8,72 -13.9,21.3 -38.3,36.9 -74,46.5l-615.7 164.9c-49.2,13.2 -87.9,11.5 -115.2,-4.2 -27.5,-16.3 -47.8,-49.1 -60.9,-97.8l-225.4 -841.2c-8.8,-32.9 -11.1,-60.4 -6.8,-83.6 3.8,-23.2 14.8,-42.2 32.9,-57.1 18.1,-15 43.2,-26.6 75.5,-35.3l598.3 -160.4c36.1,-9.6 65,-8.8 87.1,2.4 21.6,11.3 36.2,30 43.1,55.7 7.2,26.8 4.1,50.7 -9.1,71.3 -13.5,20.8 -38.1,35.9 -74.2,45.6l0 -0.1zm-3031.8 3384.6c9.6,35.6 11,76.5 4.2,122.5 -6.2,46.4 -23,94.1 -49.9,144 -26.7,50.4 -66.3,95.7 -117.8,136.1 -52,40.6 -117,71.6 -194.8,92.4 -59.1,15.9 -114.1,24.6 -165.4,26.3 -51.3,1.6 -100.1,-3.9 -145.9,-17.3 -45.6,-12.8 -90.5,-34 -133.7,-64.1 -39,-27.3 -74.8,-59.4 -107.1,-97.5 -32.6,-37.4 -60.7,-80.2 -84.2,-126.7 -24.1,-46.8 -43.2,-97.4 -58,-152.8 -24.2,-90 -32.6,-174.2 -25.5,-252.5 7.2,-78.3 28.4,-149.3 63.6,-213 35.6,-63.8 82.1,-117.5 140.6,-161.8 58.6,-43.9 125.4,-75.8 199.5,-95.7 90.5,-24.2 175.9,-28 256.4,-10.9 80.4,17.1 146.4,47.7 198.6,90.5 51.7,42.9 84.4,88 97.1,135.3 7,26.3 3.2,51.5 -9.2,76.4 -13,24.6 -32.9,40.4 -58.7,47.4 -29,7.7 -52.5,6.5 -70.7,-3.2 -18.1,-9.7 -40.5,-29.3 -67.4,-58.4 -44.8,-47.2 -90.5,-79.2 -137.8,-96.2 -47.2,-16.5 -100.2,-17.4 -158.8,-1.7 -92.8,24.9 -157.4,80.4 -193.9,165.5 -36.4,85.7 -37,193.9 -2.1,324.3 23.3,86.7 55,156.1 95.3,207.2 39.3,51.2 85.6,85 138.3,101.6 52.2,16.7 108.5,16.6 168.5,0.6 65.2,-17.5 115.8,-48.1 152.6,-92.7 36.3,-44.4 57.4,-100.8 63.5,-169.8 1.5,-32 7.3,-59.2 16.3,-81.8 9.2,-22 29.6,-37.6 61.5,-46.1 26.8,-7.1 52.7,-4 77,9.6 24.2,13.6 40.4,34.4 47.9,62.5l0 0zm979.8 -19.8l-91 -125.9 -454.9 121.9 -14.6 157.2c-6.1,61.9 -13.9,104.2 -23.1,127.8 -9.9,23.2 -31,40 -64.8,49 -28.1,7.5 -56.3,3.5 -83.9,-11.2 -27.7,-15.2 -44.7,-35.7 -51.8,-62 -4.1,-15.5 -5.6,-32.2 -5.2,-49.4 0.8,-17.8 3.2,-42.5 7.1,-74.7l91.4 -803c2.8,-23.4 5.5,-50.7 9.5,-83 3.3,-32.5 9,-60.2 16.9,-82.9 8,-22.7 20.8,-42.7 38.6,-60.6 17.9,-17.4 42.6,-30.5 73.5,-38.8 31.9,-8.5 59.8,-9.5 84,-3.4 24.4,6.5 45.3,17 63.5,32.2 17.7,15.4 34.5,33 49.1,52.2 14.3,19.3 33.8,45.2 56.9,77.2l485.7 643.9c37.6,48.7 59.6,85.5 66.2,110.4 6.9,25.8 3.1,52.9 -12.7,80.3 -16.2,27.4 -39.6,45.3 -70.1,53.4 -17.8,4.8 -33.7,5.5 -48.6,2.5 -13.8,-2.8 -27,-8.9 -38.7,-17.2 -11.4,-8.6 -25.3,-23 -41.1,-42.8 -16.1,-20.4 -29.8,-37.8 -41.9,-53.1l0 0zm-531.6 -190.8l333.9 -89.4 -291.9 -415.9 -42 505.3 0 0zm927.7 -851.7l218.2 814.5 459.6 -123.1c36.6,-9.8 67.1,-8.4 91.1,4.2 24.4,12.6 40.3,32.4 47.5,59.2 7.2,27.2 3.4,52.3 -11.3,74.3 -14.7,22.1 -40.4,38.5 -77.4,48.5l-547.3 146.6c-49.7,13.3 -87.9,11.5 -115.2,-4.3 -27.5,-16.3 -48.3,-48.9 -61.4,-97.6l-230.8 -861.4c-12.3,-46 -10.7,-83.1 3.4,-111.5 14.4,-28.5 38.6,-47 72.4,-56.1 33.7,-9 64.4,-5.2 91.6,11.7 27.1,16.9 47.2,48.6 59.6,95l0 0zm943.9 -252.9l218.2 814.5 459.6 -123.1c36.6,-9.8 67.1,-8.5 91.6,4.1 24.4,12.5 39.8,32.5 47,59.3 7.3,27.1 3.9,52.2 -10.8,74.2 -14.7,22 -40.9,38.6 -77.9,48.5l-547.2 146.7c-49.3,13.2 -88,11.5 -115.3,-4.4 -27.5,-16.2 -47.8,-48.9 -60.9,-97.7l-230.8 -861.4c-12.3,-45.9 -11.2,-82.9 3.3,-111.4 14.5,-28.5 38.7,-47.1 72,-56 33.7,-9 64.4,-5.2 91.6,11.7 27.1,16.8 47.2,48.6 59.6,95l0 0z"/>
   <path class="fil3 str2" d="M9176.4 20599.7c-1402,-849 -1850.1,-2673.4 -1001.5,-4075.3m-147 5972.2c-2449.7,-1483 -3233.2,-4671.4 -1750,-7120.6m600.8 9018.3c-3497.5,-2117.6 -4616.5,-6669.9 -2498.5,-10167.5"/>
   <path class="fil3 str2" d="M24744.2 16250.6c775.3,-1444.1 233.9,-3243 -1209.8,-4018.4m3163.7 5067.7c1354.6,-2523 408.3,-5666.3 -2114.4,-7021.6m4068.7 8071.3c1934.9,-3602.3 583.2,-8090.8 -3019.1,-10025.6"/>
   <path class="fil1" d="M17942.7 18196.3c548.7,52.2 596,-42.5 964.2,-365.2 79.8,-69.2 182.9,-174.1 262.4,-232.4 104.6,-204.2 143.9,-287 191.2,-523.2 36.8,-182.8 6.7,-221.6 -148,-310.9 -435.9,-252 -1161.4,-538.9 -1652.8,-758.3 -106.9,-47.8 -222.3,-74 -321,71.9l-260.7 384.4c-162.5,239.9 -420.2,189.4 -622.8,108.3 -696.5,-278.3 -1782.3,-1329.2 -1998.1,-2045.2 -81.2,-269.7 -40.4,-416.5 167.2,-591.7 70.4,-59.1 142.6,-79.9 211.6,-125.1 149.4,-98.2 332.8,-118.7 202.6,-424.5 -204.9,-479.4 -488.4,-1070.4 -707.1,-1554.5 -112.2,-247.4 -137.3,-307.7 -423.8,-227.6 -516.6,144.5 -444.8,159 -834.3,594.3 -108.5,121.4 -209,222.3 -225.6,405.3 -116.3,1283.5 865,2932.2 1765.6,3825.5 881.3,873.7 2182.4,1650.8 3429.4,1768.9l0 0z"/>
  </g>
 </g>
</svg>
