<?xml version="1.0" encoding="UTF-8"?>
<!DOCTYPE svg PUBLIC "-//W3C//DTD SVG 1.1//EN" "http://www.w3.org/Graphics/SVG/1.1/DTD/svg11.dtd">
<!-- Creator: CorelDRAW 2018 (64-Bit) -->
<svg xmlns="http://www.w3.org/2000/svg" xml:space="preserve" width="330px" height="330px" version="1.1" style="shape-rendering:geometricPrecision; text-rendering:geometricPrecision; image-rendering:optimizeQuality; fill-rule:evenodd; clip-rule:evenodd"
viewBox="0 0 33000 33000"
 xmlns:xlink="http://www.w3.org/1999/xlink">
 <defs>
  <style type="text/css">
   <![CDATA[
    .str1 {stroke:#A3C4E0;stroke-width:600;stroke-linecap:round;stroke-miterlimit:22.9256}
    .str0 {stroke:#A3C4E0;stroke-width:500;stroke-linecap:round;stroke-miterlimit:22.9256}
    .fil0 {fill:none}
    .fil1 {fill:#A3C4E0}
    .fil2 {fill:#A3C4E0;fill-rule:nonzero}
   ]]>
  </style>
 </defs>
 <g id="Layer_x0020_1">
  <metadata id="CorelCorpID_0Corel-Layer"/>
  <g id="_1458423136144">
   <path class="fil0 str0" d="M4498.5 17086.1c4276.1,-3432.8 8349.7,-7282.8 12001.3,-12001.4 3443.1,4546.8 7510.8,8482.1 12001.7,12001.4m-24003 -1520.1c4274.7,-3447.7 8346.5,-7313.2 12001.3,-12036.7 3449,4554.4 7514.8,8504.2 12001.3,12040.3"/>
   <polyline class="fil0 str0" points="25826.2,14894.3 25826.2,25605.7 19528.7,25605.7 19528.7,18336.5 13471.4,18336.5 13471.4,25605.7 7173.4,25605.7 7173.4,14894.3 "/>
  </g>
  <path class="fil1" d="M17947.8 30678.6l-1272.2 -768.6c-184.9,161.8 -466.8,528.4 -586,816.2 -179.5,433.7 -43.1,748.7 274.2,924.1 168.6,93.4 381.6,124.2 568.4,77.1 272.3,-68.5 582.3,-369.9 746.9,-602.8 70.7,-100.6 224.3,-326.3 268.7,-446zm-3431.8 -4949.2c-15.4,724.8 106.6,1596.7 855.7,1635.3 692.6,35.3 779.1,-613.3 730.1,-1135.8 -9.9,-107.4 -54.3,-438.3 -96.5,-519.4l-1489.3 19.9zm1447.6 -436.9c70.7,-223 60.8,-423.7 176.3,-621.8 310.9,-534.3 553.4,-387.5 664,-1724.9 36.3,-435.6 48.1,-913.7 -323.1,-1196.1 -309.6,-235.2 -822.2,-359.4 -1186.6,-119.2 -243.8,160.5 -516.2,540.3 -640.8,930 -150,470.9 -245.7,807.7 -267.9,1342.9 -10.4,256.1 -31.7,1270.4 107.4,1395 61.7,55.8 1388.2,24.5 1470.7,-5.9zm958.6 4292.9c356.7,217.1 672.6,429.2 1051.5,642.7 99.7,55.8 170.4,138.2 271.9,68.4 126.5,-87.5 442.4,-605.9 526.2,-748.2 216.2,-366.3 432.8,-737.4 547,-1197 126,-505.3 236.6,-921.8 102.5,-1413.6 -105.2,-386.1 -437.4,-671.2 -985.4,-688 -253.7,-8.1 -434.2,78.4 -579.6,189.5 -409.3,312.2 -800.4,1386.4 -838.9,1764.8 -22.2,214.8 55.8,455 66.1,670.8 6.9,146.8 -9.9,228 -53.9,367.1 -30.8,97.9 -92.9,246.6 -107.4,343.6l0 -0.1z"/>
  <path class="fil2" d="M12553.6 16097.6l-102.4 -269.2 -871.6 0 -101.9 274.6c-40.4,107.4 -73.9,179.5 -102.5,217.1 -28.1,37.6 -74.3,56.7 -139.1,56.7 -54.4,0 -102.5,-20 -144.6,-60.3 -41.7,-39.9 -63,-85.2 -63,-135.5 0,-29.5 5,-59.9 14.5,-91.1 10,-31.3 26.3,-74.3 48.5,-130.1l547.9 -1391.8c16.4,-39.9 34.9,-88 56.7,-143.7 21.8,-56.6 45.3,-102.9 70.2,-140.1 24.9,-36.6 57.6,-66.6 97.9,-89.7 40.4,-23.1 90.7,-34.4 150,-34.4 60.8,0 111.1,11.3 151.4,34.4 40.8,23.1 73,52.6 97.9,88.4 24.9,35.8 46.3,74.8 63,116.5 17.2,41.2 39,96.5 64.8,165.4l560.2 1383.7c44,105.2 66.2,181.3 66.2,229.3 0,49.4 -20.9,95.7 -62.1,136.9 -41.3,41.2 -92,62.1 -150.5,62.1 -33.5,0 -63.5,-6.3 -87.5,-18.6 -24,-12.2 -44.9,-28.6 -61.6,-49.4 -16.3,-20.8 -34,-53.4 -53.1,-96.5 -19.4,-43.5 -35.3,-81.6 -49.4,-114.7l0.1 0zm-859.3 -595.6l640.4 0 -323.2 -883.7 -317.2 883.7zm2078.4 -1078.1l0 751.4 852.6 -889.2c41.2,-43.1 76.1,-74.4 104.2,-95.2 29,-20.4 67.5,-30.8 115.1,-30.8 62.1,0 113.3,18.6 151.9,54.8 38,36.7 57.1,81.1 57.1,133.7 0,63.4 -32.2,126.4 -97.9,189l-527.6 499.4 608.2 871.6c43.1,60.7 75.3,113.8 96.6,159.1 21.7,44.9 32.2,89.3 32.2,132.3 0,47.2 -19,88.9 -56.2,124.2 -37.6,34.9 -88.4,52.6 -153.2,52.6 -60.3,0 -109.7,-13.2 -147.8,-39 -37.6,-25.9 -69.8,-60.3 -96.1,-102.9 -26.2,-43.1 -49.8,-82 -70.2,-116.9l-513.5 -789.5 -355.3 340.3 0 443.3c0,89.7 -20.4,156.3 -61.2,199.4 -41.2,43.5 -94.2,65.2 -158.1,65.2 -37.2,0 -72.6,-10.4 -106.5,-29.4 -34.5,-19.5 -60.3,-45.8 -78.9,-78.9 -14.1,-27.2 -22.2,-58.9 -24.9,-95.2 -3.2,-35.8 -4.6,-88.4 -4.6,-155.9l0 -1594c0,-87.9 19.5,-153.6 58,-197.1 38.1,-44 90.7,-66.2 156.9,-66.2 65.2,0 117.8,21.3 158.6,64.8 40.3,43.6 60.7,110.2 60.7,199l-0.1 0.1zm2612 1080.9l-398 0 0 607.3c0,86.6 -20.4,152.3 -61.2,197.2 -41.2,44.8 -92.9,67.5 -155,67.5 -65.2,0 -118.3,-22.2 -158.1,-66.6 -39.9,-44.5 -59.8,-109.7 -59.8,-195.4l0 -1652.9c0,-95.2 21.7,-163.6 65.7,-204.4 43.9,-40.8 113.3,-61.6 209.4,-61.6l557 0c164.5,0 291.4,12.7 380.2,38 87.9,24.5 163.6,64.9 227.5,121.5 63.9,56.6 112.4,125.5 145.5,207.6 33.6,82 49.9,174 49.9,276.4 0,218.9 -67.6,383.9 -201.7,496.8 -134.6,112.4 -334.9,168.6 -601.4,168.6l0 0zm-105.2 -982.2l-292.8 0 0 655.8 292.8 0c102,0 188.1,-10.8 257,-32.6 68.4,-21.3 120.5,-56.2 157.3,-105.1 35.8,-48.5 53.9,-112.9 53.9,-191.8 0,-94.7 -28.1,-171.7 -83.4,-231.1 -62.5,-63.5 -190.8,-95.2 -384.8,-95.2l0 0zm2214.4 -362.5c222.6,0 413.4,44.8 572.5,135.4 159,89.8 280.1,218 361.6,384.4 82.1,165.9 122.9,361.2 122.9,585.6 0,165.4 -22.2,316.3 -67.1,451.8 -44.9,135.5 -111.9,252.9 -201.7,352.1 -90.2,99.3 -199.8,175.4 -330.4,228 -130.9,52.6 -280.1,79.3 -449.1,79.3 -167.7,0 -317.7,-27.2 -450.1,-81.5 -132.8,-54 -243.4,-130.1 -332.2,-228.9 -88.8,-97.9 -155.5,-216.7 -200.8,-355.4 -45.8,-138.2 -68,-287.8 -68,-448.6 0,-164.5 23.1,-315.5 70.7,-453.2 47.6,-137.4 116.1,-254.3 205.8,-350.8 89.3,-96.6 198.5,-170.5 327.2,-221.2 128.8,-51.7 274.7,-77.1 438.7,-77.1l0 0.1zm616.9 1102.2c0,-156.8 -25.4,-292.8 -76.1,-408.3 -50.8,-114.7 -123.3,-201.7 -217.1,-261.1 -93.9,-58.9 -202.2,-88.4 -323.6,-88.4 -86.6,0 -166.8,16.3 -240.3,49 -73.8,33.1 -137.2,80.2 -190.3,142.7 -53,62.6 -94.7,142.3 -125.5,239.3 -30.8,97 -46.2,206.3 -46.2,326.8 0,122.4 15.4,232.1 46.2,330.9 30.8,98.3 74.3,180.3 130.1,245.2 55.7,64.8 120.5,113.3 192.6,145.5 72.9,32.2 152.2,48.5 239.2,48.5 111.1,0 213.1,-28.1 306.5,-83.4 92.8,-55.8 166.7,-141.4 222,-257.9 54.9,-115.6 82.5,-258.8 82.5,-428.8l0 0zm1535.9 755.1l-343.9 -1366 0 1479.7c0,81.6 -18.1,143.2 -54.9,184 -36.2,40.8 -84.7,61.7 -144.6,61.7 -58.4,0 -106.5,-20.9 -143.2,-61.2 -37.1,-40.3 -55.7,-101.5 -55.7,-184.5l0 -1696.4c0,-93.8 24.4,-156.8 72.9,-189.9 49,-32.2 114.7,-48.9 197.2,-48.9l135 0c80.7,0 139.2,7.7 175.4,22.2 36.8,14.5 63.9,40.8 81.6,78.9 17.2,38 37.2,99.6 59.8,185.8l311.4 1174.7 311.8 -1174.7c22.2,-86.1 42.2,-147.8 59.8,-185.8 17.3,-38.1 44.5,-64.4 80.8,-78.9 36.6,-14.5 95.6,-22.2 176.3,-22.2l134.1 0c82.9,0 149.1,16.7 198.1,48.9 48,33.1 72.5,96.1 72.5,189.9l0 1696.4c0,81.6 -18.1,143.2 -54.9,184.1 -36.2,40.7 -85.2,61.6 -146.4,61.6 -57.1,0 -104.7,-20.9 -141.4,-61.6 -37.1,-40.8 -55.7,-102.5 -55.7,-184.1l0 -1479.7 -344 1366c-22.2,87.9 -40.3,153.6 -54.9,194.9 -14,41.2 -39.9,78.8 -77.9,112.8 -38.1,34.5 -90.7,51.7 -158.2,51.7 -50.7,0 -93.8,-11.3 -128.7,-33.1 -34.9,-22.2 -62.5,-49.9 -81.6,-83.9 -19.5,-34.4 -35.3,-72 -46.2,-113.3 -11.3,-41.7 -22.7,-84.7 -34.5,-129.1l0 0z"/>
  <path class="fil0 str1" d="M16500 32500c8836.6,0 16000,-7163.4 16000,-16000 0,-8836.6 -7163.4,-16000 -16000,-16000 -8836.6,0 -16000,7163.4 -16000,16000 0,8836.6 7163.4,16000 16000,16000z"/>
 </g>
</svg>
