<?xml version="1.0" encoding="UTF-8"?>
<!DOCTYPE svg PUBLIC "-//W3C//DTD SVG 1.1//EN" "http://www.w3.org/Graphics/SVG/1.1/DTD/svg11.dtd">
<!-- Creator: CorelDRAW 2018 (64-Bit) -->
<svg xmlns="http://www.w3.org/2000/svg" xml:space="preserve" width="330px" height="330px" version="1.1" style="shape-rendering:geometricPrecision; text-rendering:geometricPrecision; image-rendering:optimizeQuality; fill-rule:evenodd; clip-rule:evenodd"
viewBox="0 0 33000 33000"
 xmlns:xlink="http://www.w3.org/1999/xlink">
 <defs>
  <style type="text/css">
   <![CDATA[
    .str2 {stroke:#A3C4E0;stroke-width:600;stroke-linecap:round;stroke-miterlimit:22.9256}
    .str0 {stroke:#A3C4E0;stroke-width:500;stroke-linecap:round;stroke-miterlimit:22.9256}
    .str1 {stroke:#A3C4E0;stroke-width:400;stroke-linecap:round;stroke-miterlimit:22.9256}
    .fil0 {fill:none}
    .fil2 {fill:none;fill-rule:nonzero}
    .fil3 {fill:#A3C4E0}
    .fil1 {fill:#A3C4E0;fill-rule:nonzero}
   ]]>
  </style>
 </defs>
 <g id="Layer_x0020_1">
  <metadata id="CorelCorpID_0Corel-Layer"/>
  <g id="_1460243204608">
   <path class="fil0 str0" d="M15994.8 20661.3l-7761.8 0c-2212,0 -4021.4,-1809.3 -4021.4,-4021.3l0 -502.4c0,-2211.9 1809.4,-4021.3 4021.4,-4021.3l16405.4 0c2212,0 4021.4,1809.3 4021.4,4021.3l0 502.4c0,2211.9 -1809.4,4021.3 -4021.4,4021.3l-1998.7 0"/>
   <path class="fil1" d="M12480.7 17100.2c0,213.9 -55.6,406.8 -166.2,578 -109.9,171.3 -272.4,305 -485.6,401.8 -213.1,96.8 -466,144.5 -758,144.5 -351.2,0 -640.2,-65.8 -867.8,-197.3 -161.1,-95.3 -291.9,-222.5 -393,-381.5 -100.5,-158.2 -151.1,-312.9 -151.1,-463.8 0,-86.8 30.4,-161.2 91.1,-224.1 60,-62.1 137.3,-92.4 230.5,-92.4 75.8,0 139.4,23.8 192.2,72.9 52.7,47.7 97.5,120 134.4,215.4 44.8,112.7 94.6,208 146.7,283.2 52.7,75.9 126.4,138.7 221.1,188.6 96.1,48.4 221.1,73.7 376.4,73.7 212.5,0 386.6,-49.9 519.6,-148.8 132.9,-99.8 200.1,-223.4 200.1,-372.9 0,-117.8 -35.4,-213.9 -107.6,-286.9 -71.5,-73.7 -165.5,-129.3 -279.7,-168.4 -112.7,-39 -265.9,-80.2 -456.6,-124.2 -254.4,-59.3 -468.2,-129.4 -639.5,-208.9 -172,-80.2 -308.5,-189.3 -409.7,-328 -101.2,-138 -151,-309.3 -151,-515.2 0,-195.1 52.7,-368.5 159.7,-521 106.2,-151 260.8,-267.3 462.4,-349.7 202.3,-81.7 439.4,-122.1 712.5,-122.1 217.5,0 406.1,27.4 565.8,80.9 158.9,54.2 291.2,126.4 395.9,216 104.1,88.9 181.4,183.6 229.8,281.8 48.5,98.3 73,195.2 73,288.4 0,85.2 -30.3,163.3 -91,231.9 -60.7,68.6 -136.6,102.6 -226.9,102.6 -82.3,0 -144.5,-20.9 -187.1,-61.4 -43.4,-41.2 -89.6,-109.1 -139.5,-202.3 -65,-134.4 -142.3,-239.2 -232.7,-314.3 -90.3,-75.2 -236.2,-112.7 -437.1,-112.7 -185,0 -335.3,40.4 -448.7,122.8 -114.2,81.7 -171.3,179.2 -171.3,294.1 0,70.8 18.8,132.2 57.8,184.2 39,51.3 92.5,96.2 160.4,133 68,37.6 136.6,66.5 206,88.2 69.3,20.2 184.2,51.3 343.9,91.7 200.2,47 382.3,98.3 544.1,155.3 161.9,56.4 300.6,125 414.7,206 114.2,80.2 202.4,182.8 265.9,305.6 63.6,124.3 96.2,276.1 96.2,455.3l-0.1 0zm2951 -1932.2l-1621.5 0 0 873.6 1492.9 0c109.8,0 192.2,24.5 245.6,73.7 55,48.4 80.9,114.1 80.9,194.3 0,80.3 -25.9,146 -79.4,196.6 -53.5,50.6 -135.1,76.6 -247.1,76.6l-1492.9 0 0 1011.6 1676.4 0c113.4,0 198.7,26.7 255.8,78.8 57.8,52 86.7,122.1 86.7,209.5 0,83.1 -28.9,151.8 -86.7,203.8 -57.1,52 -142.4,78.7 -255.8,78.7l-1954.6 0c-156.8,0 -268.8,-34.6 -337.4,-104 -68.7,-69.4 -103.3,-182.1 -103.3,-336.7l0 -2671.4c0,-103.3 15.1,-187.9 46.2,-252.9 30.4,-65 78.1,-113.4 143.8,-143 65.1,-29.7 148.9,-44.9 250.7,-44.9l1899.7 0c114.9,0 199.4,26 255.1,75.9 55.6,51.3 83.8,118.5 83.8,200.2 0,84.5 -28.2,152.4 -83.8,203.7 -55.7,50.6 -140.2,75.9 -255.1,75.9l0 0zm1908.3 -183.5l1383 2094 0 -2113.5c0,-137.3 29.6,-239.9 88.1,-308.5 58.6,-68.7 138.1,-103.4 238.5,-103.4 102.6,0 184.3,34 243.5,102.6 60,68.7 89.6,172 89.6,309.3l0 2792.7c0,311.5 -129.3,466.8 -387.3,466.8 -64.3,0 -122.1,-8.6 -174.1,-27.4 -51.3,-18.8 -100.5,-48.4 -144.6,-88.2 -45.5,-40.4 -87.4,-87.4 -125.7,-142.3 -39,-53.5 -78,-109.1 -117.1,-165.5l-1349 -2067.2 0 2078.8c0,135.8 -31,238.4 -94,307.8 -63.5,69.4 -144.4,104.1 -242.7,104.1 -101.9,0 -184.3,-34.7 -245,-104.8 -62.1,-70.1 -92.5,-172.7 -92.5,-307.1l0 -2738.5c0,-117.1 13.1,-207.4 38.3,-273.9 31.1,-73 82.4,-132.2 153.2,-178.5 70.8,-45.5 148.2,-68.6 229.8,-68.6 65.8,0 120.7,10.8 166.2,31 46.3,21.7 86.7,49.9 122.1,85.3 34.7,35.4 70.1,80.9 106.2,138 36.9,56.4 74.4,114.9 113.5,177.1l0 -0.1zm3276.9 -372.1l937.1 0c244.2,0 453.8,22.4 627.9,67.9 175.6,45.5 333.1,130.8 475.5,255.1 369.9,316.5 554.9,798.4 554.9,1444.4 0,213.2 -18,407.5 -54.9,583.8 -37.6,176.3 -95.4,335.3 -172,476.2 -78,141.6 -177,268.1 -299.1,380.1 -94.7,85.3 -198.7,153.9 -312.2,204.5 -113.4,52.7 -234.8,88.8 -364.9,109.8 -130,20.3 -276.7,31 -440,31l-937.9 0c-130.8,0 -229.1,-19.4 -295.6,-59.2 -66.4,-39.7 -109.8,-95.4 -129.3,-166.9 -21,-72.2 -30.4,-165.4 -30.4,-279.6l0 -2606.4c0,-154.6 34.7,-266.6 104.1,-336.6 69.4,-69.5 182.1,-104.1 336.7,-104.1l0.1 0zm278.1 570.8l0 2411.2 546.3 0c118.5,0 213.2,-2.9 281.1,-9.4 67.9,-6.5 138,-22.4 211,-48.4 72.3,-26 135.1,-62.9 188.6,-109.2 240.6,-203 361.3,-554.1 361.3,-1052 0,-350.5 -52.8,-613.5 -159,-787.6 -105.5,-174.9 -236.3,-285.4 -390.9,-333.8 -155.4,-47 -343.2,-70.9 -562.9,-70.9l-475.5 0 0 0.1z"/>
   <path class="fil2 str1" d="M19280.1 19112.4c0,-1866.1 -1512.4,-3378.5 -3378.4,-3378.5 -1865.9,0 -3378.3,1512.4 -3378.3,3378.5 0,1866 1512.4,3378.4 3378.3,3378.4m5979.6 -4048.6c-333.2,-3007.6 -2883.2,-5346.4 -5979.6,-5346.4 -3322.8,0 -6016.6,2693.6 -6016.6,6016.6 0,2684.1 1756.9,4957.1 4183.2,5732.5"/>
   <path class="fil3" d="M16926.5 22775.1c-571,-983 -1142.1,-1966.6 -1703.7,-2955.6 -359.1,-633.9 -33.5,-1414.2 671.3,-1587.4 484.1,-118.4 930.8,118.4 1174.2,539.6 209.3,362.4 418.6,725.6 627.9,1088 71.5,-80.9 157.8,-152.5 258.1,-212 331,-195.3 720.2,-190.6 1035.1,-7.3 130.4,-205.3 331.7,-365.8 579.1,-438 402.5,-117 769,6.7 1030.4,282.8 78.9,-100.3 179.9,-187.9 302.9,-256.1 522.3,-289.5 1096,-46.8 1398.9,431.3 619.2,978.3 1997.4,3193.6 1925.1,4324.4 -71.5,1124.7 -1162.8,1652.9 -2014,2143.8 -915.4,528.9 -1755.9,1055.1 -2824.5,529.6 -444,-218 -825.8,-583.8 -1222.3,-876.7 -169.2,-125 -344.4,-248.1 -529.6,-347.7 -543.7,-290.9 -1118.1,-518.2 -1703.8,-706.1 -343.1,-110.3 -647.3,-257.4 -843.3,-577.1 -347,-567 -70.2,-1170.8 508.9,-1420.9 282.9,-121.7 609.2,-99.6 905.4,-45.5 142.5,25.4 283.5,56.8 424,90.9l-0.1 0zm1121.4 872.6c-788.4,-1362.8 -1584.8,-2721.5 -2361.8,-4091 -351,-618.5 532.3,-1192.9 920.8,-518.9 545.6,944.9 1091.3,1889.7 1636.9,2834.6 46.2,80.2 158.5,361.7 265.5,349 44.8,-10 179.9,-87.6 215.3,-119 24.1,-20.7 32.1,-66.2 21.4,-95 -66.2,-166.5 -246.1,-441.3 -340.4,-603.1 -116.3,-198.6 -234.7,-395.9 -349,-595.2 -317,-552.9 383.2,-1036.4 785,-613.8 113.7,119.7 303,493.5 389.9,648.6 103,185.2 211.3,395.2 329,570.4 72.9,108.3 250.7,-12 310.9,-77.6 74.2,-80.9 -112.3,-316.3 -155.8,-392.5 -92.3,-160.5 -305.6,-476.7 -343.7,-641.3 -58.9,-254.7 94.2,-516.2 345.7,-589.1 268.8,-78.9 472.8,56.9 605.2,287.6 114.3,199.2 221.9,402.5 335,602.4 47.4,83.7 242.7,489.5 328.3,516.3 34.8,11.3 93.6,-20.8 121.7,-36.8 42.8,-24.7 148.4,-70.9 163.8,-123.1 31.5,-105.6 -197.9,-429.2 -258.8,-534.2 -358.4,-617.2 419.3,-1142.8 837.9,-480.8 528.9,835.8 1905.1,3058.6 1844.2,4005.4 -54.8,862.6 -1097.3,1340.7 -1749.3,1717.2 -739.5,427.3 -1460.4,936.8 -2323.6,512.9 -362.4,-178.6 -804.4,-578.5 -1140.8,-827.2 -189.2,-139.8 -387.1,-277.5 -594.5,-389.2 -572.3,-306.9 -1174.8,-545.6 -1792.7,-743.6 -209.3,-67.5 -431.3,-151.1 -551.6,-348.4 -175.9,-286.8 -14.8,-532.9 265.4,-653.9 171.2,-73.6 421.3,-43.5 599.8,-10.7 548.3,99.6 1096,286.2 1640.3,440l0 0z"/>
   <path class="fil3" d="M8330.6 21185.9c-1977.3,0 -3633.4,-1447.2 -3961.5,-3334.8 485,1676.1 2037.2,2910.2 3863.9,2910.2l7943.7 0c82.4,141.7 164.2,282.9 246.1,424.6l-8092.2 0zm14309.1 -424.6l2098.6 0c2212,0 4021.4,-1809.4 4021.4,-4021.4 0,-966.9 128.6,-428.9 128.6,-76.1 0,434.6 -32.1,942.7 -124.4,1362.7 -396.9,1800.9 -2011.6,3159.4 -3927.4,3159.4l-1965.9 0c-71.6,-144.3 -152.2,-284.2 -230.9,-424.6z"/>
   <path class="fil0 str2" d="M16500 32500c8836.6,0 16000,-7163.4 16000,-16000 0,-8836.6 -7163.4,-16000 -16000,-16000 -8836.6,0 -16000,7163.4 -16000,16000 0,8836.6 7163.4,16000 16000,16000z"/>
  </g>
 </g>
</svg>
