<?xml version="1.0" encoding="UTF-8"?>
<!DOCTYPE svg PUBLIC "-//W3C//DTD SVG 1.1//EN" "http://www.w3.org/Graphics/SVG/1.1/DTD/svg11.dtd">
<!-- Creator: CorelDRAW 2018 (64-Bit) -->
<svg xmlns="http://www.w3.org/2000/svg" xml:space="preserve" width="95px" height="94px" version="1.1" style="shape-rendering:geometricPrecision; text-rendering:geometricPrecision; image-rendering:optimizeQuality; fill-rule:evenodd; clip-rule:evenodd"
viewBox="0 0 9401.6 9349.6"
 xmlns:xlink="http://www.w3.org/1999/xlink">
 <defs>
  <style type="text/css">
   <![CDATA[
    .str0 {stroke:#31C3C5;stroke-width:198.5;stroke-miterlimit:22.9256}
    .fil0 {fill:none}
    .fil1 {fill:#31C3C5}
    .fil2 {fill:#31C3C5;fill-rule:nonzero}
   ]]>
  </style>
 </defs>
 <g id="Layer_x0020_1">
  <metadata id="CorelCorpID_0Corel-Layer"/>
  <path class="fil0 str0" d="M3753.7 4709.3c220.3,-1357.7 436,-2717.5 650.8,-4079.1 36.9,-234 250.6,-431.8 475.7,-437.1 1320.5,-31.2 2641.1,-62.7 3961.6,-93.9 224.6,-5.3 383.8,185.9 352,422.6 -368.5,2751.4 -747,5500.2 -1139.5,8248.3 -33.6,235.9 -253.6,428 -488,428 -1376.1,0 -2752.1,0 -4128.1,0 -234.4,0 -393.9,-189.5 -355.1,-422.5 225.9,-1354.4 450.5,-2710.1 670.6,-4066.3"/>
  <path class="fil1" d="M9174.8 270.3c153.9,61.6 248.1,219.1 222.6,402.5l-1150.7 8246.5c-33,236.7 -253.7,430.3 -490.3,430.3l-4166.6 0c-143.2,0 -260.6,-70.8 -323.8,-179.2 44.6,17.9 94.4,27.7 147.6,27.7l4166.6 0c236.7,0 457.3,-193.6 490.3,-430.2l1150.7 -8246.6c13,-93.5 -5.1,-180.3 -46.4,-251z"/>
  <path class="fil0 str0" d="M4213 4309.7c156,-990.5 310.7,-1984.1 478.9,-3024 30.8,-190.3 209,-351.3 396.8,-355.7 1101.6,-25.3 2203.1,-50.9 3304.7,-76.3 187.3,-4.3 320,151.2 293.6,343.8 -307.4,2238.3 -552.7,4267.7 -880,6503.2 -28.1,191.9 -211.5,348.2 -407.1,348.2 -1147.9,0 -2295.7,0 -3443.5,0 -195.5,0 -328.6,-154.2 -296.2,-343.7 199.9,-1169.1 377.2,-2280.4 552.8,-3395.5"/>
  <rect class="fil0 str0" x="4833.6" y="8384.6" width="1501.6" height="440.5" rx="236.5" ry="236.5"/>
  <circle class="fil1" cx="7555" cy="506.9" r="122.3"/>
  <path class="fil1" d="M5239.8 5268.9l1741.4 0 53.6 -341.9c49.9,-317.8 -169.3,-577.7 -487,-577.7l-586 0c-317.8,0 -618.5,259.9 -668.4,577.7l-53.6 341.9zm1185 -2002.7c264.7,0 445.6,214.6 404.1,479.4 -41.6,264.7 -289.9,479.3 -554.6,479.3 -264.7,0 -445.7,-214.6 -404.1,-479.3 41.5,-264.8 289.8,-479.4 554.6,-479.4z"/>
  <path class="fil2" d="M4901.6 5897.7c43.5,0 79,8.8 106.7,26.4 27.6,17.5 46.3,42.5 56,75 9.7,32.4 10.3,70.5 1.9,114.3 -6.3,32.3 -16.4,61.7 -30.3,88.1 -13.9,26.5 -31.4,49.4 -52.7,68.8 -21.3,19.4 -45.6,34.2 -73.1,44.5 -27.5,10.3 -57.6,15.4 -90.6,15.4 -32.7,0 -61,-5.3 -84.8,-15.9 -23.8,-10.5 -42.5,-25.4 -56.1,-44.6 -13.6,-19.2 -22.2,-42.3 -25.8,-69.3 -3.7,-27.1 -2.4,-56.3 3.7,-87.6 6.3,-32.2 16.5,-61.6 31,-88.5 14.4,-26.8 32.2,-49.6 53.4,-68.5 21.1,-18.8 45.2,-33.2 72.3,-43.1 27,-10.1 56.5,-15 88.4,-15zm78.7 215.1c5.9,-30.6 6.2,-57.2 0.7,-79.7 -5.6,-22.4 -16.5,-39.4 -32.5,-51 -16.1,-11.5 -36.2,-17.2 -59.9,-17.2 -16.9,0 -33.2,3.2 -48.7,9.5 -15.7,6.5 -29.8,15.7 -42.5,27.9 -12.7,12.2 -23.9,27.8 -33.6,46.7 -9.7,19 -16.8,40.2 -21.4,63.8 -4.6,23.8 -5.7,45.3 -3.5,64.6 2.3,19.2 7.7,35.1 16.1,47.8 8.5,12.7 19.2,22.1 32.1,28.3 13,6.4 27.9,9.5 44.9,9.5 21.7,0 42.6,-5.4 62.9,-16.3 20.3,-10.8 37.9,-27.5 53.1,-50.3 15.1,-22.5 25.9,-50.5 32.3,-83.6zm300.9 -164.3l115.1 246.7 48.3 -249c3.1,-16.2 9,-28.3 17.4,-36.3 8.5,-8.1 18.7,-12.2 30.5,-12.2 12,0 20.9,4 26.4,12.1 5.4,8.1 6.6,20.2 3.4,36.4l-63.7 329c-7.2,36.7 -25.9,55 -56.3,55 -7.6,0 -14.3,-1 -20,-3.3 -5.6,-2.1 -10.6,-5.7 -15,-10.3 -4.4,-4.8 -8.2,-10.4 -11.6,-16.8 -3.3,-6.3 -6.6,-12.8 -9.9,-19.5l-111.7 -243.5 -47.4 244.9c-3.1,16 -9.2,28 -18.2,36.2 -9.1,8.2 -19.4,12.3 -31,12.3 -12,0 -20.9,-4.1 -26.4,-12.4 -5.7,-8.2 -7,-20.3 -3.9,-36.1l62.5 -322.6c2.7,-13.8 6.3,-24.5 10.8,-32.3 5.3,-8.6 12.7,-15.6 22.1,-21 9.4,-5.4 19,-8.1 28.7,-8.1 7.7,0 14,1.3 18.9,3.7 4.9,2.5 9.1,5.8 12.3,10 3.3,4.2 6.5,9.6 9.4,16.3 3,6.6 6.2,13.5 9.3,20.8zm789.3 242.5c-2.6,13.3 -8.6,27.8 -18.3,43.3 -9.5,15.5 -22.8,30.6 -39.8,45.6 -16.9,14.9 -37.3,27 -60.9,36.4 -23.7,9.2 -50.2,13.9 -79.3,13.9 -22,0 -41.7,-2 -59,-6.2 -17.2,-4.2 -32.4,-10.7 -45.4,-19.6 -13,-8.8 -24.4,-20.5 -34,-34.9 -8.4,-13.1 -15,-27.8 -19.7,-44 -4.6,-16.3 -7,-33.7 -7.4,-52.2 -0.3,-18.4 1.5,-38 5.6,-58.8 6.5,-33.6 17.2,-63.8 32.2,-90.4 14.9,-26.6 33.5,-49.5 55.4,-68.4 21.9,-18.8 46,-33.3 72.5,-43.2 26.5,-9.9 53.6,-14.8 81.4,-14.8 33.9,0 62.7,6.7 86.6,20.2 23.8,13.5 40.8,30.2 51,50.1 10.2,19.9 13.7,38.6 10.3,56.3 -1.9,9.8 -7,18.2 -15.3,25.7 -8.3,7.4 -17.3,11.1 -27,11.1 -10.8,0 -18.5,-2.6 -22.9,-7.7 -4.4,-5.1 -8.7,-14 -12.9,-26.5 -7.1,-20.8 -17.1,-36.3 -30,-46.6 -13,-10.2 -30.3,-15.4 -52.2,-15.4 -34.9,0 -65.1,13.2 -90.9,39.6 -25.8,26.5 -43.4,64.1 -52.9,112.9 -6.3,32.5 -6.9,59.6 -2,81.2 4.9,21.6 14.7,37.7 29.4,48.4 14.7,10.6 33.2,16 55.8,16 24.3,0 46,-6.1 65.2,-18.1 19.2,-12.1 35.3,-29.8 48.4,-53.3 5.8,-11 12,-20 18.7,-27 6.6,-6.9 15.9,-10.4 27.7,-10.4 10.1,0 18.1,3.5 23.9,10.6 5.9,7 7.8,15.8 5.8,26.2zm327.3 84.8l-9.8 -52.5 -170.1 0 -30.3 53.5c-11.9,21 -21.3,35.1 -28.2,42.4 -6.9,7.3 -16.7,11 -29.2,11 -10.7,0 -19.3,-3.9 -26,-11.7 -6.7,-7.8 -9.1,-16.6 -7.2,-26.5 1.1,-5.7 3.3,-11.7 6.3,-17.7 3.1,-6.1 7.9,-14.5 14.4,-25.4l159.6 -271.6c4.6,-7.8 10,-17.2 16.4,-28.1 6.5,-11 12.8,-20.1 19,-27.3 6.3,-7.2 13.7,-13 22.6,-17.5 8.7,-4.5 18.9,-6.7 30.5,-6.7 11.9,0 21.3,2.2 28.3,6.7 7,4.5 12.2,10.3 15.7,17.3 3.6,7 6.2,14.6 7.9,22.7 1.8,8 4,18.8 6.4,32.3l57 269.9c4.6,20.6 6,35.5 4.2,44.8 -1.9,9.7 -7.7,18.6 -17.3,26.8 -9.7,8 -20.3,12 -31.7,12 -6.6,0 -12.1,-1.2 -16.4,-3.6 -4.2,-2.3 -7.6,-5.6 -10.1,-9.6 -2.4,-4.1 -4.6,-10.5 -6.7,-18.8 -2.2,-8.5 -3.8,-16 -5.3,-22.4zm-145.2 -116.3l125 0 -29.7 -172.4 -95.3 172.4zm444.1 -210.5l-59.1 304.6 171.9 0c13.7,0 23.5,3.3 29.5,10 6.1,6.7 8.1,15.1 6.2,25.1 -2,10.2 -7.3,18.6 -15.7,24.9 -8.4,6.4 -19.7,9.6 -33.5,9.6l-204.7 0c-18.4,0 -30.8,-4.1 -37.4,-12.3 -6.4,-8.2 -8,-21.4 -4.4,-39.6l62.5 -322.3c3.2,-17 9.6,-29.9 19,-38.5 9.3,-8.5 20.3,-12.8 32.9,-12.8 12.6,0 22.2,4.2 28.4,12.7 6.2,8.4 7.7,21.4 4.4,38.6zm353 0l-59 304.6 171.8 0c13.7,0 23.5,3.3 29.5,10 6.1,6.7 8.1,15.1 6.2,25.1 -2,10.2 -7.2,18.6 -15.6,24.9 -8.5,6.4 -19.8,9.6 -33.6,9.6l-204.6 0c-18.5,0 -30.9,-4.1 -37.4,-12.3 -6.5,-8.2 -8,-21.4 -4.5,-39.6l62.5 -322.3c3.3,-17 9.7,-29.9 19,-38.5 9.4,-8.5 20.3,-12.8 32.9,-12.8 12.7,0 22.2,4.2 28.4,12.7 6.3,8.4 7.7,21.4 4.4,38.6zm242.4 381.2c-11.8,0 -21.2,-3.8 -28.3,-11.4 -7,-7.6 -9.2,-18.3 -6.6,-31.9 2.3,-11.7 8.3,-21.7 18.1,-30.1 9.8,-8.3 20.7,-12.5 32.7,-12.5 12,0 21.4,4.1 28.3,12.4 6.9,8.2 9.1,18.3 6.8,30.2 -2.6,13.4 -8.8,24 -18.8,31.7 -10,7.7 -20.7,11.6 -32.2,11.6zm183 0c-11.8,0 -21.2,-3.8 -28.3,-11.4 -7.1,-7.6 -9.3,-18.3 -6.7,-31.9 2.3,-11.7 8.3,-21.7 18.1,-30.1 9.8,-8.3 20.8,-12.5 32.7,-12.5 12,0 21.5,4.1 28.3,12.4 6.9,8.2 9.2,18.3 6.8,30.2 -2.5,13.4 -8.8,24 -18.7,31.7 -10,7.7 -20.7,11.6 -32.2,11.6zm182.9 0c-11.8,0 -21.2,-3.8 -28.3,-11.4 -7,-7.6 -9.2,-18.3 -6.6,-31.9 2.3,-11.7 8.3,-21.7 18.1,-30.1 9.8,-8.3 20.7,-12.5 32.7,-12.5 12,0 21.4,4.1 28.3,12.4 6.9,8.2 9.1,18.3 6.8,30.2 -2.6,13.4 -8.8,24 -18.8,31.7 -10,7.7 -20.7,11.6 -32.2,11.6z"/>
  <path class="fil0 str0" d="M2817.3 5528.2c-566.8,-649.7 -499.6,-1635.9 150.1,-2202.8m-1029.3 2969.9c-990.5,-1135.3 -873,-2858.6 262.3,-3849.1m-1141.9 4616.5c-1414.3,-1621.2 -1246.6,-4081.8 374.5,-5496.1"/>
 </g>
</svg>
