<?xml version="1.0" encoding="UTF-8"?>
<!DOCTYPE svg PUBLIC "-//W3C//DTD SVG 1.1//EN" "http://www.w3.org/Graphics/SVG/1.1/DTD/svg11.dtd">
<!-- Creator: CorelDRAW 2018 (64-Bit) -->
<svg xmlns="http://www.w3.org/2000/svg" xml:space="preserve" width="107.597mm" height="76.5526mm" version="1.1" style="shape-rendering:geometricPrecision; text-rendering:geometricPrecision; image-rendering:optimizeQuality; fill-rule:evenodd; clip-rule:evenodd"
viewBox="0 0 10759.72 7655.26"
 xmlns:xlink="http://www.w3.org/1999/xlink">
 <defs>
  <style type="text/css">
   <![CDATA[
    .str0 {stroke:#A3C4E0;stroke-width:35.27;stroke-linecap:round;stroke-miterlimit:22.9256}
    .fil0 {fill:none}
   ]]>
  </style>
 </defs>
 <g id="Layer_x0020_1">
  <metadata id="CorelCorpID_0Corel-Layer"/>
  <path class="fil0 str0" d="M5628.2 174.26c1114.3,123.54 1980.94,1068.26 1980.94,2215.55 0,1231.26 -998.08,2229.4 -2229.28,2229.4 -1231.2,0 -2229.28,-998.14 -2229.28,-2229.4 0,-1147.29 866.64,-2092.01 1980.94,-2215.55"/>
  <path class="fil0 str0" d="M3157.64 2567.61l-1131.88 90.55m-227.79 18.22l-1110.52 88.85"/>
  <path class="fil0 str0" d="M733.29 3867.12l573.64 -182.37m218.51 -69.48l573.63 -182.38m218.51 -69.47l937.33 -298.01"/>
  <line class="fil0 str0" x1="2828.27" y1="4270.03" x2="3585.15" y2= "3712.3" />
  <path class="fil0 str0" d="M2559.69 6633.72l364.81 -548.99m126.89 -190.95l489.52 -736.66m126.9 -190.94l478.12 -719.5"/>
  <path class="fil0 str0" d="M10086.21 437.12l-608.81 252.6m-211.76 87.86l-816.92 338.95m-211.76 87.86l-797.9 331.05"/>
  <path class="fil0 str0" d="M4634.22 6089.54l104.17 -516.85m53.61 -266.02l147.35 -731.08"/>
  <path class="fil0 str0" d="M6405.57 7138.73l-71.24 -329.83m-42.23 -195.5l-106.32 -492.25m-42.22 -195.5l-149.07 -690.15m-42.22 -195.5l-101.68 -470.76"/>
  <path class="fil0 str0" d="M8280.61 7009.76l-261.4 -416.33m-121.91 -194.17l-261.4 -416.32m-121.92 -194.17l-369.73 -588.86m-121.91 -194.16l-456.94 -727.76"/>
  <path class="fil0 str0" d="M8388.04 4431.18l-475.49 -322.67m-189.71 -128.74l-498.18 -338.07"/>
  <path class="fil0 str0" d="M10077.88 3318.54l-553.78 -109.47m-232.16 -45.9l-834.61 -164.98m-232.15 -45.9l-658.09 -130.09"/>
  <path class="fil0 str0" d="M9757.85 1802.96l-1263.89 169.42m-227.24 30.46l-677.2 90.78"/>
  <path class="fil0 str0" d="M1204.68 97.05l1294.59 710.91m232.75 127.81l693.65 380.92"/>
  <path class="fil0 str0" d="M1460.44 1286.98l568.16 159.87m195.89 55.12l1008.94 283.88"/>
  <path class="fil0 str0" d="M388.4 2491.45c165.79,0 300.19,134.41 300.19,300.21 0,165.8 -134.4,300.21 -300.19,300.21 -165.79,0 -300.2,-134.41 -300.2,-300.21 0,-165.8 134.41,-300.21 300.2,-300.21z"/>
  <path class="fil0 str0" d="M8433.5 6967.96c165.79,0 300.19,134.41 300.19,300.21 0,165.8 -134.4,300.21 -300.19,300.21 -165.79,0 -300.2,-134.41 -300.2,-300.21 0,-165.8 134.41,-300.21 300.2,-300.21z"/>
  <path class="fil0 str0" d="M10371.33 3085.43c165.79,0 300.2,134.41 300.2,300.21 0,165.8 -134.41,300.21 -300.2,300.21 -165.79,0 -300.19,-134.41 -300.19,-300.21 0,-165.8 134.4,-300.21 300.19,-300.21z"/>
 </g>
</svg>
