<?xml version="1.0" encoding="UTF-8"?>
<!DOCTYPE svg PUBLIC "-//W3C//DTD SVG 1.1//EN" "http://www.w3.org/Graphics/SVG/1.1/DTD/svg11.dtd">
<!-- Creator: CorelDRAW 2018 (64-Bit) -->
<svg xmlns="http://www.w3.org/2000/svg" xml:space="preserve" width="305px" height="217px" version="1.1" style="shape-rendering:geometricPrecision; text-rendering:geometricPrecision; image-rendering:optimizeQuality; fill-rule:evenodd; clip-rule:evenodd"
viewBox="0 0 30500 21700"
 xmlns:xlink="http://www.w3.org/1999/xlink">
 <defs>
  <style type="text/css">
   <![CDATA[
    .str0 {stroke:#A3C4E0;stroke-width:100;stroke-linecap:round;stroke-miterlimit:22.9256}
    .fil0 {fill:none}
   ]]>
  </style>
 </defs>
 <g id="Layer_x0020_1">
  <metadata id="CorelCorpID_0Corel-Layer"/>
  <ellipse class="fil0 str0" cx="15250" cy="6774.3" rx="6319.2" ry="6319.6"/>
  <path class="fil0 str0" d="M8950.8 7278.3l-3208.5 256.6m-645.7 51.7l-3147.9 251.8"/>
  <path class="fil0 str0" d="M2078.6 10961.9l1626.1 -516.9m619.4 -197l1626 -517m619.4 -196.9l2657 -844.7"/>
  <line class="fil0 str0" x1="8017.1" y1="12104" x2="10162.6" y2= "10523.1" />
  <path class="fil0 str0" d="M7255.8 18804.2l1034.1 -1556.1m359.7 -541.3l1387.6 -2088.2m359.7 -541.2l1355.3 -2039.6"/>
  <path class="fil0 str0" d="M28590.8 1239.1l-1725.7 716m-600.3 249.1l-2315.7 960.8m-600.2 249l-2261.8 938.4"/>
  <path class="fil0 str0" d="M12283 21495.9l586.6 -2910.6m301.9 -1498.1l829.8 -4117"/>
  <path class="fil0 str0" d="M17305.7 16291.6l-258.1 -1194.6m-137.2 -635.3l-326 -1509.5"/>
  <path class="fil0 str0" d="M23472.6 19870.2l-741 -1180.2m-345.5 -550.4l-741 -1180.1m-345.6 -550.4l-1048.1 -1669.2m-345.6 -550.4l-1295.2 -2062.9"/>
  <path class="fil0 str0" d="M23777.1 12560.8l-1347.8 -914.6m-537.8 -365l-1412.1 -958.3"/>
  <path class="fil0 str0" d="M28567.2 9406.9l-1569.7 -310.3m-658.1 -130.1l-2365.9 -467.7m-658 -130.1l-1865.5 -368.8"/>
  <path class="fil0 str0" d="M27660.1 5110.8l-3582.7 480.2m-644.2 86.3l-1919.6 257.4"/>
  <path class="fil0 str0" d="M3414.8 275.1l3669.7 2015.2m659.8 362.3l1966.3 1079.8"/>
  <path class="fil0 str0" d="M4139.8 3648.1l1610.6 453.2m555.2 156.3l2860 804.7"/>
  <ellipse class="fil0 str0" cx="1101" cy="7913.4" rx="850.9" ry="851"/>
  <ellipse class="fil0 str0" cx="23906" cy="20602.7" rx="850.9" ry="851"/>
  <ellipse class="fil0 str0" cx="29399.1" cy="9597.1" rx="850.9" ry="851"/>
 </g>
</svg>
