<?xml version="1.0" encoding="UTF-8"?>
<!DOCTYPE svg PUBLIC "-//W3C//DTD SVG 1.1//EN" "http://www.w3.org/Graphics/SVG/1.1/DTD/svg11.dtd">
<!-- Creator: CorelDRAW 2018 (64-Bit) -->
<svg xmlns="http://www.w3.org/2000/svg" xml:space="preserve" width="152px" height="40px" version="1.1" style="shape-rendering:geometricPrecision; text-rendering:geometricPrecision; image-rendering:optimizeQuality; fill-rule:evenodd; clip-rule:evenodd"
viewBox="0 0 15200 4000"
 xmlns:xlink="http://www.w3.org/1999/xlink">
 <defs>
  <style type="text/css">
   <![CDATA[
    .fil0 {fill:#333333;fill-rule:nonzero}
   ]]>
  </style>
 </defs>
 <g id="Layer_x0020_1">
  <metadata id="CorelCorpID_0Corel-Layer"/>
  <path class="fil0" d="M1993 1625.5l377.3 0c21.2,-101.2 12.1,-227.7 -119.4,-226.3 -125.2,1.6 -226.1,111.7 -257.9,226.3zm9385 784.9c523,-979 158.1,-2148.6 -1108.1,-2148.6 -479.3,0 -953.7,183.9 -1340.5,460.4 163.9,333.5 124.5,753.2 -22.3,1095.7 -177.5,414.3 -525.4,694.6 -983.4,839.8 61.7,503.4 387.2,878.8 867.8,1023 987.5,296.4 2126.5,-409.3 2586.5,-1270.3zm-916.4 1143.7l-42.1 129.7 1062.3 0c156,-487 312,-974.1 468,-1461.1 41.7,-130.1 239.9,-117.9 239.9,20.2 0,409.8 -21.5,819.6 -16.2,1225.3 2.1,166.4 107.3,275.5 274.9,275.5 194.5,0 334,-132.1 429.1,-289.9 145.4,-241.4 278,-502 402.5,-774.5 59.1,-129.6 116,-260.4 171.1,-392.1 84.8,-202.3 287.7,-144.2 257.4,51.3l-208.9 1345.3 983.9 0c152.3,-936 312.4,-1870.8 455.9,-2808.2 60.6,-396.3 -221.9,-613.8 -588,-613.8 -389.1,0 -683.2,211.5 -857.1,551.4l-394.8 771.1c-60.2,117.5 -224.5,69.9 -224.3,-49.7 0.6,-277.9 1.2,-555.9 -0.5,-833.4 -2.1,-314 -206.2,-438.4 -496,-439.7 -340.7,-1.6 -638.7,202.9 -851.8,454.6 360.2,526.7 276.7,1215 -9.9,1754.3 -241.5,454.5 -611.5,826 -1055.4,1083.7zm-191.9 101.5c-468.2,224.5 -1031.2,322.6 -1535.6,165.9 -522.4,-162.3 -882.4,-575.6 -957.7,-1122.9 -211.5,51.5 -444.2,77.6 -694.1,77.9l-289.4 1058.8c-830.1,0 -1660.3,0 -2490.4,0l284.3 -1216.1c13.1,-55.9 53.5,-242.3 -44.3,-242.3 -105.5,0 -131.3,137.8 -153.8,219.1 -113.4,410.5 -206.5,826.4 -310.6,1239.3 -761.9,0 -1523.9,0 -2285.8,0l265.1 -1073.6 -350.6 0 -270.4 1073.6 -1336.4 0c158.5,-714.9 330.6,-1425.5 504.1,-2136.9 226.3,-927.4 931.3,-1587.8 1909.6,-1587.8 381,0 766.4,103.5 999.7,428.3l86.9 -352.6 1416.5 0 -204.3 774.3 520.6 -774.3 1484 0 -1062 1487.8c80.1,46.2 143.7,100 191.4,161.9 170,-573.8 431.6,-1157.8 963.2,-1478.5 431,-260.1 1124.4,-366.3 1579.2,-103.6 145,83.6 269.9,199 364.1,337.4 410.8,-290.8 909.8,-481 1416.9,-481 438.3,0 868.3,146.9 1162.8,484.1 241.7,-276.2 569.8,-485.7 947.2,-483.8 371.4,1.8 646,190 645.6,588.5l-0.6 699.9 335 -654.4c200.1,-390.8 545.1,-634.3 991.5,-634.3 468.2,0 815.6,308 737.7,787.8l-477.2 2937.2 -1288.5 0 210.8 -1357.5c-38.2,89 -77.2,177.1 -116.9,264.2 -127.5,279.2 -262.8,545.2 -410.2,789.9 -123.3,204.6 -309.2,363.3 -558.7,363.3 -251.5,0 -422.6,-175.3 -425.8,-425.2 -4.5,-348.5 5.2,-686 15,-1026.5l-445.8 1391.8 -1380.4 0 58.3 -179.7zm-1501.2 -1898.1c215.1,-503.1 148.7,-1077.7 -349.8,-1370.1 -406.6,-238.6 -1050.4,-130 -1434.1,102 -544.1,329.1 -785.1,976.7 -941.6,1561.8 17.7,92.7 12.7,195.9 -14,310.7 -102.5,441.1 -209,881.4 -313.9,1321.9l962.8 0 590.7 -2161.2c43.4,-158.9 193.4,-300.8 361.5,-310.1 217,-12 325.7,207.3 206.8,376.3 -69.2,98.4 -220.8,184.6 -483,194l-230.3 842.5c649.9,-8.6 1363.8,-210.4 1644.9,-867.8zm816.5 814.6c375.2,0 785.8,-353.8 785.8,-737.6 0,-252.4 -187.3,-398.6 -427.5,-398.6 -333.5,0 -675.8,268.5 -764.7,588.2 -82.4,296.6 81.4,548 406.4,548zm0 151.5c-425.3,0 -661,-347.7 -551.9,-739.7 106.9,-384.5 509.3,-699.5 910.2,-699.5 322.8,0 579,214.9 579,550.1 0,466.9 -479.9,889.1 -937.3,889.1zm-2189.2 -1094.1c176.3,-13.6 274.9,-67.2 317.5,-127.7 47.1,-67 13.9,-143.3 -74.9,-138.4 -102.6,5.6 -198,102.9 -224.2,198.8l-18.4 67.3zm-2661.6 1024l-240.9 1030.3 1066.2 0c108.1,-451.7 217,-903.3 322.2,-1355.6 31.6,-136.1 27.1,-247.9 -16.1,-337.8 -67.4,-140.3 -204.8,-198 -337.2,-258.7l995 -1393.9 -1110.2 0c-182.7,271.8 -365.4,543.5 -548.1,815.2 -105.3,156.6 -279.2,74.1 -241.9,-67l197.3 -748.2 -1101.9 0 -97.2 394.6c152.2,360.1 108.1,796.4 16.6,1166.8l-440.7 1784.6 763 0c94,-376.2 179.6,-754.1 282.9,-1128 44.3,-160.7 99.4,-330.4 299.3,-330.4 241.8,0 231.6,257.5 191.7,428.1zm-2779.5 -876.5l-209.8 833.1 505.6 0 -265.1 1073.7 1056.2 0 449.7 -1820.8c94.9,-384.1 144.1,-886.2 -94.5,-1227.7 -202.1,-289.2 -549.3,-373.2 -883.1,-373.2 -908.3,0 -1553.1,612.3 -1762.8,1471.9 -158.1,648 -317.6,1301.7 -462.7,1949.8l1030.4 0 525.3 -2086.1c34.3,-136.5 123.9,-254.6 253.1,-312.6 133.7,-59.9 301.9,-54.9 385.8,80.5 77.9,125.8 41.7,279.7 1.4,411.4l-529.5 0z"/>
 </g>
</svg>
