<?xml version="1.0" encoding="UTF-8"?>
<!DOCTYPE svg PUBLIC "-//W3C//DTD SVG 1.1//EN" "http://www.w3.org/Graphics/SVG/1.1/DTD/svg11.dtd">
<!-- Creator: CorelDRAW 2018 (64-Bit) -->
<svg xmlns="http://www.w3.org/2000/svg" xml:space="preserve" width="700px" height="354px" version="1.1" style="shape-rendering:geometricPrecision; text-rendering:geometricPrecision; image-rendering:optimizeQuality; fill-rule:evenodd; clip-rule:evenodd"
viewBox="0 0 70000 35396.6"
 xmlns:xlink="http://www.w3.org/1999/xlink">
 <defs>
  <style type="text/css">
   <![CDATA[
    .fil17 {fill:#C6D5E0}
    .fil24 {fill:#CBF2E3}
    .fil7 {fill:#E1E8EA}
    .fil1 {fill:#EBF6FA}
    .fil6 {fill:#EBF6FA}
    .fil21 {fill:#F0FFF9}
    .fil22 {fill:#FFEBD4}
    .fil19 {fill:white}
    .fil12 {fill:url(#id0)}
    .fil8 {fill:url(#id1)}
    .fil9 {fill:url(#id2)}
    .fil16 {fill:url(#id3)}
    .fil2 {fill:url(#id4)}
    .fil10 {fill:url(#id5)}
    .fil0 {fill:url(#id6)}
    .fil25 {fill:url(#id7)}
    .fil11 {fill:url(#id8)}
    .fil15 {fill:url(#id9)}
    .fil13 {fill:url(#id10)}
    .fil3 {fill:url(#id11)}
    .fil5 {fill:url(#id12)}
    .fil23 {fill:url(#id13)}
    .fil20 {fill:url(#id14)}
    .fil14 {fill:url(#id15)}
    .fil18 {fill:url(#id16)}
    .fil4 {fill:url(#id17)}
   ]]>
  </style>
  <linearGradient id="id0" gradientUnits="userSpaceOnUse" x1="59350.6" y1="12586.7" x2="59242.8" y2="16085.2">
   <stop offset="0" style="stop-opacity:1; stop-color:#AFD1C1"/>
   <stop offset="1" style="stop-opacity:1; stop-color:#F0FFF9"/>
  </linearGradient>
  <linearGradient id="id1" gradientUnits="userSpaceOnUse" xlink:href="#id0" x1="64882.7" y1="10099.7" x2="64730.3" y2="15047">
  </linearGradient>
  <linearGradient id="id2" gradientUnits="userSpaceOnUse" xlink:href="#id0" x1="65673.6" y1="11521.5" x2="65565.8" y2="15019.9">
  </linearGradient>
  <linearGradient id="id3" gradientUnits="userSpaceOnUse" x1="49896.5" y1="9160.9" x2="49896.6" y2="12081.5">
   <stop offset="0" style="stop-opacity:1; stop-color:#E1E8EA"/>
   <stop offset="1" style="stop-opacity:1; stop-color:#FEFEFE"/>
  </linearGradient>
  <linearGradient id="id4" gradientUnits="userSpaceOnUse" x1="23194.5" y1="11685.4" x2="23194.2" y2="14086.4">
   <stop offset="0" style="stop-opacity:1; stop-color:#EBF6FA"/>
   <stop offset="1" style="stop-opacity:1; stop-color:#FEFEFE"/>
  </linearGradient>
  <linearGradient id="id5" gradientUnits="userSpaceOnUse" xlink:href="#id0" x1="60984.7" y1="11380.1" x2="60832.2" y2="16327.5">
  </linearGradient>
  <linearGradient id="id6" gradientUnits="userSpaceOnUse" xlink:href="#id4" x1="27211.1" y1="10181.3" x2="27211.2" y2="12199.8">
  </linearGradient>
  <linearGradient id="id7" gradientUnits="userSpaceOnUse" x1="34917.4" y1="35668.8" x2="35684.7" y2="22769.8">
   <stop offset="0" style="stop-opacity:1; stop-color:#A9D4F2"/>
   <stop offset="0.568627" style="stop-opacity:1; stop-color:#CBF2E3"/>
   <stop offset="1" style="stop-opacity:1; stop-color:#F0FFF9"/>
  </linearGradient>
  <linearGradient id="id8" gradientUnits="userSpaceOnUse" xlink:href="#id0" x1="60098.5" y1="13085.3" x2="59990.7" y2="16583.7">
  </linearGradient>
  <linearGradient id="id9" gradientUnits="userSpaceOnUse" xlink:href="#id3" x1="51605.3" y1="10848.3" x2="51605.3" y2="11723.5">
  </linearGradient>
  <linearGradient id="id10" gradientUnits="userSpaceOnUse" xlink:href="#id0" x1="64476.5" y1="6508.7" x2="64353.6" y2="18245">
  </linearGradient>
  <linearGradient id="id11" gradientUnits="userSpaceOnUse" xlink:href="#id4" x1="32064.3" y1="11371.6" x2="32064.7" y2="15071.7">
  </linearGradient>
  <linearGradient id="id12" gradientUnits="userSpaceOnUse" x1="34795.2" y1="17906.7" x2="34287.6" y2="9561.9">
   <stop offset="0" style="stop-opacity:1; stop-color:#F0FFF9"/>
   <stop offset="1" style="stop-opacity:1; stop-color:#EBF6FA"/>
  </linearGradient>
  <linearGradient id="id13" gradientUnits="userSpaceOnUse" x1="33326.6" y1="16133.5" x2="33326.7" y2="22695.6">
   <stop offset="0" style="stop-opacity:1; stop-color:#CBF2E3"/>
   <stop offset="1" style="stop-opacity:1; stop-color:#F0FFF9"/>
  </linearGradient>
  <linearGradient id="id14" gradientUnits="userSpaceOnUse" x1="47249.3" y1="13971.1" x2="47249.3" y2="15283.9">
   <stop offset="0" style="stop-opacity:1; stop-color:#EBF6FA"/>
   <stop offset="1" style="stop-opacity:1; stop-color:#F0FFF9"/>
  </linearGradient>
  <linearGradient id="id15" gradientUnits="userSpaceOnUse" xlink:href="#id4" x1="47607.3" y1="8720.1" x2="47607.4" y2="11226.2">
  </linearGradient>
  <linearGradient id="id16" gradientUnits="userSpaceOnUse" xlink:href="#id4" x1="48064.7" y1="10709.1" x2="48064.8" y2="11922.4">
  </linearGradient>
  <linearGradient id="id17" gradientUnits="userSpaceOnUse" x1="22708.4" y1="8016.7" x2="22324.9" y2="17163.4">
   <stop offset="0" style="stop-opacity:1; stop-color:#CBF2E3"/>
   <stop offset="1" style="stop-opacity:1; stop-color:white"/>
  </linearGradient>
 </defs>
 <g id="Layer_x0020_1">
  <metadata id="CorelCorpID_0Corel-Layer"/>
  <g id="_2157368291808">
   <g>
    <polygon class="fil0" points="22578,10272.4 24109.6,10272.4 24668.9,10249.9 24816.2,10255.3 27720.5,10061.5 27867.8,10074.4 31667.5,9836.7 31667.5,13984.3 22578,13984.3 "/>
    <rect class="fil1" x="31667.5" y="9765.2" width="975" height="2251.4"/>
    <rect class="fil1" x="24668.9" y="10254.9" width="147.3" height="1761.7"/>
    <rect class="fil1" x="22578" y="10272.4" width="1531.5" height="1744.3"/>
    <rect class="fil1" x="27720.5" y="10073.9" width="147.3" height="1942.8"/>
    <g>
     <polygon class="fil1" points="29054.9,9776.6 29430.1,9776.6 29432.8,8061.6 29268.8,8027.2 29118.6,8170.8 "/>
     <polygon class="fil1" points="29329.9,9776.6 29430.1,9776.6 29432.8,8061.6 29349.8,8044.2 "/>
     <polygon class="fil1" points="27102.8,9882.5 27440,9882.5 27450.5,9014.8 27288.2,8953.7 27120.7,8995.8 "/>
     <polygon class="fil1" points="27341.2,9882.5 27440,9882.5 27450.5,9014.8 27351.6,8977.6 "/>
     <polygon class="fil1" points="24049.9,9847.8 24266.5,9847.8 24244.7,8531.4 24064.2,8531.4 "/>
     <polygon class="fil1" points="24178.2,9847.8 24266.5,9847.8 24244.7,8531.4 24201.8,8531.4 "/>
     <polygon class="fil1" points="23217.5,9833.6 23434.2,9833.6 23447.8,8531.4 23265.1,8531.4 "/>
     <polygon class="fil1" points="23356.2,9833.6 23434.2,9833.6 23447.8,8531.4 23379.5,8531.4 "/>
     <rect class="fil1" x="23362.3" y="8135.6" width="1056.9" height="232.7"/>
     <polygon class="fil1" points="24395.4,7959.8 23794.6,7940.8 23835,8135.6 24395.4,8135.6 "/>
     <rect class="fil1" x="23123.7" y="9910.8" width="356.2" height="197.1"/>
     <rect class="fil1" x="23977.8" y="9910.8" width="328.5" height="197.1"/>
     <path class="fil1" d="M27485.4 9975.2l-425.8 -2.4c0,-44 8.5,-65.1 42.3,-90.3l340.3 0c25.4,17.6 43.2,62.8 43.2,92.7z"/>
     <path class="fil1" d="M27485.4 9975.2l-119.2 -0.7c-1.3,-28.7 -2.3,-70.6 -25,-92 0.7,0.7 2.2,0.6 4,0l97 0c25.4,17.6 43.2,62.8 43.2,92.7z"/>
     <rect class="fil1" x="26987.5" y="9972.8" width="546" height="76.2"/>
     <path class="fil1" d="M29469.5 9869.2l-459.2 -2.4c0,-44 9.1,-65.1 45.5,-90.2l367.1 0c27.5,17.5 46.6,62.7 46.6,92.6z"/>
     <path class="fil1" d="M29469.5 9869.2l-114.6 -0.6c-1.3,-28.7 -2.3,-70.6 -25,-92 0.6,0.6 2.1,0.5 4,0l89 0c27.5,17.5 46.6,62.7 46.6,92.6z"/>
     <rect class="fil1" x="28932.5" y="9866.8" width="588.9" height="80.1"/>
     <rect class="fil1" x="32471.6" y="9580.4" width="172.2" height="183.6"/>
     <path class="fil1" d="M31345.6 6586.9c23.7,1.8 133.5,24.1 157.4,33.6 120.5,47.5 186.1,114.4 273.3,199.5 33.1,32.2 186,84.7 211.1,127.7 11.7,20.2 59.1,36.6 33.2,88.3 -1.3,103.4 13.5,259.4 -3.2,262.1 -48.9,7.7 -249.3,36.7 -279.5,39.2 -56.1,4.5 -48.7,6.2 -65.3,-30.6 -3.5,-253.8 -105.2,-584.8 -327,-719.8z"/>
     <path class="fil1" d="M31632.2 6891c52.3,109 96.2,236 95.1,447.1 83.9,-3.6 137.9,-18.1 201.2,-27 14.2,-50.7 -9.6,-47.1 37.6,-115.7 69.4,-100.9 -9.7,-72.8 9.9,-91.5 44.4,-42.3 -12.7,-55.9 5.9,-80.5 46.4,-61.4 -18.2,-119.8 -73.8,-104.5 -18.8,5.1 -105.8,11.5 -102.5,-9.3 15.4,-98.2 -45.8,-54.8 -139.5,-47.3 -4.3,0.3 -33.9,28.5 -33.9,28.7z"/>
     <path class="fil1" d="M30493.8 7655.9c126,-43.6 161.8,-121.6 182.6,-275.1 44.2,-71 73.4,-111.7 96.3,-198.3 18.8,-71.1 65.6,-137.5 113.5,-195.7 96.7,-117.4 51.8,-71.3 183.3,-135.5 58.9,-28.8 173.5,-35.9 241.2,-22 42,8.6 54.7,7.1 3,-52.1 -183,-209.3 -572.7,-141.5 -752.8,57.4 -220.1,243 -322.1,859.1 -67.1,821.3z"/>
     <path class="fil1" d="M30250.1 7584.7l152 0c0,-118.4 23.1,-340 107.3,-505.6 120.7,-237.2 309.7,-345.7 510.4,-342.3 333.1,5.6 479.5,345.2 479.5,638.6 62.4,-9.2 173,-17.3 173.3,-42.7 3.4,-256.7 -97.6,-606.2 -327,-745.8 -202.1,-122.9 -493.4,-88.8 -683.6,16.8l-31.9 -30.9c-62.1,13.2 -498.3,109.7 -510.6,129.4 -12,19.1 -30.9,132 40.4,126 -37.2,40 -93.9,105.4 26.1,176.7 -29.3,20.7 -91,44.3 -97.4,122.4 -10.8,133 100.5,101 108.1,213.7 7.9,117.4 53.4,123.2 53.4,243.7z"/>
     <path class="fil1" d="M23461.2 9913.1l-275.4 -2c0,-37.8 5.4,-55.9 27.3,-77.5l220.2 0c16.5,15.1 27.9,53.8 27.9,79.5z"/>
     <path class="fil1" d="M24285.5 9913.1l-262.6 -1.6c0,-31.1 5.2,-46 26,-63.7l209.9 0c15.7,12.4 26.7,44.2 26.7,65.3z"/>
     <rect class="fil1" x="23197.6" y="8368.3" width="330.1" height="44.1"/>
     <path class="fil1" d="M23233.9 8412.4c-2.1,26.6 10.1,42.2 25.7,47.5 -6,19 -7,55.6 5.5,71.5l182.7 0c12.5,-15.9 11.5,-52.5 5.4,-71.5 15.6,-5.3 27.8,-20.9 25.7,-47.5l-245 0z"/>
     <rect class="fil1" x="23980.8" y="8368.3" width="330.1" height="44.1"/>
     <path class="fil1" d="M24029.8 8412.4c-1.4,26.6 11.2,42.2 27,47.5 -5.6,19 -5.6,55.6 7.4,71.5l182.7 0c12.1,-15.9 10,-52.5 3.4,-71.5 15.5,-5.3 27.3,-20.9 24.4,-47.5l-244.9 0z"/>
     <path class="fil1" d="M25359.4 8046.3c0.2,0.4 -31.9,62.1 -64.7,118.3 -27.4,46.9 -45.7,103.9 -55.5,107.4 -12.7,4.6 -34.7,1.1 -73,-5.8 -7.7,60.1 30.3,175 -56.4,194.2 -43.1,9.5 -93.6,14.1 -138.3,8.3 41.9,-77.5 12.2,-221.3 18.8,-231.5 24.8,-38.8 51.9,-74.9 51.3,-151.5 11.7,-7.2 19.6,-16.4 26.9,-28 10.9,-16.8 19.1,-36.4 26.9,-51.6 23.3,-45.2 45.5,-74 94.4,-96.7 92.4,-42.7 178.8,-22.3 247.2,49.7 8.3,8.8 16.8,31 26.3,55.6 -19.1,1.2 -73,4.6 -103.9,31.6z"/>
     <path class="fil1" d="M25938.1 8372l-385.9 0c6.6,-58.7 -3,-153.1 -19.6,-197.8 -2.4,-6.3 -19.1,-45.1 -30.2,-80.2 -28.2,-32.8 -47.2,-115.7 -65.4,-134.9 -68.4,-72 -154.8,-92.4 -247.2,-49.7 -52,24.1 -73.5,56.1 -94.4,96.7 -13.2,25.6 -27.2,63.7 -53.8,79.6 0.6,76.6 -26.5,112.7 -51.3,151.5 -6.6,10.2 23.1,154 -18.8,231.5 -21.9,-2.9 -117.8,64.3 -154.7,-17.9 -23.8,-52.8 -24.6,-72.4 -15.7,-152.9 11.9,-106.9 94,-101.7 114.3,-115.3 8.6,-5.9 -5.7,-5.1 -17.1,-39.1 -15.5,-46.1 99.3,-251.7 151.6,-260.2 1.9,-64.7 166.9,-128.5 211.3,-111.1 41.1,-37.8 181.6,-8.2 201.5,45.1 26.4,2.6 62.4,57.8 87.2,115.7 26,-17.4 57.3,-19.2 86.6,8.5 9.8,-23.2 73.3,-74.7 98.5,-28 26.5,11 77.5,-16.7 99.4,16.6 15.3,23.4 74.3,-2.2 122.7,1.9 42.1,3.5 78.3,55.1 87.8,85.7 17.5,55.8 -40.8,114.4 -30.2,127.4 20.9,25.9 -34.5,198.5 -76.6,226.9z"/>
     <path class="fil1" d="M25938.1 8372l-268.1 0c3.6,-35.2 6.5,-82.5 6.5,-116.1 -17.8,-3.5 -12.2,-20.6 8.4,-89.5 18.7,-62.1 51.6,-115 82.7,-158.2 5.3,-7.5 -21.5,-39.8 -26.9,-49.8 -6.8,-12.3 -32.4,-41.5 -46.9,-62.3 15.9,-4 31.4,-0.7 41.2,17.4 26.5,11 77.5,-16.7 99.4,16.6 15.3,23.4 74.3,-2.2 122.7,1.9 42.1,3.5 78.3,55.1 87.8,85.7 17.5,55.8 -40.8,114.4 -30.2,127.4 20.9,25.9 -34.5,198.5 -76.6,226.9z"/>
     <rect class="fil1" x="22589.6" y="10106.1" width="1759.8" height="166.2"/>
     <path class="fil1" d="M25575.9 8016.7c11.4,66.3 41.2,32.8 44.3,-7.9 1.9,-24.9 29.4,-74.7 36.4,-93.5 19.3,-11.9 52.7,-39 78.4,-1.8 -63.4,-118.3 -187.9,-160.3 -210.2,-158.1 -23.8,-20 -63.8,-14.1 -125.6,-14.2 -61.8,0 -88.7,7.5 -117.7,19.7 55,-18.5 163.8,10 181.2,56.4 39.6,3.9 101,127.5 113.2,199.4z"/>
     <polygon class="fil1" points="30213.8,9698.2 30622.3,9698.2 30603.3,7879.1 30261.3,7879.1 "/>
     <polygon class="fil1" points="30493.5,9698.2 30622.3,9698.2 30603.3,7879.1 30514.4,7879.1 "/>
     <polygon class="fil1" points="31995.7,9076 32417.6,9076 32383.3,7036 32301.8,6945.1 32232.3,6943.4 32153,6921.3 32020.6,7036 "/>
     <polygon class="fil1" points="32294,9076 32417.6,9076 32383.3,7036 32301.8,6945.1 32291.5,6944.9 "/>
     <path class="fil1" d="M30664 9790.8l-501.8 -2.3c0,-44.1 9.9,-65.2 49.7,-90.3l401.2 0c30,17.6 50.9,62.7 50.9,92.6z"/>
     <path class="fil1" d="M30664 9790.8l-145.5 -0.7c-1.3,-28.7 -2.3,-70.6 -25,-91.9 0.7,0.6 2.2,0.5 4,0l115.6 0c30,17.6 50.9,62.7 50.9,92.6z"/>
     <rect class="fil1" x="30077.1" y="9788.4" width="643.6" height="82.5"/>
     <path class="fil1" d="M30680.5 7584.7l-496.5 0c-13.8,25.5 0.7,53.5 19,66.4 -4,50.9 18.9,80.9 48.1,90.9 -11.4,36.4 -13.2,106.5 10.2,137.1l342 0c23.4,-30.6 21.5,-100.7 10.1,-137.1 29.2,-10 52.1,-40 48.1,-90.9 18.4,-12.9 32.9,-40.9 19,-66.4z"/>
     <path class="fil1" d="M30680.5 7584.7l-170.1 0 0 294.4 92.9 0c23.4,-30.6 21.5,-100.7 10.1,-137.1 29.2,-10 52.1,-40 48.1,-90.9 18.4,-12.9 32.9,-40.9 19,-66.4z"/>
     <path class="fil1" d="M32468.5 9166.3l-522.5 0c0,-44.1 9.9,-65.2 49.7,-90.3l421.9 0c30,17.6 50.9,60.3 50.9,90.3z"/>
     <path class="fil1" d="M32468.5 9166.3l-138.3 0c-1.8,-28.7 -3.8,-69.4 -36.2,-90.3 0.9,0.6 3.2,0.5 5.8,0l117.8 0c30,17.6 50.9,60.3 50.9,90.3z"/>
     <rect class="fil1" x="31924.7" y="9166.2" width="391.4" height="321.3"/>
     <rect class="fil1" x="32440.7" y="9487.5" width="149.8" height="92.9"/>
     <polygon class="fil1" points="26276.3,9971.3 26627.8,9971.3 26626,8491.8 26340.4,8491.8 "/>
     <polygon class="fil1" points="26525.9,9971.3 26627.8,9971.3 26626,8491.8 26542.9,8491.8 "/>
     <polygon class="fil1" points="25506.9,10037.8 25842.9,10037.8 25847,8604 25574,8604 "/>
     <polygon class="fil1" points="25752.3,10037.8 25842.9,10037.8 25847,8604 25768.8,8604 "/>
     <rect class="fil1" x="25473.3" y="8372" width="168.8" height="54.6"/>
     <path class="fil1" d="M25885.6 10130.4l-420.4 -2.4c0,-44 8.3,-65.1 41.7,-90.2l336 0c25.1,17.6 42.7,62.7 42.7,92.6z"/>
     <path class="fil1" d="M25885.6 10130.4l-108.3 -0.6c-1.3,-28.7 -2.3,-70.6 -25,-92 0.6,0.6 2.2,0.6 4,0l86.6 0c25.1,17.6 42.7,62.7 42.7,92.6z"/>
     <rect class="fil1" x="25394" y="10128" width="539.1" height="57"/>
     <path class="fil1" d="M26668.7 10063.9l-436.1 -2.4c0,-44 8.6,-65.1 43.2,-90.2l348.6 0c26.1,17.6 44.3,62.7 44.3,92.6z"/>
     <path class="fil1" d="M26668.7 10063.9l-117.8 -0.6c-1.3,-28.7 -2.3,-70.6 -25,-92 0.6,0.6 2.2,0.6 4,0l94.5 0c26.1,17.6 44.3,62.7 44.3,92.6z"/>
     <rect class="fil1" x="26158.7" y="10061.6" width="559.3" height="57"/>
     <path class="fil1" d="M25527.6 8426.6c-3.2,39.6 15,62.9 38.3,70.7 -9.1,28.4 -10.6,83 8.1,106.7l272.3 0c18.7,-23.7 17.2,-78.3 8.1,-106.7 23.3,-7.8 41.5,-31.1 38.3,-70.7l-365.1 0z"/>
     <path class="fil1" d="M25847 8604c16.7,-24.9 16.1,-79.3 7.4,-106.7 23.3,-7.8 41.5,-31.1 38.3,-70.7 -41.3,0 -82.6,0 -123.9,0l0 177.4 78.2 0z"/>
     <rect class="fil1" x="26239.8" y="8251.1" width="225.2" height="56.7"/>
     <path class="fil1" d="M26296.1 8307.7c-3.3,41.2 15.6,65.3 39.7,73.4 -9.4,29.4 -10.9,86 8.4,110.7l282.5 0c19.4,-24.7 17.8,-81.3 8.5,-110.7 24.1,-8.1 43,-32.2 39.7,-73.4l-378.8 0z"/>
     <path class="fil1" d="M26548.6 8491.8c25.8,0 52.5,0.7 78.1,-0.1 19.3,-30.1 19.1,-77.4 8.5,-110.6 24.1,-8.1 43,-32.2 39.7,-73.4 -42.1,0 -84.2,0 -126.3,0l0 184.1z"/>
     <rect class="fil1" x="25642.1" y="8372" width="323.3" height="54.6"/>
     <rect class="fil1" x="26465" y="8251.1" width="285.3" height="56.7"/>
     <rect class="fil1" transform="matrix(0.0570722 -0.00354329 -0 0.211724 24109.6 10210.5)" width="9800" height="350"/>
     <rect class="fil1" transform="matrix(0.2618 0.0230943 -0 0.269895 24668.9 10175.8)" width="562.5" height="274.6"/>
     <rect class="fil1" transform="matrix(0.192653 -0.0104587 -0 0.189986 24816.1 10188.8)" width="9800" height="350"/>
     <rect class="fil1" transform="matrix(0.387725 -0.02417 -0 0.20421 27867.8 10002.1)" width="9800" height="350"/>
     <rect class="fil1" transform="matrix(0.0869926 -0.00601757 -0 0.211724 26868 10046.3)" width="9800" height="350"/>
     <rect class="fil1" transform="matrix(0.2618 0.0230943 -0 0.269895 27720.5 9987.37)" width="562.5" height="274.6"/>
     <rect class="fil1" x="32316" y="9166.2" width="166.2" height="321.3"/>
     <rect class="fil1" x="31816.4" y="9487.5" width="624.4" height="92.9"/>
     <rect class="fil1" x="31634.3" y="9580.4" width="837.3" height="183.6"/>
    </g>
    <polygon class="fil1" points="24109.6,10272.4 24668.9,10249.9 24816.1,10255.3 27720.5,10061.5 27867.8,10074.5 31667.5,9836.7 31667.5,9912.7 27867.8,10150.4 27720.5,10137.5 24816.1,10331.3 24668.9,10325.9 24109.6,10360.6 "/>
   </g>
   <path class="fil2" d="M26516.7 14193.3c-7.1,-21.8 127.2,-832.5 -75.5,-1231.5 -248.6,-489.6 -843.7,-584.9 -854.9,-607.8 -277,-564 -949.4,-496.4 -1137,-283.6 -338.8,-1048.5 -1427.2,-694.3 -1560.6,-267.9 -142.6,-189.9 -553.8,-252.5 -771.9,-165.6 -177.5,-386.9 -1345.3,-450.5 -1523.4,651 -10.2,63.2 -1150.1,66.8 -657.5,1905.4 788.7,0 5638.8,0 6580.8,0z"/>
   <path class="fil3" d="M27951.7 15047.5c8.6,-75.3 -550.9,-2075.5 687.4,-2645 254.9,-1016.3 1398.9,-840.9 1743.2,-260.7 240.2,-789.6 883.6,-404.8 989.1,-132.3 99.4,-917.6 1774.2,-931.6 2104,-201.6 242.9,-310.5 1141.3,-371 1281.9,622.3 531.8,105.9 1152.9,837.4 676,2617.3 -960.6,0 -6334.3,0 -7481.6,0z"/>
  </g>
  <path class="fil4" d="M23965.8 13102.6c-258.3,-617.9 -1402.3,-1328.2 -2436.7,-195.9 -924.5,-419.4 -2263.6,-45.8 -2415.6,799.9 -126.9,-260.7 -347.5,-744.8 -844,-645.5 -99.3,-695.1 -695.1,-695.1 -1042.7,-546.1 -347.6,-347.6 -993,-446.9 -1291,248.2 -943.4,248.3 -893.7,943.4 -744.7,1439.9 -518.8,-160.7 -1241.4,-148.9 -1489.6,397.3 -297.9,-347.6 -695.2,-645.6 -1439.9,-298 -49.6,-2432.9 -2780.5,-2085.3 -3190.5,-988.7 -483.7,-302.2 -1278.2,-103.5 -1725.1,442.6 24.9,-273.1 0,-546.2 -347.5,-546.2 49,-661.9 -241,-2001.2 -2030.7,-1662.5 -810.2,-2086.2 -3166.5,-1456.6 -3647.5,-144.6 -593.9,-79 -1019.2,5.9 -1320.3,179.8l0 12356.6c177.5,-0.4 355.3,-0.2 533.4,1 -2.7,105.2 -4.2,186.6 -4.2,232.5 774,174.2 4108.9,24 4963.8,-64.6 200.9,-20.8 401.5,-40.1 601.7,-58.1 337.3,333.1 2572.4,-14 3186.8,13.2 3325.6,146.6 6669.1,255 9989,427.2 2525.4,131 5008.6,-24.5 7551.9,-8.4 -2.7,105.2 -4.2,186.7 -4.2,232.5 774,174.3 4108.9,24.1 4963.8,-64.5 2416.1,-250.4 4780.9,-282.6 7152.3,-491.1l0 -8880.9c-49.6,-2433 -3164.2,-2519.3 -3574.2,-1422.6 -483.7,-302.3 -1278.2,-103.6 -1725.1,442.5 343.7,-1154.1 -1783.8,-2085.8 -2532.8,-976.4 -1332.7,-1396.8 -2863.9,-1582 -4221,324.8 -357.8,-1378.3 -1827.5,-1544.7 -2915.4,-543.9z"/>
  <path class="fil5" d="M70000 11077.6c-2150.7,-266.1 -3755.9,-4744.3 -8438.9,-4612.4 -4581.4,129.1 -5569.7,7810.6 -11226.3,7527.8 -15701.6,-785.1 -20255.4,2632.5 -27152.2,2415 -9320.2,-294.1 -12314.2,-2023.4 -23182.6,-652.8l0 12308.8c1590.2,2741.3 6082.8,204.3 8652,2773.4 4167.1,4167.2 9674.2,3754.7 14825.3,1597.9 6610.9,-2768.1 11890.3,6988.6 20320.6,892 2797.7,-2023.1 6477,-2441 10160.4,-1276.4 8910.8,2817.5 12544.5,681.5 16041.7,-3619.9l0 -17353.4z"/>
  <g id="_2157368264672">
   <path class="fil6" d="M60538.2 0l-310.9 46.4 0 2292.4 853.9 640.4 32.4 190.2 547.6 348.1 0 3123 900.3 0 0 -3090.6 120.6 0 0 -1498.8 -389.8 -352.7 0 403.7 -914.2 -965.2 0 -366.6 -250.5 -306.3 -106.8 -37.1 -162.4 -198.2 -320.2 -228.7zm385.2 1995.4l-23.2 -176.3 241.3 129.9 0 -292.3 273.8 227.3 0 297 232 222.8 -283.1 -120.7 0 343.4 -232 -157.8 0 -245.9 -208.8 -227.4z"/>
   <polygon class="fil7" points="60538.2,0 60227.3,46.4 60227.3,2338.8 60858.4,2812.1 60858.4,228.7 "/>
   <polygon class="fil6" points="60858.4,2812.1 61081.2,2979.2 61081.2,2422.3 61132.2,2468.7 61132.2,2222.8 60923.4,1995.4 60900.2,1819.1 61141.5,1949 61141.5,1656.7 61415.3,1884 61415.3,2181 61647.3,2403.8 61703,2422.3 61703,2153.2 61614.8,2102.1 61614.8,1805.2 62011.1,1805.2 61378.1,1136.9 61378.1,770.3 61127.6,464 61020.8,426.9 60858.4,228.7 60858.4,1596.3 60598.4,1481.6 60607.8,1781.9 60858.4,1888.7 "/>
   <path class="fil7" d="M61967.5 1805.2l0 429.2 261.2 200.6 -6.3 265.1 -273.5 -154.8 0 436.2 133 111.3 -420.7 424.7 -547.6 -348.1 -32.4 -190.2 583.4 409.5 15.1 -570.6 -315.5 -191.6 0 -343.4 338.8 139.2c0,-89.7 0,-179.4 0,-269.1l-88.2 -51.1 0 -296.9 352.7 0z"/>
   <polygon class="fil7" points="62384,3268.1 62388.6,2996.6 62514.8,3103.6 62423.4,3268.1 62682.1,3268.1 62592.8,3468.8 62682.1,3467.7 62682.1,3549.9 62561.5,3549.9 62465.1,3727.5 62384,3539.6 "/>
   <rect class="fil6" x="62379.3" y="4133.6" width="182.2" height="2506.9"/>
   <polygon class="fil7" points="62425.7,6640.5 62379.3,6640.5 62379.3,3999 62561.5,4133.6 62425.7,4226.4 "/>
   <polygon class="fil6" points="62685.5,3262.4 62423.4,3268.1 62518.2,3097.8 62505.8,2302.9 62292.3,2102.1 62292.3,1698.4 62682.1,2051.1 "/>
   <polygon class="fil6" points="61132.2,2468.7 61081.2,2422.3 61081.2,2979.2 61664.6,3388.7 61679.7,2818.1 61364.2,2626.5 "/>
  </g>
  <path class="fil8" d="M64797.2 12168.9c137.5,0 441.3,1332.7 441.3,1912.1 0,579.4 -197.6,563.8 -441.3,563.8 -243.7,0 -441.2,31.9 -441.2,-563.8 0,-595.8 303.8,-1912.1 441.2,-1912.1z"/>
  <path class="fil9" d="M65613.1 12984.7c97.2,0 312,942.4 312,1352.1 0,409.7 -139.7,398.7 -312,398.7 -172.3,0 -312,22.6 -312,-398.7 0,-421.2 214.8,-1352.1 312,-1352.1z"/>
  <path class="fil10" d="M60899.2 13449.3c137.5,0 441.2,1332.7 441.2,1912.1 0,579.4 -197.5,563.9 -441.2,563.9 -243.7,0 -441.3,31.9 -441.3,-563.9 0,-595.7 303.8,-1912.1 441.3,-1912.1z"/>
  <path class="fil11" d="M60038 14548.5c97.2,0 312,942.4 312,1352.1 0,409.7 -139.7,398.7 -312,398.7 -172.3,0 -312,22.6 -312,-398.7 0,-421.3 214.8,-1352.1 312,-1352.1z"/>
  <path class="fil12" d="M59290.1 14049.9c97.2,0 312,942.4 312,1352.1 0,409.7 -139.7,398.7 -312,398.7 -172.3,0 -312,22.6 -312,-398.7 0,-421.2 214.8,-1352.1 312,-1352.1z"/>
  <path class="fil13" d="M70000 11174.3c-584.7,171.5 -1089.2,591.8 -1284.5,1124.6 -1875.2,-249.7 -2071.8,1133.9 -1973,1798.8 -346.6,25.6 -351.3,299.8 -306.4,570.3 -485.8,-511.7 -1292.7,-651.4 -1752.9,-314.5 -489.6,-1063.4 -3238.7,-1209.1 -3109.1,1220.9 -768.3,-291.8 -1142.6,34.5 -1414.1,403.1 -287.7,-526.4 -1009.2,-485 -1514.8,-286.5 112.1,-506.2 110.5,-1203.1 -848.7,-1381.3 -348.2,-671.2 -984.6,-524.7 -1305.7,-152.5 -357.5,-123 -951.8,-79.1 -999.6,621.4 -502.5,-62.5 -686.9,436.5 -794.3,705.9 -111.9,-371.8 -231.8,-850.3 -874,-1002.9l0 9606.4c131.4,161.6 255.4,323.8 374.6,486.1 2062.2,81.8 4125.2,163.9 6179.2,270.5 2525.3,130.9 5008.5,-24.5 7551.8,-8.4 -2.6,105.2 -4.2,186.6 -4.2,232.5 340.1,76.5 1174.5,90.5 2075.7,74.5l0 -13968.9z"/>
  <g id="_2157368277888">
   <rect class="fil7" transform="matrix(0.448833 0.12713 -0 0.460915 51845 11628.3)" width="3018.7" height="4738.3"/>
   <rect class="fil14" x="46010.7" y="9243.7" width="3282.7" height="1490.4"/>
   <rect class="fil7" x="45954.1" y="9055" width="3339.3" height="188.7"/>
   <polygon class="fil6" points="46039,9055 49293.4,9055 49293.4,8753.2 46114.4,8753.2 "/>
   <polygon class="fil15" points="52396.9,11313.4 50897,10734.1 50897,11422.7 52396.9,12002 "/>
   <polygon class="fil16" points="50180.1,9591.3 49293.4,9243.7 49293.4,10734.1 50180.1,11081.7 "/>
   <rect class="fil17" transform="matrix(-0.070083 -0.0275133 -0 0.251548 50223.7 9420.25)" width="13275" height="750"/>
   <polygon class="fil7" points="50123,9380.4 49293.4,9055 49293.4,8753.2 50047.6,9078.5 "/>
   <polygon class="fil7" points="48208.6,10734.1 48208.6,10385.1 49002.1,10228.2 49293.4,10586.7 49293.4,10734.1 "/>
   <polygon class="fil6" points="43567.5,10385.1 45888,9960.6 48208.6,10385.1 48208.6,10734.1 43567.5,10734.1 "/>
   <rect class="fil18" x="43388.3" y="10734.1" width="7508.7" height="688.6"/>
   <rect class="fil6" x="41228.1" y="11422.7" width="10716" height="1688.5"/>
   <rect class="fil7" x="41228.1" y="11715.1" width="10716" height="1188.6"/>
   <rect class="fil6" x="41114.9" y="11894.4" width="10829.2" height="301.9"/>
   <rect class="fil19" x="41643.2" y="11564.2" width="606.8" height="1471.6"/>
   <rect class="fil19" x="42846.2" y="11564.2" width="606.8" height="1471.6"/>
   <rect class="fil19" x="44049.3" y="11564.2" width="606.8" height="1471.6"/>
   <rect class="fil19" x="45252.3" y="11564.2" width="606.8" height="1471.6"/>
   <rect class="fil19" x="46455.4" y="11564.2" width="606.8" height="1471.6"/>
   <rect class="fil19" x="47658.4" y="11564.2" width="606.8" height="1471.6"/>
   <polygon class="fil7" points="51944.1,11422.7 52604.4,11682 52604.4,13111.2 51944.1,13111.2 "/>
   <polygon class="fil17" points="52604.4,11894.4 51944.1,11715.1 51944.1,12903.7 52604.4,12903.7 "/>
   <rect class="fil7" transform="matrix(-0.0179679 -0.00455084 -0 0.251548 52717.6 12090.3)" width="43050.1" height="1200"/>
   <rect class="fil7" x="41822.4" y="13111.2" width="10590.6" height="698"/>
   <rect class="fil6" x="41662" y="13111.2" width="160.4" height="698"/>
   <rect class="fil6" x="42827" y="13111.2" width="160.4" height="698"/>
   <rect class="fil6" x="44017.1" y="13111.2" width="160.4" height="698"/>
   <rect class="fil6" x="45219.8" y="13111.2" width="160.4" height="698"/>
   <rect class="fil6" x="46409.9" y="13111.2" width="160.4" height="698"/>
   <rect class="fil6" x="47612.6" y="13111.2" width="160.4" height="698"/>
   <rect class="fil6" x="48751" y="13111.2" width="160.4" height="698"/>
   <rect class="fil6" x="50147.1" y="13111.2" width="160.4" height="698"/>
   <rect class="fil6" x="51684.7" y="13111.2" width="160.4" height="698"/>
   <rect class="fil20" x="40756.4" y="13809.3" width="13173" height="1552.2"/>
  </g>
  <g id="_2157354661296">
   <rect class="fil6" x="5680.9" y="9940.3" width="6686.6" height="356.5"/>
   <rect class="fil6" x="5107.2" y="10543.1" width="7683.7" height="5455.1"/>
   <rect class="fil17" x="5984.1" y="9333.2" width="213.7" height="70.2"/>
   <rect class="fil17" x="5315.5" y="9263" width="668.6" height="70.2"/>
   <rect class="fil17" x="6197.8" y="9263" width="668.6" height="70.2"/>
   <rect class="fil17" x="6866.5" y="9333.2" width="1326.3" height="70.2"/>
   <rect class="fil17" x="8192.8" y="9263" width="158.9" height="70.2"/>
   <rect class="fil17" x="8351.7" y="9333.2" width="1403" height="70.2"/>
   <rect class="fil17" x="9754.7" y="9263" width="158.9" height="70.2"/>
   <rect class="fil17" x="9913.6" y="9333.2" width="1326.3" height="70.2"/>
   <rect class="fil17" x="11908.6" y="9333.2" width="213.7" height="70.2"/>
   <rect class="fil17" x="11239.9" y="9263" width="668.6" height="70.2"/>
   <rect class="fil17" x="12122.3" y="9263" width="668.6" height="70.2"/>
   <rect class="fil7" transform="matrix(0.00677873 -0.00181635 -0 0.26396 5072.47 9398.36)" width="35850" height="25250"/>
   <rect class="fil17" transform="matrix(0.249254 -0.0667874 -0 0.216045 5072.46 9328.16)" width="975" height="325"/>
   <polygon class="fil7" points="4091.4,10065.2 5072.5,9398.4 5072.5,15998.3 4091.4,15998.3 "/>
   <g>
    <rect class="fil7" x="4840.2" y="10251.4" width="232.3" height="367.3"/>
    <polygon class="fil17" points="4840.2,10618.6 3943.6,11126 3943.6,10845.1 4840.2,10251.4 "/>
   </g>
   <polygon class="fil17" points="4091.4,11128.8 5072.5,10618.6 4840.2,10618.6 3943.6,11126 "/>
   <rect class="fil17" transform="matrix(1.00619 -0.683837 -0 0.216045 4091.44 9994.89)" width="975" height="325"/>
   <g>
    <rect class="fil17" transform="matrix(-0.0247501 0.0116915 -0 0.314249 5072.47 10799.6)" width="5972.2" height="1375"/>
    <rect class="fil17" transform="matrix(-0.0247501 0.0116915 -0 0.314249 5072.47 11599)" width="5972.2" height="1375"/>
    <rect class="fil17" transform="matrix(-0.0247501 0.0116915 -0 0.314249 5072.47 12398.3)" width="5972.2" height="1375"/>
    <rect class="fil17" transform="matrix(-0.0247501 0.0116915 -0 0.314249 5072.47 13197.7)" width="5972.2" height="1375"/>
    <rect class="fil17" transform="matrix(-0.0247501 0.0116915 -0 0.314249 5072.47 13997.1)" width="5972.2" height="1375"/>
    <rect class="fil17" transform="matrix(-0.0159928 0.00755473 -0 0.314249 4728.51 10962.1)" width="5972.2" height="1375"/>
    <rect class="fil17" transform="matrix(-0.0159928 0.00755473 -0 0.314249 4728.51 11761.4)" width="5972.2" height="1375"/>
    <rect class="fil17" transform="matrix(-0.0159928 0.00755473 -0 0.314249 4728.51 12560.8)" width="5972.2" height="1375"/>
    <rect class="fil17" transform="matrix(-0.0159928 0.00755473 -0 0.314249 4728.51 13360.2)" width="5972.2" height="1375"/>
    <rect class="fil17" transform="matrix(-0.0159928 0.00755473 -0 0.314249 4728.51 14159.6)" width="5972.2" height="1375"/>
    <rect class="fil17" transform="matrix(-0.0114706 0.00541852 -0 0.314249 4480.05 11079.4)" width="5972.2" height="1375"/>
    <rect class="fil17" transform="matrix(-0.0114706 0.00541852 -0 0.314249 4480.05 11878.8)" width="5972.2" height="1375"/>
    <rect class="fil17" transform="matrix(-0.0114706 0.00541852 -0 0.314249 4480.05 12678.2)" width="5972.2" height="1375"/>
    <rect class="fil17" transform="matrix(-0.0114706 0.00541852 -0 0.314249 4480.05 13477.5)" width="5972.2" height="1375"/>
    <rect class="fil17" transform="matrix(-0.0114706 0.00541852 -0 0.314249 4480.05 14276.9)" width="5972.2" height="1375"/>
    <rect class="fil17" transform="matrix(-0.00604396 0.00285507 -0 0.314249 4280.21 11173.8)" width="5972.2" height="1375"/>
    <rect class="fil17" transform="matrix(-0.00604396 0.00285507 -0 0.314249 4280.21 11973.2)" width="5972.2" height="1375"/>
    <rect class="fil17" transform="matrix(-0.00604396 0.00285507 -0 0.314249 4280.21 12772.6)" width="5972.2" height="1375"/>
    <rect class="fil17" transform="matrix(-0.00604396 0.00285507 -0 0.314249 4280.21 13572)" width="5972.2" height="1375"/>
    <rect class="fil17" transform="matrix(-0.00604396 0.00285507 -0 0.314249 4280.21 14371.3)" width="5972.2" height="1375"/>
    <rect class="fil17" transform="matrix(-0.00265282 0.00125315 -0 0.314249 4143.82 11238.3)" width="5972.2" height="1375"/>
    <rect class="fil17" transform="matrix(-0.00265282 0.00125315 -0 0.314249 4143.82 12037.6)" width="5972.2" height="1375"/>
    <rect class="fil17" transform="matrix(-0.00265282 0.00125315 -0 0.314249 4143.82 12837)" width="5972.2" height="1375"/>
    <rect class="fil17" transform="matrix(-0.00265282 0.00125315 -0 0.314249 4143.82 13636.4)" width="5972.2" height="1375"/>
    <rect class="fil17" transform="matrix(-0.00265282 0.00125315 -0 0.314249 4143.82 14435.7)" width="5972.2" height="1375"/>
    <rect class="fil17" transform="matrix(-0.0247501 0.0116915 -0 0.314249 5072.47 14780.2)" width="5972.2" height="1375"/>
    <rect class="fil17" transform="matrix(-0.0159928 0.00755473 -0 0.314249 4728.51 14942.7)" width="5972.2" height="1375"/>
    <rect class="fil17" transform="matrix(-0.0114706 0.00541852 -0 0.314249 4480.05 15060.1)" width="5972.2" height="1375"/>
    <rect class="fil17" transform="matrix(-0.00604396 0.00285507 -0 0.314249 4280.21 15154.5)" width="5972.2" height="1375"/>
    <rect class="fil17" transform="matrix(-0.00265282 0.00125315 -0 0.314249 4143.82 15218.9)" width="5972.2" height="1375"/>
   </g>
   <rect class="fil17" x="12790.9" y="10251.4" width="232.3" height="367.3"/>
   <rect class="fil7" x="5107.2" y="10543.1" width="7683.7" height="110.1"/>
   <g>
    <rect class="fil17" x="12300.1" y="8507.6" width="36" height="903.3"/>
    <g>
     <rect class="fil19" transform="matrix(0.141978 -0.0142344 -0 0.118315 12360.3 8507.61)" width="4250" height="1300"/>
     <rect class="fil21" transform="matrix(0.141978 -0.0142344 -0 0.118315 12360.3 8661.42)" width="4250" height="1300"/>
     <rect class="fil22" transform="matrix(0.141978 -0.0142344 -0 0.118315 12360.3 8815.23)" width="4250" height="1300"/>
    </g>
   </g>
   <rect class="fil7" x="5296.9" y="15363" width="7328.7" height="635.2"/>
   <g>
    <g>
     <rect class="fil19" x="5296.9" y="11156.2" width="1290.3" height="297.1"/>
     <rect class="fil19" x="5296.9" y="11955.5" width="1290.3" height="297.1"/>
     <rect class="fil19" x="5296.9" y="12754.9" width="1290.3" height="297.1"/>
     <rect class="fil19" x="5296.9" y="13554.3" width="1290.3" height="297.1"/>
     <rect class="fil19" x="5296.9" y="14353.6" width="1290.3" height="297.1"/>
    </g>
    <g>
     <rect class="fil19" x="6722.8" y="11156.2" width="1322.7" height="297.1"/>
     <rect class="fil19" x="6722.8" y="11955.5" width="1322.7" height="297.1"/>
     <rect class="fil19" x="6722.8" y="12754.9" width="1322.7" height="297.1"/>
     <rect class="fil19" x="6722.8" y="13554.3" width="1322.7" height="297.1"/>
     <rect class="fil19" x="6722.8" y="14353.6" width="1322.7" height="297.1"/>
    </g>
    <g>
     <rect class="fil19" x="8181.1" y="11156.2" width="1376.7" height="297.1"/>
     <rect class="fil19" x="8181.1" y="11955.5" width="1376.7" height="297.1"/>
     <rect class="fil19" x="8181.1" y="12754.9" width="1376.7" height="297.1"/>
     <rect class="fil19" x="8181.1" y="13554.3" width="1376.7" height="297.1"/>
     <rect class="fil19" x="8181.1" y="14353.6" width="1376.7" height="297.1"/>
    </g>
    <g>
     <rect class="fil19" x="9693.4" y="11156.2" width="1398.3" height="297.1"/>
     <rect class="fil19" x="9693.4" y="11955.5" width="1398.3" height="297.1"/>
     <rect class="fil19" x="9693.4" y="12754.9" width="1398.3" height="297.1"/>
     <rect class="fil19" x="9693.4" y="13554.3" width="1398.3" height="297.1"/>
     <rect class="fil19" x="9693.4" y="14353.6" width="1398.3" height="297.1"/>
    </g>
    <g>
     <rect class="fil19" x="11227.3" y="11156.2" width="1398.3" height="297.1"/>
     <rect class="fil19" x="11227.3" y="11955.5" width="1398.3" height="297.1"/>
     <rect class="fil19" x="11227.3" y="12754.9" width="1398.3" height="297.1"/>
     <rect class="fil19" x="11227.3" y="13554.3" width="1398.3" height="297.1"/>
     <rect class="fil19" x="11227.3" y="14353.6" width="1398.3" height="297.1"/>
    </g>
    <g>
     <rect class="fil19" x="5296.9" y="14999" width="1290.3" height="364"/>
     <rect class="fil19" x="6722.8" y="14999" width="1322.7" height="364"/>
     <rect class="fil19" x="8181.1" y="14999" width="1376.7" height="364"/>
     <rect class="fil19" x="9693.4" y="14999" width="1398.3" height="364"/>
     <rect class="fil19" x="11227.3" y="14999" width="1398.3" height="364"/>
    </g>
   </g>
   <g>
    <polygon class="fil19" points="5315.5,9333.2 5984.1,9333.2 5984.1,9403.5 6197.8,9403.5 6197.8,9333.2 6866.5,9333.2 6866.5,9403.5 8192.8,9403.5 8192.8,9333.2 8351.7,9333.2 8351.7,9403.5 9754.7,9403.5 9754.7,9333.2 9913.7,9333.2 9913.7,9403.5 11239.9,9403.5 11239.9,9333.2 11908.6,9333.2 11908.6,9403.5 12122.3,9403.5 12122.3,9333.2 12790.9,9333.2 12790.9,10175.8 12122.3,10175.8 12122.3,10003 11908.6,10003 11908.6,10175.8 11239.9,10175.8 11239.9,10003 9913.7,10003 9913.7,10175.8 9754.7,10175.8 9754.7,10003 8351.7,10003 8351.7,10175.8 8192.8,10175.8 8192.8,10003 6866.5,10003 6866.5,10175.8 6197.8,10175.8 6197.8,10003 5984.1,10003 5984.1,10175.8 5315.5,10175.8 "/>
    <rect class="fil19" x="5107.2" y="10543.1" width="189.7" height="5455.1"/>
    <rect class="fil19" x="6587.1" y="10543.1" width="135.6" height="5455.1"/>
    <rect class="fil19" x="8045.5" y="10543.1" width="135.6" height="5455.1"/>
    <rect class="fil19" x="9557.8" y="10543.1" width="135.6" height="5455.1"/>
    <rect class="fil19" x="11091.7" y="10543.1" width="135.6" height="5455.1"/>
    <rect class="fil19" x="12625.6" y="10543.1" width="165.4" height="5455.1"/>
   </g>
   <rect class="fil17" x="5107.2" y="10175.8" width="7683.7" height="367.3"/>
   <g>
    <rect class="fil19" x="3822.5" y="15998.2" width="9822.1" height="230.2"/>
    <rect class="fil7" x="3665" y="16228.5" width="10806.6" height="230.2"/>
    <rect class="fil19" x="3472" y="16458.7" width="11826.6" height="230.2"/>
    <rect class="fil7" x="3251.5" y="16688.9" width="12938.4" height="230.2"/>
    <rect class="fil19" x="3043.8" y="16919.1" width="14068.9" height="230.2"/>
    <rect class="fil7" x="2837.1" y="17149.3" width="15182.9" height="230.2"/>
   </g>
  </g>
  <path class="fil23" d="M34071.7 16553.6c308.2,-240.1 1087.9,-1000.8 2050.9,-409 993,99.3 1092.3,695.1 1191.6,1142 127,-260.7 347.6,-744.8 844.1,-645.5 99.3,-695.1 695.1,-695.1 1042.7,-546.1 347.6,-347.6 993,-446.9 1290.9,248.2 943.4,248.3 893.7,943.4 744.8,1439.9 518.8,-160.7 1241.3,-148.9 1489.6,397.2 297.8,-347.5 695.1,-645.5 1439.9,-297.9 49.6,-2433 2780.5,-2085.3 3190.5,-988.7 483.7,-302.2 1278.2,-103.5 1725,442.5 -24.8,-273 0,-546.1 347.6,-546.1 -49.1,-661.9 241,-2001.2 2030.6,-1662.5 810.2,-2086.2 3166.6,-1456.6 3647.6,-144.6 1875.1,-249.6 2071.7,1134 1972.9,1798.9 346.6,25.6 351.3,299.7 306.4,570.2 485.8,-511.6 1292.8,-651.3 1752.9,-314.4 489.6,-1063.4 3238.7,-1209.1 3109.1,1220.9 768.3,-291.8 1142.6,34.5 1414.1,403.1 287.8,-526.4 1009.2,-485 1514.8,-286.6 -112,-506.1 -110.4,-1203 848.7,-1381.2 348.3,-671.3 984.6,-524.7 1305.7,-152.6 357.5,-122.9 951.8,-79 999.7,621.5 502.5,-62.5 686.8,436.5 794.2,705.8 111.9,-371.7 231.8,-850.2 874,-1002.9l0 9606.5c-131.4,161.6 -255.4,323.8 -374.6,486 -2062.2,81.9 -4125.2,164 -6179.1,270.6 -2525.4,130.9 -5008.6,-24.5 -7551.9,-8.4 2.6,105.2 4.2,186.6 4.2,232.5 -774,174.2 -4108.9,24 -4963.8,-64.6 -201,-20.8 -401.5,-40.1 -601.8,-58.1 -337.2,333.1 -2572.3,-14 -3186.8,13.2 -3325.6,146.6 -6669.1,255 -9988.9,427.2 -2525.4,131 -5008.6,-24.4 -7551.9,-8.4 2.6,105.2 4.2,186.7 4.2,232.5 -774,174.2 -4108.9,24.1 -4963.8,-64.5 -2922.6,-302.9 -5770.1,-286.5 -8645,-649.1 -2889,-364.3 -6767.7,-321.1 -9907.5,-567.5 -8.3,279.5 -65.2,535.6 -198.5,747.2 -239.5,380.1 -2579.1,13.4 -3210,41.2 -647.4,28.6 -1295.5,55.6 -1944,82 -287.2,-211.8 -537.6,-482.6 -740.8,-832.9l0 -9627.8c424.2,-294.1 900.1,-105.6 1124.1,97.1 1528,-923.9 2291.8,121.7 2687.8,871.8 87.8,-174 176.9,-331.8 266.8,-469 315.1,-481 1166.4,-2505 3042.9,-1172.6 308.1,-240.1 1034.6,-425.7 1450.2,405.4 993,99.3 1092.3,695.1 1191.6,1142 126.9,-260.7 347.5,-744.8 844.1,-645.5 99.3,-695.1 695.1,-695.1 1042.7,-546.2 347.6,-347.6 993,-446.9 1290.9,248.3 1071.1,-126.6 1419.2,569.6 1528,1222.3 696.2,-500.4 1719.9,-400.9 1968.2,145.3 297.8,-347.6 695.1,-645.5 1439.9,-297.9 49.6,-2433 2780.5,-2085.4 3190.5,-988.8 483.7,-302.2 1278.2,-103.5 1725,442.6 -343.6,-1154.1 1783.9,-2085.9 2532.9,-976.4 1871.1,-2045.1 5091,-1718.8 5821.1,943.1 357.8,-1378.2 1402.1,-1987.4 2925,-1291.2z"/>
  <path class="fil24" d="M70000 20396c-2150.7,-266.1 -4286.9,-572.3 -6534.1,-572.3 -4583.4,0 -9079.7,783.3 -13663.1,783.3 -4119.3,0 -8847.7,-957.3 -12966.9,-957.3 -4222.2,0 -9981,1260.3 -15577.7,935.5 -3785.8,-219.7 -7413.1,-935.5 -10269.1,-935.5 -5168.8,0 -6831.3,828.5 -10989.1,1067.5l0 7346.8c1590.2,2741.3 6082.8,204.3 8652,2773.4 4184.1,4184.2 9674.2,3754.7 14825.3,1597.9 6611,-2768.1 11987.1,6918.6 20320.7,892 2797.6,-2023.1 6476.9,-2441 10160.3,-1276.4 9054,2862.8 12544.5,681.5 16041.7,-3619.9l0 -8035z"/>
  <path class="fil25" d="M70000 25048.9c-2582.4,270.1 -5110.1,462.2 -7594,592 134.9,-71 244.8,-123 262.2,-140.1 540.7,-530.1 1135.7,-1669.6 763.1,-1756.6 -344.6,-80.5 -589.4,879.2 -906.9,1503.8 -334.8,658.7 -380.8,60.2 -380.8,-200.3 0,-364.1 488.8,-2154 0,-2154 -735.1,0 -71.7,1659.7 -344.4,2777.8l-103.9 5c-226.9,-356.4 -688.5,-617.8 -481.6,-1781.3 50.9,-286.2 -421.3,-704.9 -445.2,-254.3 -59.1,1117.1 379.8,1552.2 607.8,2050.5 -221.2,10.1 -442,19.6 -662.5,28.7 -9.2,-93.2 -24.6,-198 -49.7,-300.6 -258.2,-1052.5 -451.6,-1388.9 -588.4,-1392.2 -162.8,-4 245.1,1082.9 286.6,1208.5 35.6,107.5 132.5,622.5 -1,219.2 -11.7,3.8 -399.3,-758.6 -619.1,-617 -223.1,143.6 350.1,648.4 438.7,739.2 0.5,0.4 75.4,109.3 117.7,159.6 -4969.1,193.1 -9772.2,149.3 -14499.3,-4.7 141.7,-318.4 419.2,-980.1 159.8,-1058.8 -263.4,-80 -415.9,791.9 -464.2,1049.1l-85.2 -2.8c-9.3,-92.1 -15.7,-180.4 -15.7,-224.9 0,-189.8 55.6,-1854.2 -131.2,-1775.3 -151.1,63.7 -244.6,570.9 -158.6,1989.4 -3300.9,-115 -6566.6,-280.9 -9828.2,-454.2 7.1,-27.2 12.3,-47.9 12.4,-48.1 38.7,-93.8 308.3,-636.2 128.7,-690.8 -177,-53.7 -266.6,642 -275.2,642 0,39.1 -0.6,68.5 -1.7,89.7l-21.4 -1.2c-12.6,-73.1 -25.7,-211.1 -25.7,-259.4 0,-108.9 31.8,-1063.2 -75.3,-1018 -90,37.9 -144.2,350.6 -84.6,1239.5 0.6,9.2 1.3,18.8 2.1,28.2l-828.1 -44.3c26.6,-13.9 44.7,-24.1 50.1,-29.4 390.2,-382.5 819.6,-1205 550.8,-1267.8 -248.7,-58 -425.4,634.6 -654.6,1085.4 -58,114.2 -104.1,176 -140.5,201.4l-73.2 -3.9c-50.8,-57.2 -61.1,-237.4 -61.1,-342 0,-262.9 352.8,-1554.7 0,-1554.7 -504.1,0 -97,1081.4 -223.9,1881.5l-201.8 -10.8c-166.8,-209.5 -367.6,-460.8 -245.5,-1147.9 36.7,-206.5 -304.1,-508.7 -321.2,-183.5 -36.2,685.9 187.6,1015.6 356.5,1320.1l-812.4 -43.4c4,-30.5 7.4,-61.6 9.8,-92.4 85.4,-1080.4 7.8,-1460.5 -121,-1506.6 -153.3,-55 -107.7,1105 -107.7,1237.3 0,67 -24.5,275.9 -44.4,347.7l-20.5 -1.1c-3.1,-24.8 -5,-69 -5,-138.9 -12.3,0 -140.6,-845.5 -393.9,-780.2 -256.9,66.3 128.7,725.5 184.3,839.6 0.1,0.2 9.1,30.9 21,69.2 -3145.8,-167.1 -6297.8,-327.1 -9483.3,-441.1 15.2,-47.9 27.8,-91 27.9,-91.3 55.6,-114 441.3,-773.3 184.3,-839.6 -253.3,-65.3 -381.5,780.3 -393.8,780.3 0,74.9 -2.2,120.4 -5.8,144l-18.8 -0.7c-20.1,-68.3 -45.4,-282.9 -45.4,-351.1 0,-132.3 45.7,-1292.2 -107.6,-1237.3 -128.9,46.2 -206.5,426.2 -121.1,1506.6 1.9,24.2 4.4,48.5 7.3,72.6 -200.8,-6.9 -401.6,-13.7 -602.7,-20.2 122.3,-252.5 222.1,-568.6 196.3,-1056.9 -18,-341 -375.3,-24.1 -336.8,192.5 72.4,407.4 36.5,668.7 -40,858.6 -152,-4.8 -304.1,-9.5 -456.2,-14.1 -4.1,-767.2 246.1,-1602.4 -207.6,-1602.4 -356.7,0 -25.7,1259 -1.5,1596.2 -126.1,-3.6 -252.3,-7.4 -378.5,-10.9 -198.3,-453 -367.9,-994.6 -594.5,-941.7 -206.5,48.2 -20.2,523.8 255.1,932.5 -2696,-72.2 -5421.1,-104.3 -8191.9,-73.2 214,-381.1 441.7,-834 398.1,-1658.8 -23.8,-450.6 -496,-31.8 -445.1,254.4 135.8,764.2 -16.7,1139.3 -201.7,1407.7 -147,1.8 -293.9,3.6 -441.2,5.8 -92.9,-1081.7 371.9,-2415 -287.1,-2415 -488.7,0 0,1789.8 0,2154 0,73.7 -3.6,174.4 -16.5,266.1 -108.7,1.8 -217.4,3.6 -326.3,5.7 -12.2,-22.1 -24.9,-45.9 -37.9,-71.6 -317.5,-624.6 -562.3,-1584.2 -906.9,-1503.8 -335.5,78.4 113.6,1010.4 601.2,1582.1 -3218.2,66 -6501.4,222 -9875,503.8l0 3059c1590.2,2741.3 6057.2,230.2 8652,2773.4 4417,4329 9674.2,3754.7 14825.3,1597.9 6611,-2768.1 11805.8,7049.7 20320.7,892 2797.6,-2023.1 6476.9,-2441 10160.3,-1276.4 9338.7,2952.8 12544.5,681.5 16041.7,-3619.9l0 -3382.1z"/>
 </g>
</svg>
