<?xml version="1.0" encoding="UTF-8"?>
<!DOCTYPE svg PUBLIC "-//W3C//DTD SVG 1.1//EN" "http://www.w3.org/Graphics/SVG/1.1/DTD/svg11.dtd">
<!-- Creator: CorelDRAW 2018 (64-Bit) -->
<svg xmlns="http://www.w3.org/2000/svg" xml:space="preserve" width="604px" height="340px" version="1.1" style="shape-rendering:geometricPrecision; text-rendering:geometricPrecision; image-rendering:optimizeQuality; fill-rule:evenodd; clip-rule:evenodd"
viewBox="0 0 60400 34000"
 xmlns:xlink="http://www.w3.org/1999/xlink">
 <defs>
  <style type="text/css">
   <![CDATA[
    .fil25 {fill:#BDF0DD}
    .fil18 {fill:#C6D5E0}
    .fil15 {fill:#DCECF2}
    .fil7 {fill:#E1E8EA}
    .fil1 {fill:#EBF6FA}
    .fil6 {fill:#EBF6FA}
    .fil22 {fill:#F0FFF9}
    .fil23 {fill:#FFEBD4}
    .fil20 {fill:white}
    .fil14 {fill:url(#id0)}
    .fil0 {fill:url(#id1)}
    .fil3 {fill:url(#id2)}
    .fil16 {fill:url(#id3)}
    .fil10 {fill:url(#id4)}
    .fil11 {fill:url(#id5)}
    .fil2 {fill:url(#id6)}
    .fil9 {fill:url(#id7)}
    .fil8 {fill:url(#id8)}
    .fil12 {fill:url(#id9)}
    .fil24 {fill:url(#id10)}
    .fil19 {fill:url(#id11)}
    .fil26 {fill:url(#id12)}
    .fil5 {fill:url(#id13)}
    .fil13 {fill:url(#id14)}
    .fil4 {fill:url(#id15)}
    .fil21 {fill:url(#id16)}
    .fil17 {fill:url(#id17)}
   ]]>
  </style>
  <linearGradient id="id0" gradientUnits="userSpaceOnUse" x1="40593.2" y1="8857.9" x2="40593.4" y2="11866.9">
   <stop offset="0" style="stop-opacity:1; stop-color:#EBF6FA"/>
   <stop offset="1" style="stop-opacity:1; stop-color:#FEFEFE"/>
  </linearGradient>
  <linearGradient id="id1" gradientUnits="userSpaceOnUse" xlink:href="#id0" x1="26738.2" y1="10294.8" x2="26738.3" y2="12313.2">
  </linearGradient>
  <linearGradient id="id2" gradientUnits="userSpaceOnUse" xlink:href="#id0" x1="31591.4" y1="11485" x2="31591.8" y2="15185.2">
  </linearGradient>
  <linearGradient id="id3" gradientUnits="userSpaceOnUse" x1="45393.2" y1="11413.1" x2="45393.3" y2="12463.8">
   <stop offset="0" style="stop-opacity:1; stop-color:#E1E8EA"/>
   <stop offset="1" style="stop-opacity:1; stop-color:#FEFEFE"/>
  </linearGradient>
  <linearGradient id="id4" gradientUnits="userSpaceOnUse" x1="51392.2" y1="11493.6" x2="51239.8" y2="16441">
   <stop offset="0" style="stop-opacity:1; stop-color:#AFD1C1"/>
   <stop offset="1" style="stop-opacity:1; stop-color:#F0FFF9"/>
  </linearGradient>
  <linearGradient id="id5" gradientUnits="userSpaceOnUse" xlink:href="#id4" x1="50506" y1="13198.8" x2="50398.2" y2="16697.2">
  </linearGradient>
  <linearGradient id="id6" gradientUnits="userSpaceOnUse" xlink:href="#id0" x1="22721.6" y1="11798.9" x2="22721.3" y2="14199.9">
  </linearGradient>
  <linearGradient id="id7" gradientUnits="userSpaceOnUse" xlink:href="#id4" x1="56081.1" y1="11635" x2="55973.3" y2="15133.4">
  </linearGradient>
  <linearGradient id="id8" gradientUnits="userSpaceOnUse" xlink:href="#id4" x1="55290.3" y1="10213.2" x2="55137.8" y2="15160.5">
  </linearGradient>
  <linearGradient id="id9" gradientUnits="userSpaceOnUse" xlink:href="#id4" x1="49758.1" y1="12700.2" x2="49650.3" y2="16198.7">
  </linearGradient>
  <linearGradient id="id10" gradientUnits="userSpaceOnUse" x1="23330.7" y1="14871.9" x2="23815" y2="23966.7">
   <stop offset="0" style="stop-opacity:1; stop-color:#BDF0DD"/>
   <stop offset="1" style="stop-opacity:1; stop-color:#F0FFF9"/>
  </linearGradient>
  <linearGradient id="id11" gradientUnits="userSpaceOnUse" xlink:href="#id0" x1="41142.5" y1="11246" x2="41142.6" y2="12702.7">
  </linearGradient>
  <linearGradient id="id12" gradientUnits="userSpaceOnUse" x1="27947.8" y1="34077.2" x2="28052.2" y2="23322.9">
   <stop offset="0" style="stop-opacity:1; stop-color:#A9D4F2"/>
   <stop offset="0.568627" style="stop-opacity:1; stop-color:#C9F0E1"/>
   <stop offset="1" style="stop-opacity:1; stop-color:#F0FFF9"/>
  </linearGradient>
  <linearGradient id="id13" gradientUnits="userSpaceOnUse" x1="25061.5" y1="17013.2" x2="24672.7" y2="13275.8">
   <stop offset="0" style="stop-opacity:1; stop-color:#F0FFF9"/>
   <stop offset="1" style="stop-opacity:1; stop-color:#EBF6FA"/>
  </linearGradient>
  <linearGradient id="id14" gradientUnits="userSpaceOnUse" xlink:href="#id4" x1="54884.1" y1="6622.2" x2="54761.2" y2="18358.5">
  </linearGradient>
  <linearGradient id="id15" gradientUnits="userSpaceOnUse" x1="20450" y1="9678.2" x2="19969.9" y2="17382">
   <stop offset="0" style="stop-opacity:1; stop-color:#CBF2E3"/>
   <stop offset="1" style="stop-opacity:1; stop-color:white"/>
  </linearGradient>
  <linearGradient id="id16" gradientUnits="userSpaceOnUse" x1="40163.4" y1="15162.3" x2="40163.4" y2="16738.4">
   <stop offset="0" style="stop-opacity:1; stop-color:#EBF6FA"/>
   <stop offset="1" style="stop-opacity:1; stop-color:#F0FFF9"/>
  </linearGradient>
  <linearGradient id="id17" gradientUnits="userSpaceOnUse" xlink:href="#id3" x1="43341.7" y1="9387.2" x2="43341.8" y2="12893.7">
  </linearGradient>
 </defs>
 <g id="Layer_x0020_1">
  <metadata id="CorelCorpID_0Corel-Layer"/>
  <g id="_2122148033888">
   <g>
    <polygon class="fil0" points="22105.1,10385.9 23636.7,10385.9 24196,10363.4 24343.3,10368.7 27247.7,10175 27394.9,10187.9 31194.6,9950.2 31194.6,14097.8 22105.1,14097.8 "/>
    <rect class="fil1" x="31194.6" y="9878.7" width="975" height="2251.4"/>
    <rect class="fil1" x="24196" y="10368.4" width="147.3" height="1761.7"/>
    <rect class="fil1" x="22105.1" y="10385.8" width="1531.5" height="1744.3"/>
    <rect class="fil1" x="27247.6" y="10187.3" width="147.3" height="1942.8"/>
    <g>
     <polygon class="fil1" points="28582,9890 28957.2,9890 28959.9,8175.1 28795.9,8140.6 28645.8,8284.3 "/>
     <polygon class="fil1" points="28857,9890 28957.2,9890 28959.9,8175.1 28876.9,8157.6 "/>
     <polygon class="fil1" points="26629.9,9996 26967.1,9996 26977.6,9128.2 26815.3,9067.2 26647.8,9109.3 "/>
     <polygon class="fil1" points="26868.3,9996 26967.1,9996 26977.6,9128.2 26878.7,9091.1 "/>
     <polygon class="fil1" points="23577,9961.3 23793.6,9961.3 23771.8,8644.9 23591.3,8644.9 "/>
     <polygon class="fil1" points="23705.3,9961.3 23793.6,9961.3 23771.8,8644.9 23728.9,8644.9 "/>
     <polygon class="fil1" points="22744.6,9947 22961.3,9947 22974.9,8644.9 22792.2,8644.9 "/>
     <polygon class="fil1" points="22883.3,9947 22961.3,9947 22974.9,8644.9 22906.6,8644.9 "/>
     <rect class="fil1" x="22889.4" y="8249.1" width="1056.9" height="232.7"/>
     <polygon class="fil1" points="23922.6,8073.3 23321.7,8054.3 23362.1,8249.1 23922.6,8249.1 "/>
     <rect class="fil1" x="22650.8" y="10024.2" width="356.2" height="197.1"/>
     <rect class="fil1" x="23504.9" y="10024.2" width="328.5" height="197.1"/>
     <path class="fil1" d="M27012.5 10088.7l-425.7 -2.4c0,-44 8.4,-65.1 42.2,-90.3l340.3 0c25.5,17.6 43.2,62.7 43.2,92.7z"/>
     <path class="fil1" d="M27012.5 10088.7l-119.2 -0.7c-1.3,-28.7 -2.3,-70.6 -25,-92 0.7,0.6 2.2,0.6 4,0l97 0c25.5,17.6 43.2,62.7 43.2,92.7z"/>
     <rect class="fil1" x="26514.6" y="10086.3" width="546" height="76.2"/>
     <path class="fil1" d="M28996.6 9982.7l-459.2 -2.4c0,-44 9.1,-65.1 45.5,-90.3l367.1 0c27.5,17.6 46.6,62.8 46.6,92.7z"/>
     <path class="fil1" d="M28996.6 9982.7l-114.6 -0.6c-1.3,-28.7 -2.3,-70.7 -25,-92.1 0.6,0.7 2.2,0.6 4,0l89 0c27.5,17.6 46.6,62.8 46.6,92.7z"/>
     <rect class="fil1" x="28459.6" y="9980.3" width="588.9" height="80.1"/>
     <rect class="fil1" x="31998.7" y="9693.9" width="172.2" height="183.6"/>
     <path class="fil1" d="M30872.7 6700.4c23.7,1.7 133.5,24.1 157.4,33.5 120.5,47.5 186.1,114.5 273.3,199.5 33.1,32.3 186,84.8 211.1,127.8 11.7,20.2 59.1,36.6 33.2,88.3 -1.3,103.3 13.5,259.4 -3.2,262 -48.8,7.8 -249.3,36.8 -279.5,39.2 -56,4.5 -48.7,6.3 -65.3,-30.5 -3.4,-253.8 -105.2,-584.8 -327,-719.8z"/>
     <path class="fil1" d="M31159.4 7004.5c52.2,108.9 96.2,236 95.1,447.1 83.8,-3.6 137.8,-18.1 201.1,-27 14.3,-50.7 -9.6,-47.1 37.6,-115.8 69.4,-100.9 -9.7,-72.7 9.9,-91.4 44.4,-42.3 -12.7,-56 5.9,-80.5 46.4,-61.4 -18.2,-119.8 -73.8,-104.5 -18.8,5.1 -105.7,11.4 -102.5,-9.3 15.4,-98.2 -45.8,-54.8 -139.5,-47.3 -4.3,0.3 -33.9,28.5 -33.8,28.7z"/>
     <path class="fil1" d="M30020.9 7769.4c126,-43.6 161.8,-121.6 182.6,-275.1 44.2,-71.1 73.4,-111.8 96.3,-198.3 18.8,-71.2 65.6,-137.5 113.5,-195.7 96.8,-117.4 51.8,-71.4 183.3,-135.6 58.9,-28.7 173.5,-35.9 241.2,-22 42,8.7 54.7,7.2 3,-52 -182.9,-209.3 -572.7,-141.5 -752.8,57.4 -220.1,242.9 -322.1,859.1 -67.1,821.3z"/>
     <path class="fil1" d="M29777.2 7698.1l152 0c0,-118.3 23.1,-339.9 107.3,-505.5 120.7,-237.3 309.7,-345.7 510.4,-342.3 333.2,5.6 479.5,345.2 479.5,638.6 62.4,-9.3 173,-17.3 173.4,-42.7 3.3,-256.7 -97.7,-606.2 -327.1,-745.8 -202,-123 -493.4,-88.9 -683.6,16.8l-31.9 -31c-62.1,13.2 -498.2,109.8 -510.6,129.5 -12,19.1 -30.8,132 40.4,126 -37.1,40 -93.9,105.4 26.1,176.7 -29.3,20.7 -91,44.3 -97.4,122.3 -10.7,133 100.5,101.1 108.1,213.8 7.9,117.4 53.4,123.2 53.4,243.6z"/>
     <path class="fil1" d="M22988.3 10026.6l-275.5 -2c0,-37.9 5.5,-56 27.4,-77.6l220.2 0c16.5,15.1 27.9,53.9 27.9,79.6z"/>
     <path class="fil1" d="M23812.6 10026.6l-262.6 -1.7c0,-31 5.2,-45.9 26,-63.6l210 0c15.7,12.4 26.6,44.2 26.6,65.3z"/>
     <rect class="fil1" x="22724.7" y="8481.8" width="330.1" height="44.1"/>
     <path class="fil1" d="M22761 8525.9c-2.1,26.6 10.1,42.2 25.7,47.4 -6,19 -7,55.7 5.5,71.6l182.7 0c12.5,-15.9 11.5,-52.6 5.4,-71.6 15.6,-5.2 27.8,-20.8 25.7,-47.4l-245 0z"/>
     <rect class="fil1" x="23508" y="8481.8" width="330.1" height="44.1"/>
     <path class="fil1" d="M23556.9 8525.9c-1.4,26.6 11.2,42.2 27,47.4 -5.6,19 -5.6,55.7 7.4,71.6l182.7 0c12.1,-15.9 10.1,-52.6 3.5,-71.6 15.4,-5.2 27.2,-20.8 24.4,-47.4l-245 0z"/>
     <path class="fil1" d="M24886.5 8159.8c0.2,0.4 -31.9,62.1 -64.7,118.3 -27.4,46.9 -45.7,103.9 -55.5,107.4 -12.7,4.6 -34.7,1 -72.9,-5.8 -7.8,60 30.2,175 -56.5,194.1 -43.1,9.6 -93.6,14.2 -138.3,8.4 41.9,-77.5 12.3,-221.3 18.8,-231.6 24.8,-38.8 51.9,-74.8 51.3,-151.4 11.7,-7.3 19.6,-16.4 26.9,-28 10.9,-16.8 19.1,-36.4 26.9,-51.6 23.3,-45.2 45.5,-74 94.4,-96.7 92.4,-42.7 178.8,-22.3 247.2,49.7 8.4,8.8 16.9,31 26.4,55.6 -19.2,1.1 -73.1,4.6 -104,31.6z"/>
     <path class="fil1" d="M25465.2 8485.5l-385.9 0c6.6,-58.7 -3,-153.1 -19.6,-197.8 -2.3,-6.4 -19.1,-45.1 -30.2,-80.2 -28.2,-32.8 -47.2,-115.7 -65.4,-134.9 -68.4,-72 -154.8,-92.4 -247.2,-49.7 -52,24.1 -73.5,56 -94.4,96.7 -13.2,25.5 -27.2,63.6 -53.8,79.6 0.6,76.6 -26.5,112.6 -51.3,151.4 -6.5,10.3 23.1,154.1 -18.8,231.6 -21.8,-2.9 -117.8,64.3 -154.7,-17.9 -23.8,-52.8 -24.6,-72.4 -15.7,-152.9 11.9,-107 94.1,-101.7 114.3,-115.3 8.6,-5.9 -5.7,-5.2 -17.1,-39.1 -15.5,-46.1 99.4,-251.7 151.6,-260.2 1.9,-64.7 167,-128.6 211.3,-111.1 41.1,-37.8 181.6,-8.2 201.5,45.1 26.4,2.6 62.5,57.8 87.2,115.6 26,-17.3 57.3,-19.2 86.6,8.5 9.8,-23.1 73.3,-74.7 98.6,-27.9 26.4,10.9 77.5,-16.7 99.3,16.6 15.3,23.4 74.3,-2.2 122.7,1.8 42.1,3.6 78.3,55.2 87.8,85.7 17.5,55.8 -40.8,114.5 -30.2,127.5 20.9,25.8 -34.5,198.5 -76.6,226.9z"/>
     <path class="fil1" d="M25465.2 8485.5l-268 0c3.5,-35.3 6.4,-82.6 6.4,-116.1 -17.8,-3.5 -12.2,-20.6 8.4,-89.5 18.7,-62.2 51.7,-115.1 82.7,-158.2 5.4,-7.5 -21.5,-39.9 -26.9,-49.8 -6.8,-12.3 -32.4,-41.5 -46.9,-62.3 15.9,-4.1 31.4,-0.7 41.3,17.4 26.4,10.9 77.5,-16.7 99.3,16.6 15.3,23.4 74.3,-2.2 122.7,1.8 42.1,3.6 78.3,55.2 87.8,85.7 17.5,55.8 -40.8,114.5 -30.2,127.5 20.9,25.8 -34.5,198.5 -76.6,226.9z"/>
     <rect class="fil1" x="22116.7" y="10219.6" width="1759.8" height="166.2"/>
     <path class="fil1" d="M25103 8130.2c11.4,66.3 41.2,32.8 44.3,-7.9 1.9,-24.9 29.4,-74.7 36.5,-93.5 19.2,-11.9 52.6,-39 78.4,-1.8 -63.5,-118.3 -188,-160.4 -210.3,-158.2 -23.7,-19.9 -63.8,-14 -125.6,-14.1 -61.8,0 -88.7,7.5 -117.7,19.6 55,-18.4 163.9,10 181.2,56.5 39.6,3.9 101,127.5 113.2,199.4z"/>
     <polygon class="fil1" points="29740.9,9811.7 30149.4,9811.7 30130.4,7992.5 29788.4,7992.5 "/>
     <polygon class="fil1" points="30020.6,9811.7 30149.4,9811.7 30130.4,7992.5 30041.5,7992.5 "/>
     <polygon class="fil1" points="31522.8,9189.5 31944.7,9189.5 31910.4,7149.5 31828.9,7058.6 31759.4,7056.9 31680.1,7034.8 31547.7,7149.5 "/>
     <polygon class="fil1" points="31821.1,9189.5 31944.7,9189.5 31910.4,7149.5 31828.9,7058.6 31818.6,7058.3 "/>
     <path class="fil1" d="M30191.1 9904.3l-501.8 -2.4c0,-44 9.9,-65.1 49.7,-90.2l401.2 0c30,17.6 50.9,62.7 50.9,92.6z"/>
     <path class="fil1" d="M30191.1 9904.3l-145.5 -0.7c-1.3,-28.7 -2.3,-70.5 -25,-91.9 0.7,0.6 2.2,0.5 4,0l115.6 0c30,17.6 50.9,62.7 50.9,92.6z"/>
     <rect class="fil1" x="29604.2" y="9901.9" width="643.6" height="82.5"/>
     <path class="fil1" d="M30207.7 7698.1l-496.6 0c-13.8,25.6 0.7,53.6 19,66.5 -4,50.9 18.9,80.8 48.1,90.9 -11.4,36.4 -13.2,106.5 10.2,137l342 0c23.4,-30.5 21.5,-100.6 10.2,-137 29.2,-10.1 52.1,-40 48.1,-90.9 18.3,-12.9 32.8,-40.9 19,-66.5z"/>
     <path class="fil1" d="M30207.7 7698.1l-170.2 0 0 294.4 92.9 0c23.4,-30.5 21.5,-100.6 10.2,-137 29.2,-10.1 52.1,-40 48.1,-90.9 18.3,-12.9 32.8,-40.9 19,-66.5z"/>
     <path class="fil1" d="M31995.6 9279.7l-522.5 0c0,-44 9.9,-65.1 49.7,-90.2l421.9 0c30,17.6 50.9,60.3 50.9,90.2z"/>
     <path class="fil1" d="M31995.6 9279.7l-138.2 0c-1.9,-28.6 -3.9,-69.3 -36.3,-90.2 0.9,0.6 3.2,0.5 5.8,0l117.8 0c30,17.6 50.9,60.3 50.9,90.2z"/>
     <rect class="fil1" x="31451.8" y="9279.7" width="391.4" height="321.3"/>
     <rect class="fil1" x="31967.8" y="9601" width="149.8" height="92.9"/>
     <polygon class="fil1" points="25803.4,10084.8 26154.9,10084.8 26153.1,8605.3 25867.6,8605.3 "/>
     <polygon class="fil1" points="26053,10084.8 26154.9,10084.8 26153.1,8605.3 26070,8605.3 "/>
     <polygon class="fil1" points="25034,10151.3 25370,10151.3 25374.1,8717.5 25101.1,8717.5 "/>
     <polygon class="fil1" points="25279.4,10151.3 25370,10151.3 25374.1,8717.5 25295.9,8717.5 "/>
     <rect class="fil1" x="25000.5" y="8485.5" width="168.8" height="54.6"/>
     <path class="fil1" d="M25412.7 10243.9l-420.4 -2.4c0,-44 8.3,-65.1 41.7,-90.2l336 0c25.1,17.5 42.7,62.7 42.7,92.6z"/>
     <path class="fil1" d="M25412.7 10243.9l-108.3 -0.6c-1.3,-28.7 -2.3,-70.7 -25,-92 0.6,0.6 2.2,0.5 4,0l86.6 0c25.1,17.5 42.7,62.7 42.7,92.6z"/>
     <rect class="fil1" x="24921.1" y="10241.5" width="539.1" height="57"/>
     <path class="fil1" d="M26195.8 10177.4l-436.1 -2.4c0,-44 8.6,-65.1 43.2,-90.2l348.6 0c26.1,17.5 44.3,62.7 44.3,92.6z"/>
     <path class="fil1" d="M26195.8 10177.4l-117.8 -0.6c-1.3,-28.8 -2.3,-70.7 -25,-92 0.6,0.6 2.2,0.5 4,0l94.5 0c26.1,17.5 44.3,62.7 44.3,92.6z"/>
     <rect class="fil1" x="25685.8" y="10175" width="559.3" height="57"/>
     <path class="fil1" d="M25054.7 8540.1c-3.2,39.6 15,62.9 38.3,70.7 -9.1,28.4 -10.6,83 8.1,106.7l272.3 0c18.7,-23.7 17.2,-78.3 8.1,-106.7 23.3,-7.8 41.5,-31.1 38.3,-70.7l-365.1 0z"/>
     <path class="fil1" d="M25374.1 8717.5c16.7,-24.9 16.2,-79.3 7.4,-106.7 23.3,-7.8 41.5,-31.1 38.3,-70.7 -41.3,0 -82.6,0 -123.9,0l0 177.4 78.2 0z"/>
     <rect class="fil1" x="25766.9" y="8364.5" width="225.2" height="56.7"/>
     <path class="fil1" d="M25823.2 8421.2c-3.3,41.1 15.6,65.3 39.7,73.4 -9.4,29.4 -10.9,86 8.4,110.7l282.6 0c19.3,-24.7 17.8,-81.3 8.4,-110.7 24.1,-8.1 43,-32.3 39.7,-73.4l-378.8 0z"/>
     <path class="fil1" d="M26075.8 8605.3c25.7,0 52.4,0.7 78.1,-0.2 19.2,-30.1 19,-77.3 8.4,-110.5 24.1,-8.1 43,-32.3 39.7,-73.4 -42.1,0 -84.1,0 -126.2,0l0 184.1z"/>
     <rect class="fil1" x="25169.2" y="8485.5" width="323.3" height="54.6"/>
     <rect class="fil1" x="25992.1" y="8364.5" width="285.3" height="56.7"/>
     <rect class="fil1" transform="matrix(0.0570722 -0.00354329 -0 0.211724 23636.7 10324)" width="9800" height="350"/>
     <rect class="fil1" transform="matrix(0.2618 0.0230943 -0 0.269895 24196 10289.3)" width="562.5" height="274.6"/>
     <rect class="fil1" transform="matrix(0.192653 -0.0104587 -0 0.189986 24343.3 10302.3)" width="9800" height="350"/>
     <rect class="fil1" transform="matrix(0.387725 -0.02417 -0 0.20421 27394.9 10115.6)" width="9800" height="350"/>
     <rect class="fil1" transform="matrix(0.0869926 -0.00601757 -0 0.211724 26395.1 10159.8)" width="9800" height="350"/>
     <rect class="fil1" transform="matrix(0.2618 0.0230943 -0 0.269895 27247.6 10100.8)" width="562.5" height="274.6"/>
     <rect class="fil1" x="31843.1" y="9279.7" width="166.2" height="321.3"/>
     <rect class="fil1" x="31343.5" y="9601" width="624.4" height="92.9"/>
     <rect class="fil1" x="31161.4" y="9693.9" width="837.3" height="183.6"/>
    </g>
    <polygon class="fil1" points="23636.7,10385.8 24196,10363.4 24343.2,10368.7 27247.7,10174.9 27394.9,10188 31194.6,9950.2 31194.6,10026.2 27394.9,10263.9 27247.7,10250.9 24343.2,10444.7 24196,10439.4 23636.7,10474.1 "/>
   </g>
   <path class="fil2" d="M26043.8 14306.8c-7.1,-21.8 127.2,-832.5 -75.4,-1231.6 -248.7,-489.6 -843.8,-584.9 -855,-607.8 -277,-563.9 -949.4,-496.3 -1137,-283.5 -338.8,-1048.5 -1427.1,-694.3 -1560.6,-267.9 -142.6,-190 -553.7,-252.4 -771.9,-165.6 -177.5,-386.9 -1345.3,-450.5 -1523.3,650.9 -10.2,63.2 -1150.2,66.9 -657.6,1905.5 788.7,0 5638.8,0 6580.8,0z"/>
   <path class="fil3" d="M27478.8 15160.9c8.6,-75.2 -550.9,-2075.4 687.5,-2644.9 254.8,-1016.3 1398.9,-840.9 1743.1,-260.7 240.2,-789.6 883.6,-404.9 989.1,-132.3 99.4,-917.7 1774.2,-931.6 2104,-201.7 242.9,-310.4 1141.3,-370.9 1281.9,622.4 531.9,105.9 1152.9,837.4 676,2617.2 -960.6,0 -6334.3,0 -7481.6,0z"/>
  </g>
  <path class="fil4" d="M22156.7 13532.7c-238.9,-571.4 -1296.9,-1228.3 -2253.5,-181.1 -855,-387.9 -2093.4,-42.4 -2234,739.7 -117.4,-241 -321.4,-688.7 -780.6,-596.9 -91.9,-642.9 -642.9,-642.9 -964.3,-505.1 -321.5,-321.5 -918.4,-413.3 -1193.9,229.6 -872.5,229.6 -826.6,872.4 -688.8,1331.7 -479.8,-148.7 -1148,-137.8 -1377.6,367.3 -275.5,-321.4 -642.9,-597 -1331.7,-275.5 -45.9,-2250.1 -2571.5,-1928.6 -2950.7,-914.4 -447.3,-279.5 -1182.1,-95.8 -1595.3,409.3 23,-252.6 0,-505.2 -321.4,-505.2 45.3,-612 -222.9,-1850.7 -1878,-1537.4 -749.4,-1929.5 -2928.5,-1347.2 -3373.4,-133.8 -549.2,-73.1 -942.6,5.4 -1221,166.2l0 11427.8c164.1,-0.4 328.5,-0.1 493.2,0.9 -2.4,97.3 -3.8,172.6 -3.8,215 715.8,161.2 3800,22.3 4590.6,-59.6 185.9,-19.3 371.3,-37.2 556.5,-53.8 311.9,308 2379,-12.9 2947.3,12.2 3075.6,135.5 6167.8,235.8 9238,395.1 2335.6,121.1 4632.1,-22.6 6984.2,-7.8 -2.4,97.3 -3.9,172.7 -3.9,215.1 715.8,161.1 3800.1,22.2 4590.7,-59.7 2234.5,-231.6 4421.6,-261.3 6614.7,-454.2l0 -8213.3c-45.9,-2250.1 -2926.4,-2329.9 -3305.6,-1315.7 -447.3,-279.5 -1182.1,-95.7 -1595.3,409.3 317.8,-1067.4 -1649.8,-1929.1 -2342.5,-903 -1232.5,-1291.9 -2648.5,-1463.1 -3903.7,300.3 -330.8,-1274.6 -1690.1,-1428.6 -2696.2,-503z"/>
  <path class="fil5" d="M60407.5 11191c-2150.7,-266 -3755.9,-4744.2 -8438.8,-4612.3 -4581.5,129 -5569.8,7810.6 -11226.4,7527.8 -15701.6,-785.1 -20255.4,2632.5 -27152.2,2414.9 -5855.7,-184.7 -9214.5,-935.8 -13597.6,-1128.9l0 11157.5 60415 0 0 -15359z"/>
  <g id="_2122148027584">
   <path class="fil6" d="M50945.8 113.5l-311 46.3 0 2292.5 853.9 640.3 32.5 190.3 547.5 348 0 3123.1 900.3 0 0 -3090.6 120.6 0 0 -1498.8 -389.8 -352.7 0 403.7 -914.1 -965.2 0 -366.6 -250.6 -306.3 -106.7 -37.1 -162.5 -198.3 -320.1 -228.6zm385.1 1995.4l-23.2 -176.4 241.3 130 0 -292.4 273.8 227.4 0 297 232 222.7 -283.1 -120.6 0 343.4 -232 -157.8 0 -245.9 -208.8 -227.4z"/>
   <polygon class="fil7" points="50945.8,113.5 50634.8,159.8 50634.8,2452.3 51265.9,2925.6 51265.9,342.1 "/>
   <polygon class="fil6" points="51265.9,2925.6 51488.7,3092.6 51488.7,2535.8 51539.7,2582.2 51539.7,2336.3 51330.9,2108.9 51307.7,1932.5 51549,2062.5 51549,1770.1 51822.8,1997.5 51822.8,2294.5 52054.8,2517.2 52110.5,2535.8 52110.5,2266.7 52022.3,2215.6 52022.3,1918.7 52418.6,1918.7 51785.7,1250.4 51785.7,883.8 51535.1,577.5 51428.4,540.4 51265.9,342.1 51265.9,1709.8 51005.9,1595.1 51015.4,1895.4 51265.9,2002.1 "/>
   <path class="fil7" d="M52375 1918.7l0 429.2 261.2 200.6 -6.3 265.1 -273.4 -154.8 0 436.2 132.9 111.2 -420.7 424.7 -547.5 -348 -32.5 -190.3 583.4 409.6 15.2 -570.7 -315.6 -191.5 0 -343.4 338.8 139.2c0,-89.7 0,-179.4 0,-269.1l-88.2 -51.1 0 -296.9 352.7 0z"/>
   <polygon class="fil7" points="52791.5,3381.6 52796.1,3110.1 52922.3,3217 52830.9,3381.6 53089.6,3381.6 53000.3,3582.3 53089.6,3581.1 53089.6,3663.4 52969,3663.4 52872.7,3841 52791.5,3653.1 "/>
   <rect class="fil6" x="52786.8" y="4247.1" width="182.2" height="2506.9"/>
   <polygon class="fil7" points="52833.2,6754 52786.8,6754 52786.8,4112.5 52969,4247.1 52833.2,4339.9 "/>
   <polygon class="fil6" points="53093.1,3375.8 52830.9,3381.6 52925.7,3211.3 52913.3,2416.4 52699.8,2215.6 52699.8,1811.9 53089.6,2164.6 "/>
   <polygon class="fil6" points="51539.7,2582.2 51488.7,2535.8 51488.7,3092.6 52072.1,3502.2 52087.3,2931.5 51771.7,2740 "/>
  </g>
  <path class="fil8" d="M55204.8 12282.3c137.4,0 441.2,1332.7 441.2,1912.1 0,579.4 -197.5,563.9 -441.2,563.9 -243.7,0 -441.3,31.9 -441.3,-563.9 0,-595.7 303.8,-1912.1 441.3,-1912.1z"/>
  <path class="fil9" d="M56020.7 13098.2c97.2,0 312,942.4 312,1352.1 0,409.7 -139.7,398.7 -312,398.7 -172.4,0 -312.1,22.6 -312.1,-398.7 0,-421.3 214.8,-1352.1 312.1,-1352.1z"/>
  <path class="fil10" d="M51306.7 13562.8c137.5,0 441.3,1332.7 441.3,1912.1 0,579.4 -197.6,563.9 -441.3,563.9 -243.7,0 -441.2,31.9 -441.2,-563.9 0,-595.7 303.8,-1912.1 441.2,-1912.1z"/>
  <path class="fil11" d="M50445.5 14661.9c97.2,0 312.1,942.5 312.1,1352.2 0,409.7 -139.7,398.7 -312.1,398.7 -172.3,0 -312,22.5 -312,-398.7 0,-421.3 214.8,-1352.2 312,-1352.2z"/>
  <path class="fil12" d="M49697.6 14163.4c97.2,0 312.1,942.4 312.1,1352.1 0,409.7 -139.7,398.7 -312.1,398.7 -172.3,0 -312,22.6 -312,-398.7 0,-421.3 214.8,-1352.1 312,-1352.1z"/>
  <path class="fil13" d="M60407.5 11287.7c-584.6,171.6 -1089.2,591.9 -1284.5,1124.7 -1875.1,-249.7 -2071.8,1133.9 -1973,1798.8 -346.5,25.6 -351.2,299.7 -306.3,570.3 -485.8,-511.7 -1292.8,-651.4 -1752.9,-314.5 -489.7,-1063.4 -3238.7,-1209.1 -3109.2,1220.9 -768.3,-291.8 -1142.6,34.5 -1414.1,403.1 -287.7,-526.4 -1009.1,-485 -1514.7,-286.6 112,-506.1 110.4,-1203 -848.7,-1381.2 -348.3,-671.2 -984.6,-524.7 -1305.7,-152.5 -357.6,-123 -951.8,-79.1 -999.7,621.4 -502.5,-62.5 -686.9,436.5 -794.3,705.8 -111.9,-371.7 -231.7,-850.2 -873.9,-1002.9l0 9606.5c131.3,161.6 255.4,323.8 374.5,486 2062.3,81.9 4125.2,164 6179.2,270.6 2525.4,130.9 5008.6,-24.5 7551.9,-8.4 -2.7,105.2 -4.2,186.6 -4.2,232.5 340,76.5 1174.4,90.4 2075.6,74.5l0 -13969z"/>
  <g id="_2157121098592">
   <rect class="fil7" transform="matrix(0.538865 0.152631 -0 0.55337 45681.1 12349.5)" width="3018.7" height="4738.3"/>
   <rect class="fil14" x="38676.4" y="9486.6" width="3941.2" height="1789.4"/>
   <rect class="fil7" x="38608.4" y="9260.1" width="4009.2" height="226.5"/>
   <polygon class="fil15" points="38710.4,9260.1 42617.6,9260.1 42617.6,8897.6 38800.9,8897.6 "/>
   <polygon class="fil16" points="46343.6,11971.5 44542.9,11275.9 44542.9,12102.7 46343.6,12798.2 "/>
   <polygon class="fil17" points="43682.2,9903.9 42617.6,9486.6 42617.6,11275.9 43682.2,11693.3 "/>
   <rect class="fil18" transform="matrix(-0.0841411 -0.0330322 -0 0.302007 43734.6 9698.57)" width="13275" height="750"/>
   <polygon class="fil7" points="43613.6,9650.7 42617.6,9260.1 42617.6,8897.6 43523.1,9288.3 "/>
   <polygon class="fil7" points="41315.2,11275.9 41315.2,10856.9 42267.9,10668.6 42617.6,11099 42617.6,11275.9 "/>
   <polygon class="fil15" points="35743.1,10856.9 38529.2,10347.3 41315.2,10856.9 41315.2,11275.9 35743.1,11275.9 "/>
   <rect class="fil19" x="35527.9" y="11276" width="9014.9" height="826.7"/>
   <rect class="fil6" x="32934.4" y="12102.7" width="12865.5" height="2027.2"/>
   <rect class="fil7" x="32934.4" y="12453.8" width="12865.5" height="1427"/>
   <rect class="fil6" x="32798.5" y="12669" width="13001.4" height="362.4"/>
   <rect class="fil20" x="33432.8" y="12272.6" width="728.5" height="1766.7"/>
   <rect class="fil20" x="34877.1" y="12272.6" width="728.5" height="1766.7"/>
   <rect class="fil20" x="36321.5" y="12272.6" width="728.5" height="1766.7"/>
   <rect class="fil20" x="37765.9" y="12272.6" width="728.5" height="1766.7"/>
   <rect class="fil20" x="39210.3" y="12272.6" width="728.5" height="1766.7"/>
   <rect class="fil20" x="40654.6" y="12272.6" width="728.5" height="1766.7"/>
   <polygon class="fil7" points="45800,12102.7 46592.7,12414.1 46592.7,14129.9 45800,14129.9 "/>
   <polygon class="fil18" points="46592.7,12669 45800,12453.8 45800,13880.8 46592.7,13880.8 "/>
   <rect class="fil7" transform="matrix(-0.0215721 -0.0054637 -0 0.302007 46728.7 12904.2)" width="43050.1" height="1200"/>
   <rect class="fil7" x="33647.9" y="14129.9" width="12715" height="838.1"/>
   <rect class="fil6" x="33455.4" y="14129.9" width="192.5" height="838.1"/>
   <rect class="fil6" x="34854.1" y="14129.9" width="192.5" height="838.1"/>
   <rect class="fil6" x="36282.9" y="14129.9" width="192.5" height="838.1"/>
   <rect class="fil6" x="37726.8" y="14129.9" width="192.5" height="838.1"/>
   <rect class="fil6" x="39155.7" y="14129.9" width="192.5" height="838.1"/>
   <rect class="fil6" x="40599.6" y="14129.9" width="192.5" height="838.1"/>
   <rect class="fil6" x="41966.4" y="14129.9" width="192.5" height="838.1"/>
   <rect class="fil6" x="43642.5" y="14129.9" width="192.5" height="838.1"/>
   <rect class="fil6" x="45488.5" y="14129.9" width="192.5" height="838.1"/>
   <rect class="fil21" x="32368.2" y="14968" width="15815.4" height="1863.6"/>
  </g>
  <g id="_2157368855600">
   <rect class="fil6" x="5975" y="8670.4" width="7633.5" height="407"/>
   <rect class="fil15" x="5320.2" y="9358.6" width="8771.8" height="6227.6"/>
   <rect class="fil18" x="6321.2" y="7977.4" width="244" height="80.1"/>
   <rect class="fil18" x="5557.9" y="7897.2" width="763.3" height="80.1"/>
   <rect class="fil18" x="6565.2" y="7897.2" width="763.3" height="80.1"/>
   <rect class="fil18" x="7328.5" y="7977.4" width="1514.1" height="80.1"/>
   <rect class="fil18" x="8842.6" y="7897.2" width="181.4" height="80.1"/>
   <rect class="fil18" x="9024.1" y="7977.4" width="1601.7" height="80.1"/>
   <rect class="fil18" x="10625.8" y="7897.2" width="181.4" height="80.1"/>
   <rect class="fil18" x="10807.2" y="7977.4" width="1514.1" height="80.1"/>
   <rect class="fil18" x="13084.6" y="7977.4" width="244" height="80.1"/>
   <rect class="fil18" x="12321.3" y="7897.2" width="763.3" height="80.1"/>
   <rect class="fil18" x="13328.6" y="7897.2" width="763.3" height="80.1"/>
   <rect class="fil7" transform="matrix(0.00773864 -0.00207356 -0 0.301339 5280.48 8051.72)" width="35850" height="25250"/>
   <rect class="fil18" transform="matrix(0.28455 -0.0762449 -0 0.246639 5280.48 7971.57)" width="975" height="325"/>
   <polygon class="fil7" points="4160.6,8813 5280.5,8051.7 5280.5,15586.2 4160.6,15586.2 "/>
   <g>
    <rect class="fil7" x="5015.3" y="9025.5" width="265.2" height="419.3"/>
    <polygon class="fil18" points="5015.3,9444.8 3991.8,10024 3991.8,9703.3 5015.3,9025.5 "/>
   </g>
   <polygon class="fil18" points="4160.6,10027.2 5280.5,9444.8 5015.3,9444.8 3991.8,10024 "/>
   <rect class="fil18" transform="matrix(1.14868 -0.780672 -0 0.246639 4160.53 8732.72)" width="975" height="325"/>
   <g>
    <rect class="fil18" transform="matrix(-0.0282548 0.0133471 -0 0.358749 5280.48 9651.36)" width="5972.2" height="1375"/>
    <rect class="fil18" transform="matrix(-0.0282548 0.0133471 -0 0.358749 5280.48 10563.9)" width="5972.2" height="1375"/>
    <rect class="fil18" transform="matrix(-0.0282548 0.0133471 -0 0.358749 5280.48 11476.5)" width="5972.2" height="1375"/>
    <rect class="fil18" transform="matrix(-0.0282548 0.0133471 -0 0.358749 5280.48 12389.1)" width="5972.2" height="1375"/>
    <rect class="fil18" transform="matrix(-0.0282548 0.0133471 -0 0.358749 5280.48 13301.6)" width="5972.2" height="1375"/>
    <rect class="fil18" transform="matrix(-0.0182575 0.00862453 -0 0.358749 4887.81 9836.85)" width="5972.2" height="1375"/>
    <rect class="fil18" transform="matrix(-0.0182575 0.00862453 -0 0.358749 4887.81 10749.4)" width="5972.2" height="1375"/>
    <rect class="fil18" transform="matrix(-0.0182575 0.00862453 -0 0.358749 4887.81 11662)" width="5972.2" height="1375"/>
    <rect class="fil18" transform="matrix(-0.0182575 0.00862453 -0 0.358749 4887.81 12574.6)" width="5972.2" height="1375"/>
    <rect class="fil18" transform="matrix(-0.0182575 0.00862453 -0 0.358749 4887.81 13487.1)" width="5972.2" height="1375"/>
    <rect class="fil18" transform="matrix(-0.0130949 0.00618582 -0 0.358749 4604.17 9970.84)" width="5972.2" height="1375"/>
    <rect class="fil18" transform="matrix(-0.0130949 0.00618582 -0 0.358749 4604.17 10883.4)" width="5972.2" height="1375"/>
    <rect class="fil18" transform="matrix(-0.0130949 0.00618582 -0 0.358749 4604.17 11796)" width="5972.2" height="1375"/>
    <rect class="fil18" transform="matrix(-0.0130949 0.00618582 -0 0.358749 4604.17 12708.5)" width="5972.2" height="1375"/>
    <rect class="fil18" transform="matrix(-0.0130949 0.00618582 -0 0.358749 4604.17 13621.1)" width="5972.2" height="1375"/>
    <rect class="fil18" transform="matrix(-0.00689982 0.00325936 -0 0.358749 4376.03 10078.6)" width="5972.2" height="1375"/>
    <rect class="fil18" transform="matrix(-0.00689982 0.00325936 -0 0.358749 4376.03 10991.2)" width="5972.2" height="1375"/>
    <rect class="fil18" transform="matrix(-0.00689982 0.00325936 -0 0.358749 4376.03 11903.7)" width="5972.2" height="1375"/>
    <rect class="fil18" transform="matrix(-0.00689982 0.00325936 -0 0.358749 4376.03 12816.3)" width="5972.2" height="1375"/>
    <rect class="fil18" transform="matrix(-0.00689982 0.00325936 -0 0.358749 4376.03 13728.9)" width="5972.2" height="1375"/>
    <rect class="fil18" transform="matrix(-0.00302848 0.0014306 -0 0.358749 4220.33 10152.2)" width="5972.2" height="1375"/>
    <rect class="fil18" transform="matrix(-0.00302848 0.0014306 -0 0.358749 4220.33 11064.7)" width="5972.2" height="1375"/>
    <rect class="fil18" transform="matrix(-0.00302848 0.0014306 -0 0.358749 4220.33 11977.3)" width="5972.2" height="1375"/>
    <rect class="fil18" transform="matrix(-0.00302848 0.0014306 -0 0.358749 4220.33 12889.9)" width="5972.2" height="1375"/>
    <rect class="fil18" transform="matrix(-0.00302848 0.0014306 -0 0.358749 4220.33 13802.4)" width="5972.2" height="1375"/>
    <rect class="fil18" transform="matrix(-0.0282548 0.0133471 -0 0.358749 5280.48 14195.7)" width="5972.2" height="1375"/>
    <rect class="fil18" transform="matrix(-0.0182575 0.00862453 -0 0.358749 4887.81 14381.2)" width="5972.2" height="1375"/>
    <rect class="fil18" transform="matrix(-0.0130949 0.00618582 -0 0.358749 4604.17 14515.2)" width="5972.2" height="1375"/>
    <rect class="fil18" transform="matrix(-0.00689982 0.00325936 -0 0.358749 4376.03 14622.9)" width="5972.2" height="1375"/>
    <rect class="fil18" transform="matrix(-0.00302848 0.0014306 -0 0.358749 4220.33 14696.5)" width="5972.2" height="1375"/>
   </g>
   <rect class="fil18" x="14091.9" y="9025.5" width="265.2" height="419.3"/>
   <rect class="fil7" x="5320.2" y="9358.6" width="8771.8" height="125.7"/>
   <g>
    <rect class="fil18" x="13531.6" y="7034.8" width="41.1" height="1031.2"/>
    <g>
     <rect class="fil20" transform="matrix(0.162083 -0.0162501 -0 0.13507 13600.3 7034.82)" width="4250" height="1300"/>
     <rect class="fil22" transform="matrix(0.162083 -0.0162501 -0 0.13507 13600.3 7210.41)" width="4250" height="1300"/>
     <rect class="fil23" transform="matrix(0.162083 -0.0162501 -0 0.13507 13600.3 7386)" width="4250" height="1300"/>
    </g>
   </g>
   <rect class="fil7" x="5536.7" y="14861" width="8366.5" height="725.2"/>
   <g>
    <g>
     <rect class="fil20" x="5536.7" y="10058.4" width="1473" height="339.1"/>
     <rect class="fil20" x="5536.7" y="10971" width="1473" height="339.1"/>
     <rect class="fil20" x="5536.7" y="11883.5" width="1473" height="339.1"/>
     <rect class="fil20" x="5536.7" y="12796.1" width="1473" height="339.1"/>
     <rect class="fil20" x="5536.7" y="13708.7" width="1473" height="339.1"/>
    </g>
    <g>
     <rect class="fil20" x="7164.5" y="10058.4" width="1510" height="339.1"/>
     <rect class="fil20" x="7164.5" y="10971" width="1510" height="339.1"/>
     <rect class="fil20" x="7164.5" y="11883.5" width="1510" height="339.1"/>
     <rect class="fil20" x="7164.5" y="12796.1" width="1510" height="339.1"/>
     <rect class="fil20" x="7164.5" y="13708.7" width="1510" height="339.1"/>
    </g>
    <g>
     <rect class="fil20" x="8829.3" y="10058.4" width="1571.6" height="339.1"/>
     <rect class="fil20" x="8829.3" y="10971" width="1571.6" height="339.1"/>
     <rect class="fil20" x="8829.3" y="11883.5" width="1571.6" height="339.1"/>
     <rect class="fil20" x="8829.3" y="12796.1" width="1571.6" height="339.1"/>
     <rect class="fil20" x="8829.3" y="13708.7" width="1571.6" height="339.1"/>
    </g>
    <g>
     <rect class="fil20" x="10555.8" y="10058.4" width="1596.3" height="339.1"/>
     <rect class="fil20" x="10555.8" y="10971" width="1596.3" height="339.1"/>
     <rect class="fil20" x="10555.8" y="11883.5" width="1596.3" height="339.1"/>
     <rect class="fil20" x="10555.8" y="12796.1" width="1596.3" height="339.1"/>
     <rect class="fil20" x="10555.8" y="13708.7" width="1596.3" height="339.1"/>
    </g>
    <g>
     <rect class="fil20" x="12306.9" y="10058.4" width="1596.3" height="339.1"/>
     <rect class="fil20" x="12306.9" y="10971" width="1596.3" height="339.1"/>
     <rect class="fil20" x="12306.9" y="11883.5" width="1596.3" height="339.1"/>
     <rect class="fil20" x="12306.9" y="12796.1" width="1596.3" height="339.1"/>
     <rect class="fil20" x="12306.9" y="13708.7" width="1596.3" height="339.1"/>
    </g>
    <g>
     <rect class="fil20" x="5536.7" y="14445.5" width="1473" height="415.5"/>
     <rect class="fil20" x="7164.5" y="14445.5" width="1510" height="415.5"/>
     <rect class="fil20" x="8829.3" y="14445.5" width="1571.6" height="415.5"/>
     <rect class="fil20" x="10555.8" y="14445.5" width="1596.3" height="415.5"/>
     <rect class="fil20" x="12306.9" y="14445.5" width="1596.3" height="415.5"/>
    </g>
   </g>
   <g>
    <polygon class="fil20" points="5557.9,7977.4 6321.2,7977.4 6321.2,8057.5 6565.2,8057.5 6565.2,7977.4 7328.5,7977.4 7328.5,8057.5 8842.6,8057.5 8842.6,7977.4 9024.1,7977.4 9024.1,8057.5 10625.8,8057.5 10625.8,7977.4 10807.2,7977.4 10807.2,8057.5 12321.3,8057.5 12321.3,7977.4 13084.6,7977.4 13084.6,8057.5 13328.6,8057.5 13328.6,7977.4 14091.9,7977.4 14091.9,8939.3 13328.6,8939.3 13328.6,8742 13084.6,8742 13084.6,8939.3 12321.3,8939.3 12321.3,8742 10807.2,8742 10807.2,8939.3 10625.8,8939.3 10625.8,8742 9024.1,8742 9024.1,8939.3 8842.6,8939.3 8842.6,8742 7328.5,8742 7328.5,8939.3 6565.2,8939.3 6565.2,8742 6321.2,8742 6321.2,8939.3 5557.9,8939.3 "/>
    <rect class="fil20" x="5320.2" y="9358.6" width="216.5" height="6227.6"/>
    <rect class="fil20" x="7009.6" y="9358.6" width="154.8" height="6227.6"/>
    <rect class="fil20" x="8674.5" y="9358.6" width="154.8" height="6227.6"/>
    <rect class="fil20" x="10400.9" y="9358.6" width="154.8" height="6227.6"/>
    <rect class="fil20" x="12152" y="9358.6" width="154.8" height="6227.6"/>
    <rect class="fil20" x="13903.2" y="9358.6" width="188.8" height="6227.6"/>
   </g>
   <rect class="fil18" x="5320.2" y="8939.3" width="8771.8" height="419.3"/>
   <g>
    <rect class="fil20" x="3853.5" y="15586.2" width="11213" height="262.8"/>
    <rect class="fil7" x="3673.7" y="15849" width="12336.8" height="262.8"/>
    <rect class="fil20" x="3453.4" y="16111.8" width="13501.3" height="262.8"/>
    <rect class="fil7" x="3201.7" y="16374.6" width="14770.5" height="262.8"/>
    <rect class="fil20" x="2964.5" y="16637.4" width="16061.1" height="262.8"/>
    <rect class="fil7" x="2728.6" y="16900.2" width="17332.9" height="262.8"/>
   </g>
  </g>
  <path class="fil24" d="M24479.3 17430.9c308.1,-240 1087.8,-1000.7 2050.8,-408.9 993,99.3 1092.3,695.1 1191.7,1142 126.9,-260.7 347.5,-744.8 844,-645.5 99.3,-695.1 695.1,-695.1 1042.7,-546.2 347.6,-347.6 993,-446.9 1290.9,248.3 943.4,248.2 893.8,943.4 744.8,1439.9 518.8,-160.7 1241.3,-149 1489.6,397.2 297.8,-347.6 695.1,-645.5 1439.9,-297.9 49.6,-2433 2780.5,-2085.4 3190.5,-988.7 483.7,-302.3 1278.2,-103.6 1725.1,442.5 -24.9,-273.1 0,-546.2 347.5,-546.2 -49,-661.8 241,-2001.1 2030.6,-1662.4 810.3,-2086.3 3166.6,-1456.7 3647.6,-144.6 1875.1,-249.7 2071.7,1134 1973,1798.8 346.5,25.6 351.2,299.8 306.3,570.3 485.8,-511.7 1292.8,-651.4 1752.9,-314.4 489.7,-1063.5 3238.7,-1209.2 3109.2,1220.8 768.3,-291.8 1142.5,34.5 1414.1,403.1 287.7,-526.4 1009.1,-484.9 1514.7,-286.5 -112,-506.2 -110.4,-1203 848.7,-1381.2 348.3,-671.3 984.6,-524.8 1305.7,-152.6 357.6,-122.9 951.8,-79.1 999.7,621.4 502.5,-62.4 686.9,436.6 794.2,705.9 111.9,-371.8 231.8,-850.3 874,-1002.9l0 8506.9 -60415 0 0 -7944.9c98.4,186.2 138.4,390.2 178.4,570.2 126.9,-260.7 347.5,-744.7 844.1,-645.4 99.3,-695.2 695.1,-695.2 1042.7,-546.2 347.6,-347.6 993,-446.9 1290.9,248.2 1071.1,-126.5 1419.2,569.7 1528,1222.4 696.2,-500.4 1719.9,-400.9 1968.2,145.2 297.8,-347.5 695.1,-645.5 1439.9,-297.9 49.6,-2432.9 2780.5,-2085.3 3190.5,-988.7 483.7,-302.2 1278.2,-103.5 1725,442.5 -343.6,-1154.1 1783.9,-2085.8 2532.9,-976.3 1871.1,-2045.2 5091,-1718.8 5821.1,943 357.8,-1378.2 1402.1,-1987.4 2925.1,-1291.2z"/>
  <path class="fil25" d="M60407.5 21607.4c-2018.5,-249.7 -4023.5,-537.1 -6132.7,-537.1 -4301.9,0 -8521.9,735.2 -12823.8,735.2 -3866.2,0 -8304.2,-898.6 -12170.4,-898.6 -3962.7,0 -9367.8,1183 -14620.8,878.1 -3553.2,-206.2 -6957.7,-878.1 -9638.3,-878.1 -2164.9,0 -3674.2,155 -5029,346.4l0 5296.7 60415 0 0 -4942.6z"/>
  <path class="fil26" d="M60407.5 24174.5c-2423.8,253.5 -4796.2,433.8 -7127.5,555.6 126.6,-66.6 229.8,-115.4 246.1,-131.5 507.5,-497.6 1065.9,-1567 716.3,-1648.7 -323.5,-75.5 -553.2,825.2 -851.2,1411.4 -314.3,618.2 -357.4,56.5 -357.4,-187.9 0,-341.8 458.7,-2021.7 0,-2021.7 -690,0 -67.4,1557.7 -323.3,2607.1l-97.6 4.7c-212.9,-334.4 -646.1,-579.8 -452,-1671.8 47.8,-268.6 -395.4,-661.7 -417.7,-238.7 -55.5,1048.5 356.4,1456.8 570.4,1924.5 -207.6,9.4 -414.9,18.4 -621.8,27 -8.7,-87.5 -23.1,-185.9 -46.7,-282.2 -242.3,-987.9 -423.8,-1303.6 -552.2,-1306.7 -152.9,-3.7 230,1016.4 269,1134.3 33.3,100.9 124.3,584.3 -1,205.7 -11,3.6 -374.7,-712 -581.1,-579.1 -209.4,134.8 328.6,608.6 411.8,693.8 0.4,0.4 70.8,102.6 110.5,149.8 -4663.9,181.2 -9171.9,140.1 -13608.7,-4.4 133,-298.8 393.4,-919.9 150.1,-993.8 -247.3,-75.1 -390.4,743.3 -435.8,984.7l-79.9 -2.6c-8.8,-86.5 -14.7,-169.3 -14.7,-211.1 0,-178.2 52.1,-1740.3 -123.3,-1666.3 -141.7,59.9 -229.4,535.9 -148.7,1867.2 -3098.1,-107.9 -6163.3,-263.6 -9224.6,-426.3 6.7,-25.5 11.6,-44.9 11.7,-45.1 36.4,-88.1 289.4,-597.2 120.8,-648.3 -166.1,-50.5 -250.2,602.4 -258.3,602.4 0,36.8 -0.6,64.3 -1.6,84.3l-20.1 -1.1c-11.8,-68.6 -24.2,-198.2 -24.2,-243.6 0,-102.1 29.9,-997.8 -70.6,-955.4 -84.5,35.6 -135.3,329.1 -79.4,1163.4 0.6,8.6 1.3,17.6 2,26.4l-777.2 -41.5c24.9,-13 41.9,-22.6 47,-27.6 366.3,-359 769.3,-1131 516.9,-1189.9 -233.4,-54.5 -399.2,595.6 -614.3,1018.7 -54.5,107.2 -97.7,165.2 -131.9,189.1l-68.7 -3.8c-47.7,-53.7 -57.3,-222.8 -57.3,-321 0,-246.7 331,-1459.1 0,-1459.1 -473.2,0 -91.1,1015 -210.3,1765.9l-189.4 -10.2c-156.4,-196.6 -344.9,-432.4 -230.3,-1077.3 34.5,-193.8 -285.4,-477.5 -301.5,-172.3 -34,643.8 176,953.2 334.6,1239l-762.5 -40.7c3.8,-28.6 6.9,-57.8 9.2,-86.8 80.2,-1014 7.3,-1370.7 -113.6,-1414 -143.9,-51.6 -101.1,1037.1 -101.1,1161.3 0,62.9 -22.9,259 -41.6,326.3l-19.2 -0.9c-3,-23.3 -4.8,-64.8 -4.8,-130.4 -11.5,0 -131.9,-793.6 -369.6,-732.3 -241.2,62.2 120.8,681 172.9,788 0.1,0.2 8.5,29 19.8,65 -2952.7,-156.9 -5911,-307 -8900.9,-414 14.3,-45 26.2,-85.4 26.3,-85.7 52.1,-107 414.1,-725.8 172.9,-788 -237.7,-61.3 -358.1,732.3 -369.6,732.3 0,70.3 -2.1,113 -5.4,135.2l-17.7 -0.7c-18.8,-64.1 -42.5,-265.5 -42.5,-329.5 0,-124.2 42.8,-1212.9 -101.1,-1161.3 -120.9,43.3 -193.8,400 -113.6,1414.1 1.8,22.6 4.1,45.5 6.8,68.1 -188.4,-6.5 -376.9,-12.9 -565.6,-19 114.7,-237 208.4,-533.7 184.2,-991.9 -16.9,-320.1 -352.3,-22.7 -316.2,180.6 68,382.4 34.3,627.7 -37.5,805.9 -142.6,-4.6 -285.4,-9 -428.1,-13.3 -3.9,-720 230.9,-1504 -194.9,-1504 -334.8,0 -24.1,1181.7 -1.4,1498.3 -118.4,-3.5 -236.8,-7 -355.3,-10.3 -186,-425.2 -345.2,-933.5 -557.9,-883.8 -193.8,45.2 -19,491.6 239.4,875.1 -2530.4,-67.7 -5088.1,-97.8 -7688.7,-68.6 200.8,-357.7 414.6,-782.9 373.7,-1556.9 -22.4,-423 -465.6,-29.9 -417.8,238.7 127.5,717.3 -15.6,1069.3 -189.3,1321.2 -138,1.8 -275.9,3.5 -414.1,5.5 -87.2,-1015.2 349,-2266.7 -269.4,-2266.7 -458.8,0 0,1679.9 0,2021.7 0,69.2 -3.5,163.7 -15.5,249.7 -102.1,1.8 -204.1,3.5 -306.3,5.4 -11.4,-20.7 -23.4,-43 -35.6,-67.1 -298,-586.3 -527.8,-1487 -851.2,-1411.5 -314.9,73.6 106.7,948.3 564.3,1484.9 -1315.6,27 -2642.7,70 -3983.4,131.8l0 4653.4c1029.9,101.3 2029.1,371.4 2835.5,1161.8 4145.7,4063.1 9080,3524.1 13914.7,1499.7 6204.8,-2598 11080.5,6616.7 19072.3,837.3 2625.8,-1898.9 6079.1,-2291.1 9536.2,-1198 8765.1,2771.4 11774,639.6 15056.3,-3397.6l0 -3174.3z"/>
 </g>
</svg>
