<?xml version="1.0" encoding="UTF-8"?>
<!DOCTYPE svg PUBLIC "-//W3C//DTD SVG 1.1//EN" "http://www.w3.org/Graphics/SVG/1.1/DTD/svg11.dtd">
<!-- Creator: CorelDRAW 2018 (64-Bit) -->
<svg xmlns="http://www.w3.org/2000/svg" xml:space="preserve" width="970px" height="618px" version="1.1" style="shape-rendering:geometricPrecision; text-rendering:geometricPrecision; image-rendering:optimizeQuality; fill-rule:evenodd; clip-rule:evenodd"
viewBox="0 0 97000 61800"
 xmlns:xlink="http://www.w3.org/1999/xlink">
 <defs>
  <style type="text/css">
   <![CDATA[
    .str1 {stroke:#3C464F;stroke-width:200;stroke-miterlimit:22.9256}
    .str2 {stroke:#7B888D;stroke-width:200;stroke-miterlimit:22.9256}
    .str8 {stroke:#00D0B3;stroke-width:150;stroke-miterlimit:22.9256}
    .str9 {stroke:#67906D;stroke-width:100;stroke-miterlimit:22.9256}
    .str3 {stroke:#7B888D;stroke-width:100;stroke-miterlimit:22.9256}
    .str0 {stroke:#FF9933;stroke-width:100;stroke-miterlimit:22.9256}
    .str4 {stroke:#1E3250;stroke-width:400;stroke-linecap:round;stroke-linejoin:round;stroke-miterlimit:22.9256}
    .str6 {stroke:#345678;stroke-width:100;stroke-linecap:round;stroke-linejoin:round;stroke-miterlimit:22.9256}
    .str5 {stroke:#0E163A;stroke-width:100;stroke-linecap:round;stroke-linejoin:round;stroke-miterlimit:22.9256}
    .str7 {stroke:#00D0B3;stroke-width:150;stroke-miterlimit:22.9256;stroke-dasharray:150.000000 150.000000}
    .fil0 {fill:none}
    .fil36 {fill:none;fill-rule:nonzero}
    .fil27 {fill:#00D0B3}
    .fil5 {fill:#0E163A}
    .fil34 {fill:#1E3250}
    .fil16 {fill:#345678}
    .fil22 {fill:#345678}
    .fil6 {fill:#3C464F}
    .fil9 {fill:#3C464F}
    .fil29 {fill:#413D3D}
    .fil37 {fill:#47E6D1}
    .fil11 {fill:#57779E}
    .fil15 {fill:#5A6A71}
    .fil23 {fill:#6689B3}
    .fil21 {fill:#6689B3}
    .fil32 {fill:#67906D}
    .fil8 {fill:#7B888D}
    .fil31 {fill:#7EAC85}
    .fil14 {fill:#8C9AA1}
    .fil30 {fill:#927967}
    .fil28 {fill:#AFD1C1}
    .fil10 {fill:#B4BBBF}
    .fil20 {fill:#BEC2C4}
    .fil17 {fill:#BEC2C4}
    .fil19 {fill:#C6D5E0}
    .fil24 {fill:#C8FF00}
    .fil12 {fill:#C9CFD1}
    .fil18 {fill:#C9CFD1}
    .fil35 {fill:#CCCCCC}
    .fil38 {fill:#CCCCCC}
    .fil7 {fill:#E1E8EA}
    .fil25 {fill:#E7E1D6}
    .fil39 {fill:#EDEDED}
    .fil26 {fill:#F1333D}
    .fil33 {fill:#F2F2F2}
    .fil2 {fill:#FACE9B}
    .fil3 {fill:#FCAC6F}
    .fil4 {fill:#FF6C52}
    .fil40 {fill:#FFEBBD}
    .fil1 {fill:#FFEBD4}
    .fil13 {fill:white}
   ]]>
  </style>
 </defs>
 <g id="Layer_x0020_1">
  <metadata id="CorelCorpID_0Corel-Layer"/>
  <path class="fil0 str0" d="M90806.1 31138.3c1575,-10350 -13275,-23325 -32025,-27450"/>
  <path class="fil1" d="M9489.4 61800c-1342.9,-3837.5 -2072,-7939.6 -2072,-12203.3 0,-6718.7 1805.5,-13038.1 4981.8,-18548.4l28224.7 15267.4 -27290.5 -16804.2c7185.5,-11213.3 20205.7,-18706.1 35075.4,-18706.1 5440.6,0 10632.4,1005.3 15382.5,2826.7l-9724.1 24684.3 11105.1 -24128.3c14280.8,6064.1 24228,19636.6 24228,35408.6 0,1551.4 -96.6,3081.4 -284.1,4585.1l-28016.9 -2266.1 27788.5 3824.8c-350.3,2079.5 -875.2,4103.9 -1559.5,6059.5l-77838.9 0z"/>
  <polygon class="fil2" points="50294.4,17995.5 53020,17995.5 53020,57675.2 49731.9,57675.2 49731.9,22384.7 "/>
  <polygon class="fil2" points="82278.3,61800 72331.6,57150 18715.1,57270 11484.8,61800 "/>
  <rect class="fil2" x="42142.1" y="54343.8" width="5665.3" height="3565.7"/>
  <path class="fil3" d="M11841.6 59077.6l67717.8 0 8284 1274.5 -1758.9 1447.9 -76595.1 0c-122.5,-350.1 -239.7,-702 -351.5,-1055.6l2703.7 -1666.8z"/>
  <path class="fil3" d="M78057.8 40463.3c2651.5,-1101.9 6547.3,-2970.3 9048.7,-4472.3 -277.7,-498.1 -513.1,-978.3 -740.6,-1490.6 -1493.4,1634.4 -5532.9,4644.2 -8308.1,5962.9z"/>
  <path class="fil4" d="M85383.3 35455.1l284 971.7c-2302.3,1565.4 -4882.2,2871.2 -7609.5,4036.5 2295.7,-1090.8 5456.3,-3338.8 7325.5,-5008.2z"/>
  <path class="fil3" d="M77908.7 40080.8l97.6 250.5c2651.5,-1102 5206.7,-2286 7145.7,-4463 -87.5,-387.5 -231.3,-925 -318.8,-1312.5 -2249.9,3290.8 -4272.8,4085.8 -6924.5,5525z"/>
  <g id="_2778023001664">
   <path class="fil3" d="M90059.5 28617.7c-150.3,2392.3 -575,4356.2 -1332,5869.8 -810.9,1621.2 -1913.6,2115.4 -3398.2,2849.9 5625.2,-2103.6 4893.7,-5175.9 4730.2,-8719.7z"/>
   <path class="fil2" d="M85329.3 37337.4c1172.6,-658.9 2557.7,-1440.2 2678,-2127.2 90.6,-517.1 -577.2,-1589.6 -2149.4,-3652.6 1816.6,-753.5 3344.6,-1663.9 4201.6,-2939.9 357,2114.5 40.4,4191.9 -1343.1,6210.4 -439.1,1160.8 -1739.5,1770.7 -3387.1,2509.3z"/>
  </g>
  <g id="_2777898680528">
   <ellipse class="fil3" transform="matrix(0.727623 -0.0349173 0.015376 0.822964 59095.7 58660.1)" rx="11925" ry="1837.5"/>
   <ellipse class="fil3" transform="matrix(-0.529094 -0.00972462 0.0228973 0.691622 69327.9 58394.7)" rx="11925" ry="1837.5"/>
   <ellipse class="fil5" cx="74491.6" cy="57997.8" rx="985.5" ry="851"/>
   <ellipse class="fil5" cx="54387.4" cy="57997.8" rx="985.5" ry="851"/>
   <rect class="fil6" x="52370.4" y="43120.3" width="24006.1" height="15086.8"/>
   <path class="fil7" d="M49031.5 41487.2c-2817.3,-353.5 -5634.6,-707.1 -8451.8,-1060.6 -817.9,-102.5 -1101.8,-150.4 -1062.9,-580.6 43,-475.7 85.9,-423.2 128.9,-898.9 2947.4,53.2 6026.9,114 9268.4,239.2 39.1,943.1 78.2,1357.8 117.4,2300.9z"/>
   <path class="fil8" d="M48914.1 39186.3c-131.4,-5 -262.4,-10 -393.3,-14.9l0 1277.9c-1769.2,452.9 -7912.1,-243.9 -9000.8,-639.3 -53.5,592.3 604.5,559.5 1059.7,616.6 2817.2,353.5 5634.5,707.1 8451.8,1060.6 -36.8,-886.1 -82.3,-1452.1 -117.4,-2300.9z"/>
   <path class="fil7" d="M51986.3 42163.5l-3030.5 -314.3 -149 -2728.9c-156.5,-1255 1799.8,-1198.2 3031.6,-1179.4l147.9 4222.6z"/>
   <path class="fil8" d="M48944.6 41644.6l11.2 204.6 3030.5 314.3 -147.9 -4222.6 -444.5 -6.5c2.5,1403 95.7,3114.4 -291,3501.1 -288.2,288.2 -1283.4,382.4 -2158.3,209.1z"/>
   <rect class="fil9" x="51121.4" y="23180.6" width="26504.1" height="7109.7"/>
   <rect class="fil9" x="76161.2" y="41300.5" width="1076.2" height="3698.1"/>
   <rect class="fil8" x="76832.5" y="41220.1" width="2338.5" height="3889.2"/>
   <path class="fil10" d="M78057.8 42864.4l12680.5 -6352.8 15 -451.7 -690.2 -648.8c-1702.8,716.5 -3405.4,1433.1 -5108.1,2149.7 -1132.6,1248.3 -2334.6,1734.2 -3600.7,1515.3l-3296.5 1387.3 0 2401z"/>
   <polygon class="fil7" points="76775.4,39950.1 77857.7,39950.1 78057.8,40463.4 78057.8,42864.4 90110.8,36826 89706.2,38551.4 87391.4,39720.1 87405.2,41128.8 78958.2,45462.4 78965.6,43603.6 78132.9,43952.5 77887.4,43794.5 76775.4,41626.4 "/>
   <path class="fil10" d="M78963.1 44252.6l2.5 -649c2052.6,-1038.4 4105.3,-2076.8 6157.9,-3115.2 199.7,-115.2 256,191.8 25,325.2l-6185.4 3439z"/>
   <path class="fil7" d="M52370.5 43757.3l21201.8 0 0 3400 -21201.8 0c-128.1,0 -232.9,-104.8 -232.9,-232.8l0 -2934.4c0,-128 104.8,-232.8 232.9,-232.8z"/>
   <path class="fil7" d="M52370.5 47403.7l21201.8 0 0 3399.9 -21201.8 0c-128.1,0 -232.9,-104.7 -232.9,-232.7l0 -2934.4c0,-128.1 104.8,-232.8 232.9,-232.8z"/>
   <path class="fil7" d="M52370.5 51050l21201.8 0 0 6947.8 -21108.7 0c-179.3,0 -326,-146.6 -326,-325.9l0 -6389c0,-128.1 104.8,-232.9 232.9,-232.9z"/>
   <path class="fil11" d="M73818.6 43757.3l2760.2 0 0 13914.6c0,179.3 -146.7,325.9 -325.9,325.9l-2434.3 0 0 -14240.5z"/>
   <path class="fil12" d="M51035 29559.9c4471.2,11.5 8945.1,18.7 13419,20.2 4471.1,1.4 8942.3,2.9 13418.9,11.5 -130.3,2328.4 -283.7,4655.5 -501.9,6979.5 -218.6,2327.3 -507.4,4651.2 -803.1,6976.7 -4034.4,-8.6 -8068.8,-25.9 -12103.1,-37.4 -4031.6,-11.5 -8068.8,-26.4 -12105.8,-43.1 -127.5,-0.6 -241.8,-106.5 -255,-233.2 -239,-2279.4 -467.9,-4558.1 -648.4,-6838.5 -180.2,-2275.7 -306.7,-4556.2 -420.6,-6835.7z"/>
   <path class="fil7" d="M50902.1 24718.8c4663.8,-212.9 9316.8,-323.8 13866.6,-331 4549.8,-7.1 8996.6,95 13237.1,302.3 -27.1,1554.2 -70.5,3108.4 -127.5,4659.7 -4427.8,2.9 -8928.8,-7.2 -13427.1,-14.4 -4501,-7.1 -9002,-23 -13427,-20.1 -57,-1531.2 -97.7,-3065.3 -122.1,-4596.5z"/>
   <path class="fil12" d="M51155.6 22075.6c2208.4,7.3 4416.9,13.8 6627.9,17.9 2208.5,4 4419.6,7.7 6630.7,8.9 2208.4,1.2 4416.8,5 6625.2,9.8 2208.4,4.9 4422.3,11.4 6633.4,16.3 2.7,-466.7 5.4,-938.3 10.8,-1409.1 -2211.1,6.5 -4427.7,17.6 -6636,38.3 -2205.8,20.7 -4414.2,48.9 -6622.6,79 -2211.1,30.1 -4422.2,60.3 -6630.6,88.8 -2208.4,28.5 -4422.3,54.5 -6630.7,78.2 -2.7,356.7 -5.4,715.1 -8.1,1071.9z"/>
   <path class="fil13" d="M51101.5 20049.9c2232.8,-48.9 4471,-102.7 6703.7,-160.5 2232.7,-57.8 4465.5,-120.9 6700.9,-179.2 2232.7,-58.2 4465.5,-113.2 6698.3,-155.6 2232.6,-42.3 4470.8,-70 6706.3,-91.2 13.5,420.3 32.4,838.2 48.7,1255.2 -2240.9,6.5 -4487.2,17.5 -6725.3,38.3 -2238.2,20.7 -4479.1,48.5 -6714.5,79 -2238.1,30.5 -4476.3,60.7 -6714.4,89.6 -2238.2,28.9 -4476.3,55.4 -6711.8,79 -2.7,-319.3 0,-638.6 8.1,-954.6z"/>
   <path class="fil10" d="M51490.7 21000.4c2222,-285.1 4436,-510.7 6628,-682.6 2189.7,-171.7 4360.1,-285 6500.9,-325 2138.1,-39.8 4249.5,-3.2 6317.1,116.5 2068.1,119.8 4103.3,327.5 6084.7,610.9 -2132.7,9 -4262.8,23.3 -6390.1,43.2 -2127.3,19.9 -4254.7,46.4 -6379.3,74.9 -2127.3,28.5 -4254.6,58.7 -6381.9,86.3 -2127.4,27.7 -4254.7,53 -6379.4,75.8z"/>
   <path class="fil7" d="M51396.1 20042.5l475.8 -3996.7c786.6,-98.6 2916.9,-376.9 5635.9,-705.4 1359.9,-164.3 2868,-342.7 4438.5,-507.4 1567.7,-164.4 3197.7,-310.3 4795.3,-415.4 1116.3,-39.1 2235.4,-69.2 3351.8,-95.3 1159.6,-74.9 2321.8,-141.4 3476.1,-198 1156.8,-56.6 2316.6,-93.6 3478.9,-135.2 18.9,274.5 40.5,548.2 64.9,817.8 -108.2,20.4 -216.3,40.7 -321.7,57.8 8.1,427.6 18.9,854.5 27.1,1280.5 178.4,292.4 359.5,581.5 537.9,869 48.6,666.3 89.2,1327.7 135.1,1989.8 140.6,154.8 281.1,307.9 419,459.4 -8842.7,78.3 -17674.7,377.2 -26514.6,579.1z"/>
   <path class="fil12" d="M67114.6 17720.4c-24.3,-384.5 -51.4,-768.1 -73,-1155.8 1092,-171 2194.9,-336.4 3292.3,-502.5 35.2,74.9 75.7,147.4 110.9,218.2 100,-258.2 200,-519.6 300,-781.9 2105.7,-519.6 4206,-1024.6 6303.6,-1509.3 18.9,274.5 40.5,548.2 64.9,817.8 -1916.5,452.9 -3835.7,915.5 -5765.7,1391.2 -197.3,195.5 -402.7,388.5 -602.8,579.9 -251.4,0 -502.8,0.8 -746.1,-2.4 -551.4,294 -1100.1,583.1 -1648.8,872.3 -410.9,24.4 -821.7,48.1 -1235.3,72.5z"/>
   <path class="fil10" d="M77048.4 13989.1c-2097.6,484.7 -4197.9,989.7 -6303.6,1509.3 -210.8,-351.8 -437.9,-830 -651.4,-1176.1 1159.6,-74.9 2321.8,-141.4 3476.1,-198 1156.8,-56.6 2316.6,-93.6 3478.9,-135.2z"/>
   <path class="fil10" d="M70276.9 15638.4c-65,-483.1 -105.3,-790.8 -183.5,-1316.1 -1116.4,26.1 -2235.5,56.2 -3351.8,95.3l257.4 1856.8 3277.9 -636z"/>
   <path class="fil14" d="M63024.8 18121.1c-110.8,450.5 -218.9,898.4 -329.8,1344.8 2113.9,-56.2 4230.4,-106.7 6344.2,-158.8 559.5,-248.5 1121.8,-496.9 1678.6,-749.4 329.8,250.1 654.1,500.9 981.2,757.5 951.5,-185.7 1897.5,-507 2838.2,-909 940.6,-401.9 1878.7,-884.5 2819.4,-1392 -178.4,-287.5 -359.5,-576.6 -537.9,-869 -8.2,-419.5 -16.3,-843 -27.1,-1265.8 -1140.7,259 -2279.1,518.1 -3419.4,786.8 -1141,268.9 -2289.7,541 -3430.2,815.3 -1151.7,277.1 -2308.2,555.1 -3459.9,828.4 -1148.6,272.4 -2303.1,542.4 -3457.3,811.2z"/>
   <path class="fil15" d="M76818.7 16145.2c-874.8,818.7 -3069,2007 -5754,2677.3l634.3 492.7c1297.5,-250.8 2584.2,-757.5 3868.1,-1378.2 421.7,-594.5 838,-1195.6 1251.6,-1791.8z"/>
   <path class="fil15" d="M69039.2 19307.1l-6344.2 158.8c27.1,-105.1 54.1,-208.5 75.7,-312 1516.5,-61.1 3032.9,-118.9 4546.6,-175.1 760.1,-116.5 2296.1,-434.7 3259,-708.5 140.8,-40.1 149.2,128.9 141.5,287.4 -307.2,138.7 -1195.2,534.8 -1678.6,749.4z"/>
   <path class="fil16" d="M62950.9 30639.2c1025.6,-2.8 2053.8,-2.8 3082.1,-5.7 184.5,184.2 369,368.4 556.2,552.6 -89.6,382.8 -176.4,762.7 -263.2,1142.6 -431.4,238.9 -857.4,477.8 -1283.3,719.6 -369,0 -732.5,0 -1096.1,0 -366.3,-175.6 -729.8,-351.2 -1096.1,-529.6 -165.4,-463.4 -328.3,-929.7 -496.5,-1398.8 198.1,-158.3 398.9,-319.5 596.9,-480.7z"/>
   <path class="fil7" d="M77769.7 23057.8l258.9 -2086.6c3539.6,-126.5 7013.8,-294.2 10618.7,-379.8 536.4,-12.7 710.4,431.2 517.4,1030.9l-11395 1435.5z"/>
   <path class="fil17" d="M77769.7 23057.8l98.9 -797.4 11362.1 -924c-11.8,90 -33.7,185.8 -66,285.9l-11395 1435.5z"/>
   <path class="fil7" d="M50873.8 23026.5c-3137.7,-336.3 -7200.1,-697.8 -9791.9,-948.9 -808.8,-78.3 -1535.7,1.5 -1537.4,-430.3l-2.8 -715.2 11482.1 189.7 -1.1 944.7 -148.9 960z"/>
   <rect class="fil18" x="40853.7" y="17761.5" width="3326.1" height="3104.3"/>
   <rect class="fil7" x="40853.7" y="17761.5" width="628.3" height="3104.3"/>
   <rect class="fil10" x="43539.2" y="17761.5" width="640.6" height="3104.3"/>
   <path class="fil12" d="M44876.8 20887.8c0,-321.8 -4720.1,-321.8 -4720.1,0l0 153.3 2360 0 2360.1 0 0 -153.3z"/>
   <path class="fil7" d="M50891.2 23613.6c4514.6,2.9 9031.9,0 13549.2,-11.5 4514.5,-11.5 9031.8,-17.2 13551.9,-20.1 -103.1,-483.6 -208.9,-967.1 -314.8,-1453.5 -4500.9,-181.4 -8958.6,-266.3 -13372.8,-270.6 -4414.2,-4.3 -8795.8,72 -13144.9,213 -92.2,515.2 -181.8,1027.5 -268.6,1542.7z"/>
   <path class="fil12" d="M50891.2 23613.6c4734.4,-284.9 9422.6,-426 13967,-434.6 4547.1,-8.6 8955.9,132.4 13134.1,403 -2.8,287.8 -2.8,575.6 -5.5,860.6 -4240.5,-207.3 -8681.8,-312.4 -13229,-302.3 -4547.1,10.1 -9200.1,118 -13861.1,333.9 -2.8,-287.8 -5.5,-572.7 -5.5,-860.6z"/>
   <path class="fil7" d="M51396.1 20042.5c1867.9,-38.2 3741.2,-87.6 5608.9,-134.4 1870.6,-46.8 3746.5,-96.9 5619.8,-148.2 129.7,-544.1 262.2,-1089 400,-1638.8 1367.8,-49.6 2730.1,-96.9 4095.2,-143.3 -10.8,-526.2 -48.7,-1087.4 -110.8,-1679.5 -62.2,-593 -151.4,-1220.2 -267.6,-1880.7 -1235.4,92 -2473.4,196.7 -3708.7,314.4 -1235.3,117.7 -2476,249.1 -3711.3,388.5 -1240.7,139.9 -2481.2,290.6 -3722.1,447.2 -1237.8,156.1 -2484.2,313.6 -3727.6,478.1 -89.2,669.5 -175.6,1337.4 -254.1,2003.7 -78.3,664.6 -156.8,1330 -221.7,1993z"/>
   <rect class="fil14" x="63761.8" y="31330.1" width="1419.4" height="947.6"/>
   <path class="fil19" d="M58219.3 29322.7c-2010.1,-4.2 -4013.2,-7.6 -6002.4,-7.8 -45.3,-1591.9 -58.5,-3143.2 -37.8,-4651.8 985,-41.1 1969.2,-77.7 2951.6,-109.5 1558.6,-50.6 728.6,3306 3088.6,4769.1z"/>
   <path class="fil20" d="M60829.6 37725.3c3815.7,4686.4 11352.9,4337.5 14835.1,4509.7l-254 1310.1c-3648.7,-9.2 -7297.3,-24.3 -10945.9,-34.7 -3680.9,-10.5 -7366.5,-23.9 -11052.4,-38.8 -1160.1,-5753.9 -1557,-9013.1 -1258.5,-13910.2 1307.3,3.2 2433.5,6.2 3589.1,8.6 2878.7,6.1 1694.6,3989.4 5086.6,8155.3z"/>
   <path class="fil13" d="M58103.5 22884.7c624.7,-52.9 1285.1,-223.3 1869.1,-386.4 2849.8,-796.3 5670,-894.1 8929.1,-35.1 648.9,171.1 1422.3,292.8 2113.2,356 1314.2,120.3 6861.8,225.2 6974.5,762.6 -240.6,-15.6 -482,-30.8 -724.1,-45.5 -3961.4,-240.7 -8122.9,-365.4 -12407.1,-357.3 -4543.8,8.6 -9231.4,149.7 -13965.1,434.5 96.7,-577.5 5888.8,-616.9 7210.4,-728.8z"/>
   <path class="fil10" d="M76217.5 22566c371.7,0 746.1,0 1120.5,0 21.7,120.9 43.4,238.8 67.8,356.9 -415.1,0 -827.5,0 -1239.9,2.8 16.3,-118 32.6,-238.8 51.6,-359.7z"/>
   <path class="fil18" d="M58479.7 23274c1649.6,-889.4 3755,-1358.5 5884.7,-1372.9 2129.8,-14.4 4292.1,414.5 6047.5,1341.2 -1991.4,-351.1 -3982.8,-522.3 -5968.8,-515.2 -1983.3,7.2 -3974.7,187.1 -5963.4,546.9z"/>
   <path class="fil21" d="M58479.7 23274c3979,-906.1 8005,-919.1 11932.2,-31.7 5.4,397.2 8.1,794.4 13.5,1188.7 -2059.2,377.1 -4083.2,558.4 -6071.8,561.3 -1986,2.8 -3942.1,-178.5 -5865.7,-529.6 -5.4,-397.2 -8.2,-791.5 -8.2,-1188.7z"/>
   <path class="fil16" d="M70411.9 23243.4c1.8,130.2 3.3,627.9 4.6,1189.2 -3807.1,889.7 -7825.8,912.7 -11928.6,30.1 -5,-366.2 -7.7,-729.9 -8.1,-1095.7l0 -7.1 0 -11.5 -0.1 -13.7 0 -4.9 0 -17.4 0 -1.2 0 -18.1 0 -0.5 0 -15.8c3975.7,-113.9 7956,-133.8 11932.2,-33.4z"/>
   <path class="fil20" d="M56402.3 23345.2c29.3,312.9 63.8,619.2 105,920.3 -1216.8,34.3 -2436.9,75.8 -3658.5,124.5 4.9,-297.4 11.2,-593.1 18.7,-887.2 1182.5,-61.4 2361.3,-113.9 3534.8,-157.6z"/>
   <path class="fil19" d="M61635.4 52066.5c2959.4,4250.2 8251.6,4809.5 11936.9,4969.7l0 961.6 -19954.8 0c-186.9,-2608.7 -295.8,-4792.1 -387.7,-6947.8l7760.3 0c194,336 407.7,675.3 645.3,1016.5z"/>
   <path class="fil19" d="M53071.4 47157.3c-44.2,-1072.3 -92.7,-2191.7 -152,-3400l5262.8 0c527,710.6 771.4,1919 1204.4,3400l-6315.2 0z"/>
   <path class="fil19" d="M53219.3 50803.6c-47,-1118.1 -90.1,-2232.8 -137.8,-3399.9l6378.3 0c312,1035.4 725.2,2192.8 1391,3399.9l-7631.5 0z"/>
   <path class="fil14" d="M72069.8 45383.7c-2259.4,565.7 -4843.3,886.9 -7588.7,886.9 -2745.4,0 -5329.3,-321.2 -7588.8,-886.9l15177.5 0z"/>
   <path class="fil15" d="M68534.3 45420.7c-1206.8,282.8 -2586.9,443.4 -4053.2,443.4 -1466.4,0 -2846.5,-160.6 -4053.2,-443.4l8106.4 0z"/>
   <path class="fil14" d="M72069.8 48808.3c-2259.4,565.6 -4843.3,886.9 -7588.7,886.9 -2745.4,0 -5329.3,-321.3 -7588.8,-886.9l15177.5 0z"/>
   <path class="fil15" d="M68534.3 48845.3c-1206.8,282.8 -2586.9,443.4 -4053.2,443.4 -1466.4,0 -2846.5,-160.6 -4053.2,-443.4l8106.4 0z"/>
   <path class="fil14" d="M72069.8 54228.6c-2259.4,565.6 -4843.3,886.8 -7588.7,886.8 -2745.4,0 -5329.3,-321.2 -7588.8,-886.8l15177.5 0z"/>
   <path class="fil15" d="M68534.3 54265.5c-1206.8,282.9 -2586.9,443.5 -4053.2,443.5 -1466.4,0 -2846.5,-160.6 -4053.2,-443.5l8106.4 0z"/>
   <path class="fil10" d="M51022.7 22060l-11478.7 -513.3 0.5 100.6c1.7,431.8 728.6,352 1537.4,430.3 2591.8,251.1 6654.2,612.6 9791.9,948.9l148.9 -960 0 -6.5z"/>
   <path class="fil22" d="M73818.6 57046.5c775.5,30.9 1473,46.9 2053,80.4l-131.2 870.9 -1921.8 0 0 -951.3z"/>
   <polyline class="fil0 str1" points="52137.6,52331.5 64404.7,52331.5 64404.7,57997.8 "/>
   <path class="fil10" d="M44179.8 18178.9c-1115.3,211.8 -2223.8,213.5 -3326.1,17.4l0 -434.8 3326.1 0 0 417.4z"/>
   <path class="fil7" d="M36692.1 6683.6c3794.2,-862.2 7654.1,-870.5 11579.7,-24.6 154.6,1387 194.9,2757 164.5,4114.9 -45.7,2043 -767.2,3474.7 -534.1,5567.6 -3599.2,2202.4 -7126.3,2133.9 -10594.2,197.1 300.8,-2182.4 -568.1,-3535.2 -677,-5691.9 -69.8,-1380.7 -59,-2767.7 61.1,-4163.1z"/>
   <path class="fil0" d="M47494.9 16580.8c-3325.7,1880 -6590,1828.3 -9803.2,164 3262.5,1122.6 6526.8,1173.6 9803.2,-164z"/>
   <path class="fil11" d="M37419.7 7345.1c3158.9,-1002.4 6530.9,-1016.2 10133.1,-23.9 135.3,1345.5 170.5,2674.6 143.9,3991.7 -39.6,1963.2 -763,2826.6 -201.8,5267.9 -3325.7,1880 -6590,1828.3 -9803.2,164 598.9,-2539.4 -230.6,-3280.2 -325.4,-5361.2 -61.1,-1339.3 -51.6,-2684.9 53.4,-4038.5z"/>
   <rect class="fil19" x="38318.1" y="7841.5" width="8426" height="5617.4"/>
   <path class="fil22" d="M37419.7 7345.1l898.4 496.5 8426 0 808.7 -520.4c-3602.2,-992.3 -6974.2,-978.5 -10133.1,23.9z"/>
   <path class="fil23" d="M37779.3 13840.9l538.8 -381.9 8426 0 612.4 404.2c-3053.1,904.3 -6078.6,889.9 -9577.2,-22.3z"/>
   <g>
    <ellipse class="fil22" cx="41710.5" cy="15125.3" rx="301.8" ry="240.2"/>
    <ellipse class="fil22" cx="42585.2" cy="15125.3" rx="301.8" ry="240.2"/>
    <ellipse class="fil22" cx="43459.8" cy="15125.3" rx="301.8" ry="240.2"/>
    <ellipse class="fil22" cx="41710.5" cy="15778.2" rx="301.8" ry="240.2"/>
    <ellipse class="fil22" cx="42585.2" cy="15778.2" rx="301.8" ry="240.2"/>
    <ellipse class="fil22" cx="43459.8" cy="15778.2" rx="301.8" ry="240.2"/>
    <ellipse class="fil22" cx="41710.5" cy="16431" rx="301.8" ry="240.2"/>
    <ellipse class="fil22" cx="42585.2" cy="16431" rx="301.8" ry="240.2"/>
    <ellipse class="fil22" cx="43459.8" cy="16431" rx="301.8" ry="240.2"/>
    <ellipse class="fil22" cx="41710.5" cy="17083.9" rx="301.8" ry="240.2"/>
    <ellipse class="fil22" cx="42585.2" cy="17083.9" rx="301.8" ry="240.2"/>
   </g>
   <circle class="fil24" cx="46611.5" cy="14747.3" r="180.5"/>
   <rect class="fil25" x="46003.6" y="15525.7" width="837.6" height="345" rx="510.6" ry="395"/>
   <rect class="fil26" x="46003.6" y="16104.7" width="837.6" height="345" rx="510.6" ry="395"/>
   <ellipse class="fil27" cx="45048.8" cy="16542" rx="696.1" ry="369.5"/>
   <rect class="fil18" x="44765.5" y="15199.2" width="615.9" height="394.2"/>
   <rect class="fil22" x="39838" y="15494.8" width="615.9" height="394.2"/>
   <rect class="fil22" x="39788.7" y="16504.9" width="615.9" height="394.2"/>
   <rect class="fil22" x="38704.6" y="15987.6" width="615.9" height="394.2"/>
   <rect class="fil22" x="42106.9" y="13819.4" width="921.9" height="394.2"/>
  </g>
  <rect class="fil2" x="22974.9" y="51150.2" width="8378.4" height="6675"/>
  <g id="_2777898673616">
   <polygon class="fil19" points="33601.1,43474.2 35080,43894.4 31020.2,57632.9 29829.9,57294.7 "/>
   <polygon class="fil21" points="31945.6,44718.8 33301.6,44999.2 30557.1,57606.2 29465.6,57380.5 "/>
   <polygon class="fil4" points="25909.8,46097.7 26751.6,45952.5 28657.4,57491.3 27979.9,57608.1 "/>
   <polygon class="fil28" points="24721.6,47586.2 26341.6,47144.4 28944.4,57312.7 27640.4,57668.2 "/>
   <polygon class="fil7" points="31103.1,57352.6 30767.4,57257.2 34461.6,43718.7 35080,43894.4 "/>
   <g>
    <path class="fil0 str2" d="M33317.5 50346.9l-8001.5 0c309.9,2161.8 619.8,4393.5 929.7,6555.3 97.7,681.5 506.8,848 1013.3,848 1371.8,0 2743.7,0 4115.5,0 506.5,0 915.6,-166.5 1013.3,-848 309.9,-2161.8 619.8,-4393.5 929.7,-6555.3z"/>
    <path class="fil0 str3" d="M25776.7 50346.9l839 7246.4m46.1 -7246.4l640.2 7403.3m-1031 -711.3l6091.5 0m-4815.6 -6692l423.3 7403.3m-1823.8 -1542.9l6340.7 0m-4055 -5860.4l207.2 7403.3m-2611 -2374.3l6576.9 0m-3288 -5029l-9.7 7403.3m-3396.8 -3205.8l6812.1 0m-2521.5 -4197.5l-225.9 7403.3m-4181.9 -4036.2l7046.5 0m-1753.6 -3367.1l-442.8 7403.3m-4967.5 -4867.7l7281.2 0m-985.8 -2535.6l-659.7 7403.3m-5753.2 -5699.2l7516.3 0m-218.3 -1704.1l-859.7 7259.9m-6556.3 -6387.2l7752.3 0m-7871 -831.6l7989.7 0"/>
    <rect class="fil15" x="25101.7" y="49987.8" width="8430.3" height="428.8" rx="4570.2" ry="16.2"/>
   </g>
  </g>
  <g id="_2777898667888">
   <rect class="fil0 str4" transform="matrix(1.34632 -0.521363 0.361119 0.93252 17558.3 23836.8)" width="436.4" height="12666.2"/>
   <rect class="fil0 str4" transform="matrix(1.12647 0.903033 0.62548 -0.78024 17606.3 23526)" width="436.4" height="12666.2"/>
   <path class="fil22" d="M26246.3 14610.3c1266.1,-939.5 3372.9,-245.2 4705.7,1550.8l-4585.1 3402.4c-1332.8,-1796 -1386.7,-4013.6 -120.6,-4953.2z"/>
   <circle class="fil21" cx="17852" cy="23723" r="832"/>
   <path class="fil19" d="M27718.1 14576.3c819.8,161.8 1530.9,496.6 1840.6,1326.3 239.4,641.4 -1792,1716.8 -2425.1,2769.1l3365.7 -2497.5c-703.9,-918.4 -1574.4,-1600.5 -2759.2,-1730.3 -418.6,-45.9 -599.6,18.5 -22,132.4z"/>
   <path class="fil21" d="M25528.7 13643.3c505.2,-374.9 1326.1,-124.4 1833.5,559.4l-1829.5 1357.6c-507.4,-683.9 -509.2,-1542.1 -4,-1917z"/>
   <circle class="fil21" cx="22426" cy="35534.5" r="832"/>
   <path class="fil22" d="M26508.1 36887.6c0,-562 -1836.6,-1370.4 -4102.2,-1370.4 -2265.6,0 -4102.3,784.1 -4102.3,1370.4l8204.5 0z"/>
   <path class="fil19" d="M23108.7 35615.7c1256,370.9 1293.5,673.8 1032.3,846.5 -188.8,124.8 -547.4,131.7 -637.5,325.3l2323.1 0c-152.2,-428.9 -1241.1,-956.5 -2717.9,-1171.8z"/>
   <path class="fil19" d="M26984.2 14483.2c-205.8,-316 -433.7,-503.4 -605.7,-639.1 -193.5,-152.8 -128.4,-176.7 89.8,-118.6 280.9,74.7 553.6,348.7 727.6,600.6l-211.7 157.1z"/>
  </g>
  <rect class="fil15" x="10930.8" y="59217.7" width="2086.8" height="1022.6" rx="1131.3" ry="38.6"/>
  <rect class="fil15" x="20612.3" y="59217.7" width="2086.8" height="1022.6" rx="1131.3" ry="38.6"/>
  <rect class="fil15" x="10296.2" y="45859" width="13037.6" height="11204.5"/>
  <polygon class="fil29" points="12696.3,43327.7 21075.6,43327.7 21233.7,42315.2 12608.5,42034 "/>
  <rect class="fil15" x="51549.8" y="38507.6" width="1824.1" height="21722.9"/>
  <rect class="fil15" x="22871.7" y="38507.6" width="721.8" height="4697.4"/>
  <rect class="fil8" x="32746.1" y="33621.4" width="3450" height="3266.2"/>
  <path class="fil30" d="M48919.5 36887.6l-1704.1 0c-252,-598.3 -391.8,-1276.4 -391.8,-2062.5l2487.6 0c0,786.1 -139.8,1464.2 -391.7,2062.5z"/>
  <path class="fil31" d="M48627.9 34825.1l-1036.3 0c-518.4,-777.6 -858.9,-1884.4 -858.9,-2836.8 0,-1256.8 524.2,-2189.3 1318.6,-2189.3 794.4,0 1536.9,721.5 1472.5,2136.9 -51.2,1124.9 -375.1,1993.8 -895.9,2889.2z"/>
  <path class="fil32" d="M48627.9 34825.1l-421.2 0c1117.8,-2296.1 654,-4430.6 -62.3,-5022.7 758.2,54.4 1441.3,773.6 1379.4,2133.5 -51.2,1124.9 -375.1,1993.8 -895.9,2889.2z"/>
  <path class="fil32" d="M48051.3 29799c-655.1,664.9 -1081.5,3111.1 -210.2,5026.1l150 0 60.2 -5026.1z"/>
  <g id="_2777898712880">
   <line class="fil0 str5" x1="46425.4" y1="30305.1" x2="46995.7" y2= "30611.7" />
   <line class="fil0 str5" x1="46200.4" y1="31205.1" x2="46778.2" y2= "31369.7" />
   <line class="fil0 str5" x1="46012.9" y1="32095.7" x2="46737.5" y2= "32187.9" />
   <line class="fil0 str5" x1="46059.8" y1="32976.9" x2="46813.7" y2= "32839.2" />
   <line class="fil0 str5" x1="46397.3" y1="33792.6" x2="46989.5" y2= "33542.3" />
   <line class="fil0 str5" x1="46903.6" y1="34289.4" x2="47220.2" y2= "34147.1" />
   <line class="fil0 str5" x1="49612.9" y1="30014.4" x2="49133.1" y2= "30367.8" />
   <line class="fil0 str5" x1="49912.9" y1="30755.1" x2="49426.3" y2= "30982.5" />
   <line class="fil0 str5" x1="50053.6" y1="31476.9" x2="49518.6" y2= "31517" />
   <line class="fil0 str5" x1="50156.7" y1="32105.1" x2="49516.8" y2= "32063.5" />
   <line class="fil0 str5" x1="50016.1" y1="32883.2" x2="49428.6" y2= "32773.2" />
   <line class="fil0 str5" x1="49697.3" y1="33680" x2="49233" y2= "33523.9" />
   <line class="fil0 str5" x1="49303.6" y1="34280.1" x2="48989.1" y2= "34135.3" />
   <line class="fil0 str5" x1="47222.3" y1="30417.5" x2="47552.7" y2= "30642.6" />
   <line class="fil0 str5" x1="46969.2" y1="31083.2" x2="47423.5" y2= "31169" />
   <line class="fil0 str5" x1="46875.4" y1="31805" x2="47336.8" y2= "31839" />
   <line class="fil0 str5" x1="46866.1" y1="32498.8" x2="47321.6" y2= "32486.9" />
   <line class="fil0 str5" x1="47006.7" y1="33248.8" x2="47379" y2= "33198" />
   <line class="fil0 str5" x1="47250.4" y1="33970.7" x2="47516.7" y2= "33902.1" />
   <line class="fil0 str5" x1="48975.4" y1="30323.8" x2="48616.7" y2= "30543.5" />
   <line class="fil0 str5" x1="49228.6" y1="30848.8" x2="48721.2" y2= "30944.8" />
   <line class="fil0 str5" x1="49275.4" y1="31448.8" x2="48784.3" y2= "31476.7" />
   <line class="fil0 str5" x1="49284.8" y1="32105.1" x2="48785.1" y2= "32080.6" />
   <line class="fil0 str5" x1="49209.8" y1="32864.4" x2="48715" y2= "32793" />
   <line class="fil0 str5" x1="49078.6" y1="33539.4" x2="48598.7" y2= "33436" />
   <line class="fil0 str5" x1="48797.3" y1="33998.8" x2="48483.5" y2= "33916.2" />
   <line class="fil0 str5" x1="48628.6" y1="34401.9" x2="48368.6" y2= "34323.7" />
  </g>
  <g id="_2777893575296">
   <path class="fil4" d="M48748.1 28643.2c-160,42.7 -346.8,175.5 -488.8,359.5 88.7,229.6 111.9,463 23.9,728.8 162.8,-287.4 297.2,-394.7 494,-500.7 18.9,-155 10.5,-346.9 -29.1,-587.6z"/>
   <path class="fil26" d="M47897.6 28501.9c290.7,194.6 608.9,843.4 346.3,1311.4 -54.2,96.6 -176,88.7 -283.4,-3.3 -329.8,-282.7 -443.5,-598.8 -62.9,-1308.1z"/>
   <path class="fil26" d="M48743.8 29837.5c429.3,-156 815,-562.6 990.2,-882.6 -581.3,121.9 -1207.1,191.6 -1498.9,878.6 275.8,106.3 505.1,5.3 508.7,4z"/>
   <path class="fil26" d="M46543.5 29140.7c0,0 206.1,494.3 770.7,672.8 331.7,104.9 499.7,94.2 651.2,-4.4 -432.5,-516.3 -738.3,-576.1 -1421.9,-668.4z"/>
   <path class="fil4" d="M46805.4 28749.3c0,0 20.7,219.1 163.6,465.3 382.9,84.7 607.6,195.6 761.5,323.9 -39.8,-75.7 -64.4,-158.5 -70.4,-252.7 -166.9,-164.1 -427.7,-338.1 -854.7,-536.5z"/>
  </g>
  <g id="_2777893575808">
   <path class="fil4" d="M17121.1 36887.6l1711.7 0c463.5,-100.6 951,-560.9 951,-1213 0,-580.6 0,-1382.4 0,-2536.5l-3613.6 0c0,1154.1 0,1955.9 0,2536.5 0,652.1 487.5,1112.4 950.9,1213z"/>
   <path class="fil4" d="M16170.2 35324.3l19.3 572.1c-316.2,-210 -711.9,-299.1 -997.5,-584.7 -353.5,-353.5 -417.9,-963.7 -131.1,-1298.4 222.4,-259.8 773,-386.1 1109.3,102.9l0 386.7c-370.8,-553.4 -748.6,-421 -886,-260.6 -177.1,206.8 -121.1,608.9 108.2,856.6 254.6,274.9 594.5,383.6 777.8,225.4z"/>
  </g>
  <path class="fil15" d="M26958.3 36234.1l19387.5 0c201.4,155.8 325.9,348.6 372.7,653.5l-20041.5 0c0,-360.4 72.7,-470.5 281.3,-653.5z"/>
  <rect class="fil15" x="10035.7" y="38507.6" width="43337.6" height="670.7"/>
  <rect class="fil3" x="10036.3" y="36887.6" width="45161.7" height="1620"/>
  <polygon class="fil27" points="12411.7,43065.2 21355.5,43065.2 21524.2,42052.7 12318,41771.5 "/>
  <polygon class="fil22" points="11894.2,40956.7 21578.2,41108.3 21861.8,42142.7 11869.2,41828.3 "/>
  <polygon class="fil15" points="21161,41115.3 12379.9,40971.8 12190.9,40234 21068.1,40109.5 "/>
  <g id="_2777893572928">
   <rect class="fil7" x="10036.5" y="48812.9" width="13557.2" height="5307.9"/>
   <rect class="fil7" x="10036.5" y="43205" width="13557.2" height="5307.9"/>
   <rect class="fil7" x="10036.5" y="54409.6" width="13557.2" height="5307.9"/>
  </g>
  <g id="_2777893565920">
   <path class="fil7" d="M86342.3 50050.5c-3892.8,-405.5 -7870.4,-425.7 -11922.3,-108.4l683 10952.1 11221.1 108.4c6.1,-3650.7 12.1,-7301.4 18.2,-10952.1z"/>
   <polygon class="fil33" points="86342.3,50050.5 86324.1,61002.6 87843.4,60352.1 88240.3,49710.3 "/>
   <path class="fil13" d="M78026.9 49562.6l-3606.9 379.5 11922.3 108.4c632.6,-113.4 1265.3,-226.8 1898,-340.2 -3879.3,-509.1 -7229.9,-506.1 -10213.4,-147.7z"/>
   <polygon class="fil15" points="86338,52610.7 88000,52315.9 86337.7,52764.1 82312.4,52667.5 "/>
   <polygon class="fil15" points="86327.9,58696.9 87566.2,58402.1 86328.6,58850.3 79248.9,58753.7 "/>
   <polygon class="fil15" points="84541.4,55393.3 77105.8,55349.8 81755.9,55262.4 "/>
   <polygon class="fil15" points="79645.8,58125.8 75908.1,58169.3 78249.4,58256.7 "/>
   <polygon class="fil8" points="74716.9,54703 78443.9,54613.5 74708.1,54560.8 "/>
   <polygon class="fil14" points="86151.8,54864 81106.4,54820.5 84261,54733.1 "/>
   <path class="fil14" d="M79585.8 52197.7c-1408.8,13.3 -2817.7,26.5 -4226.5,39.9 64,386.9 236.8,992.4 373.3,1368.9 1150.6,-665.1 2484.5,-1239.5 3853.2,-1408.8z"/>
   <path class="fil13" d="M79587.3 52260.7c-1512.9,13.3 -3025.9,26.5 -4538.8,39.8 146,376.4 292,753 438,1129.4 1236.7,-665.1 2630.6,-999.9 4100.8,-1169.2z"/>
   <path class="fil14" d="M82396 59052l3615.8 34.1 -866.9 1226.8c-1009.4,-568.7 -1534.5,-797.4 -2748.9,-1260.9z"/>
   <path class="fil13" d="M82333.5 59077.5c1294.3,11.4 2588.6,22.7 3882.9,34.1 -110.5,321.9 -220.9,643.8 -331.4,965.7 -1083,-568.7 -2287.9,-855 -3551.5,-999.8z"/>
  </g>
  <rect class="fil34" x="32746.1" y="33564.7" width="3450" height="1038.2"/>
  <rect class="fil22" x="24121.1" y="19921.4" width="20700" height="13700" rx="283.5" ry="283.5"/>
  <rect class="fil13" x="24871.1" y="20696.4" width="19200" height="12150"/>
  <rect class="fil35" x="24871.1" y="20696.4" width="19200" height="1100"/>
  <rect class="fil35" x="24871.1" y="21796.4" width="1100.4" height="9750"/>
  <rect class="fil35" x="24871.1" y="31546.5" width="19200" height="1299.9"/>
  <rect class="fil35" x="43258.6" y="21796.4" width="812.6" height="9750"/>
  <g id="_2777893556800">
   <rect class="fil22" x="43417.6" y="22310.8" width="494.5" height="494.5"/>
   <rect class="fil22" x="43417.6" y="22996.4" width="494.5" height="494.5"/>
   <rect class="fil22" x="43417.6" y="23682" width="494.5" height="494.5"/>
   <rect class="fil22" x="43417.6" y="24367.5" width="494.5" height="494.5"/>
   <rect class="fil22" x="43417.6" y="25053.1" width="494.5" height="494.5"/>
   <rect class="fil22" x="43417.6" y="25738.7" width="494.5" height="494.5"/>
   <rect class="fil22" x="43417.6" y="26424.2" width="494.5" height="494.5"/>
   <rect class="fil22" x="43417.6" y="27109.8" width="494.5" height="494.5"/>
   <rect class="fil22" x="43417.6" y="27795.4" width="494.5" height="494.5"/>
   <rect class="fil22" x="43417.6" y="28480.9" width="494.5" height="494.5"/>
   <rect class="fil22" x="43417.6" y="29166.5" width="494.5" height="494.5"/>
   <rect class="fil22" x="43417.6" y="29852.1" width="494.5" height="494.5"/>
   <rect class="fil22" x="43417.6" y="30537.6" width="494.5" height="494.5"/>
  </g>
  <g id="_2777893554048">
   <rect class="fil13" x="25338.2" y="21161.1" width="1900" height="350"/>
   <rect class="fil13" x="27588.2" y="21161.1" width="1900" height="350"/>
   <rect class="fil13" x="29838.2" y="21161.1" width="950" height="350"/>
   <rect class="fil13" x="31138.3" y="21161.1" width="1900" height="350"/>
   <rect class="fil13" x="33388.3" y="21161.1" width="1900" height="350"/>
   <rect class="fil13" x="35638.3" y="21161.1" width="950" height="350"/>
   <rect class="fil13" x="36938.2" y="21161.1" width="950" height="350"/>
   <rect class="fil13" x="38238.3" y="21161.1" width="574.9" height="350"/>
  </g>
  <path class="fil36 str6" d="M25669.9 23024.8l-150.3 -260.4 180.3 -104.1 -557.3 -388.2 57.5 676.8 180.4 -104.1 150.3 260.3 139.1 -80.3zm-75.1 -130.2m15 -182.2m-188.5 -246.2m-249.9 144.3m118.9 286.4m165.4 78m144.7 90.1"/>
  <path class="fil0 str6" d="M25122.7 23890c101.1,-303.6 374.8,-228.4 221.6,140 -197.8,476.1 375.5,423.7 375.5,118.2"/>
  <g id="_2777893551744">
   <polyline class="fil0 str6" points="25127.6,25732.1 25421.3,25077 25715,25732.1 "/>
   <line class="fil0 str6" x1="25252.9" y1="25448.3" x2="25589.7" y2= "25448.3" />
  </g>
  <rect class="fil0 str6" x="25113.4" y="26448.6" width="615.7" height="615.7"/>
  <g id="_2777893552032">
   <line class="fil0 str6" x1="25397.9" y1="27637.4" x2="25397.9" y2= "28387.4" />
   <line class="fil0 str6" x1="25022.8" y1="28012.5" x2="25772.9" y2= "28012.5" />
  </g>
  <rect class="fil7" x="31866.4" y="23093.3" width="5312.8" height="7356.3"/>
  <g id="_2777893549856">
   <rect class="fil27" transform="matrix(0.997247 0.0741549 -0.0741549 0.997247 44515.5 26100.2)" width="2400" height="2400"/>
   <path class="fil37" d="M45691.2 26187.7l1217.8 90.5 -178 2393.5 -496.8 -37c276,-1001.8 -294.6,-1933.3 -543,-2447z"/>
  </g>
  <g id="_2777893616992">
   <rect class="fil22" x="32829.8" y="28637.8" width="3386.2" height="240.2"/>
   <rect class="fil22" x="32829.8" y="29341.5" width="3386.2" height="240.2"/>
  </g>
  <g id="_2777893616640">
   <rect class="fil26" transform="matrix(0.975845 -0.218465 0.218465 0.975845 44191 23216.5)" width="2400" height="2400"/>
   <path class="fil4" d="M45013 23032.5c315.8,674.6 948.7,1716.6 2006.3,1831.8l-486.3 -2172.1 -1520 340.3z"/>
  </g>
  <g id="_2777893614624">
   <polygon class="fil3" points="36792.8,24511.7 33333.1,26847.8 33806.1,27912.4 "/>
   <polygon class="fil4" points="36792.8,24511.7 34013.1,26936.5 33806.1,27912.4 "/>
   <polygon class="fil2" points="33333.1,26847.8 32386.7,26493 36792.8,24511.7 "/>
   <polygon class="fil2" points="35403,27468.8 34013.1,26936.5 36792.8,24511.7 "/>
  </g>
  <rect class="fil22" x="32829.8" y="24153.1" width="1405.8" height="240.2"/>
  <g id="_2777893613536">
   <polygon class="fil19" points="15644.6,54109.5 17398.5,48812.9 10036.3,48812.9 10036.3,54109.5 "/>
   <polygon class="fil19" points="13791.6,59717.4 15545.5,54409.5 10036.3,54409.5 10036.3,59717.4 "/>
   <polygon class="fil19" points="17494,48512.9 19247.9,43205 10036.3,43205 10036.3,48512.9 "/>
  </g>
  <rect class="fil15" x="13700.6" y="51205.4" width="6228.6" height="522.9" rx="3376.7" ry="19.7"/>
  <rect class="fil15" x="13700.6" y="45597.5" width="6228.6" height="522.9" rx="3376.7" ry="19.7"/>
  <rect class="fil15" x="13700.6" y="56802.1" width="6228.6" height="522.9" rx="3376.7" ry="19.7"/>
  <path class="fil0 str7" d="M37110.1 13603.4c-1810.6,1595.9 -3058.8,3814.9 -3409,6321.6"/>
  <g id="_2777893607104">
   <circle class="fil27" cx="34838.4" cy="16458.6" r="543.7"/>
   <line class="fil0 str8" x1="33282.1" y1="16462" x2="34069.6" y2= "16462" />
   <line class="fil0 str8" x1="33489" y1="15683.4" x2="34170.9" y2= "16077.1" />
   <line class="fil0 str8" x1="34057.4" y1="15112.5" x2="34451.1" y2= "15794.5" />
   <line class="fil0 str8" x1="34835.1" y1="14902.3" x2="34835.1" y2= "15689.8" />
   <line class="fil0 str8" x1="35613.7" y1="15109.2" x2="35219.9" y2= "15791.2" />
   <line class="fil0 str8" x1="36184.5" y1="15677.6" x2="35502.6" y2= "16071.3" />
   <line class="fil0 str8" x1="36394.7" y1="16455.3" x2="35607.2" y2= "16455.3" />
   <line class="fil0 str8" x1="36187.9" y1="17233.9" x2="35505.9" y2= "16840.2" />
   <line class="fil0 str8" x1="35619.5" y1="17804.8" x2="35225.7" y2= "17122.8" />
   <line class="fil0 str8" x1="34841.8" y1="18014.9" x2="34841.8" y2= "17227.4" />
   <line class="fil0 str8" x1="34063.2" y1="17808.1" x2="34456.9" y2= "17126.1" />
   <line class="fil0 str8" x1="33492.3" y1="17239.7" x2="34174.3" y2= "16845.9" />
  </g>
  <g id="_2777893595104">
   <g>
    <g>
     <path class="fil32" d="M48928 50386.1c-554.5,1056.9 -1318.6,1694.4 -2049.3,1859.9 -1281.4,-784.1 -1932.3,-1900.3 -1535.6,-3481.3 796.8,-3175.9 2565.9,-5226.5 4967.4,-6562.3 -519,1389.5 -448.1,2402.1 -506.3,3947.2 -60.8,1616.9 -275.6,3091.9 -876.2,4236.5z"/>
     <path class="fil28" d="M47127 44921.3c549.5,-728.1 1188.4,-1353.6 1904.3,-1891.5 97,823.3 -425.3,1617.2 -1255.3,1842.4 -218.1,59.1 -437.7,73.5 -649,49.1z"/>
     <path class="fil28" d="M48928 50386.1c-554.5,1056.9 -1318.6,1694.4 -2049.3,1859.9l-46.3 -28.7c-474.2,-3103.1 1821.8,-8266.6 3478.1,-10014.9 -519,1389.5 -448.1,2402.1 -506.3,3947.2 -60.8,1616.9 -275.6,3091.9 -876.2,4236.5z"/>
     <path class="fil32" d="M50310.5 42202.4c-519,1389.5 -448.1,2402.1 -506.3,3947.2 -53.4,1419.2 -225.4,2729 -672.8,3802.2 298.8,-807.8 374.7,-1945.7 268,-2685.6 -317.4,-2202.6 -57.9,-2984.7 911.1,-5063.8z"/>
     <polygon class="fil28" points="47722.6,46834.1 47628.1,47093.8 46864.6,46173.7 "/>
     <polygon class="fil28" points="45567.6,48524.8 45702.5,48122.3 46911.1,49505.5 "/>
     <polygon class="fil28" points="46776.5,50996.3 46769.2,51323.2 46005.7,50403 "/>
     <polygon class="fil28" points="46822.1,45531.4 46946.2,45351.3 47829,46555 "/>
     <path class="fil32" d="M49372.2 48965.6c20.3,-197.8 40.7,-395.7 61.1,-593.5 -844,299.2 -1928.2,821.3 -2424.6,1402.6 580.8,-501.1 1535.9,-802.8 2363.5,-809.1z"/>
     <path class="fil32" d="M46929.5 50495.4c-10.2,140.6 -20.4,281.1 -30.5,421.6 276.9,-483.5 624.7,-834.3 1607.3,-1085.3 -756.5,65.7 -1301.9,365.8 -1576.8,663.7z"/>
    </g>
    <g>
     <path class="fil32" d="M43976.1 48875.3c-1261.4,-949.4 -2642,-1242.8 -3978.8,-1430.3 692.3,838.5 1289.4,1713 1649.2,2684.3 255.7,690.4 641.8,1377.2 1968.5,2502.5 702,1450.2 1126.3,1937.5 1365.5,1783 828.5,-245.3 1248.6,-1005.6 913.4,-2235.1 -432.1,-1585.1 -1123.8,-2706.8 -1917.8,-3304.4z"/>
     <path class="fil28" d="M39997.3 47445c692.3,838.5 1289.4,1713 1649.2,2684.3 255.7,690.4 641.8,1377.2 1968.5,2502.5 702,1450.2 1126.3,1937.5 1365.5,1783 1345.8,-2218.6 -2652.6,-6295.6 -4983.2,-6969.8z"/>
     <path class="fil32" d="M41224.9 49210.2c162.4,297.5 304.6,603.2 421.6,919.1 254.6,687.3 638.5,1371.2 1951.1,2487.7 106.9,-764.5 -270.1,-1591.9 -344.4,-1631.6 -1084.7,-580.7 -1364.9,-691.2 -2028.3,-1775.3l0 0.1z"/>
     <path class="fil32" d="M42819.1 51338.4c-56.1,-125.3 -112.2,-250.6 -168.4,-375.9 617.9,13.6 1441.5,121.2 1892.6,394.8 -489,-202.8 -1180.3,-193.8 -1724.2,-18.9z"/>
     <path class="fil32" d="M45136.1 52500c48.6,117.9 97.2,235.7 145.8,353.5 -375,-336.8 -773.3,-539.6 -1688.5,-476.6 668.5,-158 1222.1,-54.9 1542.7,123.1z"/>
     <polygon class="fil28" points="45434.2,51017.9 45275.9,50806.2 44831.3,51859.9 "/>
     <path class="fil28" d="M43240.5 48848c75.3,-74 150.6,-148.1 225.9,-222.1 155.8,449.2 298.9,1072.1 222.4,1470.7 15.3,-407 -176.4,-903.2 -448.3,-1248.6z"/>
    </g>
    <path class="fil0 str9" d="M46819.9 52129.8c107.1,886.2 -111,1437.1 -531,2213.9"/>
    <g>
     <path class="fil32" d="M46617 53930.7c859.6,-3434.6 2798.7,-3749.2 4383.9,-3352.1 -1136.6,766.4 -22.7,3803 -4383.9,3352.1z"/>
     <path class="fil28" d="M50148.4 50448.7c289.9,13.3 576.6,60.8 852.5,129.9 -388.3,51.8 -890.2,213.4 -1407.7,750.5 180.2,-451.9 407.8,-729.6 555.2,-880.4z"/>
     <path class="fil28" d="M48619.6 50771.9c253.7,-135.5 516,-223.5 781.2,-273.6 -261.8,164.5 -593.5,491.1 -896.6,1366 29.7,-386.4 51.5,-765.1 115.4,-1092.4z"/>
     <path class="fil28" d="M50124.4 52480.4c-373.4,898.8 -1120,1697.1 -3507.4,1450.3 674.8,-462.5 1399.4,-1238 2165.6,-1198.7 537.2,27.7 986.5,1.5 1341.8,-251.6z"/>
    </g>
   </g>
   <g>
    <rect class="fil10" x="43334.1" y="57595" width="5449.2" height="555.4"/>
    <rect class="fil14" x="43334.1" y="57595" width="5449.2" height="330.2"/>
    <path class="fil38" d="M49263.6 53917.2l-6409.9 0 0 3404c0,249.6 204.3,453.9 453.9,453.9l5502.1 0c249.6,0 453.9,-204.3 453.9,-453.9l0 -3404z"/>
    <polygon class="fil39" points="49263.6,53917.2 47807.5,53917.2 47807.5,57099.6 49263.6,55669.7 "/>
    <path class="fil10" d="M44309.7 53917.2l0 3081.6c0,249.5 206.4,422.7 453.9,453.8 774.6,97.6 1888,210.9 4019.6,210.9l-5115.4 0c-249.4,0 -453.9,-204.3 -453.9,-453.9l0 -3292.4 1095.8 0z"/>
   </g>
  </g>
  <g id="_2777893592832">
   <polygon class="fil2" points="94247.5,23633.3 91916.5,18807.2 92204,25021.3 "/>
   <polygon class="fil3" points="91916.5,18807.2 94247.5,23633.3 94772.3,24636.1 95569.6,23173.4 "/>
   <polygon class="fil2" points="91916.5,18807.2 95569.6,23173.4 96750,22998.3 "/>
  </g>
  <path class="fil0 str0" d="M94953 25420.3c205.3,4332.8 -2275.5,8337.7 -6157,10262.4"/>
  <rect class="fil15" x="10036.3" y="38507.6" width="721.8" height="4697.4"/>
  <path class="fil0 str0" d="M91325.1 32593c2844.2,-6596.4 -5168.3,-7908.1 -8671.2,-5193.4 -3503,2714.9 425.5,4369.1 2374.9,2849.6 2775.5,-2163.2 -861,-4771.4 -8878.6,1832.9"/>
  <g id="_2777893581632">
   <polygon class="fil40" points="75072.3,32859.2 70851.2,34930.6 76301.2,34644.3 "/>
   <polygon class="fil3" points="70851.2,34930.6 75072.3,32859.2 75949.2,32393.3 74661.6,31701.8 "/>
   <polygon class="fil2" points="70851.2,34930.6 74661.6,31701.8 74501.5,30667.3 "/>
  </g>
  <g id="_2777893579968">
   <polygon class="fil3" points="50141.4,1697.1 58012.3,1123.7 57815.5,3545.9 "/>
   <polygon class="fil4" points="50141.4,1697.1 56680.1,2399.8 57815.5,3545.9 "/>
   <polygon class="fil2" points="58012.3,1123.7 59467.4,135.2 50141.4,1697.1 "/>
   <polygon class="fil2" points="55265.4,4128.1 56680.1,2399.8 50141.4,1697.1 "/>
  </g>
 </g>
</svg>
