<?xml version="1.0" encoding="UTF-8"?>
<!DOCTYPE svg PUBLIC "-//W3C//DTD SVG 1.1//EN" "http://www.w3.org/Graphics/SVG/1.1/DTD/svg11.dtd">
<!-- Creator: CorelDRAW 2018 (64-Bit) -->
<svg xmlns="http://www.w3.org/2000/svg" xml:space="preserve" width="302px" height="265px" version="1.1" style="shape-rendering:geometricPrecision; text-rendering:geometricPrecision; image-rendering:optimizeQuality; fill-rule:evenodd; clip-rule:evenodd"
viewBox="0 0 30200 26506.8"
 xmlns:xlink="http://www.w3.org/1999/xlink">
 <defs>
  <style type="text/css">
   <![CDATA[
    .str1 {stroke:#A3C4E0;stroke-width:100.1;stroke-miterlimit:22.9256}
    .str0 {stroke:#A3C4E0;stroke-width:100.1;stroke-linecap:round;stroke-miterlimit:22.9256}
    .fil0 {fill:none}
   ]]>
  </style>
 </defs>
 <g id="Layer_x0020_1">
  <metadata id="CorelCorpID_0Corel-Layer"/>
  <path class="fil0 str0" d="M8763.2 13153.1l-3213 -257m-646.6 -51.7l-3152.4 -252.3"/>
  <path class="fil0 str0" d="M19687.4 9326.3l2352.2 -2203.8m473.4 -443.5l2307.8 -2162.3"/>
  <path class="fil0 str0" d="M19697.6 17972.9l2355.4 2200.3m474.1 442.8l2311 2158.9"/>
  <path class="fil0 str0" d="M5902.7 5970.3l1431.4 1201.6m545.2 457.7l2338.9 1963.4"/>
  <path class="fil0 str0" d="M17045.9 24946.6l-404.6 -2316.7m-100.1 -573.4l-378.5 -2167.5"/>
  <path class="fil0 str0" d="M9352 26257.9l706.4 -1555.9m269.1 -592.6l706.4 -1555.8m269.1 -592.7l1154.3 -2542.2"/>
  <line class="fil0 str0" x1="5725.1" y1="10017.1" x2="9175.2" y2= "11360.9" />
  <line class="fil0 str0" x1="23037.9" y1="17833" x2="20674.7" y2= "16592.9" />
  <path class="fil0 str0" d="M21799.8 26456.8l-870.3 -1656.4m-302.7 -576.1l-1167.9 -2222.6m-302.7 -576.2l-1140.7 -2170.8"/>
  <path class="fil0 str0" d="M4809 23849.3l1327.2 -1318.8m461.6 -458.8l1780.9 -1769.7m461.6 -458.7l1739.5 -1728.5"/>
  <path class="fil0 str0" d="M13530.7 1624.1l251.6 1964.9m129.4 1011.3l355.8 2779.3"/>
  <path class="fil0 str0" d="M13091.4 24181.2l276.7 -1470.8m142.5 -757.1l391.4 -2080.5"/>
  <path class="fil0 str0" d="M18371.3 50.1l-232.1 957.1m-137.6 567.4l-346.4 1428.5m-137.6 567.3l-485.7 2002.9m-137.6 567.3l-331.3 1366.2"/>
  <path class="fil0 str0" d="M25452.1 8201.1l-1953.2 1026.7m-779.3 409.6l-2046.5 1075.8"/>
  <path class="fil0 str0" d="M28453.8 12391.8l-1444.1 136.6m-668.8 63.3l-2404.3 227.4m-668.8 63.3l-1895.8 179.3"/>
  <path class="fil0 str0" d="M8033.4 2025.1l829.9 1370.8m347.9 574.6l1250.8 2065.9m347.9 574.7l986.2 1628.9"/>
  <path class="fil0 str0" d="M27268 16566.4l-3521.1 -839.7m-633.1 -150.9l-1886.6 -449.9"/>
  <path class="fil0 str0" d="M3219.4 20166.3l3674.9 -2018.1m660.7 -362.8l1969.1 -1081.3"/>
  <path class="fil0 str0" d="M3945.4 16788.4l1612.9 -453.8m556 -156.5l2864.1 -805.8"/>
  <path class="fil0 str0" d="M21371.9 3326.3l-962.9 1577.9m-332.1 544l-1710 2801.9"/>
  <path class="fil0 str0" d="M902.2 13369.3c470.7,0 852.2,-381.5 852.2,-852.2 0,-470.6 -381.5,-852.2 -852.2,-852.2 -470.6,0 -852.1,381.6 -852.1,852.2 0,470.7 381.5,852.2 852.1,852.2z"/>
  <path class="fil0 str0" d="M24817.1 3365.8c-316.7,348.1 -291.2,887.1 57,1203.8 348.2,316.7 887.1,291.2 1203.8,-56.9 316.7,-348.2 291.2,-887.2 -57,-1203.8 -348.1,-316.8 -887.1,-291.2 -1203.8,56.9z"/>
  <path class="fil0 str0" d="M25986.2 22694.6c-368.4,-292.8 -904.5,-231.4 -1197.4,137 -292.8,368.5 -231.5,904.6 137,1197.4 368.4,292.8 904.5,231.5 1197.3,-137 292.9,-368.4 231.5,-904.5 -136.9,-1197.4z"/>
  <path class="fil0 str0" d="M29211.9 13119.7c468.2,47.4 886.2,-293.8 933.6,-762.1 47.4,-468.2 -293.8,-886.2 -762,-933.6 -468.3,-47.4 -886.3,293.8 -933.6,762.1 -47.4,468.2 293.8,886.2 762,933.6z"/>
  <path class="fil0 str0" d="M8370.1 1015.9c-161,-442.2 -650.1,-670.1 -1092.3,-509.1 -442.3,161.1 -670.2,650.1 -509.2,1092.3 161,442.3 650.1,670.2 1092.4,509.2 442.2,-161.1 670.2,-650.2 509.1,-1092.4z"/>
  <path class="fil0 str1" d="M15071.4 19980.8c3493.6,0 6325.8,-2832.1 6325.8,-6325.7 0,-3493.7 -2832.2,-6325.8 -6325.8,-6325.8 -3493.6,0 -6325.8,2832.1 -6325.8,6325.8 0,3493.6 2832.2,6325.7 6325.8,6325.7z"/>
  <path class="fil0 str0" d="M3410.3 24114.3c-181.2,434.4 24,933.4 458.3,1114.6 434.4,181.2 933.5,-24 1114.7,-458.3 181.2,-434.4 -24,-933.4 -458.4,-1114.6 -434.4,-181.2 -933.4,24 -1114.6,458.3z"/>
 </g>
</svg>
