<?xml version="1.0" encoding="UTF-8"?>
<!DOCTYPE svg PUBLIC "-//W3C//DTD SVG 1.1//EN" "http://www.w3.org/Graphics/SVG/1.1/DTD/svg11.dtd">
<!-- Creator: CorelDRAW 2018 (64-Bit) -->
<svg xmlns="http://www.w3.org/2000/svg" xml:space="preserve" width="35px" height="35px" version="1.1" style="shape-rendering:geometricPrecision; text-rendering:geometricPrecision; image-rendering:optimizeQuality; fill-rule:evenodd; clip-rule:evenodd"
viewBox="0 0 3500 3500"
 xmlns:xlink="http://www.w3.org/1999/xlink">
 <defs>
  <style type="text/css">
   <![CDATA[
    .fil0 {fill:#7EA3CB}
   ]]>
  </style>
 </defs>
 <g id="Layer_x0020_1">
  <metadata id="CorelCorpID_0Corel-Layer"/>
  <path class="fil0" d="M1916.8 2680.1c207.9,-333.5 528,-803.8 689.5,-1139.3 59.9,-124.5 93.6,-264 93.6,-411.4 0,-524.6 -425.3,-949.9 -949.9,-949.9 -524.6,0 -949.9,425.3 -949.9,949.9 0,147.7 33.9,287.6 94.1,412.3 171.5,355.4 476.2,800.3 689,1138.4 75.2,124.9 258.4,124.9 333.6,0zm569.3 -528.8c541.8,101.2 913.9,310.5 913.9,552.2 0,340.7 -738.7,617 -1650,617 -911.3,0 -1650,-276.3 -1650,-617 0,-241.4 371.2,-450.4 911.9,-551.8 40.8,65.7 82.3,131.4 123.8,196.5 -166.5,25.2 -316.3,60.4 -442.6,103.2 -222.5,75.6 -360.3,161.8 -360.3,240.5 0,78.7 137.8,164.8 360.3,240.4 268,91 641.5,147.3 1056.9,147.3 415.4,0 788.9,-56.3 1056.9,-147.3 222.5,-75.6 360.3,-161.7 360.3,-240.4 0,-78.7 -137.8,-164.9 -360.3,-240.5 -126.9,-43 -277.3,-78.3 -444.7,-103.5 41.5,-65.2 83,-130.9 123.9,-196.6zm-736.1 -608.9c228.1,0 413,-185 413,-413 0,-228.1 -184.9,-413 -413,-413 -228.1,0 -413,184.9 -413,413 0,228 184.9,413 413,413z"/>
 </g>
</svg>
