<?xml version="1.0" encoding="UTF-8"?>
<!DOCTYPE svg PUBLIC "-//W3C//DTD SVG 1.1//EN" "http://www.w3.org/Graphics/SVG/1.1/DTD/svg11.dtd">
<!-- Creator: CorelDRAW 2018 (64-Bit) -->
<svg xmlns="http://www.w3.org/2000/svg" xml:space="preserve" width="255px" height="65px" version="1.1" style="shape-rendering:geometricPrecision; text-rendering:geometricPrecision; image-rendering:optimizeQuality; fill-rule:evenodd; clip-rule:evenodd"
viewBox="0 0 25500 6500"
 xmlns:xlink="http://www.w3.org/1999/xlink">
 <defs>
  <style type="text/css">
   <![CDATA[
    .str0 {stroke:#A4CFFD;stroke-width:200;stroke-miterlimit:22.9256}
    .fil0 {fill:none}
   ]]>
  </style>
 </defs>
 <g id="Layer_x0020_1">
  <metadata id="CorelCorpID_0Corel-Layer"/>
  <path class="fil0 str0" d="M7779.9 4351.2l-442.8 1893.6 2059.1 0c188.8,-795 387.8,-1615.3 566.6,-2384.7 120,-515.8 -42.1,-863.1 -526.7,-1085.5l1731.9 -2426.2 -2186.8 0 -1260.9 1875.6 494.8 -1875.6 -2123 0 -198.2 804.7c218.4,483.5 232.8,1138.2 38.5,1924.8l-782.2 3166.9 1548.5 0c186.2,-739.1 306.9,-1295.9 500.2,-1995.5 68.5,-247.8 136,-463.2 382,-463.2 298,0 242.8,377.6 199,565.1zm-4664.6 -1576.5c300.6,0 601.1,0 901.7,0 257.7,-844.7 -696,-803 -862,-143.7l-909.8 3613.8 -1995.2 0c265.9,-1199.3 561.2,-2404.5 852.3,-3597.8 272.2,-1115.7 1317,-2426.3 3058.3,-2426.3 1599.4,0 2205.8,1099.8 1771.8,2857.2l-782.2 3166.9 -2043.1 0 447 -1810.1 -854 0m14753.7 1377.6l-140.4 432.5 2059.1 0 994 -3103.2c-16,883.2 -59.4,1730.2 -47.9,2613.5 4.4,335.8 222.7,590.6 590.6,590.6 332.4,0 618.2,-194.6 832.7,-550.5 493.9,-819.6 902.9,-1775.2 1290.3,-2765.4l-499.2 3215 1915.4 0c262.2,-1614.4 539.2,-3226.4 786.5,-4843.1 108,-705.5 -375.3,-1181.3 -1117.3,-1181.3 -490.9,0 -1148.6,199 -1558.3,999.4l-804.1 1570.6c0,-675.8 -6.1,-992.4 0,-1668 7,-774 -586.4,-908.3 -1005.6,-902 -567,8.4 -1130.2,353.2 -1553.9,888.6 418,555.3 558.5,1325.2 321.8,2176.2 -291.9,1048.9 -1088.4,1974.7 -2063.7,2527.1zm-5230.7 -3025.9c1078.1,7.6 1003.5,-732.4 570.1,-708.4 -196.8,10.9 -425.9,180.8 -493.7,428.9l-1021.6 3737.9 -1881.7 0m583.4 -2883.5c457.2,-1725.5 1209.3,-3152.9 3309.6,-3152.9 988.1,0 1787.4,819.3 1739.8,1771.8 -83.5,1671.1 -1381.6,2507 -3263.2,2479.4m3765.6 1890.3c1730.5,0 3515.2,-1372.1 3986.1,-3064.7 470.9,-1692.7 -550.4,-3064.8 -2281,-3064.8 -848.8,0 -1710.6,330.2 -2424,866.4 151.8,264.9 232.6,571.5 216.5,893.4 -61,1222 -771.8,1997.3 -1885.2,2315 94.2,1196.3 1018.9,2054.7 2387.6,2054.7zm550.6 -1979.4c612.9,0 1245,-485.9 1411.8,-1085.3 166.7,-599.6 -195,-1085.5 -807.9,-1085.5 -612.9,0 -1245,485.9 -1411.7,1085.5 -166.8,599.4 194.9,1085.3 807.8,1085.3z"/>
 </g>
</svg>
