<?xml version="1.0" encoding="UTF-8"?>
<!DOCTYPE svg PUBLIC "-//W3C//DTD SVG 1.1//EN" "http://www.w3.org/Graphics/SVG/1.1/DTD/svg11.dtd">
<!-- Creator: CorelDRAW 2018 (64-Bit) -->
<svg xmlns="http://www.w3.org/2000/svg" xml:space="preserve" width="35px" height="35px" version="1.1" style="shape-rendering:geometricPrecision; text-rendering:geometricPrecision; image-rendering:optimizeQuality; fill-rule:evenodd; clip-rule:evenodd"
viewBox="0 0 3500 3500"
 xmlns:xlink="http://www.w3.org/1999/xlink">
 <defs>
  <style type="text/css">
   <![CDATA[
    .fil0 {fill:#7EA3CB;fill-rule:nonzero}
   ]]>
  </style>
 </defs>
 <g id="Layer_x0020_1">
  <metadata id="CorelCorpID_0Corel-Layer"/>
  <path class="fil0" d="M3060.3 2973.3l-2630.7 0c-183.2,0 -329.6,-158.4 -329.6,-339.7l0 -1777.2c0,-177.5 152.3,-329.7 329.6,-329.7l2630.7 0c181.2,0 339.7,146.4 339.7,329.7l0 1777.2c0,187.4 -152.3,339.7 -339.7,339.7zm-2732.8 -2060.9l0 1664.3 836.6 -836.5 -836.6 -827.8zm2685.5 -158.2l-2526.5 0 1182.3 1182.4c41.4,41.4 111,41 152.4,-0.2l1191.8 -1182.2zm-677.4 985.8l836.8 836.7 0 -1673.5 -836.8 836.8zm688 1005.7l-846.9 -846.8 -196.6 196.6c-129.4,129.4 -340.9,129.4 -471,-0.7l-186.6 -195.2 -846.1 846.1 2547.2 0z"/>
 </g>
</svg>
