<?xml version="1.0" encoding="UTF-8"?>
<!DOCTYPE svg PUBLIC "-//W3C//DTD SVG 1.1//EN" "http://www.w3.org/Graphics/SVG/1.1/DTD/svg11.dtd">
<!-- Creator: CorelDRAW 2018 (64-Bit) -->
<svg xmlns="http://www.w3.org/2000/svg" xml:space="preserve" width="120px" height="130px" version="1.1" style="shape-rendering:geometricPrecision; text-rendering:geometricPrecision; image-rendering:optimizeQuality; fill-rule:evenodd; clip-rule:evenodd"
viewBox="0 0 12000 13000"
 xmlns:xlink="http://www.w3.org/1999/xlink">
 <defs>
  <style type="text/css">
   <![CDATA[
    .str0 {stroke:#A4CFFD;stroke-width:200;stroke-miterlimit:22.9256}
    .fil1 {fill:none}
    .fil0 {fill:#A4CFFD}
   ]]>
  </style>
 </defs>
 <g id="Layer_x0020_1">
  <metadata id="CorelCorpID_0Corel-Layer"/>
  <g id="_1393198651472">
   <circle class="fil0" transform="matrix(0.939693 -0.34202 0.34202 0.939693 4224.67 1177.25)" r="264"/>
   <g>
    <path class="fil1 str0" d="M423.3 2030.8l5277.4 -1920.8c248.1,-90.3 524.9,38.8 615.2,286.9l3624.1 9957c90.3,248.2 -38.8,525 -286.9,615.2l-5277.4 1920.9c-248.1,90.3 -524.9,-38.8 -615.2,-286.9l-3624 -9957c-90.4,-248.2 38.7,-525 286.8,-615.3z"/>
    <path class="fil1 str0" d="M1262.3 2785.4l4280.8 -1558c201.2,-73.3 425.7,31.4 499,232.7l2902.1 7973.5c73.3,201.3 -31.4,425.8 -232.7,499.1l-4280.7 1558.1c-201.3,73.2 -425.8,-31.5 -499,-232.7l-2902.2 -7973.6c-73.2,-201.3 31.5,-425.8 232.7,-499.1z"/>
    <path class="fil1 str0" d="M6010.1 11299l1368.3 -498c132.3,-48.2 279.9,20.7 328.1,153l21.9 60.2c48.1,132.3 -20.7,279.9 -153,328.1l-1368.2 498c-132.4,48.1 -280,-20.7 -328.2,-153l-21.8 -60.2c-48.2,-132.3 20.6,-279.9 152.9,-328.1z"/>
    <path class="fil1 str0" d="M9412 5983.2c342.8,-798.3 -26.4,-1723.3 -824.7,-2066.1m1904.9 2530c599.1,-1394.9 -46.1,-3011.3 -1440.9,-3610.3m2521.6 4074.3c855.3,-1991.6 -65.9,-4299.6 -2057.6,-5154.9"/>
   </g>
   <path class="fil0" d="M6426.9 8472.4c342.8,2.4 366.8,-58.7 577.8,-278.5 45.4,-47.4 103.8,-118.1 149.9,-158.5 53.7,-132.2 73.6,-185.7 90.2,-334.6 12.8,-115.2 -8,-137.7 -108.6,-184.6 -284,-132.6 -749,-271.1 -1065.4,-380.3 -68.9,-23.8 -142,-33.8 -195.3,61.8l-140.6 252.6c-87.6,157.4 -250.2,139.9 -380,100.7 -446.9,-134.7 -1176.7,-727 -1349.3,-1159 -65.1,-162.8 -47.7,-256 71.5,-375.8 40.3,-40.5 84.1,-57.2 124.3,-89 87.2,-69.1 199.8,-91.8 102.5,-274.1 -152.7,-286.2 -360.5,-637 -522.5,-925.2 -82.8,-147.2 -101.7,-183.1 -274.8,-118 -312.3,117.6 -267,122.7 -484.9,413.6 -60.7,81 -117.5,149 -117.8,263.5 -2.6,801.7 694.9,1770.3 1301.7,2275 593.4,493.6 1442.1,904.7 2221.3,910.4z"/>
  </g>
 </g>
</svg>
