<?xml version="1.0" encoding="UTF-8"?>
<!DOCTYPE svg PUBLIC "-//W3C//DTD SVG 1.1//EN" "http://www.w3.org/Graphics/SVG/1.1/DTD/svg11.dtd">
<!-- Creator: CorelDRAW 2018 (64-Bit) -->
<svg xmlns="http://www.w3.org/2000/svg" xml:space="preserve" width="35px" height="35px" version="1.1" style="shape-rendering:geometricPrecision; text-rendering:geometricPrecision; image-rendering:optimizeQuality; fill-rule:evenodd; clip-rule:evenodd"
viewBox="0 0 3500 3500"
 xmlns:xlink="http://www.w3.org/1999/xlink">
 <defs>
  <style type="text/css">
   <![CDATA[
    .fil0 {fill:#7EA3CB;fill-rule:nonzero}
   ]]>
  </style>
 </defs>
 <g id="Layer_x0020_1">
  <metadata id="CorelCorpID_0Corel-Layer"/>
  <path class="fil0" d="M416.6 547.4c83.2,-83.2 158.6,-122.5 225.1,-117.9 178.3,12.4 447.3,352 474.2,525.1 29.2,183.2 -88.4,285.4 -202,398.9 -134.4,134.5 0.5,404.4 404.9,808.9 418.4,418.3 694.8,559.7 830.2,424.3 113.8,-113.9 228.5,-242.1 408.1,-220.5 175.2,21 519.3,298.4 526.5,477.4 2.8,68.4 -42,148.4 -133.6,239.9 -155.4,155.4 -405.7,256.4 -613.8,314.3 -928,-421 -1819,-1305.6 -2236.2,-2236.1 54.8,-213.5 159.7,-457.3 316.6,-614.3zm1243 869.9c117.1,0 223.3,47.6 300.3,124.6l0.4 0.4c77,77 124.6,183.1 124.6,300.3l-199.7 0c0,-62.5 -25.2,-119 -65.9,-159.8 -40.8,-40.6 -97.2,-65.8 -159.7,-65.8l0 -199.7zm876.5 425.3l199.6 0c0,-297.2 -120.5,-566.2 -315.2,-761 -194.7,-194.7 -463.7,-315.2 -760.9,-315.2l0 199.7c242,0 461.2,98.1 619.8,256.7 158.5,158.6 256.7,377.8 256.7,619.8zm664.2 0l199.7 0c0,-480.6 -194.8,-915.7 -509.7,-1230.7 -315,-314.9 -750.1,-509.7 -1230.7,-509.7l0 199.6c425.5,0 810.7,172.5 1089.5,451.3 278.8,278.8 451.2,664 451.2,1089.5z"/>
 </g>
</svg>
